<svg viewBox="0 0 701 860" xmlns="http://www.w3.org/2000/svg">
<path id="outline" class="detail-outline" d="M515.185 194.646C515.163 194.637 515.141 194.628 515.12 194.619C514.9 194.527 514.671 194.432 514.435 194.333C511.41 193.068 505.56 189.881 501.435 187.249L493.935 182.464L467.435 155.286C435.98 123.026 427.453 113.817 420.083 104.142C413.476 95.4682 405.962 87.1032 407.289 89.8992C407.811 90.9992 410.975 95.4692 414.32 99.8322C417.666 104.195 420.24 107.926 420.042 108.124C419.646 108.521 399.826 95.3182 393.073 90.1592C388.381 86.5752 380.852 80.2062 374.39 74.3592L370.215 70.5802L371.99 67.7392C372.966 66.1772 375.929 62.9352 378.572 60.5342L383.38 56.1682L387.656 58.3712C395.105 62.2062 401.06 69.2762 398.286 70.9912C397.757 71.3182 394.902 69.2932 391.94 66.4922C388.83 63.5512 385.626 61.3992 384.359 61.3992H382.164L385.049 63.5912C386.636 64.7962 389.868 67.5252 392.232 69.6542C397.026 73.9752 400.72 74.4112 401.245 70.7192C401.733 67.2942 397.039 61.2682 390.481 56.8992C387.178 54.6992 384.216 52.1262 383.898 51.1822C383.005 48.5272 385.093 38.9962 387.685 33.8962L390.02 29.3022L396.477 34.1422C400.029 36.8042 407.66 42.9422 413.435 47.7832C426.931 59.0962 442.311 69.3202 454.935 75.3712C472.544 83.8112 485.946 87.1492 505.935 88.0712L517.935 88.6242L529.7 86.9752C536.17 86.0682 545.395 84.1912 550.2 82.8032C585.905 72.4932 611.896 54.1392 632.909 24.3992C638.671 16.2452 645.933 3.5642 645.239 2.8702C645.001 2.6322 642.16 6.5912 638.926 11.6682C630.682 24.6092 625.271 31.5482 615.495 41.7172C591.932 66.2292 561.947 80.5652 524.935 85.0152C510.333 86.7702 501.651 86.3962 486.107 83.3392C460.227 78.2512 441.018 67.6542 406.924 39.6572C403.067 36.4902 398.342 32.6192 396.424 31.0542L392.935 28.2092L396.265 28.7952C398.096 29.1172 401.021 30.0382 402.765 30.8412C419.162 38.3902 441.558 45.3332 459.435 48.4082L470.935 50.3862L487.112 50.3922C508.155 50.4012 522.444 48.5112 544.935 42.7432C569.678 36.3982 601.812 20.5142 616.435 7.4012C621.045 3.2672 619.145 4.2772 605.935 12.9852C579.102 30.6722 545.853 42.6132 511.593 46.8672C478.2 51.0132 448.398 46.6562 412.935 32.4452C401.434 27.8362 394.342 25.0452 393.737 24.8882C393.629 24.8602 394.754 20.9532 396.237 16.2052L398.935 7.57321L404.75 10.0282C412.894 13.4662 432.158 18.8682 443.435 20.8762C464.035 24.5452 498.116 23.8862 523.747 19.3212C541.647 16.1342 568.963 8.1412 578.685 3.2462C583.549 0.797204 583.549 -0.117794 578.685 2.02021C572.83 4.59421 544.758 13.0502 536.435 14.7482C513.371 19.4522 488.533 21.7952 470.198 20.9962C444.805 19.8902 427.665 16.5282 408.146 8.8272C401.98 6.3942 396.873 4.4022 396.796 4.4012C396.72 4.4002 396.344 6.0872 395.96 8.1492C394.799 14.3942 391.775 22.0872 389.103 25.5902C384.9 31.1012 382.301 38.4052 381.703 46.3992L381.141 53.8992L374.88 60.5702C371.437 64.2382 368.016 68.3402 367.278 69.6852C362.072 79.1642 360.429 82.6852 358.445 88.6022C356.218 95.2432 354.587 97.5082 351.161 98.7242C348.262 99.7542 345.901 96.3052 342.484 86.0502C340.398 79.7892 338.238 75.3292 336.268 73.2202C334.607 71.4422 331.965 68.1232 330.398 65.8452C328.831 63.5672 326.414 60.9602 325.027 60.0512C322.233 58.2202 318.435 57.8452 318.435 59.3992C318.435 59.9492 317.856 60.3992 317.147 60.3992C316.439 60.3992 313.68 62.6122 311.016 65.3172C306.892 69.5042 302.435 72.3292 302.435 70.7562C302.435 69.3562 305.64 64.5412 308.096 62.2512C311.869 58.7332 318.298 55.4092 320.038 56.0772L321.435 56.6132V53.7362C321.435 46.7722 316.17 32.3042 310.301 23.1372C308.392 20.1572 306.833 15.9382 306.135 11.8602C305.481 8.0462 304.587 5.5392 303.977 5.8132C291.394 11.4682 281.947 14.3122 265.935 17.2642C235.276 22.9152 203.903 22.4302 170.934 15.7952C157.033 12.9972 134.214 6.66121 126.526 3.46321C122.451 1.76921 118.889 0.611201 118.609 0.890201C117.865 1.6352 118.11 1.76021 127.934 5.63221C139.378 10.1442 141.297 10.7392 156.434 14.4672C184.725 21.4352 206.332 23.9082 231.897 23.1042C256.425 22.3332 276.803 18.6882 295.113 11.7962C302.835 8.88921 303.435 8.8602 303.435 11.3882C303.435 12.4822 304.335 15.7452 305.434 18.6382C306.534 21.5322 307.434 24.3762 307.434 24.9582C307.435 25.5412 305.298 26.7412 302.685 27.6252C300.073 28.5092 291.472 31.7182 283.572 34.7552C242.764 50.4472 202.164 52.4302 157.95 40.8902C136.928 35.4032 112.126 24.4722 96.9615 14.0102C93.6465 11.7232 89.5845 9.0052 87.9345 7.9702L84.9345 6.08921L86.8245 8.22821C91.2205 13.2012 116.276 28.5912 126.154 32.3862C128.783 33.3952 133.409 35.2112 136.434 36.4192C143.198 39.1222 163.37 44.8942 172.886 46.8502C185.94 49.5322 202.094 50.6572 220.215 50.1462L237.934 49.6462L248.934 47.4382C261.149 44.9872 282.613 38.2092 295.043 32.8772C309.36 26.7362 309.044 27.2622 287.935 44.7282C251.141 75.1722 226.373 85.3852 189.314 85.3952C166.153 85.4022 147.499 81.1342 125.534 70.8042C98.9835 58.3182 74.8335 34.8812 59.3485 6.57521C58.0475 4.19721 56.8335 2.7012 56.6505 3.2512C56.1505 4.7512 59.9365 11.7902 66.9515 22.3992C84.9545 49.6272 108.119 67.8532 139.364 79.3732C163.445 88.2522 190.652 90.5412 215.681 85.7932C232.952 82.5162 253.876 73.3072 269.935 61.9122C273.235 59.5702 283.532 51.2972 292.818 43.5272C302.104 35.7562 310.014 29.3992 310.397 29.3992C312.095 29.3992 316.123 40.6922 317.818 50.2042L318.406 53.5092L314.329 55.3352C308.563 57.9172 303.054 63.4912 301.441 68.3772L300.064 72.5522L301.445 73.4062C303.377 74.6002 306.028 73.0362 312.435 66.9242C315.46 64.0382 318.663 61.4262 319.553 61.1192C322.005 60.2752 326.7 63.6162 328.939 67.7992L330.935 71.5272L329.294 72.4512C328.392 72.9592 321.176 78.6682 313.257 85.1372C305.337 91.6062 296.852 98.2342 294.397 99.8652C291.943 101.497 288.227 104.138 286.139 105.736C279.022 111.181 280.684 107.426 290.829 95.1442C292.989 92.5282 294.526 90.1562 294.243 89.8732C293.96 89.5902 289.95 93.9452 285.332 99.5502C271.877 115.88 258.89 129.805 231.445 157.331C205.864 182.987 199.621 188.258 187.684 194.277C181.695 197.296 179.745 199.399 182.934 199.399C187.359 199.399 181.262 205.965 175.904 206.971C169.38 208.195 147.556 206.714 138.934 204.463C121.894 200.014 107.034 190.098 87.6495 170.241C62.1685 144.14 53.5945 125.954 56.4115 103.986C56.9695 99.6342 57.5965 95.9032 57.8045 95.6962C58.0125 95.4882 59.4205 97.6992 60.9335 100.608C66.1145 110.572 74.4775 121.264 84.4435 130.665C89.9265 135.837 95.8245 142.018 97.5495 144.399C106.894 157.3 125.753 173.923 136.406 178.65C138.896 179.755 141.794 181.1 142.846 181.639C146.132 183.322 156.123 183.746 160.911 182.405C165.014 181.257 168.163 178.58 173.369 171.815C173.828 171.218 177.518 170.189 181.569 169.527C189.716 168.196 199.846 164.929 202.934 162.637L204.934 161.153L203.151 161.757C202.171 162.089 198.121 163.382 194.151 164.63L186.934 166.899L171.434 166.841L155.934 166.782L147.503 164.432C137.019 161.51 117.737 151.806 105.561 143.324C100.489 139.79 95.2255 136.307 93.8635 135.584C89.1285 133.067 74.3265 117.302 69.0225 109.127C62.4435 98.9842 60.1505 94.4872 56.5275 84.6152C52.1465 72.6812 46.5725 44.3992 48.6005 44.3992C49.0585 44.3992 49.4345 44.8202 49.4345 45.3332C49.4345 48.4752 63.4955 66.2862 78.6965 82.3992C110.423 116.032 132.997 132.979 157.022 141.201C171.389 146.117 186.883 146.536 199.63 142.351C209.548 139.095 221.69 129.461 234.226 114.899L244.557 102.899L249.673 100.591C255.173 98.1092 260.807 94.4382 260.139 93.7712C259.914 93.5462 256.626 94.8892 252.832 96.7552C244.585 100.813 225.4 106.799 214.087 108.845C209.603 109.656 200.008 110.799 192.764 111.386L179.594 112.451L168.264 111.398C137.111 108.5 116.766 101.884 89.2255 85.6942C76.3505 78.1252 59.1045 59.0332 51.0215 43.3992C47.1515 35.9152 41.7135 20.4602 38.4425 7.6492C37.8455 5.3112 36.8945 3.3992 36.3285 3.3992C35.7625 3.3992 35.5325 4.1862 35.8175 5.1492C36.1035 6.1122 37.2945 10.7242 38.4665 15.3992C39.6375 20.0742 41.6245 27.4992 42.8815 31.8992C45.6085 41.4482 46.9005 50.3992 45.5515 50.3992C43.8735 50.3992 29.1065 41.3122 23.8965 37.0742C18.2945 32.5162 11.6665 24.7392 8.83347 19.3992C7.81147 17.4742 5.53447 12.0742 3.77247 7.3992C2.00947 2.7242 0.53747 -0.117799 0.50147 1.0842C0.46447 2.2852 1.13047 6.5602 1.98147 10.5842C3.89447 19.6292 6.90947 43.6072 8.94947 65.9942C12.2495 102.206 19.9635 141.316 32.3055 184.399C38.6405 206.513 42.5105 221.329 44.9715 232.899C49.2755 253.133 51.5655 263.1 56.6885 283.899C62.2405 306.44 64.1665 319.916 65.0495 342.399L65.6585 357.899L62.9935 378.399C61.5285 389.674 59.9345 400.699 59.4525 402.899C55.4795 421.025 50.2725 459.734 49.7115 475.306L49.1575 490.713L50.9155 500.306L52.6735 509.899L50.1135 524.399C43.7705 560.325 38.5355 585.859 29.9195 622.899C24.5625 645.924 20.1955 666.296 18.3445 676.899C13.9765 701.908 7.33047 758.347 7.51047 768.899L7.56147 771.899M699.142 8.44639C699.054 8.94039 698.962 9.46378 698.864 10.0182C697.36 18.5282 696.459 26.4672 692.984 61.8992C688.501 107.609 683.808 132.759 670.581 181.959C662.289 212.804 660.563 219.939 655.354 244.899C651.582 262.978 649.491 271.447 643.749 291.899C642.359 296.849 640.117 308.999 638.766 318.899L636.31 336.899L636.867 351.899C637.455 367.696 639.097 382.998 642.341 402.899C647.625 435.315 650.647 455.026 652.081 466.399C653.952 481.242 653.466 499.635 651.026 506.301L649.416 510.703L651.502 521.801C657.437 553.385 663.378 581.651 671.383 616.399C676.261 637.574 681.382 660.524 682.762 667.399C687.642 691.706 690.533 712.244 693.95 746.899C696.965 777.473 695.524 778.483 691.898 748.337C689.719 730.218 685.555 700.563 682.427 680.899C681.28 673.685 672.47 633.745 665.995 606.399C662.934 593.474 659.065 575.924 657.398 567.399C655.732 558.874 653.753 549.199 652.999 545.899C652.246 542.599 650.617 533.991 649.38 526.77L647.13 513.641L640.033 519.621C632.226 526.2 620.173 532.686 593.935 544.429C579.417 550.926 558.202 561.807 549.435 567.253C539.802 573.236 516.077 591.46 502.935 602.972C499.635 605.862 495.585 609.267 493.935 610.538C492.285 611.809 489.36 614.336 487.435 616.155L483.935 619.461L458.279 638.083C455.804 639.537 453.104 641.251 452.279 641.893C451.454 642.534 449.204 643.623 447.279 644.312C445.354 645.001 433.152 648.621 431.502 649.5C421.464 652.117 391.187 659.192 376.94 660.916L363.359 662.56L345.647 662.145C327.171 661.712 309.882 659.692 295.435 656.278C286.05 654.06 277.875 651.634 275.185 650.27L261.935 647.508C252.887 643.884 236.845 634.866 229.426 629.233C224.475 625.474 219.864 622.407 219.179 622.416C218.056 620.717 192.971 599.185 192.125 599.185L154.907 570.706C152.484 568.78 150.169 567.2 149.762 567.195C149.545 567.195 108.003 545.783 104.277 544.07L87.002 535C74.0866 528.508 59.0306 519.664 55.002 511.399L52.442 525.899C46.099 561.825 40.864 587.359 32.248 624.399C26.891 647.424 22.524 667.796 20.673 678.399C16.305 703.408 9.82195 761.347 10.002 771.899M698.864 10.0182L699.142 8.44639M50.7767 245.757L49.4445 239.931C48.1145 234.116 49.0745 234.344 51.8245 240.495C53.1535 243.467 56.6885 249.535 59.6805 253.978L65.1195 262.057L68.7815 270L70.0065 266.851L70.7195 264.41C71.1049 262.701 72.7515 259.081 73.9149 256.5L73.8521 255.674L72.4675 249.266C69.6495 236.224 62.1935 210.43 61.3855 210.929C60.4405 211.514 47.4305 197.818 43.6415 192.251C38.8385 185.192 34.6555 177.219 31.8065 169.692C29.2395 162.912 21.0265 129.474 21.7495 128.75C21.9595 128.54 24.3085 132.088 26.9685 136.634C35.9975 152.062 44.7975 161.853 57.1605 170.225C65.0135 175.543 65.8575 177.107 65.0265 184.815C64.6665 188.161 64.1035 193.653 63.7765 197.019L63.1815 203.14L66.5305 210.019C74.9045 227.222 92.4745 251.964 107.901 268.28C116.378 277.245 131.611 290.218 141.526 296.916C143.51 298.256 145.269 299.432 146.895 300.519L146.899 300.522C151.8 303.798 155.498 306.27 160.502 310C164.635 311.569 167.741 312.663 165.002 308.5C164.747 308.245 164.546 308.046 164.384 307.885C164.356 307.857 164.329 307.831 164.304 307.806C163.954 307.459 163.808 307.313 163.668 307.162C163.566 307.052 163.468 306.94 163.299 306.746L163.295 306.741L163.271 306.713C163.207 306.64 163.133 306.555 163.046 306.456C158.865 301.677 143.871 282.204 131.817 265.899C124.365 255.818 108.76 232.736 104.418 225.371L101.575 220.551L107.698 223.447C111.066 225.039 116.258 226.888 119.237 227.554L124.652 228.766L132.164 227.684C137.292 226.945 140.314 225.964 141.686 224.591L143.696 222.581L143.052 220.012C142.697 218.6 140.383 214.959 137.909 211.921C135.435 208.884 133.881 206.399 134.456 206.399C136.101 206.399 145.315 211.256 152.434 215.876C152.434 215.876 157.002 217.5 157.002 216.5C157.002 215.5 145.769 209.765 145.769 209.765C141.258 207.881 141.826 207.242 146.962 208.422C149.147 208.925 155.56 209.642 161.214 210.016L171.494 210.697L177.521 208.873L183.548 207.048L185.651 204.094L187.754 201.141L186.585 199.27L185.417 197.399H186.906C188.651 197.399 198.203 191.508 203.934 186.897L207.934 183.678L207.971 205.289C208.028 238.098 210.71 251.846 218.603 259.782L222.465 263.666L229.2 263.149C232.904 262.866 245.159 260.362 256.434 257.586C278.434 252.17 295.939 248.964 311.935 247.422C332.024 245.484 334.346 245.092 338.105 243.006C345.624 238.834 347.444 229.758 347.417 196.577C347.381 152.215 343.326 144.547 324.204 143C321.933 142.758 304.991 143.944 292.303 144.833C291.816 144.867 277.475 146.697 277.002 146.73C267.694 149.681 240.831 160.31 240.804 160.309C239.859 160.262 235.579 161.305 233.412 162.41C231.117 163.581 229.007 164.305 228.721 164.02C228.436 163.734 233.558 158.191 240.104 151.7C246.649 145.209 257.88 133.824 265.061 126.399L278.116 112.899L287.525 106.947C298.425 100.052 310.381 91.2942 318.935 83.9352C322.235 81.0972 326.285 77.8042 327.935 76.6182C329.585 75.4332 331.418 74.4482 332.01 74.4312C334.351 74.3622 337.697 79.5552 340.016 86.8582C343.475 97.7492 344.891 100.121 348.395 100.89C354.625 102.259 356.925 99.8092 362.008 86.3992C365.155 78.0952 367.313 74.4782 369.151 74.4302C369.82 74.4132 374.237 77.7222 378.964 81.7832C389.652 90.9652 400.516 98.8202 412.599 106.105L421.911 111.719L448.08 138.309C462.472 152.933 474.149 165.002 474.029 165.127C473.909 165.253 449.957 149.601 444.49 147.23C443.768 147.197 421.898 145.367 421.155 145.333C401.804 144.444 375.966 143.258 372.502 143.5C365.044 144.113 361.071 146.873 357.872 151.489L355.237 155.29L354.249 163.474C353.705 167.975 353.411 184.986 353.596 201.278L353.935 230.899L356.322 235.747C359.432 242.065 362.822 243.983 373.309 245.36C395.215 248.238 411.792 250.703 421.435 252.518C431.025 254.323 436.349 255.519 461.148 261.438C465.665 262.517 471.389 263.399 473.865 263.399H478.367L481.716 260.05C485.783 255.983 487.922 249.554 489.917 235.399C491.566 223.705 491.912 193.163 490.466 186.927C489.96 184.743 489.65 182.85 489.779 182.721C489.907 182.592 493.371 184.782 497.474 187.587C501.578 190.392 507.297 193.741 510.185 195.03L515.435 197.374V200.347C515.435 203.866 518.269 206.827 523.348 208.613C528.173 210.31 548.206 210.308 551.185 208.611L564.383 206.599L568.935 206.089L565.088 210.354C562.972 212.7 560.585 216.188 559.784 218.104L558.328 221.588L559.927 224.028C560.807 225.369 564.877 227.175 566.502 227.5L574.737 228.384C580.288 228.359 590.737 225.418 596.169 222.353C599.048 220.728 601.662 219.399 601.977 219.399C602.985 219.399 575.336 259.26 562.562 276.223C559.467 280.333 555.394 285.766 553.51 288.297C543.908 301.2 538.285 307.329 527.138 317.045C538.399 310.268 567.575 291.47 581.133 279.35C592.006 269.63 608.959 250.253 617.948 237.274C620.376 233.768 622.734 230.449 623.188 229.899C627.281 224.931 635.647 208.635 637.372 202.27L638.627 197.641L637.505 192.27C635.291 181.681 632.913 181.324 634.896 191.879L636.205 198.844L634.939 203.053C631.892 213.177 616.223 237.628 602.077 254.332C586.497 272.73 571.154 286.656 553.935 298.029L553.292 298.454M100.833 539.122L100.644 539.035C87.7287 532.543 60.885 517.765 56.8563 509.5C53.492 502.598 52.4678 493.785 52.5165 480.899C53.2515 471.268 59.9525 415.547 60.7255 414.774L63.3195 400.068C66.0415 376.32 67.5505 363.817 67.8015 362.936L69.4398 352.5C68.5062 345.217 68.0797 340.31 67.4415 331.399C66.8715 323.424 66.1585 315.324 65.8575 313.399L64.8806 299C63.0941 294.083 61.5549 289.525 60.6155 286.23C58.9955 280.548 56.0235 268.699 54.0105 259.899C52.8429 254.792 51.6608 249.623 50.7767 245.757C50.1374 242.962 49.6539 240.847 49.4445 239.931M279.502 473C278.402 473.419 270.66 474.146 265.435 474.239C260.21 474.331 251.075 474.689 245.136 475.034L234.339 475.662L231.136 477.794C229.375 478.966 227.051 481.719 225.972 483.912L224.009 487.899L223.584 500.899C222.358 538.38 234.318 587.667 253.553 624.399C263.444 643.289 266.895 646.174 285.958 651.493C297.818 654.801 324.835 659.243 335.435 659.627L342.935 659.899L343.647 579.899C344.101 528.819 344.001 497.189 343.372 492.403L342.387 484.907L339.551 481.403C336.09 477.127 334.563 476.775 311.435 474.919L279.502 473C281.743 472.147 257.687 473.104 241.088 474.39L230.242 475.23L227.863 477.465C223.862 481.224 222.303 487.147 221.593 501.289L221.417 516.35L221.956 522.625C223.749 543.499 226.012 555.204 232.158 575.399C239.871 600.746 249.844 624.002 258.932 637.84C263.652 645.026 264.25 646.281 262.185 644.667C261.498 644.129 259.411 643.176 257.549 642.549L222.669 620.787C221.546 619.088 196.403 597.399 195.557 597.399C195.148 597.399 193.491 596.127 191.874 594.573C190.257 593.018 185.784 589.339 181.934 586.397L158.339 568.92C155.916 566.994 153.601 565.414 153.194 565.409C152.787 565.403 149.35 563.409 145.557 560.978C139.941 557.378 116.351 545.399 114.879 545.399C114.662 545.399 111.435 543.997 107.709 542.284C105.761 541.388 103.352 540.28 101.084 539.237M279.502 473L309.435 473.964C317.96 474.21 328.062 475.03 331.884 475.786L338.833 477.16L341.049 479.939C342.267 481.467 343.865 484.784 344.6 487.308C346.077 492.389 346.094 494.1 345.656 595.358L345.376 659.817L347.656 659.75C348.91 659.714 351.467 659.62 353.341 659.541L356.75 659.399L356.19 624.649C355.883 605.537 355.956 576.174 356.351 559.399L357.07 528.899M357.07 528.899L357.253 561.899C357.354 580.049 357.735 609.412 358.098 627.149L358.758 659.399L364.846 659.378C377.913 659.333 395.644 656.536 418.945 650.842C432.589 647.508 433.938 646.817 440.219 639.945C449.694 629.577 455.136 618.363 464.987 588.899C477.662 550.987 482.332 496.818 474.197 482.07L471.93 477.962L467.932 476.757L463.935 475.553M357.07 520.818C357.07 520.821 357.07 520.823 357.07 520.826C357.075 524.094 357.078 526.942 357.07 528.899M463.935 475.553L467.219 475.476C471.924 475.366 474.91 477.751 477.447 483.648L479.664 488.801L480.19 501.011L480.658 515.013L480.065 524.939C479.739 530.398 479.031 537.123 478.49 539.882C477.949 542.641 476.761 549.174 475.851 554.399C472.59 573.112 465.826 595.277 457.015 616.12C452.31 627.25 449.247 632.601 444.435 638.096C443.06 639.666 438.327 644.449 437.502 645.5C439.152 644.621 446.51 641.012 448.435 640.323C450.36 639.634 452.61 638.545 453.435 637.904C454.26 637.262 456.96 635.548 459.435 634.094L482.638 617.149C483.378 616.462 486.889 613.424 490.443 610.399C493.996 607.374 498.739 603.099 500.982 600.899C503.224 598.699 508.406 594.424 512.497 591.399L541.43 570.057C547.377 565.052 579.937 546.823 586.432 544.861C587.805 544.446 592.844 542.219 597.628 539.912L606.326 535.716C608.444 535.716 628.529 525.391 633.935 521.355C645.864 512.449 649.36 506.1 650.068 492.062C650.322 487.022 650.171 478.399 649.732 472.899L646.826 452C646.379 447.348 645.415 441.034 643.885 431.149C642.079 419.49 640.759 413.144 640.044 412.5L638.07 396.646C637.189 390.735 635.966 380.049 635.352 372.899C634.739 365.749 634.132 359.788 634.005 359.653C634.33 353.747 634.247 330.679 635.096 324.299C635.945 317.919 636.48 311.918 636.286 310.964C641.169 299.849 645.697 274.79 650.648 252.899C656.335 227.756 656.343 227.575 651.393 236.899C649.058 241.299 645.197 247.936 642.812 251.648C637.481 259.947 634.653 265.413 634.083 268.528C633.83 269.911 633.413 271.597 632.865 273.5C632.353 275.282 631.725 277.256 631.011 279.35C630.784 275.233 630.328 266.857 630.318 266.286C630.2 263 628.191 255.294 627.796 255.05C628.545 253.317 630.623 245.867 632.414 238.494C634.205 231.121 636.814 221.991 638.211 218.206L640.752 211.325L647.844 203.744C662.402 188.181 667.411 179.338 673.417 158.591C677.295 145.195 681.663 125.335 680.904 124.548C680.718 124.355 679.127 127.046 677.369 130.529C668.617 147.867 653.798 165.349 641.33 173.045C638.118 175.027 635.2 177.605 634.846 178.774C632.678 185.922 620.04 203.252 610.853 211.675C607.388 214.852 604.25 218.452 603.88 219.675C603.071 222.352 598.269 229.806 589.651 241.76C586.138 246.633 580.734 254.283 577.643 258.76C568.86 271.481 550.107 296.484 546.08 300.844M463.935 475.553L392.935 474.459L382.435 475.863C376.66 476.635 370.68 477.296 369.146 477.333C367.35 477.375 364.956 478.734 362.419 481.149L358.481 484.899L357.466 491.399C357.089 493.808 357.058 506.122 357.066 516.509C357.067 517.992 357.069 519.437 357.07 520.808V520.81M546.08 300.844L545.814 301.132M553.935 298.029C553.717 298.173 553.503 298.315 553.292 298.454C545.806 303.398 542.685 305.459 542.447 305.168C542.277 304.96 543.58 303.549 545.814 301.132C545.901 301.037 545.99 300.941 546.08 300.844M487.294 181.914C487.315 181.979 487.337 182.046 487.358 182.116M290.002 255.377L231.428 269.333C222.52 272.043 219.87 275.086 217.819 284.959L216.169 292.899L216.754 314.399C217.389 337.764 218.715 346.366 223.045 355.216C224.564 358.32 226.981 361.401 228.799 362.552L231.934 364.536L238.934 363.994C246.129 363.437 253.172 362.491 283.435 358.014C293.06 356.59 308.836 354.821 318.493 354.082L336.049 352.739L339.232 350.86L342.413 348.981L344.034 344.1L345.655 339.22L345.251 303.56L344.846 267.899L342.695 263.145C340.419 258.116 338.3 256.716 330.935 255.377H290.002ZM290.002 255.377L231.434 268.489C228.621 268.396 223.02 271.452 219.78 274.848C211.708 283.306 212.911 340.693 221.514 357.555C224.114 362.651 229.795 366.4 234.916 366.397C238.684 366.394 258.471 363.719 271.935 361.391C277.727 360.39 282.887 359.656 299.935 357.407C304.335 356.827 314.377 355.936 322.251 355.428L336.569 354.505L339.751 352.674C341.502 351.667 343.835 349.056 344.935 346.871L346.935 342.899L347.255 315.168C347.432 299.916 347.138 282.268 346.605 275.949L345.635 264.461L343.383 260.815C340.802 256.638 336.181 254.343 330.717 254.524L290.002 255.377ZM420.502 258.713L372.935 255.399C371.835 255.872 369.764 256.29 368.333 256.329C364.269 256.438 359.291 260.425 357.63 264.899L356.145 268.899L355.677 300.736L355.208 332.573L356.4 338.736C357.947 346.737 359.594 349.14 365.253 351.643L369.901 353.699L385.919 354.487C403.869 355.371 415.118 356.824 443.339 361.905C454.011 363.827 464.247 365.399 466.086 365.399H469.429L473.182 362.002L476.935 358.606L479.184 351.252C482.212 341.353 483.055 336.361 484.482 319.899C485.736 305.432 485.229 288.909 483.318 281.881C482.023 277.119 480.123 274.819 475.435 272.339C474.836 272.022 459.004 268.175 444.49 264.649C432.081 261.634 420.635 258.853 420.502 258.713ZM420.502 258.713L372.435 254.605C371.06 254.642 368.81 254.856 367.435 255.082C359.031 256.461 356.777 259.356 354.846 271.256C353.12 281.888 352.898 330.659 354.534 340.05L355.633 346.364L359.284 349.91C363.812 354.309 366.73 355.049 382.435 355.783C397.536 356.489 419.34 359.272 440.935 363.25C463.121 367.336 464.52 367.49 468.776 366.315C479.281 363.415 483.861 351.472 486.461 320.21C487.21 311.198 487.402 301.04 486.958 293.927L486.234 282.333L484.015 278.116C482.657 275.535 480.466 273.239 478.366 272.197C474.886 270.471 419.648 257.82 420.502 258.713ZM406.935 366.693L461.935 371.418L466.935 371.979C473.8 372.75 478.5 375.247 480.906 379.399L482.935 382.899L483.281 400.649C483.369 405.138 483.332 410.48 483.3 414.939C483.263 420.176 483.235 424.195 483.429 424.179C483.426 425.675 482.78 431.174 481.994 436.399C481.207 441.624 480.31 448.017 480 450.606C479.202 457.291 475.853 465.656 472.844 468.484L470.276 470.899L464.604 470.83C461.486 470.793 449.802 469.79 438.641 468.602C427.481 467.414 409.01 465.997 397.594 465.453C366.139 463.955 361.2 462.394 356.557 452.488L353.938 446.899L353.594 418.086C353.145 380.462 354.432 372.627 361.702 368.676L364.935 366.918L385.935 366.806L406.935 366.693ZM461.935 371.418L467.119 372.751C473.297 374.338 476.78 376.468 479.171 380.121L480.935 382.815L480.883 407.857L480.83 432.899L478.659 445.461C476.388 458.611 474.833 463.299 471.414 467.307L469.359 469.715L465.146 469.632C462.829 469.586 456.21 468.876 450.435 468.054C436.602 466.084 419.415 464.625 394.935 463.343C383.935 462.766 372.919 461.843 370.456 461.292C364.223 459.895 359.954 456.319 357.773 450.666L355.935 445.899V412.899V379.899L357.935 375.927C359.044 373.723 361.493 371.052 363.435 369.927L366.935 367.899L386.935 367.296L406.935 366.693M243.934 469.276L249.434 468.398C255.335 467.455 271.934 465.818 284.935 464.895C334.259 461.395 334.817 461.299 339.707 455.488C341.18 453.737 343.118 449.963 344.013 447.102L345.639 441.899L346.143 418.399C346.68 393.362 345.568 377.777 342.963 373.801C342.112 372.503 339.958 370.654 338.176 369.692L334.935 367.943L310.435 367.359L285.935 366.775M243.934 469.276L237.32 470.224L231.707 470.399L229.104 467.796C225.507 464.199 222.86 456.559 220.222 442.156L217.977 429.899L217.964 409.399L217.95 388.899L219.77 383.658C220.977 380.18 222.817 377.405 225.239 375.408C227.247 373.753 229.8 372.401 230.912 372.403L263.002 369L285.935 366.775L311.036 366.587L336.139 366.399L339.445 368.649C341.263 369.887 343.628 372.083 344.7 373.53L346.648 376.162L347.644 389.03C348.905 405.34 348.005 440.099 346.141 447.094C344.532 453.13 340.569 458.761 336.418 460.908C334.815 461.737 330.226 462.867 326.219 463.419C316.602 464.745 266.632 468.583 253.934 468.971L243.934 469.276ZM243.934 469.276L238.434 469.661C229.934 468.926 226.351 462.837 222.297 442.237L220.065 430.899L219.999 410.399C219.915 384.001 221.073 379.637 229.531 374.481L263.002 369M100.644 539.035C100.707 539.064 100.77 539.093 100.833 539.122M100.833 539.122L101.084 539.237M100.833 539.122C100.917 539.16 101 539.199 101.084 539.237M699.142 8.44639C700.254 2.17031 700.525 0.639228 700.213 0.509387C700.156 0.485505 700.078 0.50903 699.983 0.559154C699.911 0.596898 699.829 0.650025 699.737 0.709049C699.686 0.742333 699.631 0.777582 699.573 0.813205C699.1 1.1052 697.975 3.9442 697.072 7.1222C692.666 22.6302 679.278 38.3782 662.388 47.9252C659.007 49.8362 656.104 51.3992 655.934 51.3992C654.797 51.3992 657.149 36.9182 659.913 26.8992C663.183 15.0412 665.038 5.3992 664.047 5.3992C663.767 5.3992 662.772 7.9872 661.838 11.1492C656.613 28.8262 655.197 32.9252 652.432 38.4042C645.539 52.0572 631.713 70.5102 622.781 77.9732C601.311 95.9132 564.269 109.129 529.482 111.259L515.229 112.132L501.99 110.816C490.198 109.643 481.077 107.773 463.628 102.95C460.71 102.143 453.806 99.4552 448.286 96.9772C436.4 91.6412 436.804 93.3042 448.852 99.3002L457.258 103.484L465.093 113.126C479.084 130.344 495.132 141.955 508.32 144.4C537 149.718 571.781 134.001 604.992 100.717C630.233 75.4222 643.314 60.0202 649.656 48.1312C651.348 44.9592 652.843 42.4842 652.979 42.6312C653.116 42.7782 652.844 46.9492 652.375 51.8992C651.323 62.9952 648.125 79.1002 646.086 83.5662C645.249 85.3992 643.259 89.8242 641.664 93.3992C630.868 117.608 605.644 141.28 574.88 156.074C550.152 167.964 524.346 170.528 503.119 163.204C495.893 160.711 494.421 161.602 501.042 164.461C506.803 166.949 515.654 169.089 523.685 169.936C527.427 170.331 529.435 170.997 529.435 171.844C529.435 173.965 537.797 181.034 541.914 182.392C553.422 186.191 570.759 178.285 589.426 160.727C594.003 156.421 600.118 149.928 603.015 146.297C605.913 142.667 613.172 134.792 619.146 128.797C629.744 118.166 639.531 105.034 642.849 96.9952C643.735 94.8492 644.685 93.3152 644.958 93.5892C646.199 94.8292 645.456 117.497 643.964 123.932L642.364 130.831L636.219 140.865C626.796 156.257 623.1 160.919 610 173.938C593.871 189.966 582.318 198.136 569.583 202.522C557.373 206.727 533.041 208.806 524.335 206.388C522.355 205.838 519.923 204.49 518.93 203.393L517.125 201.399L518.94 199.393C518.984 199.345 519.027 199.298 519.069 199.251M519.178 199.132C519.882 198.359 520.32 197.878 520.276 197.448C520.203 196.739 518.826 196.165 515.185 194.646M519.178 199.132L519.069 199.251M519.178 199.132C519.143 199.171 519.106 199.211 519.069 199.251M515.185 194.646L515.12 194.619M357.07 520.81V520.818M357.07 520.81C357.07 520.813 357.07 520.815 357.07 520.818M164.304 307.806L164.384 307.885M163.295 306.741C163.287 306.732 163.279 306.723 163.271 306.713M357.07 520.818V520.826M441.002 639.882L434.069 647.286L445.002 642.109M487.358 182.116C489.29 188.382 489.883 213.787 488.44 229.365C486.907 245.909 484.414 254.682 480.099 258.713L476.961 261.644L470.914 261.079C467.589 260.769 457.233 258.713 447.901 256.511C420.981 250.16 395.947 245.878 373.633 243.808C365.503 243.054 360.805 240.635 358.612 236.076C355.901 230.439 355.231 219.897 355.616 188.99L356.003 157.899L357.747 154.645C360.035 150.375 363.296 147.386 372.502 146.27C375.966 146.028 401.804 147.214 421.155 148.103C421.898 148.137 443.768 149.967 444.49 150L473.502 167.5L487.358 182.116ZM7.95946 29.3992C10.5795 53.8182 19.9925 82.1592 31.1695 99.2792C39.4685 111.992 51.9605 126.81 53.5495 125.828C54.0205 125.537 54.1265 121.37 53.7855 116.567C53.4205 111.42 53.6725 104.265 54.4005 99.1382L55.6355 90.4412L53.1215 83.1632C51.7395 79.1602 49.6105 70.9172 48.3905 64.8452L46.1735 53.8062L35.9595 48.0322C26.0285 42.4182 17.1715 35.0592 10.5215 26.8992L7.26247 22.8992L7.95946 29.3992ZM690.997 26.2782C688.746 30.6322 674.321 43.5622 667.372 47.4562C663.992 49.3492 659.754 52.1352 657.953 53.6452L654.68 56.3902L653.445 64.6452C652.765 69.1852 650.848 77.0812 649.182 82.1922L646.154 91.4862L647.294 93.9902C649.347 98.4942 648.438 120.512 645.865 128.618C644.724 132.213 659.765 116.139 665.26 107.892C677.183 89.9942 688.446 62.6842 691.374 44.5702C694.708 23.9442 694.613 19.2872 690.997 26.2782ZM11.4345 64.1162C11.4345 67.3332 15.3155 95.5992 16.8785 103.77C21.3655 127.221 36.1175 151.586 53.9595 165.015C64.0415 172.603 64.4965 172.426 61.9545 161.899C61.1575 158.599 60.4855 152.524 60.4605 148.399L60.4165 140.899L58.1255 136.399C56.8655 133.924 51.9585 128.042 47.2215 123.328C34.1475 110.319 22.8375 92.0392 15.7515 72.4642C12.0025 62.1052 11.4345 61.0082 11.4345 64.1162ZM686.432 70.1492C678.749 92.9702 665.984 114.194 652.353 126.814C649.036 129.886 645.964 132.399 645.529 132.399C643.718 132.399 641.536 140.52 640.96 149.399C640.621 154.624 639.688 161.739 638.888 165.211C638.088 168.683 637.435 171.944 637.435 172.459C637.435 174.162 646.818 166.689 654.042 159.234C667.049 145.81 678.771 125.84 682.831 110.187C686.315 96.7552 690.865 63.3992 689.214 63.3992C688.934 63.3992 687.682 66.4362 686.432 70.1492ZM231.288 165.133C225.681 167.928 220.905 171.29 216.763 175.356L210.592 181.414L209.867 188.157C208.852 197.606 210.15 231.475 211.854 239.988C212.634 243.887 213.916 248.612 214.702 250.488C216.607 255.036 221.187 260.355 224.176 261.491L226.595 262.411L244.765 258.396C254.758 256.188 265.185 253.694 267.935 252.854C270.685 252.014 279.01 250.415 286.435 249.302C299.526 247.338 304.646 246.683 324.227 244.461C338.775 242.81 341.365 240.814 343.898 229.295L345.57 221.691L345.182 191.795C344.925 172.008 344.382 160.642 343.576 158.18C340.908 150.034 336.26 147.057 324.204 145.77C321.933 145.528 304.991 146.714 292.303 147.603C291.816 147.637 277.475 149.467 277.002 149.5C264.579 153.76 233.941 163.811 231.288 165.133ZM88.4345 89.2352C88.4345 90.1712 98.1715 99.5572 109.351 109.399C125.763 123.847 146.734 136.036 162.934 140.545L170.934 142.771L180.434 142.793L189.934 142.814L196.976 140.641C204.881 138.201 213.463 132.867 220.998 125.709C227.586 119.452 239.85 105.482 239.268 104.899C239.019 104.65 236.517 105.32 233.709 106.387C225.722 109.421 210.067 112.267 194.082 113.59L179.444 114.801L166.132 113.599C140.17 111.254 115.594 103.821 96.0735 92.4102C88.6635 88.0782 88.4345 87.9832 88.4345 89.2352ZM611.018 89.2632C610.044 90.8392 590.082 100.08 580.776 103.264C552.263 113.019 524.269 116.293 498.37 112.901C487.096 111.425 467.597 107.064 464.185 105.256C459.092 102.557 467.171 113.529 477.805 123.754C486.754 132.358 493.028 136.587 501.935 140.02L508.935 142.718L518.935 142.717C537.594 142.714 553.742 137.135 573.391 123.904C587.142 114.644 616.147 88.3992 612.63 88.3992C612.037 88.3992 611.312 88.7882 611.018 89.2632ZM635.604 146.66C630.967 154.684 625.644 161.232 613.982 173.259C602.009 185.606 592.6 193.353 581.262 200.202C570.399 206.763 561.435 216.166 561.435 221C561.435 225.847 576.417 227.424 586.689 223.658C594.444 220.814 605.611 213.298 613.062 205.908C620.162 198.866 630.417 183.743 633.245 176.149C635.461 170.198 639.754 146.673 639.26 143.191L638.934 140.899L635.604 146.66ZM99.4575 143.149C99.4835 143.99 104.221 149.469 111.245 156.78C123.279 169.306 137.96 178.502 149.285 180.608L155.359 181.738L159.146 180.597C163.475 179.293 170.434 173.923 170.434 171.887C170.434 171.013 168.725 170.295 165.684 169.893C153.581 168.29 145.014 166.298 137.786 163.405C127.651 159.348 112.355 151.166 105.727 146.256C100.413 142.32 99.4165 141.826 99.4575 143.149ZM62.4345 146.566C62.4345 151.775 65.3495 168.273 67.1755 173.399C72.0415 187.06 84.8275 204.173 97.7675 214.342C111.796 225.367 128.805 229.109 138.392 223.278L141.485 221.398L140 218.527C136.895 212.522 128.913 204.474 122.934 201.319C105.428 192.082 81.2275 169.755 67.3015 149.992L62.4345 143.085V146.566ZM594.422 148.044C577.914 158.591 557.919 166.508 542.935 168.431C537.985 169.066 533.345 169.765 532.624 169.985L531.312 170.383L532.951 173.156C533.852 174.682 536.242 177.048 538.262 178.414L541.935 180.899L548.435 180.896L554.935 180.892L564.435 176.16C570.49 173.143 576.748 168.974 581.693 164.663C589.509 157.848 601.011 145.643 600.294 144.925C600.081 144.713 597.439 146.116 594.422 148.044ZM67.0755 186.653C66.7255 189.539 66.1555 194.022 65.8095 196.617L65.1815 201.335L70.2075 211.617C77.9265 227.409 92.0655 247.754 106.434 263.744C114.071 272.242 130.585 286.601 140.492 293.355C145.685 296.896 150.084 300.155 150.267 300.596C150.709 301.017 151.269 301.377 151.623 301.399C152.186 301.399 154.351 302.749 156.434 304.399C158.517 306.049 160.607 307.385 161.078 307.367C161.549 307.35 161.233 306.787 160.377 306.117C155.206 302.071 111.885 242.439 102.977 227.105C101.446 224.468 96.3065 218.168 91.5575 213.105C80.1025 200.893 76.3505 196.188 71.6475 188.14L67.7135 181.408L67.0755 186.653ZM665.167 185.654C664.244 188.059 654.192 200.761 648.497 206.717L642.935 212.534L639.885 220.717C638.208 225.217 635.608 234.074 634.109 240.399L631.382 251.899L632.247 257.899L633.114 263.899L633.969 261.899C634.44 260.799 637.157 256.299 640.007 251.899C648.195 239.258 654.901 224.972 659.253 210.899C661.464 203.749 663.564 196.324 663.917 194.399C664.271 192.474 665.042 189.647 665.632 188.117C666.222 186.587 666.474 185.105 666.193 184.824C665.912 184.543 665.45 184.916 665.167 185.654ZM36.8345 189.149C37.1285 190.111 38.0055 193.374 38.7835 196.399C44.9805 220.499 51.0305 235.863 59.6785 249.464C61.5795 252.453 64.4055 256.924 65.9585 259.399L68.7815 263.899L70.0065 260.909C70.6795 259.264 71.0005 256.339 70.7195 254.409C69.6315 246.94 66.2125 232.484 63.3855 223.399L60.4285 213.899L53.0185 206.613C48.9435 202.606 43.8815 196.648 41.7715 193.372C38.0325 187.569 35.7565 185.622 36.8345 189.149Z" />

 <g class="detail-region" data-region="abs-up" tabindex="0" role="button">
    <path id="abs-up" transform="translate(209.54,144.73) scale(1)" d="M22.2786 19.8949C16.6716 22.6899 11.8956 26.0519 7.75356 30.1179L1.58254 36.1759L0.857562 42.9189C-0.157438 52.3679 1.14056 86.2369 2.84456 94.7499C3.62456 98.6489 4.90655 103.374 5.69255 105.25C7.59755 109.798 12.1776 115.117 15.1666 116.253L17.5856 117.173L35.7555 113.158C45.7485 110.95 56.1746 108.456 58.9246 107.616C61.6746 106.776 69.9996 105.177 77.4246 104.064C90.5156 102.1 95.6356 101.445 115.217 99.223C129.765 97.572 132.355 95.5759 134.888 84.0569L136.561 76.4529L136.172 46.5569C135.915 26.7699 135.372 15.4039 134.566 12.9419C131.898 4.79595 127.251 1.81895 115.195 0.531946C112.923 0.289713 95.9816 1.47611 83.2928 2.36469C82.8059 2.39878 68.4653 4.22863 67.992 4.26174C55.5694 8.522 24.9309 18.5731 22.2786 19.8949Z M133.685 117.907C131.409 112.878 129.29 111.478 121.925 110.139H80.992L22.4185 124.095C13.5105 126.805 10.8606 129.848 8.80956 139.721L7.15953 147.661L7.74456 169.161C8.37956 192.526 9.70554 201.128 14.0355 209.978C15.5545 213.082 17.9715 216.163 19.7895 217.314L22.9245 219.298L29.9245 218.756C37.1196 218.199 44.1616 217.253 74.4246 212.776C84.0496 211.352 99.8256 209.583 109.483 208.844L127.04 207.501L130.222 205.622L133.403 203.743L135.024 198.862L136.645 193.982L136.241 158.322L135.837 122.661L133.685 117.907Z M163.492 1.03195C154.287 2.14795 151.025 5.13695 148.737 9.40695L146.994 12.6609L146.606 43.7519C146.221 74.6589 146.892 85.2009 149.603 90.8379C151.796 95.3969 156.494 97.8159 164.624 98.5699C186.938 100.64 211.972 104.922 238.892 111.273C248.224 113.475 258.58 115.531 261.905 115.841L267.951 116.406L271.089 113.475C275.404 109.444 277.898 100.671 279.431 84.1269C280.874 68.549 280.28 43.1437 278.348 36.8777L264.492 22.2617L235.48 4.76174C234.758 4.72863 212.888 2.89878 212.145 2.86469C192.794 1.97611 166.956 0.789713 163.492 1.03195Z M274.309 136.643C273.014 131.881 271.114 129.581 266.426 127.101C265.826 126.784 249.994 122.937 235.48 119.411C223.071 116.395 211.626 113.615 211.492 113.475L163.925 110.161C162.825 110.634 160.754 111.052 159.323 111.091C155.259 111.2 150.281 115.187 148.62 119.661L147.135 123.661L146.667 155.498L146.199 187.335L147.39 193.498C148.937 201.499 150.584 203.902 156.243 206.405L160.892 208.461L176.909 209.249C194.859 210.133 206.109 211.586 234.329 216.667C245.001 218.589 255.237 220.161 257.076 220.161H260.419L264.172 216.764L267.925 213.368L270.174 206.014C273.202 196.115 274.045 191.123 275.472 174.661C276.726 160.194 276.22 143.671 274.309 136.643Z M22.2786 19.8949C16.6716 22.6899 11.8956 26.0519 7.75356 30.1179L1.58254 36.1759L0.857562 42.9189C-0.157438 52.3679 1.14056 86.2369 2.84456 94.7499C3.62456 98.6489 4.90655 103.374 5.69255 105.25C7.59755 109.798 12.1776 115.117 15.1666 116.253L17.5856 117.173L35.7555 113.158C45.7485 110.95 56.1746 108.456 58.9246 107.616C61.6746 106.776 69.9996 105.177 77.4246 104.064C90.5156 102.1 95.6356 101.445 115.217 99.223C129.765 97.572 132.355 95.5759 134.888 84.0569L136.561 76.4529L136.172 46.5569C135.915 26.7699 135.372 15.4039 134.566 12.9419C131.898 4.79595 127.251 1.81895 115.195 0.531946C112.923 0.289713 95.9816 1.47611 83.2928 2.36469C82.8059 2.39878 68.4653 4.22863 67.992 4.26174C55.5694 8.522 24.9309 18.5731 22.2786 19.8949Z M133.685 117.907C131.409 112.878 129.29 111.478 121.925 110.139H80.992L22.4185 124.095C13.5105 126.805 10.8606 129.848 8.80956 139.721L7.15953 147.661L7.74456 169.161C8.37956 192.526 9.70554 201.128 14.0355 209.978C15.5545 213.082 17.9715 216.163 19.7895 217.314L22.9245 219.298L29.9245 218.756C37.1196 218.199 44.1616 217.253 74.4246 212.776C84.0496 211.352 99.8256 209.583 109.483 208.844L127.04 207.501L130.222 205.622L133.403 203.743L135.024 198.862L136.645 193.982L136.241 158.322L135.837 122.661L133.685 117.907Z M163.492 1.03195C154.287 2.14795 151.025 5.13695 148.737 9.40695L146.994 12.6609L146.606 43.7519C146.221 74.6589 146.892 85.2009 149.603 90.8379C151.796 95.3969 156.494 97.8159 164.624 98.5699C186.938 100.64 211.972 104.922 238.892 111.273C248.224 113.475 258.58 115.531 261.905 115.841L267.951 116.406L271.089 113.475C275.404 109.444 277.898 100.671 279.431 84.1269C280.874 68.549 280.28 43.1437 278.348 36.8777L264.492 22.2617L235.48 4.76174C234.758 4.72863 212.888 2.89878 212.145 2.86469C192.794 1.97611 166.956 0.789713 163.492 1.03195Z M274.309 136.643C273.014 131.881 271.114 129.581 266.426 127.101C265.826 126.784 249.994 122.937 235.48 119.411C223.071 116.395 211.626 113.615 211.492 113.475L163.925 110.161C162.825 110.634 160.754 111.052 159.323 111.091C155.259 111.2 150.281 115.187 148.62 119.661L147.135 123.661L146.667 155.498L146.199 187.335L147.39 193.498C148.937 201.499 150.584 203.902 156.243 206.405L160.892 208.461L176.909 209.249C194.859 210.133 206.109 211.586 234.329 216.667C245.001 218.589 255.237 220.161 257.076 220.161H260.419L264.172 216.764L267.925 213.368L270.174 206.014C273.202 196.115 274.045 191.123 275.472 174.661C276.726 160.194 276.22 143.671 274.309 136.643Z" />
 </g>
 <g class="detail-region" data-region="abs-down" tabindex="0" role="button">
    <path id="abs-down" transform="translate(219.59,366.59) scale(1)" d="M60.5361 106.809L92.4688 108.728L92.4795 108.729L96.5635 109.06C105.538 109.798 110.703 110.318 113.984 111.074C115.873 111.51 117.174 112.031 118.232 112.74C119.289 113.446 120.072 114.32 120.943 115.397L123.779 118.901L123.868 119.01L123.887 119.15L124.873 126.646C125.193 129.079 125.373 138.228 125.42 153.098C125.467 167.991 125.378 188.672 125.151 214.212L124.439 294.212L124.435 294.726L123.921 294.707L116.421 294.435C105.776 294.049 78.7212 289.599 66.8291 286.282C57.3007 283.624 51.5737 281.551 47 277.727C42.4319 273.907 39.0567 268.376 34.1152 258.939C14.8446 222.139 2.85976 172.767 4.08887 135.191L4.51465 122.191L4.51758 122.083L4.56543 121.987L6.52832 117.999C7.09051 116.857 7.9669 115.587 8.9209 114.456C9.87287 113.329 10.9294 112.308 11.8643 111.686L15.0674 109.554L15.1797 109.479L15.3154 109.471L26.1123 108.843C32.0571 108.498 41.1981 108.139 46.4307 108.047C49.0276 108.001 52.2566 107.797 54.9746 107.552C56.3332 107.43 57.5599 107.297 58.5127 107.17C58.9894 107.106 59.3938 107.044 59.71 106.986C60.0367 106.926 60.2375 106.875 60.3281 106.841L60.4287 106.802L60.5361 106.809ZM173.947 108.267L244.947 109.362L245.017 109.363L245.083 109.382L249.081 110.586L253.079 111.791L253.274 111.85L253.373 112.029L255.639 116.137C257.729 119.926 258.967 126.171 259.476 133.928C259.986 141.705 259.767 151.07 258.898 161.15C257.161 181.307 252.817 204.366 246.465 223.365C236.612 252.834 231.144 264.138 221.592 274.59V274.591C218.451 278.027 216.491 279.98 213.575 281.474C210.684 282.955 206.872 283.973 200.067 285.636C176.754 291.333 158.979 294.141 145.853 294.186L139.764 294.207L139.272 294.209L139.262 293.717L138.603 261.467C138.239 243.728 137.859 214.363 137.758 196.21L137.574 163.21V163.205C137.583 161.25 137.58 158.403 137.575 155.134V155.116L137.57 150.818C137.566 145.624 137.572 139.946 137.626 135.265C137.68 130.608 137.781 126.88 137.977 125.63L138.991 119.13L139.018 118.962L143.078 115.095C144.368 113.867 145.633 112.897 146.817 112.225C147.996 111.556 149.126 111.166 150.138 111.142L150.471 111.127C152.382 111.022 157.951 110.401 163.373 109.676L173.873 108.272L173.909 108.267H173.947ZM187.981 0.503174L242.981 5.22778L243.023 5.23169L243.063 5.24243L248.247 6.57446C254.491 8.1784 258.109 10.3589 260.594 14.1555L262.357 16.8489L262.439 16.9749V17.1243L262.334 67.2083V67.2502L262.327 67.2922L260.157 79.8547C257.888 92.9949 256.317 97.8148 252.799 101.94L250.743 104.348L250.59 104.528L250.354 104.523L246.142 104.44C243.791 104.393 237.142 103.68 231.368 102.858C217.557 100.891 200.387 99.4323 175.913 98.1506C170.408 97.8619 164.899 97.4867 160.457 97.1145C156.586 96.7901 153.492 96.4652 151.927 96.1985L151.352 96.0881C144.966 94.657 140.556 90.9731 138.312 85.1545L136.473 80.387L136.439 80.3V14.0881L136.492 13.9827L138.492 10.01C139.073 8.85596 139.993 7.59969 141.008 6.49243C142.021 5.38683 143.158 4.39971 144.188 3.80298L147.688 1.77466L147.798 1.71118L147.924 1.70728L167.924 1.10474L187.924 0.501221L187.953 0.500244L187.981 0.503174ZM66.9512 0.583252L115.951 1.75122L116.071 1.75415L116.177 1.81079L119.418 3.55981C120.347 4.06152 121.36 4.78699 122.248 5.54907C123.131 6.30725 123.922 7.12983 124.385 7.83521H124.386C125.094 8.9165 125.666 10.7193 126.13 13.1399C126.597 15.5781 126.965 18.7031 127.234 22.4749C127.772 30.0196 127.915 40.1924 127.646 52.718L127.144 76.218L127.143 76.2883L127.121 76.3567L125.494 81.5598C124.585 84.4654 122.62 88.3037 121.094 90.1184C119.873 91.5688 118.872 92.728 117.278 93.6575C115.691 94.5832 113.551 95.2611 110.072 95.8586C103.124 97.0519 90.6193 97.9536 65.9746 99.7024C52.9753 100.625 36.3954 102.261 30.5176 103.2L25.0176 104.078L24.9961 104.081L24.9736 104.083L19.4736 104.468L19.4346 104.471L19.3955 104.467C17.2134 104.278 15.3143 103.743 13.6367 102.696C11.959 101.648 10.5358 100.107 9.27246 97.9602C6.75923 93.6891 4.83785 86.9384 2.81152 76.6418L0.579102 65.304L0.570312 65.2571V65.2092L0.503906 44.7092C0.461969 31.5299 0.727388 23.7666 2.08398 18.6545C2.76719 16.0801 3.7309 14.1561 5.08301 12.5432C6.43032 10.9361 8.14172 9.66327 10.2754 8.36255L10.3594 8.31177L10.4551 8.29614L43.9258 2.8147L43.9424 2.81177L43.958 2.81079L66.8906 0.585205L66.9209 0.582275L66.9512 0.583252Z" />
 </g>
</svg>
