<svg viewBox="90 0 700 1020" xmlns="http://www.w3.org/2000/svg">
  <path id="outline" class="detail-outline" d="M593.347 339.891C597.648 335.974 598.944 335.072 599.915 335.317C601.395 335.691 600.674 337.418 597.849 340.268C596.219 341.913 594.092 343.831 593.123 344.529L591.36 345.8L590.666 345.214C589.255 344.024 589.633 343.274 593.347 339.891Z M580.003 349.859C585.487 346.837 585.641 346.783 586.666 347.536C588.307 348.743 587.524 349.603 581.953 352.712C579.247 354.223 576.685 355.384 576.259 355.291C575.834 355.198 575.399 354.546 575.291 353.842L575.096 352.563L580.003 349.859Z M543.411 365.813C548.674 364.104 550.48 363.783 551.151 364.442C551.618 364.901 551.604 365.797 551.117 366.566C550.591 367.396 539.961 370.636 538.972 370.268C538.539 370.106 538.179 369.421 538.173 368.746L538.162 367.518L543.411 365.813Z M562.573 358.557C568.367 356.183 568.526 356.147 569.458 357.013C570.951 358.399 570.074 359.164 564.184 361.615C561.322 362.807 558.644 363.666 558.232 363.525C557.821 363.384 557.463 362.687 557.436 361.975L557.389 360.682L562.573 358.557Z M523.326 371.267C528.771 370.28 530.603 370.205 531.179 370.948C531.581 371.466 531.446 372.352 530.861 373.048C530.228 373.8 519.259 375.583 518.329 375.085C517.921 374.866 517.656 374.139 517.741 373.469L517.895 372.252L523.326 371.267Z M502.565 373.534C508.092 373.249 509.919 373.408 510.395 374.218C510.728 374.783 510.482 375.644 509.812 376.261C509.089 376.926 497.982 377.297 497.123 376.684C496.746 376.415 496.576 375.66 496.746 375.007L497.053 373.819L502.565 373.534Z M482.676 373.048C488.173 373.693 489.947 374.156 490.281 375.034C490.515 375.647 490.127 376.455 489.364 376.951C488.539 377.485 477.527 375.99 476.783 375.242C476.457 374.914 476.416 374.141 476.692 373.525L477.194 372.406L482.676 373.048Z M284.993 339.352C280.693 335.436 279.396 334.533 278.426 334.778C276.946 335.153 277.666 336.879 280.491 339.73C282.122 341.374 284.249 343.292 285.218 343.991L286.98 345.262L287.675 344.676C289.086 343.486 288.708 342.735 284.993 339.352Z M298.338 349.32C292.854 346.298 292.7 346.245 291.675 346.998C290.033 348.204 290.817 349.065 296.388 352.174C299.094 353.685 301.656 354.845 302.081 354.753C302.506 354.659 302.942 354.008 303.049 353.304L303.245 352.024L298.338 349.32Z M334.93 365.274C329.666 363.565 327.861 363.245 327.19 363.904C326.722 364.363 326.737 365.259 327.223 366.028C327.75 366.858 338.38 370.098 339.368 369.729C339.802 369.567 340.162 368.882 340.168 368.207L340.179 366.98L334.93 365.274Z M315.768 358.019C309.974 355.644 309.814 355.609 308.883 356.474C307.39 357.861 308.267 358.626 314.157 361.077C317.018 362.268 319.696 363.127 320.108 362.987C320.52 362.846 320.878 362.149 320.904 361.437L320.952 360.143L315.768 358.019Z M355.015 370.728C349.57 369.741 347.738 369.667 347.162 370.409C346.76 370.927 346.894 371.813 347.48 372.51C348.113 373.262 359.082 375.045 360.012 374.547C360.42 374.328 360.684 373.601 360.6 372.931L360.446 371.713L355.015 370.728Z M375.775 372.995C370.249 372.71 368.422 372.869 367.945 373.68C367.612 374.244 367.859 375.106 368.529 375.722C369.252 376.387 380.359 376.758 381.218 376.146C381.595 375.877 381.764 375.122 381.595 374.468L381.288 373.28L375.775 372.995Z M395.664 372.51C390.168 373.154 388.394 373.617 388.06 374.496C387.826 375.108 388.213 375.917 388.977 376.412C389.802 376.947 400.814 375.452 401.558 374.704C401.884 374.376 401.925 373.603 401.649 372.987L401.146 371.867L395.664 372.51Z M583.831 540.315C588.132 536.399 589.428 535.496 590.399 535.741C591.878 536.115 591.158 537.842 588.333 540.692C586.702 542.337 584.576 544.255 583.607 544.954L581.844 546.225L581.15 545.638C579.739 544.449 580.117 543.698 583.831 540.315Z M570.486 550.283C575.971 547.261 576.125 547.208 577.15 547.961C578.791 549.167 578.008 550.028 572.437 553.137C569.73 554.648 567.168 555.808 566.743 555.715C566.318 555.622 565.883 554.971 565.775 554.266L565.58 552.987L570.486 550.283Z M533.895 566.237C539.158 564.528 540.964 564.208 541.634 564.866C542.102 565.325 542.088 566.221 541.601 566.99C541.075 567.821 530.444 571.061 529.456 570.692C529.022 570.53 528.663 569.845 528.656 569.17L528.645 567.943L533.895 566.237Z M553.057 558.981C558.851 556.607 559.01 556.572 559.942 557.437C561.434 558.823 560.558 559.589 554.668 562.04C551.806 563.231 549.128 564.09 548.716 563.95C548.305 563.809 547.947 563.111 547.92 562.399L547.872 561.106L553.057 558.981Z M513.809 571.691C519.255 570.704 521.087 570.629 521.663 571.372C522.065 571.89 521.93 572.776 521.345 573.472C520.712 574.224 509.742 576.007 508.813 575.509C508.405 575.291 508.14 574.563 508.225 573.894L508.378 572.676L513.809 571.691Z M493.049 573.958C498.576 573.673 500.403 573.832 500.879 574.642C501.212 575.207 500.966 576.069 500.296 576.685C499.572 577.35 488.465 577.721 487.607 577.108C487.23 576.839 487.06 576.084 487.229 575.431L487.537 574.243L493.049 573.958Z M473.16 573.472C478.656 574.117 480.431 574.58 480.765 575.459C480.998 576.071 480.611 576.879 479.848 577.375C479.023 577.909 468.92 576.489 468.176 575.741C467.849 575.413 468.399 574.51 468.676 573.894L469.176 573.241L473.16 573.472Z M295.02 540.315C290.719 536.399 289.423 535.496 288.453 535.741C286.973 536.115 287.693 537.842 290.518 540.692C292.149 542.337 294.276 544.255 295.245 544.954L297.007 546.225L297.702 545.638C299.113 544.449 298.735 543.698 295.02 540.315Z M308.365 550.283C302.881 547.261 302.727 547.208 301.702 547.961C300.06 549.167 300.844 550.028 306.415 553.137C309.121 554.648 311.683 555.808 312.109 555.715C312.533 555.622 312.969 554.971 313.077 554.266L313.272 552.987L308.365 550.283Z M344.957 566.237C339.693 564.528 337.888 564.208 337.217 564.866C336.749 565.325 336.764 566.221 337.25 566.99C337.777 567.821 348.407 571.061 349.395 570.692C349.829 570.53 350.189 569.845 350.195 569.17L350.206 567.943L344.957 566.237Z M325.795 558.981C320.001 556.607 319.842 556.572 318.91 557.437C317.417 558.823 318.294 559.589 324.184 562.04C327.046 563.231 329.723 564.09 330.135 563.95C330.547 563.809 330.905 563.111 330.931 562.399L330.979 561.106L325.795 558.981Z M365.042 571.691C359.597 570.704 357.765 570.629 357.189 571.372C356.787 571.89 356.921 572.776 357.507 573.472C358.14 574.224 369.109 576.007 370.039 575.509C370.447 575.291 370.711 574.563 370.627 573.894L370.473 572.676L365.042 571.691Z M385.802 573.958C380.276 573.673 378.449 573.832 377.972 574.642C377.64 575.207 377.886 576.069 378.556 576.685C379.279 577.35 390.386 577.721 391.245 577.108C391.622 576.839 391.791 576.084 391.622 575.431L391.315 574.243L385.802 573.958Z M405.691 573.472C400.195 574.117 398.421 574.58 398.087 575.459C397.853 576.071 398.24 576.879 399.004 577.375C399.829 577.909 409.432 576.489 410.176 575.741C410.502 575.413 410.952 574.859 410.676 574.243L410.176 573.241L405.691 573.472Z M539.996 0.240845L543.495 6.60684C547.472 13.8418 551.606 25.5069 555.079 39.2979L557.458 48.7408V96.8839L565.034 93.9078L567.746 95.8889C569.238 96.9789 571.307 99.5798 572.345 101.67L574.232 105.471L574.17 115.106C574.047 134.275 567.398 156.614 557.465 171.229C554.665 175.348 550.824 179.763 548.928 181.041L545.48 183.364L535.458 182.832L533.762 196.286C532.829 203.686 531.564 215.679 530.951 222.935L529.836 236.13L530.922 245.935C533.777 271.696 544.158 292.978 560.207 305.973C572.535 315.954 602.119 332.354 622.103 340.286C633.907 344.97 653.167 354.843 661.874 360.672C667.145 364.201 675.377 370.742 680.166 375.207L688.874 383.326L694.666 384.219C697.852 384.71 705.558 385.608 711.792 386.215C757.518 390.669 789.085 413.038 808.499 454.741C826.293 492.966 830.874 534.395 823.068 586.493C821.357 597.906 819.958 608.675 819.958 610.422C819.958 612.17 822.408 621.057 825.402 630.171C835.447 660.744 839.445 688.369 838.873 723.241C838.661 736.166 838.508 757.541 838.533 770.741L838.577 794.741L840.329 804.241C843.089 819.207 847.499 835.633 852.545 849.741C867.766 892.296 873.083 913.726 875.869 943.741C877.128 957.305 878.423 989.924 877.676 989.241C877.375 988.966 876.613 982.441 875.983 974.741C873.745 947.402 868.207 914.19 862.56 894.241C861.237 889.566 855.867 873.141 850.627 857.741C838.397 821.796 834.253 802.211 833.698 777.741C833.574 772.241 833.87 752.891 834.356 734.741L835.241 701.741L833.518 688.241C830.074 661.248 825.325 641.387 817.022 619.249C810.207 601.078 801.41 583.109 793.763 571.741C790.803 567.341 787.975 563.066 787.478 562.241L786.574 560.741L788.401 562.225C791.384 564.649 803.261 582.963 809.643 594.978L815.583 606.161L818.881 583.451C823.05 554.749 823.747 538.216 821.547 520.241C818.46 495.012 813.656 477.143 804.757 457.785C790.021 425.733 769.557 406.515 739.458 396.464C729.743 393.22 716.482 390.739 702.958 389.635L694.458 388.941L701.958 397.247V401.021C701.958 403.097 701.343 405.684 700.59 406.768L699.223 408.741L706.269 408.972C714.813 409.252 722.696 411.412 729.687 415.389C737.215 419.671 737.301 420.949 729.807 417.156C721.104 412.751 714.911 411.267 705.176 411.253C695.422 411.239 689.244 413.071 675.088 420.177C655.999 429.759 646.622 439.345 636.192 459.941C629.615 472.928 627.493 478.864 623.032 496.741C617.914 517.254 616.249 525.75 610.984 558.241C608.176 575.566 604.967 594.559 603.853 600.448L601.826 611.154L603.812 615.644C606.707 622.188 613.582 628.623 619.932 630.732L625.226 632.491L631.842 632.001C635.809 631.707 641.566 630.297 646.221 628.478C663.271 621.816 688.024 601.418 703.132 581.581C707.044 576.444 710.432 572.241 710.66 572.241C712.578 572.241 697.19 591.902 688.176 600.967C665.148 624.128 644.494 635.18 626.411 634.02L619.324 633.565L614.391 630.869C605.996 626.281 599.901 615.729 593.855 595.314L591.656 587.888L587.917 602.814C582.247 625.445 572.649 647.546 549.762 690.669C544.195 701.159 536.385 716.041 532.407 723.741C504.468 777.815 489.088 823.567 481.48 875.241C480.062 884.866 478.141 896.741 477.832 897.743L476.069 905.186C473.132 916.646 465.17 927.887 456.896 932.257C455.555 932.965 441.822 937.78 438.676 940.241C435.53 937.78 422.841 932.965 421.5 932.257C413.226 927.887 405.264 916.646 402.327 905.186L400.564 897.743C400.255 896.741 398.334 884.866 396.916 875.241C389.308 823.567 373.928 777.815 345.989 723.741C342.011 716.041 334.201 701.159 328.634 690.669C305.747 647.546 296.149 625.445 290.479 602.814L286.74 587.888L284.541 595.314C278.495 615.729 272.4 626.281 264.005 630.869L259.072 633.565L251.985 634.02C233.902 635.18 213.248 624.128 190.22 600.967C181.206 591.902 165.818 572.241 167.736 572.241C167.964 572.241 171.352 576.444 175.264 581.581C190.372 601.418 215.125 621.816 232.175 628.478C236.83 630.297 242.587 631.707 246.554 632.001L253.17 632.491L258.464 630.732C264.814 628.623 271.689 622.188 274.584 615.644L276.57 611.154L274.543 600.448C273.429 594.559 270.22 575.566 267.412 558.241C262.147 525.75 260.482 517.254 255.364 496.741C250.903 478.864 248.781 472.928 242.204 459.941C231.774 439.345 222.397 429.759 203.308 420.177C189.152 413.071 182.974 411.239 173.22 411.253C163.485 411.267 157.292 412.751 148.589 417.156C141.095 420.949 141.181 419.671 148.709 415.389C155.7 411.412 163.583 409.252 172.127 408.972L179.173 408.741L177.806 406.768C177.053 405.684 176.438 403.097 176.438 401.021V397.247L183.938 388.941L175.438 389.635C161.914 390.739 148.653 393.22 138.938 396.464C108.839 406.515 88.3748 425.733 73.6388 457.785C64.7398 477.143 59.9359 495.012 56.8489 520.241C54.6489 538.216 55.3459 554.749 59.5149 583.451L62.8129 606.161L68.7528 594.978C75.1348 582.963 87.0119 564.649 89.9949 562.225L91.8218 560.741L90.9179 562.241C90.4209 563.066 87.5928 567.341 84.6328 571.741C76.9859 583.109 68.1888 601.078 61.3738 619.249C53.0708 641.387 48.3218 661.248 44.8778 688.241L43.1548 701.741L44.0398 734.741C44.5258 752.891 44.8219 772.241 44.6979 777.741C44.1429 802.211 39.9988 821.796 27.7688 857.741C22.5288 873.141 17.1588 889.566 15.8358 894.241C10.1889 914.19 4.65084 947.402 2.41286 974.741C1.78285 982.441 1.02089 988.966 0.719866 989.241C-0.0271432 989.924 1.2679 957.305 2.52687 943.741C5.31288 913.726 10.6298 892.296 25.8508 849.741C30.8969 835.633 35.3069 819.207 38.0669 804.241L39.8189 794.741L39.8628 770.741C39.8878 757.541 39.7348 736.166 39.5228 723.241C38.9508 688.369 42.9489 660.744 52.9939 630.171C55.9879 621.057 58.4379 612.17 58.4379 610.422C58.4379 608.675 57.0389 597.906 55.3279 586.493C47.5219 534.395 52.1029 492.966 69.8969 454.741C89.3109 413.038 120.878 390.669 166.604 386.215C172.838 385.608 180.544 384.71 183.73 384.219L189.522 383.326L198.23 375.207C203.019 370.742 211.251 364.201 216.522 360.672C225.229 354.843 244.489 344.97 256.293 340.286C276.277 332.354 305.861 315.954 318.189 305.973C334.238 292.978 344.619 271.696 347.474 245.935L348.56 236.13L347.445 222.935C346.832 215.679 345.567 203.686 344.634 196.286L342.938 182.832L332.916 183.364L329.468 181.041C327.572 179.763 323.731 175.348 320.931 171.229C310.998 156.614 304.349 134.275 304.226 115.106L304.164 105.471L306.051 101.67C307.089 99.5798 309.158 96.9789 310.65 95.8889L313.362 93.9078L320.938 96.8839V48.7408L323.317 39.2979C326.79 25.5069 330.924 13.8418 334.901 6.60684L338.4 0.240845M534.735 0.240845L538.755 7.99084C544.07 18.2358 549.632 34.4668 551.672 45.6828C552.782 51.7878 553.308 60.1198 553.286 71.2408L553.254 87.7408L550.666 103.741C546.628 128.719 546.613 128.834 547.664 127.741C548.193 127.191 549.878 122.466 551.408 117.241C554.525 106.6 556.677 102.955 561.23 100.6L564.345 98.9898L566.549 101.552C569.797 105.327 570.333 112.135 568.497 126.251C565.918 146.073 558.336 164.698 548.828 174.568L544.177 179.395L541.418 179.068C539.901 178.888 538.183 177.979 537.6 177.048L536.541 175.356L537.795 166.678C538.486 161.905 538.84 157.789 538.583 157.532C537.544 156.494 531.024 179.364 529.967 187.754C529.344 192.697 528.598 198.302 528.309 200.211L527.785 203.68L519.787 188.358L511.078 179.549C498.282 166.606 486.615 160.357 471.39 158.29L463.322 157.195L456.89 158.631C453.352 159.421 447.924 160.638 444.828 161.335L439.198 162.604L433.568 161.335C430.472 160.638 425.044 159.421 421.506 158.631L415.074 157.195L407.006 158.29C391.781 160.357 380.114 166.606 367.318 179.549L358.609 188.358L350.611 203.68L350.087 200.211C349.798 198.302 349.052 192.697 348.429 187.754C347.372 179.364 340.852 156.494 339.813 157.532C339.556 157.789 339.91 161.905 340.601 166.678L341.855 175.356L340.796 177.048C340.213 177.979 338.495 178.888 336.978 179.068L334.219 179.395L329.568 174.568C320.06 164.698 312.478 146.073 309.899 126.251C308.063 112.135 308.599 105.327 311.847 101.552L314.051 98.9898L317.166 100.6C321.719 102.955 323.871 106.6 326.988 117.241C328.518 122.466 330.203 127.191 330.732 127.741C331.783 128.834 331.768 128.719 327.73 103.741L325.142 87.7408L325.11 71.2408C325.088 60.1198 325.614 51.7878 326.724 45.6828C328.764 34.4668 334.326 18.2358 339.641 7.99084L343.661 0.240845M787.83 568.562C784.569 564.572 764.099 547.89 755.18 541.954C749.833 538.395 736.908 530.999 726.458 525.518M90.5658 568.562C93.8268 564.572 114.297 547.89 123.216 541.954C128.563 538.395 141.488 530.999 151.938 525.518M599.915 335.317C598.944 335.072 597.648 335.974 593.347 339.891C589.633 343.274 589.255 344.024 590.666 345.214L591.36 345.8L593.123 344.529C594.092 343.831 596.219 341.913 597.849 340.268C600.674 337.418 601.395 335.691 599.915 335.317ZM586.666 347.536C585.641 346.783 585.487 346.837 580.003 349.859L575.096 352.563L575.291 353.842C575.399 354.546 575.834 355.198 576.259 355.291C576.685 355.384 579.247 354.223 581.953 352.712C587.524 349.603 588.307 348.743 586.666 347.536ZM551.151 364.442C550.48 363.783 548.674 364.104 543.411 365.813L538.162 367.518L538.173 368.746C538.179 369.421 538.539 370.106 538.972 370.268C539.961 370.636 550.591 367.396 551.117 366.566C551.604 365.797 551.618 364.901 551.151 364.442ZM569.458 357.013C568.526 356.147 568.367 356.183 562.573 358.557L557.389 360.682L557.436 361.975C557.463 362.687 557.821 363.384 558.232 363.525C558.644 363.666 561.322 362.807 564.184 361.615C570.074 359.164 570.951 358.399 569.458 357.013ZM531.179 370.948C530.603 370.205 528.771 370.28 523.326 371.267L517.895 372.252L517.741 373.469C517.656 374.139 517.921 374.866 518.329 375.085C519.259 375.583 530.228 373.8 530.861 373.048C531.446 372.352 531.581 371.466 531.179 370.948ZM510.395 374.218C509.919 373.408 508.092 373.249 502.565 373.534L497.053 373.819L496.746 375.007C496.576 375.66 496.746 376.415 497.123 376.684C497.982 377.297 509.089 376.926 509.812 376.261C510.482 375.644 510.728 374.783 510.395 374.218ZM490.281 375.034C489.947 374.156 488.173 373.693 482.676 373.048L477.194 372.406L476.692 373.525C476.416 374.141 476.457 374.914 476.783 375.242C477.527 375.99 488.539 377.485 489.364 376.951C490.127 376.455 490.515 375.647 490.281 375.034ZM278.426 334.778C279.396 334.533 280.693 335.436 284.993 339.352C288.708 342.735 289.086 343.486 287.675 344.676L286.98 345.262L285.218 343.991C284.249 343.292 282.122 341.374 280.491 339.73C277.666 336.879 276.946 335.153 278.426 334.778ZM291.675 346.998C292.7 346.245 292.854 346.298 298.338 349.32L303.245 352.024L303.049 353.304C302.942 354.008 302.506 354.659 302.081 354.753C301.656 354.845 299.094 353.685 296.388 352.174C290.817 349.065 290.033 348.204 291.675 346.998ZM327.19 363.904C327.861 363.245 329.666 363.565 334.93 365.274L340.179 366.98L340.168 368.207C340.162 368.882 339.802 369.567 339.368 369.729C338.38 370.098 327.75 366.858 327.223 366.028C326.737 365.259 326.722 364.363 327.19 363.904ZM308.883 356.474C309.814 355.609 309.974 355.644 315.768 358.019L320.952 360.143L320.904 361.437C320.878 362.149 320.52 362.846 320.108 362.987C319.696 363.127 317.018 362.268 314.157 361.077C308.267 358.626 307.39 357.861 308.883 356.474ZM347.162 370.409C347.738 369.667 349.57 369.741 355.015 370.728L360.446 371.713L360.6 372.931C360.684 373.601 360.42 374.328 360.012 374.547C359.082 375.045 348.113 373.262 347.48 372.51C346.894 371.813 346.76 370.927 347.162 370.409ZM367.945 373.68C368.422 372.869 370.249 372.71 375.775 372.995L381.288 373.28L381.595 374.468C381.764 375.122 381.595 375.877 381.218 376.146C380.359 376.758 369.252 376.387 368.529 375.722C367.859 375.106 367.612 374.244 367.945 373.68ZM388.06 374.496C388.394 373.617 390.168 373.154 395.664 372.51L401.146 371.867L401.649 372.987C401.925 373.603 401.884 374.376 401.558 374.704C400.814 375.452 389.802 376.947 388.977 376.412C388.213 375.917 387.826 375.108 388.06 374.496ZM448.79 163.596C446.772 164.226 444.868 164.995 444.558 165.306C443.987 165.879 443.59 934.207 444.161 934.777C444.331 934.948 445.944 933.884 447.745 932.414L451.02 929.741L449.971 911.241C446.298 846.418 444.076 738.087 445.87 711.241C448.384 673.609 453.253 637.068 460.593 600.741C466.058 573.692 466.467 568.275 465.074 541.307L463.967 519.872L464.973 479.307C466.093 434.143 467.262 413.364 469.476 399.241C470.296 394.016 471.243 384.341 471.582 377.741L472.198 365.741L470.102 353.741C468.949 347.141 465.552 329.366 462.553 314.241C453.244 267.293 450.159 241.612 449.268 203.657L448.679 178.573L449.953 173.157C450.653 170.178 451.853 166.503 452.618 164.991C454.147 161.969 454.079 161.945 448.79 163.596ZM643.794 432.178C628.381 438.237 619.369 443.723 612.7 451.104C605.194 459.413 602.598 467.459 600.442 489.102C599.466 498.902 597.9 508.101 596.248 513.741L593.612 522.741L592.807 584.04L600.372 608.499L601.091 606.12C601.486 604.812 602.997 595.641 604.449 585.741C610.795 542.476 617.693 506.56 623.655 485.741C630.344 462.382 642.094 441.333 654.577 430.345C657.142 428.088 659.064 426.28 658.849 426.327C658.634 426.374 651.859 429.007 643.794 432.178ZM721.214 553.439C713.749 567.68 712.415 571.194 708.57 586.741C703.259 608.215 701.251 620.982 697.483 657.241C692.785 702.449 687.615 719.815 659.973 783.241C652.299 800.849 648.949 812.241 644.022 837.486C637.357 871.639 634.637 906.462 636.273 936.691L639.4 971.241C640.335 979.216 641.504 987.316 641.999 989.241L642.897 992.741L642.448 986.241C637.921 920.74 639.633 879.001 648.559 837.241C655.166 806.333 657.87 798.283 672.239 766.741C680.375 748.882 688.273 727.383 692.077 712.741L695.454 699.741L696.175 710.741C698.727 749.684 703.758 773.598 717.423 811.741C727.666 840.332 731.952 864.628 731.969 894.199C731.98 912.908 733.616 932.908 736.542 950.085C738.443 961.246 743.701 982.578 743.852 979.741C743.91 978.641 742.627 968.291 741.002 956.741C736.968 928.084 735.98 915.235 735.968 891.241L735.958 870.741L733.921 858.241C730.991 840.254 727.762 827.911 720.534 807.074C717.029 796.97 712.543 782.862 710.564 775.722C702.419 746.336 698.35 701.752 700.893 669.741C705.172 615.866 712.3 580.239 724.58 551.345C727.011 545.627 728.816 540.766 728.593 540.543C728.37 540.32 725.05 546.123 721.214 553.439ZM429.606 163.596C431.624 164.226 433.528 164.995 433.838 165.306C434.409 165.879 434.806 934.207 434.235 934.777C434.065 934.948 432.452 933.884 430.651 932.414L427.376 929.741L428.425 911.241C432.098 846.418 434.32 738.087 432.526 711.241C430.012 673.609 425.143 637.068 417.803 600.741C412.338 573.692 411.929 568.275 413.322 541.307L414.429 519.872L413.423 479.307C412.303 434.143 411.134 413.364 408.92 399.241C408.1 394.016 407.153 384.341 406.814 377.741L406.198 365.741L408.294 353.741C409.447 347.141 412.844 329.366 415.843 314.241C425.152 267.293 428.237 241.612 429.128 203.657L429.717 178.573L428.443 173.157C427.743 170.178 426.543 166.503 425.778 164.991C424.249 161.969 424.317 161.945 429.606 163.596ZM234.602 432.178C250.015 438.237 259.027 443.723 265.696 451.104C273.202 459.413 275.798 467.459 277.954 489.102C278.93 498.902 280.496 508.101 282.148 513.741L284.784 522.741L285.589 584.04L278.024 608.499L277.305 606.12C276.91 604.812 275.399 595.641 273.947 585.741C267.601 542.476 260.703 506.56 254.741 485.741C248.052 462.382 236.302 441.333 223.819 430.345C221.254 428.088 219.332 426.28 219.547 426.327C219.762 426.374 226.537 429.007 234.602 432.178ZM157.182 553.439C164.647 567.68 165.981 571.194 169.826 586.741C175.137 608.215 177.145 620.982 180.913 657.241C185.611 702.449 190.781 719.815 218.423 783.241C226.097 800.849 229.447 812.241 234.374 837.486C241.039 871.639 243.759 906.462 242.123 936.691L238.996 971.241C238.061 979.216 236.892 987.316 236.397 989.241L235.499 992.741L235.948 986.241C240.475 920.74 238.763 879.001 229.837 837.241C223.23 806.333 220.526 798.283 206.157 766.741C198.021 748.882 190.123 727.383 186.319 712.741L182.942 699.741L182.221 710.741C179.669 749.684 174.638 773.598 160.973 811.741C150.73 840.332 146.444 864.628 146.427 894.199C146.416 912.908 144.78 932.908 141.854 950.085C139.953 961.246 134.695 982.578 134.544 979.741C134.486 978.641 135.769 968.291 137.394 956.741C141.428 928.084 142.416 915.235 142.428 891.241L142.438 870.741L144.475 858.241C147.405 840.254 150.634 827.911 157.862 807.074C161.367 796.97 165.853 782.862 167.832 775.722C175.977 746.336 180.046 701.752 177.503 669.741C173.224 615.866 166.096 580.239 153.816 551.345C151.385 545.627 149.58 540.766 149.803 540.543C150.026 540.32 153.346 546.123 157.182 553.439ZM590.399 535.741C589.428 535.496 588.132 536.399 583.831 540.315C580.117 543.698 579.739 544.449 581.15 545.638L581.844 546.225L583.607 544.954C584.576 544.255 586.702 542.337 588.333 540.692C591.158 537.842 591.878 536.115 590.399 535.741ZM577.15 547.961C576.125 547.208 575.971 547.261 570.486 550.283L565.58 552.987L565.775 554.266C565.883 554.971 566.318 555.622 566.743 555.715C567.168 555.808 569.73 554.648 572.437 553.137C578.008 550.028 578.791 549.167 577.15 547.961ZM541.634 564.866C540.964 564.208 539.158 564.528 533.895 566.237L528.645 567.943L528.656 569.17C528.663 569.845 529.022 570.53 529.456 570.692C530.444 571.061 541.075 567.821 541.601 566.99C542.088 566.221 542.102 565.325 541.634 564.866ZM559.942 557.437C559.01 556.572 558.851 556.607 553.057 558.981L547.872 561.106L547.92 562.399C547.947 563.111 548.305 563.809 548.716 563.95C549.128 564.09 551.806 563.231 554.668 562.04C560.558 559.589 561.434 558.823 559.942 557.437ZM521.663 571.372C521.087 570.629 519.255 570.704 513.809 571.691L508.378 572.676L508.225 573.894C508.14 574.563 508.405 575.291 508.813 575.509C509.742 576.007 520.712 574.224 521.345 573.472C521.93 572.776 522.065 571.89 521.663 571.372ZM500.879 574.642C500.403 573.832 498.576 573.673 493.049 573.958L487.537 574.243L487.229 575.431C487.06 576.084 487.23 576.839 487.607 577.108C488.465 577.721 499.572 577.35 500.296 576.685C500.966 576.069 501.212 575.207 500.879 574.642ZM480.765 575.459C480.431 574.58 478.656 574.117 473.16 573.472L469.176 573.241L468.676 573.894C468.399 574.51 467.849 575.413 468.176 575.741C468.92 576.489 479.023 577.909 479.848 577.375C480.611 576.879 480.998 576.071 480.765 575.459ZM288.453 535.741C289.423 535.496 290.719 536.399 295.02 540.315C298.735 543.698 299.113 544.449 297.702 545.638L297.007 546.225L295.245 544.954C294.276 544.255 292.149 542.337 290.518 540.692C287.693 537.842 286.973 536.115 288.453 535.741ZM301.702 547.961C302.727 547.208 302.881 547.261 308.365 550.283L313.272 552.987L313.077 554.266C312.969 554.971 312.533 555.622 312.109 555.715C311.683 555.808 309.121 554.648 306.415 553.137C300.844 550.028 300.06 549.167 301.702 547.961ZM337.217 564.866C337.888 564.208 339.693 564.528 344.957 566.237L350.206 567.943L350.195 569.17C350.189 569.845 349.829 570.53 349.395 570.692C348.407 571.061 337.777 567.821 337.25 566.99C336.764 566.221 336.749 565.325 337.217 564.866ZM318.91 557.437C319.842 556.572 320.001 556.607 325.795 558.981L330.979 561.106L330.931 562.399C330.905 563.111 330.547 563.809 330.135 563.95C329.723 564.09 327.046 563.231 324.184 562.04C318.294 559.589 317.417 558.823 318.91 557.437ZM357.189 571.372C357.765 570.629 359.597 570.704 365.042 571.691L370.473 572.676L370.627 573.894C370.711 574.563 370.447 575.291 370.039 575.509C369.109 576.007 358.14 574.224 357.507 573.472C356.921 572.776 356.787 571.89 357.189 571.372ZM377.972 574.642C378.449 573.832 380.276 573.673 385.802 573.958L391.315 574.243L391.622 575.431C391.791 576.084 391.622 576.839 391.245 577.108C390.386 577.721 379.279 577.35 378.556 576.685C377.886 576.069 377.64 575.207 377.972 574.642ZM398.087 575.459C398.421 574.58 400.195 574.117 405.691 573.472L410.176 573.241L410.676 574.243C410.952 574.859 410.502 575.413 410.176 575.741C409.432 576.489 399.829 577.909 399.004 577.375C398.24 576.879 397.853 576.071 398.087 575.459Z" />

  <g class="detail-region" data-region="trapezius-upper" tabindex="0" role="button">
    <path id="trapezius-upper" transform="translate(276.62,157.46) scale(1)" d="M304.773 193.171L299.866 195.875C297.152 197.875 295.584 198.726 292.66 199.872C291.787 200.057 290.297 200.659 287.343 201.87L282.159 203.994C279.325 205.825 277.6 206.511 274.446 207.458C273.278 207.567 271.36 208.093 268.181 209.126L262.932 210.831C259.426 212.452 257.308 213.033 253.446 213.794C252.245 213.879 250.532 214.138 248.096 214.58L242.665 215.565C238.862 216.498 236.599 216.677 232.446 216.735C231.261 216.687 229.612 216.729 227.336 216.846L221.823 217.131C219.17 217.648 216.659 217.788 214.114 217.569C213.071 217.131 211.066 216.785 207.447 216.361L201.965 215.718C199.842 215.758 198.679 215.581 196.66 215.054L196.968 209.054L194.872 197.054C193.719 190.454 190.322 172.679 187.323 157.554C178.014 110.606 174.929 84.9245 174.038 46.9695L173.449 21.8855L174.723 16.4695C175.423 13.4905 176.623 9.81551 177.388 8.30351L181.66 1.94351L188.092 0.507507L196.16 1.60251C211.385 3.66951 223.052 9.91852 235.848 22.8615L244.557 31.6705L252.555 46.9925L255.721 66.2475L254.606 79.4425L255.692 89.2475C258.547 115.008 268.928 136.291 284.977 149.286C293.599 156.266 310.661 166.386 326.977 174.554L323.946 178.661C322.975 178.946 321.446 180.172 318.118 183.204C316.552 184.629 315.579 185.587 315.083 186.308C313.544 188.192 312.633 189.107 310.446 190.446C309.687 190.477 308.388 191.18 304.773 193.171Z M22.9596 193.171L27.8664 195.875C30.58 197.875 32.1488 198.726 35.072 199.872C35.9458 200.057 37.4352 200.659 40.3893 201.87L45.5735 203.994C48.4078 205.825 50.1325 206.511 53.2864 207.458C54.4544 207.567 56.3721 208.093 59.5511 209.126L64.8006 210.831C68.3068 212.452 70.4245 213.033 74.2864 213.794C75.4873 213.879 77.2003 214.138 79.6366 214.58L85.0675 215.565C88.8702 216.498 91.1338 216.677 95.2864 216.735C96.4716 216.687 98.1203 216.729 100.397 216.846L105.909 217.131C108.563 217.648 111.073 217.788 113.618 217.569C114.661 217.131 116.667 216.785 120.286 216.361L125.768 215.718C127.891 215.758 129.053 215.581 131.072 215.054L130.764 209.054L132.86 197.054C134.013 190.454 137.41 172.679 140.409 157.554C149.718 110.606 152.803 84.9245 153.694 46.9695L154.283 21.8855L153.009 16.4695C152.309 13.4905 151.109 9.81551 150.344 8.30351L146.072 1.94351L139.64 0.507507L131.572 1.60251C116.347 3.66951 104.68 9.91852 91.8843 22.8615L83.1753 31.6705L75.1773 46.9925L72.0113 66.2475L73.1263 79.4425L72.0403 89.2475C69.1853 115.008 58.8043 136.291 42.7553 149.286C34.1334 156.266 17.071 166.386 0.755341 174.554L3.78641 178.661C4.75738 178.946 6.28621 180.172 9.61484 183.204C11.1802 184.629 12.153 185.587 12.649 186.308C14.188 188.192 15.0994 189.107 17.2864 190.446C18.0456 190.477 19.3448 191.18 22.9596 193.171Z" />
  </g>

  <g class="detail-region" data-region="trapezius-middle" tabindex="0" role="button">
    <path id="trapezius-middle" transform="translate(176.85,331.53) scale(1)" d="M415.624 14.5335L417.386 13.2626C418.355 12.5638 420.482 10.6462 422.113 9.00131C423.596 7.50465 424.499 6.31791 424.808 5.474L427.826 0.648987C434.367 3.88797 440.746 6.78834 446.366 9.01901C458.17 13.703 477.43 23.576 486.137 29.405C491.408 32.934 499.64 39.475 504.429 43.94L513.137 52.059L518.721 57.674L526.221 65.98V69.754C526.221 71.83 525.606 74.417 524.853 75.501L523.486 77.474L518.721 81.0724C513.474 82.2785 507.85 84.6438 499.351 88.91L483.112 95.06C482.897 95.107 476.122 97.74 468.057 100.911C452.644 106.97 443.632 112.456 436.963 119.837C429.457 128.146 426.861 136.192 424.705 157.835C423.729 167.635 422.163 176.834 420.511 182.474L417.875 191.474L417.751 200.974L414.662 204.474C413.692 204.229 412.396 205.132 408.095 209.048C406.059 210.903 405.025 211.966 404.739 212.745L394.75 219.016L389.843 221.72L377.32 227.715L372.136 229.839L358.158 234.97L352.909 236.676L338.073 240.424L332.642 241.409L317.313 242.691L311.801 242.976L297.424 242.206L293.439 241.974L289.53 241.409C290.312 232.714 290.082 224.456 289.337 210.04L288.23 188.605L289.236 148.04C290.356 102.876 291.526 82.097 293.74 67.974C294.56 62.749 295.506 53.074 295.845 46.474L295.999 43.474L301.047 43.9755C301.791 44.7232 312.803 46.2182 313.628 45.6837L321.386 45.4172C322.245 46.0297 333.352 45.659 334.076 44.9938L342.592 43.8183C343.522 44.3164 354.491 42.5334 355.124 41.7814L363.236 39.0008C364.224 39.3695 374.854 36.1295 375.381 35.2993L382.496 32.2585C382.908 32.3991 385.586 31.5397 388.447 30.3485C391.235 29.1887 392.899 28.4063 393.722 27.757L400.523 24.0242C400.948 24.1167 403.51 22.9564 406.217 21.4456C408.606 20.112 410.115 19.1921 410.929 18.4811L415.624 14.5335Z M111.097 14.5335L109.334 13.2626C108.365 12.5638 106.239 10.6462 104.608 9.00131C103.125 7.50465 102.222 6.31791 101.913 5.474L98.8946 0.648987C92.3535 3.88797 85.9743 6.78834 80.3543 9.01901C68.5503 13.703 49.2903 23.576 40.5833 29.405C35.3123 32.934 27.0803 39.475 22.2913 43.94L13.5833 52.059L7.9993 57.674L0.499298 65.98V69.754C0.499298 71.83 1.11423 74.417 1.86722 75.501L3.23428 77.474L7.9993 81.0724C13.2472 82.2785 18.8704 84.6438 27.3693 88.91L43.6083 95.06C43.8233 95.107 50.5982 97.74 58.6632 100.911C74.0763 106.97 83.0882 112.456 89.7572 119.837C97.2632 128.146 99.8593 136.192 102.015 157.835C102.991 167.635 104.557 176.834 106.209 182.474L108.845 191.474L108.97 200.974L112.059 204.474C113.029 204.229 114.325 205.132 118.626 209.048C120.662 210.903 121.696 211.966 121.982 212.745L131.971 219.016L136.878 221.72L149.401 227.715L154.585 229.839L168.562 234.97L173.812 236.676L188.648 240.424L194.079 241.409L209.408 242.691L214.92 242.976L229.297 242.206L233.281 241.974L237.191 241.409C236.409 232.714 236.639 224.456 237.383 210.04L238.49 188.605L237.484 148.04C236.364 102.876 235.195 82.097 232.981 67.974C232.161 62.749 231.214 53.074 230.875 46.474L230.721 43.474L225.674 43.9755C224.93 44.7232 213.918 46.2182 213.093 45.6837L205.334 45.4172C204.476 46.0297 193.369 45.659 192.645 44.9938L184.128 43.8183C183.199 44.3164 172.229 42.5334 171.596 41.7814L163.485 39.0008C162.497 39.3695 151.866 36.1295 151.34 35.2993L144.225 32.2585C143.813 32.3991 141.135 31.5397 138.273 30.3485C135.486 29.1887 133.821 28.4063 132.999 27.757L126.198 24.0242C125.773 24.1167 123.211 22.9564 120.504 21.4456C118.114 20.112 116.606 19.1921 115.791 18.4811L111.097 14.5335Z" />
  </g>

  <g class="detail-region" data-region="trapezius-lower" tabindex="0" role="button">
    <path id="trapezius-lower" transform="translate(284.71,533.27) scale(1)" d="M307.937 55.0674L304.198 69.9934C298.528 92.6244 288.93 114.725 266.043 157.848C260.476 168.338 252.666 183.22 248.688 190.92C220.749 244.994 205.369 290.746 197.761 342.42C196.343 352.045 194.422 363.921 194.113 364.923L192.35 372.365C189.413 383.825 181.451 395.066 173.177 399.436C172.653 399.713 170.237 400.617 167.301 401.762V396.92L166.252 378.42C162.579 313.597 160.357 205.266 162.151 178.42C164.665 140.788 169.534 104.247 176.874 67.9204C179.155 56.6276 180.556 49.1053 181.312 42.211L184.457 42.9204C185.201 43.6681 195.304 45.0889 196.129 44.5544L203.888 44.2879C204.746 44.9004 215.853 44.5297 216.577 43.8645L225.094 42.689C226.023 43.1871 236.992 41.4041 237.625 40.6521L245.737 37.8715C246.725 38.2402 257.356 35.0002 257.882 34.17L265.314 31.1292C266.191 31.0131 268.503 30.2374 270.948 29.2193C273.736 28.0594 275.401 27.277 276.223 26.6277L283.024 22.8949C283.449 22.9874 286.011 21.8271 288.718 20.3163C291.779 18.6079 293.395 17.5785 293.957 16.7975L298.125 13.4042L299.887 12.1333C300.857 11.4345 302.983 9.51689 304.614 7.87204C306.053 6.41961 306.946 5.25905 307.28 4.42044L309.742 1.42044L309.088 51.2195L307.937 55.0674Z M2.323 55.0674L6.06201 69.9934C11.732 92.6244 21.3299 114.725 44.2169 157.848C49.7839 168.338 57.594 183.22 61.572 190.92C89.511 244.994 104.891 290.746 112.499 342.42C113.917 352.045 115.838 363.921 116.147 364.923L117.91 372.365C120.847 383.825 128.809 395.066 137.083 399.436C137.607 399.713 140.022 400.617 142.959 401.762V396.92L144.008 378.42C147.681 313.597 149.903 205.266 148.109 178.42C145.595 140.788 140.726 104.247 133.386 67.9204C131.104 56.6276 129.704 49.1053 128.948 42.211L125.803 42.9204C125.059 43.6681 114.956 45.0889 114.131 44.5544L106.372 44.2879C105.514 44.9004 94.4066 44.5297 93.6829 43.8645L85.1662 42.689C84.2365 43.1871 73.2673 41.4041 72.6343 40.6521L64.5227 37.8715C63.5345 38.2402 52.9041 35.0002 52.3778 34.17L44.9462 31.1292C44.0689 31.0131 41.7572 30.2374 39.3113 29.2193C36.5239 28.0594 34.8592 27.277 34.0371 26.6277L27.2358 22.8949C26.8105 22.9874 24.2485 21.8271 21.542 20.3163C18.4808 18.6079 16.8652 17.5785 16.3031 16.7975L12.1346 13.4042L10.3723 12.1333C9.4032 11.4345 7.27643 9.51689 5.64575 7.87204C4.20637 6.41961 3.31339 5.25905 2.97943 4.42044L0.517944 1.42044L1.172 51.2195L2.323 55.0674Z" />
  </g>
</svg>
