<svg width="315" height="1150" viewBox="0 0 315 1150" fill="none" xmlns="http://www.w3.org/2000/svg">
<path d="M89.3965 213.461L91.3235 212.053C92.3825 211.278 93.3415 210.644 93.4545 210.644C93.5665 210.644 95.0555 212.821 96.7635 215.482C100.213 220.857 100.654 223.405 98.2895 224.312C96.3945 225.039 94.9205 223.568 91.7695 217.803L89.3965 213.461Z" fill="#FAFAFA"/>
<path d="M106.056 245.437C104.452 245.123 98.6155 231.861 99.4715 230.476C99.7545 230.018 101.033 229.644 102.313 229.644H104.641L107.149 236.394L109.657 243.144L108.605 244.437C108.026 245.148 106.879 245.598 106.056 245.437Z" fill="#FAFAFA"/>
<path d="M107.066 252.845L108.168 251.744C109.553 250.359 111.554 250.328 112.389 251.679C112.74 252.248 113.861 255.624 114.879 259.181L116.728 265.648L114.902 266.625C112.535 267.892 111.691 266.78 109.107 258.994L107.066 252.845Z" fill="#FAFAFA"/>
<path d="M115.097 281.212C114.376 277.96 114.015 274.702 114.295 273.972C115.252 271.477 118.787 272.452 119.449 275.394C119.79 276.906 120.505 279.889 121.04 282.021C122.118 286.32 121.231 288.053 118.245 287.478L116.41 287.125L115.097 281.212Z" fill="#FAFAFA"/>
<path d="M120.005 305.956C118.171 298.77 117.72 295.692 118.353 294.668C118.701 294.105 119.842 293.644 120.888 293.644H122.79L123.777 297.394C124.32 299.457 124.9 302.944 125.066 305.144L125.368 309.144L123.173 309.456L120.979 309.769L120.005 305.956Z" fill="#FAFAFA"/>
<path d="M124.282 330.195C122.978 328.412 121.544 317.977 122.41 316.576C122.727 316.063 123.822 315.644 124.844 315.644H126.701L127.785 320.693C128.381 323.47 128.868 326.797 128.868 328.086C128.868 330.985 125.868 332.365 124.282 330.195Z" fill="#FAFAFA"/>
<path d="M129.245 350.446C126.741 350.804 126.1 349.466 125.229 342.059L124.592 336.644H127.185H129.777L130.336 339.894C130.643 341.682 131.001 344.719 131.131 346.643L131.368 350.143L129.245 350.446Z" fill="#FAFAFA"/>
<path d="M128.514 368.841C128.166 365.157 127.879 360.906 127.875 359.394L127.868 356.644H130.253H132.638L133.282 362.394C133.636 365.557 134.167 369.772 134.462 371.762L134.999 375.38L133.434 375.98C130.244 377.205 129.155 375.625 128.514 368.841Z" fill="#FAFAFA"/>
<path d="M131.447 397.394C130.433 392.415 129.826 384.521 130.388 383.611C131.252 382.214 134.862 382.421 135.316 383.894C135.528 384.582 135.966 388.406 136.29 392.394L136.882 399.644H134.394H131.906L131.447 397.394Z" fill="#FAFAFA"/>
<path d="M134.604 421.096C132.968 420.468 131.151 408.612 132.386 406.615C132.755 406.018 134.027 405.668 135.212 405.837L137.368 406.144L137.868 412.98C138.386 420.064 137.521 422.215 134.604 421.096Z" fill="#FAFAFA"/>
<path d="M138.301 448.308C135.65 449.325 134.967 447.48 134.257 437.381L133.573 427.644H136.081H138.589L139.22 432.894C139.567 435.781 139.855 440.296 139.859 442.925L139.868 447.707L138.301 448.308Z" fill="#FAFAFA"/>
<path d="M137.629 479.805C136.682 478.858 134.808 457.696 135.555 456.394C135.792 455.981 137.018 455.644 138.28 455.644H140.574L141.221 463.295C141.577 467.503 141.868 472.855 141.868 475.188V479.43L140.201 480.07C139.284 480.422 138.127 480.303 137.629 479.805Z" fill="#FAFAFA"/>
<path d="M137.702 497.663C137.335 492.448 137.249 487.836 137.511 487.413C138.121 486.425 141.611 486.411 142.197 487.394C142.443 487.807 142.808 492.419 143.006 497.644L143.368 507.144H140.868H138.368L137.702 497.663Z" fill="#FAFAFA"/>
<path d="M139.368 534.121L139.082 524.382L138.796 514.644H141.225H143.656L144.375 523.731C145.129 533.258 144.583 535.119 141.224 534.476L139.368 534.121Z" fill="#FAFAFA"/>
<path d="M140.696 554.872C139.495 553.671 138.427 544.236 139.249 542.094C139.555 541.296 140.944 540.644 142.337 540.644H144.868V547.675V554.707L143.301 555.308C142.439 555.639 141.267 555.443 140.696 554.872Z" fill="#FAFAFA"/>
<path fill-rule="evenodd" clip-rule="evenodd" d="M98.1175 0.310785C95.5195 1.34979 97.1915 4.79878 108.464 21.6588C127.064 49.4788 137.032 60.9008 165.014 86.4608C186.907 106.459 194.568 115.921 203.719 134.272C218.209 163.325 223.11 201.745 217.342 241.043C215.133 256.089 207.641 291.836 206.885 290.931C206.523 290.498 204.928 286.994 203.339 283.144C194.134 260.835 179.164 231.624 169.061 216.253C162.272 205.924 149.078 188.743 143.152 182.515L139.699 178.887L140.969 176.854L142.238 174.82L135.803 161.051C128.007 144.37 121.856 135.344 113.898 128.904C97.3355 115.504 63.1145 101.732 45.3675 101.327L37.3675 101.144V103.144V105.144L46.8675 105.728L56.3675 106.313L67.3675 110.114C91.3295 118.396 110.304 129.352 118.74 139.778C121.682 143.413 126.416 151.736 130.781 160.945L137.974 176.12L134.885 173.16L131.795 170.2L130.082 171.279C126.896 173.285 127.65 175.589 133.561 181.902C146.294 195.502 160.631 214.449 170.061 230.144C176.196 240.353 184.557 257.726 187.782 266.964C199.039 299.21 205.954 348.46 203.725 380.527C202.161 403.029 197.684 420.366 181.358 467.144C173.126 490.729 167.643 511.5 164.332 531.644C162.931 540.169 160.892 552.526 159.803 559.103C158.714 565.681 157.152 572.087 156.331 573.34C155.074 575.259 148.171 579.644 146.408 579.644C146.111 579.644 145.861 575.932 145.853 571.394C145.836 562.385 145.111 560.257 142.248 560.812L140.368 561.177V570.412C140.368 579.799 140.081 580.43 136.444 579.035C135.57 578.7 127.872 568.012 119.336 555.285C110.8 542.557 98.8895 524.944 92.8695 516.144C59.1805 466.901 40.0135 422.943 33.3505 379.644C31.0925 364.973 30.3405 339.423 31.7895 326.63C35.0195 298.105 43.3285 276.062 63.8225 241.644C72.6245 226.862 79.5305 212.072 80.7405 205.414L81.5165 201.144L83.7905 204.894C86.2295 208.916 87.8865 209.531 89.8635 207.149L91.1045 205.654L89.6235 203.399C88.8095 202.159 86.8015 199.708 85.1605 197.954L82.1765 194.763L81.4845 180.117C80.8685 167.084 77.9695 145.68 76.1935 141.051L75.5385 139.345L78.3755 140.057C83.7295 141.4 95.8225 147.994 103.56 153.788L111.302 159.585L113.724 168.865L116.147 178.144L116.256 192.894L116.368 207.643L118.058 207.644C118.988 207.644 120.031 207.187 120.376 206.629C121.861 204.227 120.903 181.647 118.911 172.108C117.787 166.728 116.868 161.082 116.868 159.562V156.799L111.618 152.362C100.845 143.258 93.3835 138.764 81.2055 134.041L74.3675 131.39L63.3675 130.942L52.3675 130.494L42.3675 133.072C30.9295 136.021 17.4635 142.476 7.56454 149.755C0.42854 155.002 -1.1195 157.057 0.696498 158.873L1.79153 159.968L5.57949 157.46C17.5335 149.543 32.7165 141.644 35.9795 141.644H37.6485L39.8805 149.894C46.1825 173.18 48.3665 190.656 47.5355 211.144C46.5365 235.747 42.0135 260.171 33.9705 284.391C27.8365 302.86 25.3165 314.833 23.8225 332.607L22.6905 346.07L23.8535 359.607C25.3355 376.863 29.1415 399.591 32.4825 411.144C36.1675 423.887 47.0255 450.995 54.0865 465.08C60.8605 478.594 61.8765 481.51 65.4295 497.644C72.8225 531.211 72.7275 550.886 64.9795 591.154C63.9205 596.659 62.4805 606.39 61.7795 612.78L60.5055 624.396L61.7265 638.194C65.5095 680.916 80.2285 745.211 102.353 815.644C116.2 859.728 123.69 887.945 127.98 912.187L130.273 925.144L130.32 945.144L130.368 965.144L123.597 978.644L116.826 992.144L115.347 999.982C114.346 1005.29 113.868 1014.42 113.868 1028.25V1048.69L109.849 1056.68C105.839 1064.66 101.888 1078.33 101.875 1084.29C101.871 1086.02 102.819 1090.51 103.98 1094.27L106.092 1101.11L113.73 1108.67C121.813 1116.67 132.016 1122.86 139.368 1124.21C141.568 1124.61 144.718 1125.95 146.368 1127.18C156.641 1134.83 173.441 1138.56 184.21 1135.57L188.052 1134.5L191.71 1137.01C193.722 1138.39 197.747 1140.45 200.655 1141.58L205.941 1143.64H213.79C218.262 1143.64 223.774 1142.95 226.605 1142.04L231.573 1140.43L236.471 1143.94C245.278 1150.25 252.087 1150.64 261.117 1145.34C266.06 1142.45 299.007 1109.22 306.156 1099.92C313.029 1090.98 314.82 1086.48 314.846 1078.08L314.868 1071.01L311.454 1059.08C309.577 1052.51 306.87 1043.21 305.436 1038.41C304.003 1033.61 301.94 1025.28 300.852 1019.91C299.764 1014.54 298.098 1008.34 297.151 1006.14C293.077 996.681 282.84 982.441 264.803 961.144C259.213 954.544 253.554 947.531 252.23 945.56C239.531 926.666 235.159 838.203 242.899 756.827C243.981 745.451 245.093 735.019 245.37 733.644C246.178 729.628 251.607 680.434 252.93 665.144C254.349 648.734 253.678 623.174 251.406 607.144C249.429 593.192 246.193 580.218 239.81 560.644C232.426 538.003 228.198 520.682 226.861 507.596L225.682 496.048L226.835 479.096C227.469 469.772 228.882 454.494 229.975 445.144C232.568 422.979 233.521 389.473 231.952 375.644C230.088 359.219 225.351 337.213 220.188 320.992C217.42 312.295 215.307 303.619 215.087 300.049L214.711 293.954L219.267 271.267C221.773 258.789 224.564 242.857 225.47 235.862L227.116 223.144L226.579 203.644C226.264 192.165 225.347 180.236 224.35 174.644C220.523 153.193 211.915 131.171 200.703 114.144C195.243 105.853 184.398 94.5958 156.384 68.1438C140.038 52.7088 126.366 36.6728 113.28 17.5858C101.863 0.934788 101.406 0.313788 100.368 0.0567876C99.8175 -0.0782124 98.8055 0.0357854 98.1175 0.310785ZM208.915 352.644C207.2 330.74 203.777 308.441 199.318 290.144C197.076 280.947 203.994 297.233 210.999 317.644C216.799 334.546 221.155 351.612 223.48 366.539L225.133 377.144L225.118 399.144C225.103 421.235 224.362 432.051 221.211 456.144C220.07 464.865 219.491 476.55 219.452 491.644L219.393 514.144L221.637 524.334C222.871 529.938 225.49 539.613 227.457 545.834C236.793 575.36 239.052 583.271 241.293 594.284C247.406 624.323 247.427 655.474 241.367 704.644C237.357 737.184 234.893 761.1 233.337 782.595L231.639 806.046L232.151 845.595C232.703 888.255 234.103 906.253 238.439 926.474L238.724 927.804C240.619 936.632 241.102 938.886 240.335 939.456C240.072 939.651 239.662 939.649 239.111 939.645C239.032 939.644 238.951 939.644 238.868 939.644C235.976 939.644 236.424 941.884 239.688 943.74C242.761 945.488 264.067 970.366 276.026 986.171C287.834 1001.78 290.442 1006.72 293.411 1019.14C294.857 1025.19 298.198 1037.34 300.836 1046.14C311.723 1082.47 311.547 1083.7 292.4 1105.13C279.205 1119.9 262.564 1136.25 257.357 1139.55C254.673 1141.25 251.32 1142.64 249.907 1142.64C243.337 1142.64 231.341 1132.51 222.708 1119.67L217.684 1112.2L221.542 1110.56C223.663 1109.66 227.914 1106.63 230.988 1103.82L236.579 1098.71L240.203 1103.97C242.196 1106.86 245.136 1110.48 246.738 1112.02C251.301 1116.39 251.59 1113.3 247.126 1107.87C244.987 1105.27 242.172 1101.61 240.868 1099.73L238.498 1096.32L241.846 1093.52C243.688 1091.98 249.622 1088.86 255.035 1086.57C269.302 1080.55 275.64 1075.39 277.41 1068.33C278.275 1064.89 280.039 1064.95 286.777 1068.66C292.711 1071.93 294.868 1072.36 294.868 1070.28C294.868 1068.62 288.767 1064.46 283.618 1062.6C281.216 1061.73 279.868 1060.61 279.868 1059.48C279.868 1056 283.942 1047 288.855 1039.64C293.774 1032.28 295.186 1027.64 292.514 1027.64C291.029 1027.64 283.525 1038.44 279.53 1046.32C278.139 1049.07 276.071 1055.05 274.936 1059.61C271.501 1073.41 269.908 1074.94 250.368 1083.25L241.368 1087.08L232.868 1095.19C222.45 1105.13 220.254 1106.65 216.395 1106.62C212.778 1106.59 209.801 1104.39 206.965 1099.64C203.644 1094.08 204.195 1092.28 211.441 1085.03C215.057 1081.42 217.8 1078.24 217.535 1077.98C216.565 1077.01 210.959 1080.71 207.842 1084.37L204.638 1088.14L205.242 1084.64C206.258 1078.76 210.183 1069.77 213.876 1064.88C221.023 1055.41 229.754 1050.9 238.422 1052.2L242.868 1052.87V1050.86C242.868 1048.75 241.073 1047.64 237.649 1047.64H235.594L236.097 1041.37C236.704 1033.82 240.265 1026.26 245.303 1021.83C251.423 1016.46 249.466 1013.51 242.788 1018.05C239.285 1020.43 232.868 1030.77 232.868 1034.03C232.868 1036.13 232.36 1036.09 221.216 1033.13C204.086 1028.57 191.706 1020.61 183.925 1009.14C179.085 1002.01 177.583 996.841 176.957 985.144L176.368 974.144H174.868H173.368L173.083 983.821L172.797 993.497L174.897 999.821C177.37 1007.27 181.912 1014.49 187.863 1020.42C190.222 1022.77 191.915 1024.93 191.626 1025.22C191.337 1025.51 188.363 1024.82 185.016 1023.69C175.451 1020.47 167.194 1021.43 159.935 1026.6L157.134 1028.59L150.973 1027.51L144.813 1026.42L140.206 1027.58C133.719 1029.21 128.91 1031.86 124.859 1036.03C122.939 1038.01 121.031 1039.63 120.618 1039.63C119.346 1039.65 119.804 1016.65 121.266 1007.14C124.118 988.588 133.626 970.867 144.749 963.375C146.278 962.346 146.911 961.199 146.517 960.173L145.904 958.574L142.896 960.129C141.242 960.985 139.677 961.675 139.418 961.663C139.158 961.651 138.701 954.105 138.401 944.893C137.327 911.886 130.873 882.229 110.709 817.644C89.8905 750.966 79.1705 707.086 71.7435 658.144L69.4675 643.144L69.4805 626.144L69.4945 609.144L73.8335 585.144L78.1725 561.144L78.1175 543.144L78.0615 525.144L76.0125 513.18C74.8855 506.599 74.0915 501.087 74.2475 500.931C74.4045 500.774 76.0485 503.008 77.9015 505.895C79.7545 508.782 88.2835 520.819 96.8545 532.644C105.425 544.469 116.403 559.915 121.251 566.969C126.16 574.111 131.463 580.67 133.217 581.771L136.368 583.748L143.458 583.435L150.548 583.121L154.684 580.385C160.61 576.463 161.709 574.223 163.732 561.947C164.725 555.92 165.806 550.554 166.134 550.023C166.462 549.492 167.899 542.102 169.328 533.601C172.548 514.435 176.999 497.438 184.896 474.144C197.574 436.75 200.071 428.765 203.35 415.144C209.06 391.418 210.597 374.141 208.915 352.644ZM185.439 559.528C182.39 564.462 176.062 607.048 173.253 641.532L171.655 661.144L172.189 693.644C172.814 731.675 173.796 742.938 183.917 828.144C184.439 832.544 185.753 846.402 186.836 858.939C187.919 871.476 189.071 882.164 189.396 882.689C189.72 883.214 190.477 883.644 191.077 883.644H192.167L191.467 870.394C190.873 859.148 186.192 815.04 180.456 766.644C177.153 738.784 176.39 723.425 176.43 685.644L176.47 647.144L178.169 629.144C180.064 609.057 183.961 581.772 186.797 568.73C187.824 564.008 188.458 559.807 188.207 559.394C187.587 558.376 186.107 558.448 185.439 559.528ZM88.2385 570.119C87.5865 571.82 92.0195 582.581 100.404 599.644L104.579 608.144L105.246 615.644C106.613 631.055 112.028 655.819 122.415 694.144C124.353 701.294 127.518 713.219 129.449 720.644C131.38 728.069 135.399 742.694 138.381 753.144C150.911 797.059 158.394 833.087 165.796 885.142L169.493 911.141L171.181 911.466C173.364 911.886 173.355 911.628 170.415 890.644C162.149 831.653 153.606 790.338 140.328 745.144C139.035 740.744 136.774 732.644 135.302 727.144C115.562 653.365 110.797 633.078 109.294 616.421L108.597 608.698L111.225 607.698C116.929 605.53 129.541 591.84 128.451 588.999L127.834 587.394L119.6 596.027C113.985 601.916 110.65 604.658 109.11 604.652L106.85 604.644L102.797 595.894C100.567 591.082 97.1485 583.448 95.2015 578.931C93.2555 574.414 91.0385 570.201 90.2765 569.569L88.8915 568.419L88.2385 570.119ZM199.868 939.78C187.394 941.494 164.868 949.539 164.868 952.281C164.868 954.147 165.778 954.016 172.038 951.248C179.462 947.964 189.826 944.97 199.303 943.37C203.667 942.633 207.4 941.548 207.596 940.96C208.148 939.304 205.867 938.956 199.868 939.78ZM189.349 1034C182.426 1041.23 176.189 1058.71 173.75 1077.72L172.621 1086.53L173.806 1094.63C177.183 1117.73 191.14 1134.54 209.124 1137.18C214.247 1137.93 223.508 1137.1 225.789 1135.69L227.191 1134.83L222.198 1127.98C219.451 1124.22 216.15 1119.34 214.862 1117.14C213.575 1114.94 210.194 1110.66 207.35 1107.63C200.933 1100.79 199.477 1096.64 200.097 1086.98L200.572 1079.58L204.635 1071.36L208.699 1063.14L209.17 1051.64C209.43 1045.32 209.955 1038.99 210.336 1037.58L211.031 1035.01L204.699 1032.33C196.015 1028.64 194.309 1028.83 189.349 1034ZM187.368 1041L189.868 1039.84C194.06 1037.89 205.868 1040.72 205.868 1043.67C205.868 1044.94 205.207 1044.9 202.552 1043.46C201.351 1042.81 197.443 1041.99 193.868 1041.64L187.368 1041ZM142.957 1063.64C149.43 1044.13 157.441 1032.76 167.912 1028.22C172.095 1026.41 177.389 1026.24 181.969 1027.79C183.838 1028.42 185.513 1029.06 185.691 1029.2C185.868 1029.34 184.414 1031.86 182.458 1034.81C171.844 1050.8 165.976 1083.75 170.402 1102.53C171.974 1109.2 178.517 1122.82 181.888 1126.43C184.468 1129.2 183.246 1129.83 175.362 1129.77C163.469 1129.68 150.66 1125.01 145.982 1119.06C143.089 1115.38 139.83 1106.22 138.751 1098.73C137.425 1089.51 139.153 1075.11 142.957 1063.64ZM160.868 1035.64C160.868 1036.19 162.427 1036.64 164.333 1036.64C166.239 1036.64 169.882 1037.35 172.428 1038.22C178.134 1040.15 179.22 1039.44 174.73 1036.7C171.169 1034.53 160.868 1033.74 160.868 1035.64ZM136.204 1034.71C125.371 1040.07 113.192 1059.13 108.885 1077.46C106.564 1087.34 109.879 1096.44 119.037 1105.31C123.75 1109.88 137.365 1118.49 138.327 1117.51C138.527 1117.31 137.554 1113.77 136.165 1109.64L133.641 1102.14L134.133 1088.14L134.624 1074.14L137.251 1065.36C138.696 1060.53 141.231 1053.59 142.882 1049.95C144.534 1046.31 145.768 1043.24 145.626 1043.13C144.343 1042.17 137.85 1040.64 134.969 1040.61L131.368 1040.58L133.152 1039.23L134.938 1037.87L139.033 1038.79C141.285 1039.3 144.059 1040.21 145.199 1040.82L147.272 1041.93L147.665 1040.75C147.881 1040.1 149.129 1038.3 150.436 1036.75C151.743 1035.19 152.525 1033.63 152.173 1033.28C150.674 1031.78 140.227 1032.71 136.204 1034.71ZM45.1405 139.037C45.3765 138.802 48.2235 138.212 51.4685 137.727C54.7125 137.242 59.7995 136.912 62.7715 136.995L68.1745 137.144L69.4995 140.983C72.3035 149.107 74.2275 166.991 74.2515 185.144L74.2755 203.144L72.5545 209.644C70.5255 217.31 65.0915 228.9 63.8785 228.151C62.5875 227.353 59.2395 211.99 56.4505 194.065C53.7355 176.618 50.0015 158.402 46.7625 146.805C45.6355 142.768 44.9055 139.273 45.1405 139.037ZM214.82 1040.27C214.27 1041.72 213.533 1046.33 213.181 1050.52L212.54 1058.14L214.454 1056.64C215.507 1055.82 216.593 1054.9 216.868 1054.61C219.027 1052.3 223.763 1049.48 226.893 1048.64L230.656 1047.62L231.316 1044.99C232.148 1041.68 231.608 1041.19 224.936 1039.23C217.471 1037.05 215.987 1037.2 214.82 1040.27ZM50.8955 241.077C51.9935 234.514 53.1765 225.221 53.5265 220.426C54.2155 210.978 55.2495 209.779 56.1505 217.385C56.4625 220.024 57.4805 224.2 58.4105 226.664C59.3415 229.128 60.1555 232.044 60.2195 233.144C60.3205 234.859 49.8175 253.927 49.1435 253.253C49.0105 253.12 49.7985 247.641 50.8955 241.077Z" fill="#FAFAFA"/>
</svg>
