<svg viewBox="0 0 315 1150" xmlns="http://www.w3.org/2000/svg">
  <path id="outline" class="detail-outline" d="M39.216 559.655C46.799 556.206 61.163 547.188 68 541.584C73.959 536.7 75.632 535.951 74.073 538.863C72.996 540.875 61.444 551.277 56.413 554.764C47.024 561.272 20.949 572 14.519 572C9.396 572 12.6 569.745 23.041 566.003C28.794 563.942 36.072 561.085 39.216 559.655Z M682.244 36.915C708.265 25.537 772.761 2.578 784 0.692001C785.375 0.461001 790.224 0.211002 794.775 0.136002L803.05 0L808.709 1.989C811.822 3.083 816.073 5.106 818.155 6.484C822.588 9.417 831.443 20.136 833.127 24.605C833.901 26.66 836.05 28.759 839.48 30.81C849.423 36.758 856.63 46.988 858.987 58.5C859.549 61.25 861.613 71.6 863.571 81.5C865.53 91.4 869.323 108.275 872.001 119C879.658 149.669 886.201 179.736 889.955 201.5C892.878 218.446 894.211 232.911 895.021 256.5L895.915 282.5L898.458 294.376C901.141 306.911 901.556 315.89 899.99 327.5C899.471 331.35 898.354 339.959 897.508 346.631L895.969 358.762L896.99 375.131C898.756 403.463 904.604 442.326 913.522 485C919.997 515.981 927.709 558.373 930.897 580.5C942.61 661.807 938.597 751.006 919.492 834C917.529 842.525 914.345 856.925 912.417 866L908.91 882.5L908.033 906C907.453 921.52 906.64 931.323 905.637 934.869C899.749 955.685 882.182 972.126 856.5 980.855C828.58 990.345 789.198 989.897 731.5 979.433C668.573 968.02 667.009 967.798 583.189 958.455C512.537 950.579 471.019 943.232 430.5 931.434C370.61 913.997 309.791 884.83 268.743 853.86C259.091 846.578 252.219 840.838 238.5 828.595C215.61 808.17 207.051 802.901 192.651 800.372L184.5 798.94L177.664 799.993C173.905 800.571 169.334 801.669 167.508 802.432L164.188 803.82L163.523 811.66C161.13 839.873 156.351 866.369 147.499 900.5C144.503 912.05 139.594 930.95 136.59 942.5C130.863 964.514 125.9 987.989 121.478 1013.97C118.706 1030.26 118.303 1031.7 116.91 1030.31C116.423 1029.82 116.692 1023.55 117.523 1015.97C120.002 993.378 127.751 955.952 136.048 926.5C149.591 878.425 159.478 827.252 158.968 807.87C158.738 799.135 160.926 774.089 162.626 766C165.135 754.059 169.515 744.638 175.626 738.037C178.582 734.845 181 731.955 181 731.616C181 730.424 166.43 731.046 160.258 732.501C137.008 737.983 116.152 757.63 99.003 790.204C90.731 805.918 88.272 813.051 84.489 832.314C73.902 886.225 71.922 893.601 61.819 916.75C59.599 921.837 57.355 926 56.832 926C56.31 926 56.179 925.519 56.543 924.931C56.906 924.343 59.147 918.095 61.522 911.046C68.228 891.141 72.323 874.596 77.053 848.295C83.807 810.742 87.295 795.932 94.453 774.425C105.984 739.775 119.018 718.089 146.512 687.807C164.224 668.299 169.733 662.876 175 659.757C187.668 652.259 220.029 637.135 251.5 624.005C279.844 612.18 305.003 604.201 328.5 599.586C332.9 598.722 339.65 597.368 343.5 596.576L350.5 595.138L339 595.642C310.757 596.882 288.383 600.117 250 608.511C164.581 627.193 141.032 641.431 102.777 697.527C86.186 721.856 75.777 741.903 66.664 767.082C64.159 774.002 61.662 780.752 61.115 782.082C60.568 783.412 58.556 788.797 56.644 794.049C51.364 808.554 41.695 830.083 35.388 841.379C28.14 854.36 23.022 862.355 22.375 861.708C22.094 861.428 23.828 857.441 26.226 852.849C37.374 831.51 48.556 805.414 58.345 777.894C70.789 742.908 79.069 725.918 96.304 700C123.12 659.676 150.86 634.6 179.267 625.004C182.97 623.754 186 622.678 186 622.615C186 622.552 176.213 622.496 164.25 622.491L142.5 622.481L133.5 620.692C121.008 618.207 111.121 615.448 100.014 611.345C89.173 607.34 68.051 596.816 69.731 596.256C70.347 596.051 72.572 596.757 74.675 597.826C82.109 601.602 106.109 610.082 117.729 613.038C154.796 622.467 184.174 620.964 244.186 606.568C253.777 604.267 262.459 602.461 282.5 598.599C296.913 595.822 323.158 593 340.743 592.337C350.234 591.979 357.975 591.419 357.944 591.093C357.914 590.767 355.247 588.801 352.019 586.724C348.79 584.648 339.478 577.023 331.324 569.78C323.171 562.538 315.407 555.687 314.071 554.556C312.735 553.425 310.035 551.105 308.071 549.399C289.03 532.867 258.706 515.596 234.565 507.537C209.473 499.16 194.701 496.609 171.5 496.647C137.104 496.703 114.585 503.395 91.6 520.394C87.42 523.485 84 525.603 84 525.101C84 523.319 97.854 511.439 104.626 507.414C108.407 505.166 114.65 502.108 118.5 500.617C122.35 499.126 126.392 497.548 127.481 497.11L129.463 496.314L123.981 494.539C116.335 492.062 107.418 487.797 94 480.198C58.316 459.988 35.235 451.747 10.25 450.294L0 449.699V447.849V446H8.752C33.172 446 56.917 454.313 98 477.244C115.805 487.183 125.684 491.371 135.235 493.03L141.97 494.2L150.144 493.1C177.028 489.482 210.381 493.762 239.204 504.53C270.423 516.192 291.317 528.896 318.672 552.848C351.036 581.185 355.815 584.98 364.859 589.523L369.79 592L384.145 592.009C425.274 592.034 464.04 597.715 494.5 608.18C535.503 622.268 566.591 642.437 600.037 676.652C615.256 692.221 624.767 699.213 641.178 706.895C650.946 711.468 669.309 718 672.395 718C673.949 718 674.966 714.996 674.986 710.349C675.02 702.607 682.305 667.022 688.57 644C702.836 591.578 711.557 565.343 724.041 537.29C737.575 506.876 744.368 487.494 751.407 459.21C759.762 425.641 762.987 401.301 763.701 366.428C764.52 326.456 762.057 303.314 755.512 289.5C751.122 280.233 748.911 277.868 740 272.909C709.947 256.184 686.63 230.533 646.002 169.5C640.876 161.8 634.096 152.125 630.935 148C623.651 138.494 621.278 133.869 619.922 126.537C616.421 107.596 631.547 86.599 650.28 84.397L655.733 83.756L654.778 79.628C654.253 77.358 654.015 72.125 654.248 68L654.673 60.5L657.293 55.368C661.032 48.046 667.174 43.504 682.244 36.915ZM803.268 31.354C799.84 32.664 795.394 35.032 793.387 36.618C786.245 42.259 771.946 50.884 765.386 53.509C761.721 54.975 749.448 59.315 738.112 63.154C695.214 77.681 689.686 80.232 685.52 87.422C680.693 95.752 681.424 104.653 689.672 138C693.766 154.551 696.359 161.061 700.928 166.265C704.246 170.044 710.736 174.597 711.589 173.744C711.856 173.478 710.048 165.214 707.572 155.38C700.874 128.777 700.696 123.227 706.274 114.901C711.255 107.467 714.251 106.229 771.029 88.143C779.678 85.388 789.348 81.561 792.854 79.506C799.753 75.463 801.954 75.287 796.777 79.194C789.58 84.625 779.688 89.099 763 94.471C717.723 109.048 712.352 111.451 708.633 118.802C705.35 125.289 705.654 130.151 710.644 151C716.914 177.193 720.808 186.901 727.36 192.668C731.314 196.148 736 198.736 736 197.44C736 197.235 734.202 189.965 732.004 181.284C729.698 172.178 728.015 163.173 728.026 160C728.048 153.112 730.621 147.282 735.363 143.374C739.697 139.801 755.854 133.851 779.965 126.949L797.43 121.949L805.82 117.413C810.434 114.918 814.393 113.06 814.618 113.284C815.227 113.893 804.237 121.371 798.442 124.291C795.66 125.692 785.226 129.351 775.255 132.422C741.788 142.727 737.141 144.969 733.546 152.544C730.981 157.95 731.711 164.653 736.956 183.838C739.681 193.808 742.343 202.761 742.87 203.733C744.405 206.564 749.263 210.783 752.315 211.936C758.426 214.245 770.578 212.68 787.659 207.383L792.817 205.784L793.959 201.142C794.587 198.589 795.954 194.185 796.997 191.356L798.892 186.213L796.962 184.465L795.031 182.718L789.349 183.859C786.223 184.486 781.716 185 779.333 185H775V188.04C775 191.229 772.457 196.774 769.056 201C766.311 204.412 766.484 202.2 769.38 196.876C770.689 194.469 772.012 190.808 772.319 188.739L772.878 184.978L768.793 182.894C764.151 180.526 759.307 176.359 760.181 175.486C760.502 175.164 762.455 176.048 764.52 177.449C769.778 181.017 775.153 182.249 781.835 181.418C793.858 179.922 804.589 174.5 810.5 166.933C814.344 162.012 815.583 161.937 813.115 166.775C811.035 170.852 801.863 180 799.856 180C799.179 180 799.936 181.368 801.538 183.04C803.471 185.057 806.775 186.785 811.365 188.179L818.279 190.28L827.39 189.707L836.5 189.134L832.5 190.634C830.3 191.459 825.248 192.393 821.274 192.709L814.047 193.285L807.941 191.059C804.582 189.834 801.696 188.982 801.526 189.166C800.744 190.012 795.997 206.372 794.457 213.529C792.236 223.845 792.19 238.591 794.35 247C796.163 254.056 801.779 266.287 804.686 269.513C805.684 270.62 807.175 272.399 808 273.465L809.5 275.405L807.295 273.89C804.505 271.973 797.817 263.56 795.527 259.087C789.952 248.196 787.776 232.724 789.905 219.114C790.541 215.051 790.882 211.548 790.663 211.33C790.444 211.111 786.298 212.082 781.449 213.487C776.599 214.892 769.531 216.554 765.741 217.18L758.85 218.318L753.388 216.596C747.069 214.604 741.294 209.947 739.338 205.266C738.549 203.377 737.241 201.991 736.237 201.978C733.099 201.938 726.392 198.309 723.105 194.873C719.652 191.262 715 183.043 715 180.552C715 179.719 713.763 178.741 712.25 178.377C704.41 176.493 696.904 169.972 692.763 161.448C691.566 158.986 690.118 157.126 689.544 157.316C688.97 157.506 685.398 163.148 681.607 169.854C677.815 176.56 674.471 181.805 674.175 181.509C673.88 181.213 676.405 175.24 679.788 168.236C683.17 161.231 686.226 154.262 686.577 152.75L687.217 150H685.78C683.195 150 675.322 144.072 672.501 140.001L669.74 136.018L667.026 140.297C661.688 148.715 653.244 154 645.134 154C643.41 154 642 154.289 642 154.643C642 154.997 647.923 164.11 655.163 174.893C690.38 227.351 714.127 253.035 741.781 268.577L750.5 273.477L757.623 273.841L764.746 274.206L769.623 271.904C772.305 270.638 774.95 269.401 775.5 269.155C776.05 268.909 775.6 269.736 774.5 270.992C772.154 273.672 767.463 275.831 760.5 277.436L755.5 278.589L761 282.254C764.025 284.27 769.182 286.612 772.46 287.46C778.348 288.981 791.09 289.577 792.281 288.385C792.619 288.047 792.193 286.697 791.333 285.385C790.317 283.834 790.171 283 790.916 283C791.547 283 792.306 283.634 792.604 284.409C793.529 286.821 804.155 294.557 811.885 298.446C820.779 302.92 829.602 304.929 841 305.073L849.5 305.18L846 306.196C844.054 306.761 837.839 306.987 832 306.705L821.5 306.197L816.147 304.064C810.227 301.704 800.866 296.043 797 292.484L794.5 290.183L788.5 291.175C785.2 291.721 780.138 291.937 777.25 291.656C773.834 291.323 772 291.523 772 292.227C772 292.823 771.154 292.544 770.119 291.608C767.832 289.538 760.797 285.869 760.221 286.446C759.992 286.675 760.699 289.256 761.791 292.181C766.042 303.564 768.991 329.967 768.997 356.696C769.008 414.919 755.526 477.615 731.297 532C715.083 568.396 702.997 604.923 690.102 656.5C674.503 718.896 674.491 749.262 690.051 786.724C696.322 801.823 706.826 818.578 716.751 829.315C719.199 831.964 720.883 834.439 720.493 834.815C718.459 836.776 696.598 809.613 691.347 798.601C689.64 795.022 687.991 793.86 688.01 796.25C688.015 796.938 689.14 799.907 690.51 802.849C693.286 808.813 693.337 809 692.178 809C690.671 809 683.184 794.592 681.074 787.632C679.929 783.854 678.703 777.652 678.349 773.849L677.707 766.935L669.103 761.335C658.705 754.567 647.554 745.384 639.632 737.064C636.405 733.675 633.625 731.041 633.455 731.212C632.863 731.804 644.721 759.553 649.816 769.5C682.891 834.073 714.02 867.287 750.716 877.158L758.5 879.252L769.7 879.376C777.166 879.459 780.566 879.833 779.9 880.5C779.333 881.067 773.619 881.464 766.7 881.417L754.5 881.335L745 878.27C739.775 876.585 732.35 874.936 728.5 874.606C724.65 874.276 719.7 873.442 717.5 872.753L713.5 871.5L720.38 871.201L727.259 870.903L719.38 865.756C711.475 860.594 690.717 840.757 686.138 833.99C684.839 832.071 681.689 829.179 679.138 827.565L674.5 824.629L676.305 824.231C676.386 824.213 676.466 824.197 676.542 824.182C676.603 824.17 676.663 824.159 676.72 824.148C677.137 824.069 677.449 824.011 677.589 823.823C678.004 823.264 676.881 821.561 672.406 814.777L671.563 813.498L671.206 812.957L670.905 812.5C656.106 790.029 645.58 770.13 633.614 742C619.535 708.904 608.868 692.155 589.278 672.385C558.672 641.498 520.752 619.491 478.5 608.096C408.055 589.097 332.298 594.517 260.545 623.69C234.084 634.448 195 652.51 195 653.981C195 654.541 195.354 655 195.786 655C196.219 655 198.581 656.771 201.036 658.935C204.146 661.676 205.184 663.19 204.459 663.926C203.732 664.663 201.798 663.437 198.045 659.857L192.672 654.732L186.586 657.742C178.247 661.866 168.838 669.138 163.206 675.812C160.618 678.879 154.9 685.241 150.5 689.95C139.899 701.295 129.212 714.216 124.818 721C117.696 731.996 113.038 740 113.761 740C114.167 740 118.964 738.404 124.419 736.454C129.875 734.504 139.325 732.052 145.419 731.006C151.514 729.959 158.975 728.568 162 727.914C174.819 725.143 196.566 728.709 216.903 736.917C232.435 743.185 241.482 748.213 280 771.985C326.544 800.71 353.073 813.49 394.5 827.146C404.708 830.511 437.423 839 440.182 839C441.182 839 442 839.45 442 840C442 840.121 442.012 840.231 442.023 840.33C442.034 840.425 442.043 840.509 442.039 840.58C442.036 840.632 442.026 840.677 442.004 840.715C441.798 841.069 440.576 840.834 434.609 839.685C433.69 839.508 432.657 839.309 431.498 839.087C379.144 829.071 334.406 810.225 273.5 772.529C248.875 757.288 243.955 754.42 231.5 748.042C217.767 741.009 203.727 735.675 193.09 733.45L186.677 732.108L183.841 734.327C176.817 739.824 170.965 750.357 167.462 763.807C166.172 768.759 163.479 797.812 164.239 798.572C164.426 798.759 166.586 798.166 169.039 797.255L173.5 795.598L184.5 795.592L195.5 795.586L201.971 797.878C213.955 802.123 221.338 807.186 240 823.958C257.578 839.756 272.768 851.878 286 860.665C331.83 891.1 392.754 917.576 450.414 932.116C488.295 941.668 529.01 948.119 598 955.5C652.684 961.35 675.678 964.554 716 971.94C750.262 978.216 760.262 979.747 778.5 981.51C832.103 986.689 867.982 978.234 888.735 955.533C900.532 942.629 902.784 934.855 903.952 903L904.815 879.5L907.823 865.5C909.477 857.8 912.435 844.525 914.395 836C920.48 809.533 924.927 783.994 928.411 755.5C931.755 728.15 932.463 713.822 932.436 674L932.408 633.5L930.626 616C928.496 595.081 923.825 562.282 920.515 545C919.199 538.125 914.506 514.05 910.087 491.5C900.307 441.591 896.555 419.857 894.55 401.5C890.723 366.447 889.793 322.169 892.552 306.381L894.105 297.5L892.836 289.205L891.567 280.91L888.802 286.764C886.172 292.33 881 298.608 881 296.233C881 295.62 881.5 294.809 882.112 294.431C884.024 293.249 887.803 283.563 889.435 275.66C893.325 256.829 889.541 219.939 878.034 164.5C871.036 130.787 867.997 122.197 860.366 114.566L856.652 110.852L856.576 100.091L856.5 89.33L852.323 80.926C850.025 76.303 848.358 72.309 848.617 72.05C849.465 71.201 854.058 77.382 856.73 82.967L859.346 88.435L859.279 99.138L859.212 109.84L862.491 113.42C864.294 115.389 865.989 117 866.257 117C866.526 117 865.913 113.963 864.896 110.25C862.941 103.113 860.173 89.68 856.912 71.5C853.398 51.915 849.996 44.42 841.598 37.767C833.877 31.65 828.869 29.83 818.5 29.372L809.5 28.974L803.268 31.354ZM790.622 413C792.484 388.708 793.031 343.007 791.687 324L790.874 312.5L791.988 313.601C793.653 315.246 795.974 342.328 795.988 360.269C796.007 384.751 792.623 428.169 784.513 507.5C777.233 578.711 774.395 595.113 756.657 668.5C744.653 718.159 742.5 733.33 742.5 768.25C742.5 782.963 742.228 795 741.895 795C739.916 795 739.311 753.069 741.041 735.856C743.287 713.518 746.462 697.659 758.109 650.618C769.908 602.965 774.914 573.95 779.956 524C781.039 513.275 783.494 488.975 785.411 470C787.329 451.025 789.674 425.375 790.622 413ZM816.06 389.199C811.959 351.914 811.111 327.711 813.765 323.63C814.169 323.009 814.822 329.7 815.217 338.5C815.611 347.3 817.265 368.225 818.892 385C823.654 434.1 825.648 461.349 826.978 495.5C828.449 533.264 829.754 552.746 832.773 582L834.477 598.5L834.449 636L834.422 673.5L832.678 686C826.192 732.481 815.148 770.574 799.192 801.5C794.41 810.769 795.439 805.819 801.045 792.592C816.111 757.041 825.837 718.744 829.449 680.752C832.847 645.012 832.604 627.072 827.938 569C826.856 555.525 825.071 525.825 823.973 503C821.671 455.158 818.846 414.521 816.06 389.199ZM218.25 651.989C213.703 651.96 209 650.628 209 649.369C209 647.709 209.834 647.678 215.557 649.119C219.954 650.226 221.628 652.01 218.25 651.989ZM263 652.073C263 651.564 263.788 650.941 264.75 650.689C269.473 649.455 275.526 650.34 274.435 652.105C273.701 653.293 263 653.263 263 652.073ZM232.829 653.802C229.814 653.626 227.485 652.979 227.245 652.25L226.833 651H232.417H238V652.552V654.105L232.829 653.802ZM256.414 651.986C254.885 653.515 245.797 653.73 245.275 652.25L244.833 651H251.117C255.246 651 257.062 651.338 256.414 651.986ZM285.64 653.364C283.088 653.014 281 652.339 281 651.864C281 651.389 283.7 651 287 651H293V652.5C293 654.182 292.248 654.27 285.64 653.364ZM310.933 655.338C309.84 656.276 300.616 654.367 300.202 653.117L299.745 651.735L304.622 652.45C309.104 653.107 311.994 654.429 310.933 655.338ZM323.864 657.67C318.324 657.014 317.487 656.639 318.373 655.205C319.122 653.993 329 655.914 329 657.272C329 657.896 327.047 658.047 323.864 657.67ZM342.417 660.644C337.327 659.946 335.725 659.254 336.457 658.07C337.135 656.972 347 659.03 347 660.268C347 660.885 345.233 661.03 342.417 660.644ZM361.25 664.558C355.545 663.547 354 662.963 354 661.819C354 661.138 355.657 661.021 358.75 661.484C364.104 662.285 365 662.67 365 664.17C365 664.838 363.629 664.98 361.25 664.558ZM381.25 668.994C378.204 668.985 372 666.945 372 665.953C372 664.681 374.437 664.751 379.134 666.158C383.115 667.351 384.349 669.004 381.25 668.994ZM400.367 673.033C399.106 674.294 390.805 671.916 390.208 670.123L389.763 668.789L393.132 669.522C398.889 670.775 401.405 671.995 400.367 673.033ZM412.182 677.461C409.332 676.615 407 675.49 407 674.961C407 673.681 409.428 673.748 414.134 675.158C416.26 675.795 418 676.92 418 677.658C418 677.763 418.002 677.861 418.003 677.953C418.01 678.333 418.015 678.597 417.885 678.742C417.589 679.073 416.59 678.775 413.302 677.794L413.255 677.781C412.921 677.681 412.564 677.575 412.182 677.461ZM433.25 683.698C428.763 682.797 425 681.121 425 680.025C425 678.649 425.834 678.724 431.322 680.594C436.377 682.317 437.803 684.612 433.25 683.698ZM451.52 690C449.215 690 442 686.886 442 685.891C442 684.555 444.487 684.811 448.98 686.609C452.989 688.213 454.328 690 451.52 690ZM463.18 694.996C460.804 693.917 459.134 692.592 459.469 692.05C460.207 690.856 469.231 694.192 469.788 695.865C470.34 697.519 468.089 697.223 463.18 694.996ZM480.745 702.614C478.135 701.577 476 700.339 476 699.864C476 698.551 478.04 698.819 482.736 700.75C485.077 701.712 486.994 703.1 486.996 703.833C486.998 704.567 486.66 705.017 486.245 704.833C485.83 704.65 483.355 703.651 480.745 702.614ZM264.884 712C263.355 712 254 705.05 254 703.915C254 702.159 256.535 703.075 261.25 706.535C265.823 709.89 267.226 712 264.884 712ZM497.361 710.701L497.359 710.7L497.358 710.7C494.059 709.037 493.082 708.544 493.045 707.99C493.03 707.756 493.182 707.512 493.398 707.165L493.453 707.076C494.209 705.853 504 710.439 504 712.017C504 713.512 502.338 713.211 497.71 710.877L497.361 710.701ZM270 715.974C270 715.622 270.288 715.046 270.639 714.694C271.405 713.928 272.333 714.428 277.25 718.252C280.891 721.083 282.013 723 280.029 723C278.801 723 270 716.835 270 715.974ZM519.126 722C517.244 722 509.023 716.771 509.554 715.912C510.352 714.622 510.632 714.7 515.572 717.595C519.638 719.978 521.269 722 519.126 722ZM529.41 728.938C526.962 727.254 525.224 725.446 525.549 724.921C525.873 724.397 526.67 724.281 527.319 724.663C533.174 728.113 536 730.181 536 731.013C536 732.727 534.002 732.098 529.41 728.938ZM290.097 731.163C286.058 728.293 285.031 727.563 285.071 726.896C285.084 726.669 285.221 726.449 285.405 726.154L285.469 726.051C286.204 724.861 289.339 726.426 294.479 730.551C296.485 732.16 297.129 733.271 296.449 733.951C295.769 734.631 293.85 733.831 290.576 731.504L290.097 731.163ZM542.11 737.064C541.345 736.624 541.035 735.752 541.422 735.126C542.001 734.19 547.651 737.174 551.933 740.679C552.172 740.874 551.923 741.477 551.381 742.019C550.733 742.667 549.213 742.123 546.948 740.435C545.051 739.021 542.874 737.504 542.11 737.064ZM311.152 745.406C309.982 746.129 299.911 738.953 300.579 737.872C301.497 736.387 303.011 736.883 307.587 740.17C312.003 743.341 312.741 744.424 311.152 745.406ZM566.384 754C564.883 754 556.049 746.73 556.555 745.912C557.387 744.565 557.765 744.707 562.587 748.17C566.372 750.888 568.399 754 566.384 754ZM325.697 756C324.036 756 316 750.127 316 748.913C316 747.275 318.059 747.944 322.57 751.048C326.974 754.078 328.188 756 325.697 756ZM581.811 764.506C581.043 765.292 572 759.139 572 757.83C572 757.374 572.6 757 573.333 757C575.171 757 582.663 763.633 581.811 764.506ZM335.454 763.261C331.943 761.053 331.02 760.473 331.036 759.919C331.041 759.722 331.165 759.528 331.334 759.264C331.374 759.203 331.416 759.137 331.459 759.067C331.821 758.48 332.287 758 332.493 758C333.509 758 343 764.404 343 765.09C343 767.087 340.909 766.696 336.396 763.854C336.063 763.644 335.749 763.447 335.454 763.261ZM354.26 774.599C349.01 772.206 346.687 770.316 347.459 769.067C347.821 768.48 348.26 768 348.433 768C349.313 768 358.065 773.297 358.591 774.147C359.792 776.091 357.955 776.283 354.26 774.599ZM596.713 775.62C595.853 776.481 587.856 771.1 587.246 769.25C586.494 766.972 589.443 768.027 593.477 771.478C595.664 773.349 597.12 775.213 596.713 775.62ZM609.099 786.294C603.182 782.404 601.81 781.116 602.461 780.064C603.232 778.816 604.024 779.199 609.22 783.33C613.409 786.659 613.311 789.062 609.099 786.294ZM626.93 798C624.978 798 616.948 791.893 617.572 790.883C617.951 790.27 619.104 790.484 620.593 791.446L625.5 794.615C628.082 796.283 628.807 798 626.93 798ZM408.958 800C406.664 800 396.041 794.742 396.579 793.872C397.449 792.465 400.193 792.93 404.949 795.291C409.248 797.426 411.44 800 408.958 800ZM426.296 806.104C425.056 807.344 413.664 802.352 414.532 800.949C415.263 799.765 417.861 800.429 423.369 803.209C425.79 804.431 426.885 805.515 426.296 806.104ZM642.855 808C641.341 808 633.004 802.712 633.002 801.75C632.998 800.365 635.294 800.982 639.662 803.542C643.824 805.981 645.27 808 642.855 808ZM441.25 812.978C438.275 812.941 430.815 809.108 431.514 807.977C432.19 806.884 433.931 807.237 439.663 809.633C443.233 811.124 444.13 813.014 441.25 812.978ZM658.25 816.996C656.005 816.99 647.772 811.561 648.661 810.672L648.703 810.63C648.912 810.42 649.071 810.261 649.263 810.175C649.876 809.903 650.822 810.383 654.784 812.391L655.033 812.517C660.059 815.064 661.452 817.004 658.25 816.996ZM460.336 819.064C459.041 820.359 449.866 817.099 449.203 815.108L448.739 813.718L451.564 814.427C457.337 815.876 461.384 818.016 460.336 819.064ZM671.45 824C670.058 824 665 820.843 665 819.974C665 818.688 666.344 818.744 669.453 820.161C671.626 821.151 673.108 824 671.45 824ZM474.539 824.573C470.002 823.722 466 821.972 466 820.839C466 818.669 477.025 821.575 477.818 823.954L478.257 825.271L474.539 824.573ZM489.076 828.828C486.111 828.144 484 827.104 484 826.328C484 824.705 484.52 824.694 490.924 826.172C493.889 826.856 496 827.896 496 828.672C496 830.295 495.48 830.306 489.076 828.828ZM512.969 833.519C511.174 834.628 502 831.963 502 830.333C502 829.406 502.645 829.055 503.75 829.379C504.712 829.662 507.192 830.193 509.261 830.56C513.255 831.268 514.72 832.437 512.969 833.519ZM520.187 835.48C519.464 835.224 519.165 834.543 519.521 833.966C519.877 833.39 520.918 833.138 521.834 833.406C522.75 833.674 525.192 834.193 527.261 834.56C531.046 835.231 532.732 836.429 531.212 837.369C530.467 837.83 523.39 836.618 520.187 835.48ZM549.807 840.518C547.21 841.518 537.731 839.698 537.198 838.097L536.731 836.693L542.498 837.371C545.669 837.744 548.992 838.457 549.882 838.957L551.5 839.866L549.807 840.518ZM567.688 843.646C566.534 844.8 555.683 842.604 555.197 841.119L554.746 839.738L560.623 840.454C566.431 841.162 569.007 842.326 567.688 843.646ZM581.035 846.543C574.024 845.794 573 845.445 573 843.803C573 842.167 584.203 843.762 586 845.654L587.5 847.233L581.035 846.543ZM597.581 849.013C591.225 847.979 589.882 847.309 591.795 846.127C593.209 845.253 601.842 846.166 603.842 847.402C606.586 849.098 603.299 849.944 597.581 849.013ZM621.943 850.5C621.297 851.959 610.759 851.069 609.036 849.41L607.571 848L612.036 848.118C618.204 848.282 622.472 849.308 621.943 850.5ZM634.676 853.444C627.893 852.651 626.735 852.238 627.558 850.907C628.202 849.864 638.308 850.47 640.266 851.669C642.415 852.985 639.275 853.982 634.676 853.444ZM658.208 856.192C656.916 857.484 648.572 856.178 646.295 854.328L644.5 852.869L650.682 853.333C657.518 853.847 659.717 854.683 658.208 856.192ZM669.946 860.402C663.742 858.571 663.585 858.48 664.394 857.172C665.05 856.11 671.913 857.348 675.237 859.127C679.087 861.187 675.521 862.047 669.946 860.402ZM628 873.316C618.123 869.456 600.872 861.81 597.5 859.798C592.392 856.749 596.229 857.801 607.602 862.566C632.445 872.976 664.249 882.511 688.925 886.946C695.209 888.076 700.496 889 700.675 889C700.854 889 701 889.38 701 889.846C701 890.783 685.886 888.892 673.5 886.404C663.363 884.368 636.525 876.648 628 873.316ZM691.378 866.544C685.754 865.489 680.757 863.202 681.489 862.017C682.542 860.313 694.072 863.663 694.802 865.885L695.257 867.271L691.378 866.544ZM712.85 871.479C712.033 872.288 700.613 869.34 700.241 868.224C699.738 866.715 703.154 866.637 708.214 868.043C711.581 868.978 713.752 870.587 712.85 871.479ZM535.735 901.386C512.455 889.77 489.032 875.713 481.55 868.869C478.894 866.44 483.254 868.673 492.506 874.48C518.208 890.615 551.09 906.81 591 922.991C652.259 947.829 725.238 966.405 779.386 970.943C785.923 971.491 791.511 972.178 791.803 972.469C793.35 974.017 760.43 971.68 743.5 969.04C677.84 958.805 600.02 933.464 535.735 901.386ZM835.922 951.217C845.619 944.379 853.748 930.716 857.621 914.751C858.654 910.489 859.829 907.002 860.231 907.001C862.476 906.998 856.493 930.487 852.273 938.24C848.978 944.293 841.751 951.458 836.257 954.118C829.525 957.376 829.349 955.853 835.922 951.217ZM113.874 742.574C116.218 741.37 133.362 735.885 138.5 734.695C144.008 733.42 143.615 734.419 136.878 738.817C123.272 747.701 109.115 764.378 98.814 783.656C96.068 788.795 93.661 793 93.465 793C92.289 793 101.234 766.764 106.518 754.712L111.248 743.923L113.874 742.574ZM617.691 701.073C618.831 702.958 621.583 707.527 623.806 711.228C634.885 729.665 652.256 747.078 672.75 760.289L672.963 760.426C674.997 761.738 676.099 762.449 676.561 762.155C677.107 761.807 676.757 760.053 675.993 756.225L675.925 755.886C675.333 752.924 674.546 744.238 674.175 736.585L673.5 722.67L667.5 721.422C656.531 719.141 635.262 710.023 623.5 702.559C620.75 700.814 617.852 698.995 617.059 698.516C616.115 697.946 616.333 698.828 617.691 701.073ZM685.875 790C684.732 790 682.539 784.993 681.497 780C681.095 778.075 681.051 776.769 681.398 777.098C682.764 778.392 686.792 790 685.875 790ZM779.5 6.438C756.915 12.311 702.255 32.407 678 43.756C665.613 49.551 660.004 55.969 658.538 66.023C657.143 75.593 669.78 128.501 675.548 137.241C677.897 140.801 685.533 146.8 686.493 145.84C686.742 145.591 686.519 143.838 685.997 141.944C683.872 134.231 678.997 108.814 678.41 102.383L677.782 95.5L679.869 89.597L681.956 83.694L678.474 79.84L674.992 75.986L676.237 73.993C677.921 71.296 678.862 71.481 683.346 75.395L687.191 78.752L691.373 76.415C697.027 73.255 704.584 70.436 738.017 59.013C770.511 47.911 775.614 45.608 780.11 40.012C783.581 35.693 785.336 35.312 782.612 39.469L780.954 42L782.227 41.921C783.498 41.843 786.227 40.17 797.839 32.349C804.97 27.547 811.738 25.617 821.25 25.672C824.962 25.694 828 25.394 828 25.006C828 23.798 822.413 16.654 818.874 13.337C814.363 9.109 808.599 6.251 802.09 5.017C794.24 3.528 789.56 3.823 779.5 6.438ZM626.698 108C629.774 101.556 635.44 95.362 641.369 91.962L646.5 89.019L651.128 89.009C653.673 89.004 656.19 89.563 656.722 90.25C657.254 90.938 658.944 96.9 660.478 103.5C662.011 110.1 664.311 119.098 665.588 123.496L667.91 131.491L664.642 137.496C659.623 146.717 649.841 152.416 642.257 150.537C638.723 149.662 630.531 140.982 627.392 134.786L624.96 129.988L624.755 121.244L624.55 112.5L626.698 108Z M247.607 699.965C246.078 699.965 236.723 693.015 236.723 691.88C236.723 690.124 239.258 691.04 243.973 694.5C248.546 697.855 249.949 699.965 247.607 699.965Z M229.857 686.585C228.328 686.585 218.973 679.635 218.973 678.5C218.973 676.744 221.508 677.66 226.223 681.12C230.796 684.475 232.199 686.585 229.857 686.585Z M215.742 675.833C214.217 675.713 205.434 668.054 205.523 666.922C205.66 665.172 208.116 666.283 212.546 670.101C216.843 673.803 218.077 676.016 215.742 675.833ZM369.101 782.943C363.744 780.801 361.334 779.022 362.046 777.738C362.38 777.135 362.796 776.635 362.969 776.626C363.848 776.585 372.84 781.463 373.406 782.287C374.697 784.172 372.871 784.451 369.101 782.943ZM385.614 790.615C380.278 788.422 377.885 786.622 378.609 785.344C378.949 784.744 379.369 784.248 379.542 784.241C380.422 784.208 389.368 789.17 389.925 790C391.199 791.897 389.37 792.159 385.614 790.615Z" />

  <g class="detail-region" data-region="biceps-long-head" tabindex="0" role="button">
    <path id="biceps-long-head" transform="translate(208.44,596.98) scale(1)" d="M466.526 227.659L468.331 227.261C468.413 227.243 468.492 227.227 468.568 227.212C468.63 227.2 468.689 227.189 468.747 227.178C469.164 227.099 469.476 227.041 469.615 226.853C470.031 226.294 468.907 224.591 464.433 217.807L463.589 216.528L463.233 215.987L462.931 215.53C448.132 193.059 437.606 173.16 425.64 145.03C411.561 111.934 400.895 95.185 381.305 75.415C350.699 44.528 312.778 22.521 270.526 11.126C200.081 -7.87296 124.324 -2.45297 52.5714 26.72C35.7144 33.5734 13.7345 43.391 0 49.9951L2.31192 51.1088C3.26001 51.1145 4.8737 51.4668 7.58337 52.149L18.8594 54.03H24.4434H30.0264H36.8594H43.1434L56.7764 53.7191C58.6514 53.2292 60.736 53.0732 62.5 53.1737L79.0264 54.03H85.0264L91.7714 54.765L96.6484 55.48C96.7278 55.4917 96.8069 55.5035 96.8853 55.5156L112.5 57.86C113.409 57.8961 114.514 58.0335 115.623 58.235L130.5 60.8112C131.504 60.8744 132.762 61.0633 134 61.3211L148.287 64.2486C148.97 64.2798 149.802 64.3681 150.776 64.514C152.71 64.8033 154.062 65.0383 155 65.2911L166.724 68.1544C167.856 68.2975 169.338 68.6421 171.16 69.188L181.789 71.819L185.158 72.552C187.239 73.0049 188.897 73.4536 190.116 73.8908L203 77.37C203.903 77.5548 204.957 77.8276 206.16 78.188C206.267 78.22 206.372 78.2531 206.477 78.2873L220.761 82.7699C221.481 82.9949 222.336 83.2789 223.348 83.624L237.5 88.4339C238.477 88.6943 239.651 89.0964 241.006 89.639C241.158 89.6999 241.307 89.7609 241.451 89.8222L254.5 95.1995C255.756 95.5337 257.215 96.0597 258.5 96.6382C258.592 96.6794 258.682 96.7209 258.772 96.7626L271.373 102.53C272.295 102.812 273.42 103.228 274.763 103.78C275.515 104.089 276.223 104.442 276.838 104.803L288 110.306C290.032 110.959 292.803 112.289 294.5 113.448L303.842 118.53C304.654 118.91 305.826 119.586 307.598 120.625C307.836 120.764 308.065 120.902 308.285 121.038L319.345 127.693C323.746 130.286 326.435 132.098 327.5 133.192L336.296 138.758C338.451 139.767 341.442 141.648 343.959 143.709L350.5 148.445C351.32 148.858 352.566 149.73 354.613 151.2C355.52 151.851 356.326 152.525 357 153.174L366 160.189C367.218 160.682 369.285 162.243 371 163.809L381.762 171.796C382.799 172.376 384.084 173.294 385.503 174.508L396.221 182.716C397.165 183.177 398.66 184.304 401.246 186.36L412.619 194.476L417.526 197.645L431.688 206.572L446.811 215.421L447.06 215.547C448.6 216.328 449.799 217.051 450.629 217.679L458 222.082C458.721 222.085 459.861 222.454 461.479 223.191C462.449 223.633 463.281 224.444 463.758 225.208L466.526 227.659Z" />
  </g>

  <g class="detail-region" data-region="biceps-short-head" tabindex="0" role="button">
    <path id="biceps-short-head" transform="translate(195.41,646.82) scale(1)" d="M522.5 225.788L518.5 224.535L525.38 224.236L532.259 223.938L524.38 218.791C516.475 213.629 495.717 193.792 491.138 187.025C489.839 185.106 486.689 182.214 484.138 180.6L479.5 177.664L476.731 175.213C477.323 176.161 477.368 177.035 476.45 177.035C475.058 177.035 470 173.878 470 173.009C470 172.392 470.309 172.084 470.974 172.087L463.603 167.684C465.481 169.105 465.471 170.036 463.25 170.031C461.005 170.025 452.772 164.596 453.661 163.707L453.703 163.665C453.912 163.455 454.071 163.296 454.264 163.21C454.876 162.938 455.822 163.418 459.784 165.426L444.662 156.577C448.824 159.016 450.27 161.035 447.855 161.035C446.341 161.035 438.004 155.747 438.002 154.785C437.998 153.4 440.294 154.017 444.662 156.577L430.5 147.65C433.082 149.318 433.807 151.035 431.93 151.035C429.978 151.035 421.948 144.928 422.572 143.918C422.951 143.305 424.104 143.519 425.593 144.481L414.22 136.365C418.409 139.694 418.311 142.097 414.099 139.329C408.182 135.439 406.81 134.151 407.461 133.099C407.848 132.472 408.241 132.257 409.194 132.721L398.477 124.513C400.664 126.384 402.12 128.248 401.713 128.655C400.853 129.516 392.856 124.135 392.246 122.285C391.759 120.809 392.826 120.732 394.735 121.801L383.974 113.814C385.788 115.471 387.209 117.133 386.811 117.541C386.043 118.327 377 112.174 377 110.865C377 110.409 377.6 110.035 378.333 110.035C378.502 110.035 378.719 110.091 378.974 110.194L369.974 103.178C372.111 105.236 372.916 107.035 371.384 107.035C369.883 107.035 361.049 99.7649 361.555 98.9469C362.034 98.1718 362.362 97.8897 363.474 98.4498L356.933 93.7139C357.172 93.9089 356.923 94.5119 356.381 95.0539C355.733 95.7019 354.213 95.1579 351.948 93.4699C350.051 92.0559 347.874 90.5389 347.11 90.0989C346.345 89.6589 346.035 88.7869 346.422 88.1609C346.661 87.7753 347.76 88.055 349.27 88.7624L340.474 83.1967C340.826 83.5582 341 83.8412 341 84.0479C341 85.7619 339.002 85.1329 334.41 81.9729C331.962 80.2889 330.224 78.4809 330.549 77.9559C330.873 77.4319 331.67 77.3159 332.319 77.6979L321.259 71.0432C324.816 73.242 326.144 75.0349 324.126 75.0349C322.244 75.0349 314.023 69.8059 314.554 68.9469C315.066 68.1197 315.365 67.855 316.816 68.5349L307.474 63.4526C308.395 64.0813 309 64.6596 309 65.0519C309 66.5469 307.338 66.2459 302.71 63.9119L302.361 63.7361L302.359 63.7352L302.358 63.7347C299.059 62.072 298.082 61.5792 298.046 61.0248C298.03 60.7913 298.182 60.5469 298.398 60.1995L298.453 60.1109C298.675 59.7523 299.673 59.8931 300.974 60.3111L289.812 54.8082C291.111 55.5712 291.995 56.3704 291.996 56.8679C291.998 57.6019 291.66 58.0519 291.245 57.8679C290.83 57.6849 288.355 56.6859 285.745 55.6489C283.135 54.6119 281 53.3739 281 52.8989C281 51.9612 282.041 51.8299 284.346 52.5349L271.745 46.7675C273.327 47.5032 274.59 48.3063 274.788 48.8999C275.34 50.5539 273.089 50.2579 268.18 48.0309C265.804 46.9519 264.134 45.6269 264.469 45.0849C264.722 44.6756 265.948 44.7986 267.474 45.2043L254.424 39.8271C258.085 41.3809 259.222 43.0349 256.52 43.0349C254.215 43.0349 247 39.9209 247 38.9259C247 37.9931 248.213 37.8364 250.474 38.4388L236.322 33.6289C241.377 35.3519 242.803 37.6469 238.25 36.7329C233.763 35.8319 230 34.1559 230 33.0599C230 31.9379 230.555 31.7806 233.735 32.7748L219.45 28.2922C221.43 28.9416 223 29.9919 223 30.6929C223 30.7979 223.002 30.8962 223.003 30.9878C223.01 31.3679 223.015 31.6324 222.885 31.777C222.589 32.108 221.59 31.8101 218.302 30.8294L218.255 30.8154C217.921 30.7159 217.564 30.6094 217.182 30.4959C214.332 29.6499 212 28.5249 212 27.9959C212 27.0432 213.345 26.8367 215.974 27.3749L203.09 23.8957C205.244 24.6681 206.03 25.4051 205.367 26.0679C204.106 27.3289 195.805 24.9509 195.208 23.1579L194.763 21.8239L184.134 19.1929C188.115 20.3859 189.349 22.0389 186.25 22.0289C183.204 22.0199 177 19.9799 177 18.9879C177 18.2094 177.913 17.9336 179.698 18.1593L167.974 15.296C169.634 15.7433 170 16.2465 170 17.2049C170 17.8729 168.629 18.0149 166.25 17.5929C160.545 16.5819 159 15.9979 159 14.8539C159 14.3875 159.777 14.1856 161.261 14.2535L146.974 11.326C149.528 11.8579 152 12.6832 152 13.3029C152 13.9199 150.233 14.0649 147.417 13.6789C142.327 12.9809 140.725 12.2889 141.457 11.1049C141.631 10.823 142.411 10.7492 143.474 10.816L128.597 8.23993C131.287 8.72887 134 9.59519 134 10.3069C134 10.9309 132.047 11.0819 128.864 10.7049C123.324 10.0489 122.487 9.67393 123.373 8.23993C123.568 7.92489 124.379 7.82152 125.474 7.86493L109.859 5.52051C114.205 6.18869 116.975 7.48005 115.933 8.37292C114.84 9.31092 105.616 7.40192 105.202 6.15192L104.745 4.7699L98 4.03491V5.53491C98 7.21691 97.248 7.30493 90.64 6.39893C88.088 6.04893 86 5.37393 86 4.89893C86 4.42393 88.7 4.03491 92 4.03491L75.4736 3.17859C78.1531 3.33125 80.0929 4.07559 79.435 5.13989C78.701 6.32789 68 6.29791 68 5.10791C68 4.59891 68.788 3.97594 69.75 3.72394L56.117 4.03491C60.246 4.03491 62.062 4.37294 61.414 5.02094C59.885 6.54994 50.797 6.76491 50.275 5.28491L49.833 4.03491H43V5.58691V7.13989L37.829 6.83691C34.814 6.66091 32.485 6.01391 32.245 5.28491L31.833 4.03491L20.557 2.15393C24.954 3.26093 26.628 5.04493 23.25 5.02393C18.703 4.99493 14 3.66293 14 2.40393C14 1.52989 14.2312 1.10744 15.2856 1.11371L12.9736 0C5.14862 3.76256 0 6.48203 0 7.01593C0 7.57593 0.354011 8.03491 0.786011 8.03491C1.21901 8.03491 3.58101 9.80591 6.03601 11.9699C9.14601 14.7109 10.184 16.2249 9.45901 16.9609C8.7709 17.6585 7.00153 16.5975 3.63193 13.4464L10.5229 19.957C10.6601 18.2064 13.1158 19.3177 17.546 23.1356C21.8428 26.8377 23.0767 29.0509 20.7418 28.8679L23.9727 31.5349C23.9727 29.7789 26.5077 30.6949 31.2227 34.1549C35.7957 37.5099 37.1987 39.6199 34.8567 39.6199L41.7227 44.9149C41.7227 43.1589 44.2577 44.0749 48.9727 47.5349C53.5457 50.8899 54.9487 52.9999 52.6067 52.9999L59 56.9499C59 55.1939 61.535 56.1099 66.25 59.5699C70.823 62.9249 72.226 65.0349 69.884 65.0349L75 69.0089C75 68.6569 75.288 68.0809 75.639 67.7289C76.405 66.9629 77.333 67.4629 82.25 71.2869C85.891 74.1179 87.013 76.0349 85.029 76.0349L90.0706 79.9312C90.084 79.7038 90.2212 79.4837 90.4052 79.1885L90.469 79.0859C91.204 77.8959 94.339 79.4609 99.479 83.5859C101.485 85.1949 102.129 86.3059 101.449 86.9859C101.016 87.4186 100.082 87.252 98.6154 86.4738L105.579 90.9069C106.497 89.4219 108.011 89.9179 112.587 93.2049C117.003 96.3759 117.741 97.4589 116.152 98.4409L121 101.948C121 100.31 123.059 100.979 127.57 104.083C131.974 107.113 133.188 109.035 130.697 109.035L136.036 112.954C136.041 112.757 136.165 112.563 136.334 112.299C136.374 112.238 136.416 112.172 136.459 112.102C136.821 111.515 137.287 111.035 137.493 111.035C138.509 111.035 148 117.439 148 118.125C148 119.244 147.344 119.613 145.974 119.222L152.694 123.535C152.286 122.991 152.205 122.512 152.459 122.102C152.821 121.515 153.26 121.035 153.433 121.035C154.313 121.035 163.065 126.332 163.591 127.182C164.792 129.126 162.955 129.318 159.26 127.634L167.046 131.732C166.884 131.387 166.883 131.067 167.046 130.773C167.38 130.17 167.796 129.67 167.969 129.661C168.848 129.62 177.84 134.498 178.406 135.322C179.697 137.207 177.871 137.486 174.101 135.978L184.542 140.437C183.596 139.651 183.28 138.961 183.609 138.379C183.949 137.779 184.369 137.283 184.542 137.276C185.422 137.243 194.368 142.205 194.925 143.035C196.034 144.687 194.792 145.098 191.974 144.159L202.474 147.902C201.822 147.443 201.469 147.084 201.579 146.907C202.449 145.5 205.193 145.965 209.949 148.326C214.248 150.461 216.44 153.035 213.958 153.035L221.474 155.961C220.122 155.155 219.27 154.407 219.532 153.984C220.263 152.8 222.861 153.464 228.369 156.244C230.79 157.466 231.885 158.55 231.296 159.139C231.044 159.391 230.374 159.386 229.474 159.206L238.974 163.362C237.347 162.423 236.223 161.483 236.514 161.012C237.19 159.919 238.931 160.272 244.663 162.668C248.233 164.159 249.13 166.049 246.25 166.013L255.974 169.744C255.035 169.191 254.365 168.629 254.203 168.143L253.739 166.753L256.564 167.462C262.337 168.911 266.384 171.051 265.336 172.099C265.047 172.388 264.366 172.45 263.474 172.35L272.899 175.535C271.722 174.947 271 174.355 271 173.874C271 171.704 282.025 174.61 282.818 176.989L283.257 178.306L279.539 177.608L291.551 181.124C289.984 180.545 289 179.893 289 179.363C289 177.74 289.52 177.729 295.924 179.207C298.889 179.891 301 180.931 301 181.707C301 182.508 300.873 182.917 299.974 182.947L310.974 185.729C308.807 185.019 307 184.091 307 183.368C307 182.441 307.645 182.09 308.75 182.414C309.712 182.697 312.192 183.228 314.261 183.595C318.255 184.303 319.72 185.472 317.969 186.554C317.452 186.874 316.321 186.88 314.974 186.687L325.187 188.515C324.464 188.259 324.165 187.578 324.521 187.001C324.877 186.425 325.918 186.173 326.834 186.441C327.75 186.709 330.192 187.228 332.261 187.595C336.046 188.266 337.732 189.464 336.212 190.404C335.895 190.6 334.428 190.493 332.601 190.217L344.974 192.647C343.472 192.187 342.37 191.648 342.198 191.132L341.731 189.728L347.498 190.406C350.669 190.779 353.992 191.492 354.882 191.992L356.5 192.901L354.807 193.553C354.1 193.825 352.882 193.888 351.474 193.804L361.974 195.257C360.987 194.885 360.31 194.5 360.197 194.154L359.746 192.773L365.623 193.489C371.431 194.197 374.007 195.361 372.688 196.681C372.412 196.957 371.583 197.041 370.474 196.99L380.429 198.818C378.402 198.388 378 197.867 378 196.838C378 195.202 389.203 196.797 391 198.689L392.5 200.268L399.906 201.576C395.878 200.786 395.188 200.155 396.795 199.162C398.209 198.288 406.842 199.201 408.842 200.437C410.763 201.624 409.728 202.395 406.974 202.431L417.474 203.69C415.87 203.373 414.554 202.944 414.036 202.445L412.571 201.035L417.036 201.153C423.204 201.317 427.472 202.343 426.943 203.535C426.74 203.994 425.555 204.221 423.974 204.264L435.997 206C432.482 205.462 431.915 204.982 432.558 203.942C433.202 202.899 443.308 203.505 445.266 204.704C447.415 206.02 444.275 207.017 439.676 206.479L455.851 209.135C453.933 208.702 452.168 208.072 451.295 207.363L449.5 205.904L455.682 206.368C462.518 206.882 464.717 207.718 463.208 209.227C462.679 209.756 460.967 209.849 458.974 209.648L474.946 213.437C468.742 211.606 468.585 211.515 469.394 210.207C470.05 209.145 476.913 210.383 480.237 212.162C483.029 213.656 481.921 214.519 478.974 214.253L488.874 217.282C487.122 216.457 486.135 215.625 486.489 215.052C487.542 213.348 499.072 216.698 499.802 218.92L500.257 220.306L509.092 222.966C507.027 222.335 505.379 221.672 505.241 221.259C504.738 219.75 508.154 219.672 513.214 221.078C516.581 222.013 518.752 223.622 517.85 224.514C517.773 224.59 517.601 224.633 517.353 224.647L522.5 225.788Z" />
  </g>
</svg>
