<svg width="317" height="1149" viewBox="0 0 317 1149" fill="none" xmlns="http://www.w3.org/2000/svg">
<path fill-rule="evenodd" clip-rule="evenodd" d="M213.3 2.15339C212.196 3.39039 207.545 9.80339 202.965 16.4034C183.383 44.6214 173.939 55.3464 148.163 78.6344C137.55 88.2234 126.419 99.0374 123.427 102.664C102.375 128.187 91.7936 156.603 88.7356 195.833L87.6106 210.262L88.7696 224.833C89.9886 240.172 93.3346 261.005 97.5326 279.403C98.9126 285.453 100.291 293.328 100.595 296.903L101.147 303.403L97.1666 315.403C86.0816 348.83 82.9596 367.336 82.9596 399.618C82.9596 418.479 83.9306 432.456 87.1806 460.403C87.8836 466.453 88.4376 481.303 88.4096 493.403L88.3606 515.403L86.1696 524.811C84.9646 529.986 81.3066 542.811 78.0406 553.311C65.6746 593.069 63.1126 606.317 62.2626 634.911C61.6076 656.947 62.6216 672.48 67.0606 708.403C73.6186 761.48 75.9586 794.927 75.9496 835.403C75.9366 886.134 71.9786 925.647 65.3096 941.607C64.4466 943.673 59.8526 950.025 55.0996 955.724C22.2106 995.161 18.4616 1001.15 14.3286 1020.82C12.9906 1027.19 10.1386 1038.03 7.99159 1044.9C-2.10641 1077.24 -2.37741 1083.25 5.72559 1095.18C10.4606 1102.15 29.8886 1123.66 42.0946 1135.45C53.0086 1145.99 58.2136 1148.9 66.1206 1148.9H71.6496L77.9086 1144.86L84.1686 1140.81L89.1676 1142.47L94.1666 1144.13L103.314 1143.7L112.46 1143.27L117.96 1140.47C120.985 1138.93 124.238 1136.99 125.189 1136.15L126.918 1134.63L131.479 1135.91C141.098 1138.6 158.852 1134.83 167.736 1128.21C169.537 1126.86 173.908 1124.96 177.448 1123.98C190.956 1120.23 204.624 1109.12 210.089 1097.44L213.205 1090.78L212.696 1082.59C212.157 1073.9 209.578 1064.95 204.984 1055.84L202.18 1050.28L201.687 1027.34L201.194 1004.4L199.562 997.903C198.665 994.328 194.9 985.328 191.195 977.903L184.46 964.403L184.559 947.403C184.726 918.742 190.763 888.906 207.12 835.903C223.787 781.894 228.557 765.403 235.357 738.29C240.406 718.158 247.639 682.659 251.125 660.903L253.449 646.403L253.38 626.403L253.312 606.403L249.653 586.951C247.641 576.253 245.454 562.85 244.793 557.166L243.592 546.833L244.767 533.118C245.923 519.624 249.072 501.131 252.545 487.437C253.517 483.606 257.772 473.256 262.002 464.437C278.556 429.925 285.892 406.77 289.951 376.215C294.883 339.083 291.882 311.603 279.155 277.365C277.511 272.944 275.022 263.494 273.623 256.365C264.862 211.716 265.438 185.234 276.033 145.653L277.037 141.903H279.101C281.818 141.903 299.239 150.66 306.98 155.917C316.942 162.682 319.896 158.874 310.227 151.731C290.945 137.486 272.992 130.903 253.428 130.903H244.813L237.343 133.41C233.235 134.79 227.288 137.223 224.127 138.819C218.195 141.813 203.508 152.272 201.091 155.223C200.338 156.142 198.434 163.309 196.859 171.149C193.027 190.219 193.136 206.928 197.097 207.691L198.718 208.003L199.213 192.203L199.708 176.403L201.998 168.903C204.723 159.979 207.509 156.676 217.992 149.947C225.475 145.143 237.759 139.369 238.634 140.244C238.886 140.495 238.626 142.434 238.057 144.552C235.942 152.425 233.96 170.62 233.96 182.166V194.08L229.46 199.224C224.671 204.699 223.888 207.278 226.689 208.353L228.419 209.016L231.122 205.71L233.825 202.403L234.264 203.903C234.506 204.728 235.491 208.103 236.454 211.403C238.552 218.596 243.272 228.184 250.442 239.82C253.351 244.541 259.12 254.627 263.261 262.234L270.79 276.064L275.799 291.234C278.554 299.577 281.605 310.903 282.58 316.403L284.352 326.403L284.362 344.403C284.381 376.815 279.329 404.057 267.951 432.903C254.948 465.865 242.35 488.316 213.52 529.903C205.703 541.178 195.742 555.988 191.384 562.813C182.176 577.234 179.893 579.902 176.755 579.905L174.46 579.907L174.779 570.405L175.097 560.903H172.529H169.96V569.903V578.903H168.41C166.244 578.903 161.791 576.479 159.688 574.155L157.921 572.202L154.002 548.653C147.756 511.124 144.75 498.601 135.819 472.903C121.424 431.482 116.073 413.327 112.832 394.903C111.096 385.038 111.083 349.686 112.809 335.403C114.978 317.453 120.634 289.353 124.987 274.903C134.252 244.144 154.957 210.526 183.19 180.403C185.251 178.203 186.943 175.439 186.949 174.26C186.965 171.116 184.04 170.468 180.765 172.889C177.337 175.424 177.279 174.938 180.373 169.581C181.7 167.283 183.981 162.53 185.442 159.019C193.612 139.381 205.419 128.44 230.691 117.087C248.393 109.135 263.993 105.055 277.21 104.921C278.172 104.911 278.96 104.237 278.96 103.422C278.96 96.9264 246.055 104.315 222.621 116.072C208.851 122.981 202.377 127.55 195.09 135.502L188.933 142.222L181.446 157.593C174.079 172.721 172.956 176.165 174.984 177.418C175.56 177.774 173.224 181.189 169.644 185.227C149.092 208.4 133.134 234.765 116.438 273.13C111.836 283.704 107.844 291.691 107.567 290.879C106.923 288.995 101.77 264.021 98.8026 248.403L96.5216 236.403L96.4906 210.403L96.4596 184.403L98.2736 175.403C106.309 135.537 119.837 113.097 153.46 83.8614C174.983 65.1454 191.692 45.7934 208.246 20.4034C216.077 8.39439 218.448 3.61739 217.633 1.49439C216.8 -0.67561 215.673 -0.504613 213.3 2.15339ZM249.267 137.623C246.785 138.081 245.737 140.638 243.393 151.956C241.357 161.785 240.327 198.228 241.854 206.373C242.997 212.47 249.618 227.903 251.09 227.903C252.453 227.903 254.79 218.227 257.489 201.403C260.864 180.364 265.414 157.176 267.935 148.166C269.049 144.185 269.96 140.493 269.96 139.961C269.96 138.48 254.247 136.705 249.267 137.623ZM218.245 217.119L215.03 222.282L216.117 223.592C218.11 225.994 219.785 224.952 223.022 219.295L226.23 213.688L224.845 212.811C222.412 211.27 221.528 211.847 218.245 217.119ZM259.428 218.149C259.038 220.489 257.851 225.231 256.789 228.687L254.859 234.97L260.05 243.964C262.905 248.911 265.697 253.24 266.255 253.585C266.813 253.93 266.97 253.729 266.606 253.139C265.493 251.339 261.982 226.774 261.971 220.712C261.958 213.826 260.409 212.264 259.428 218.149ZM208.471 236.875C205.735 244.034 205.803 245.903 208.796 245.903C209.954 245.903 211.438 243.783 213.345 239.406C216.339 232.534 216.265 229.903 213.079 229.903H211.135L208.471 236.875ZM201 257.508C198.469 265.704 198.467 266.541 200.973 267.196C203.358 267.82 204.115 266.626 206.468 258.528L208.174 252.654L206.817 251.794C204.04 250.034 202.99 251.066 201 257.508ZM196.651 273.653C195.55 275.586 193.818 285.091 194.326 286.415C194.64 287.233 195.757 287.903 196.807 287.903H198.717L200.363 281.348C201.269 277.743 201.747 274.368 201.426 273.848C200.732 272.724 197.26 272.583 196.651 273.653ZM114.094 292.014C104.811 316.056 98.6776 334.111 96.0966 345.003C93.2276 357.106 90.8486 375.948 90.2996 390.903C89.6596 408.318 90.5136 422.339 94.1686 454.403C95.6016 466.981 96.3556 479.825 96.3966 492.403L96.4596 511.403L94.2136 522.403C92.9776 528.453 90.1536 539.253 87.9386 546.403C72.0886 597.542 69.7076 610.336 69.7006 644.403C69.6956 664.199 71.0316 681.302 74.9326 711.403C82.0746 766.502 85.0096 821.344 83.0526 863.11C81.4396 897.526 78.5296 922.442 74.3456 937.653L73.7266 939.903H75.7836C79.2306 939.903 79.2146 941.716 75.7476 944.016C73.9396 945.215 70.2096 948.883 67.4596 952.167C64.7096 955.45 58.6126 962.697 53.9116 968.27C32.9476 993.121 25.0366 1005.35 22.4576 1016.9C20.6516 1024.99 14.9226 1046 9.91559 1062.9L6.80459 1073.4L7.27059 1079.7L7.73659 1085.99L11.4016 1091.51C16.5766 1099.31 47.2336 1132.19 54.2276 1137.45C57.4376 1139.86 61.5686 1142.11 63.4086 1142.46C70.8456 1143.86 81.9106 1135.59 91.4976 1121.47C96.9706 1113.42 97.6336 1110.9 94.2846 1110.9C92.5656 1110.9 84.4996 1105.26 81.5366 1101.99C78.9606 1099.14 78.3536 1099.32 75.5706 1103.73C74.2426 1105.83 71.5236 1109.28 69.5286 1111.4L65.9016 1115.25L64.7936 1114.14L63.6866 1113.03L69.3456 1106.72C75.8926 1099.41 77.0636 1096.5 74.3306 1094.29C73.3016 1093.47 66.8416 1090.09 59.9746 1086.79C44.1126 1079.16 41.4806 1077.14 39.2566 1070.88L37.4906 1065.9H35.5966C34.5556 1065.9 31.2496 1067.31 28.2506 1069.02L22.7986 1072.14L21.6286 1070.97L20.4596 1069.8L22.9596 1067.78C24.3346 1066.67 27.8586 1064.62 30.7906 1063.22L36.1206 1060.68L35.4856 1058.04C34.4646 1053.8 29.5956 1043.9 25.1726 1037.09C21.3246 1031.16 20.6706 1027.9 23.3256 1027.9C24.7356 1027.9 34.4736 1042.6 37.0586 1048.63C38.0916 1051.05 39.8496 1056.68 40.9636 1061.16C42.0786 1065.64 43.6696 1070.34 44.5006 1071.61C46.5056 1074.67 51.3936 1077.58 63.4596 1082.9L73.4596 1087.31L81.9596 1095.45C86.6346 1099.92 91.5726 1104.33 92.9326 1105.24C98.3596 1108.89 105.74 1106.07 108.581 1099.27C110.86 1093.81 110.287 1092.25 103.437 1085.27C99.8496 1081.61 97.1076 1078.42 97.3436 1078.19C98.2496 1077.28 103.807 1080.96 106.972 1084.57L110.282 1088.34L109.71 1084.08C108.858 1077.73 102.881 1066.01 97.8726 1060.88C91.9756 1054.84 87.0076 1052.62 78.9696 1052.43L72.4596 1052.28V1050.84C72.4596 1050.01 74.0426 1049.01 76.2096 1048.48L79.9596 1047.55V1045.28C79.9596 1041.33 77.7846 1032.55 75.8706 1028.76C74.8576 1026.76 72.1676 1023.53 69.8936 1021.58C67.6186 1019.63 66.0546 1017.56 66.4176 1016.97C68.7096 1013.26 77.9806 1021.51 81.0826 1030.02C82.2626 1033.26 83.4086 1035.9 83.6296 1035.9C87.1416 1035.9 103.584 1030.66 110.46 1027.35C129.937 1017.96 138.96 1004 138.96 983.252C138.96 975.21 140.158 972.027 142.056 975.025C143.448 977.221 143.097 991.959 141.508 998.057C139.634 1005.25 134.343 1014.16 128.373 1020.16C125.771 1022.78 123.831 1025.11 124.062 1025.34C124.293 1025.57 126.952 1024.91 129.971 1023.86C138.933 1020.77 148.808 1021.84 155.638 1026.65L158.46 1028.64L163.96 1027.88C173.948 1026.51 185.942 1030.53 191.478 1037.11C192.772 1038.65 194.134 1039.9 194.505 1039.9C194.876 1039.9 194.987 1031.69 194.752 1021.65L194.324 1003.4L191.576 995.403C187.445 983.38 182.484 975.223 174.662 967.593L167.68 960.783L168.769 959.694L169.857 958.606L172.373 960.254C173.757 961.161 175.355 961.903 175.925 961.903C176.587 961.903 176.96 957.071 176.96 948.495C176.96 918.351 183.427 888.112 204.89 817.903C210.858 798.378 217.334 777.003 219.281 770.403C230.657 731.832 243.084 670.144 245.767 638.932C246.773 627.227 245.621 608.793 243.016 594.903C237.976 568.029 236.96 559.646 236.978 545.075C236.996 531.042 238.721 514.218 241.016 505.694C241.608 503.498 241.908 501.517 241.683 501.292C241.458 501.068 238.76 504.601 235.688 509.143C232.616 513.686 226.488 522.353 222.071 528.403C217.653 534.453 207.665 548.556 199.875 559.743C191.195 572.208 184.501 580.822 182.586 581.99C175.691 586.193 161.683 583.116 155.78 576.101L153.182 573.014L152.006 564.208C151.359 559.365 150.195 553.153 149.418 550.403C148.641 547.653 147.077 539.778 145.943 532.903C142.736 513.477 138.777 499.07 126.841 463.403C109.669 412.086 105.952 395.119 105.97 368.123C105.983 347.552 109.874 314.926 114.51 296.504C116.024 290.491 115.764 287.69 114.094 292.014ZM193.022 293.865C191.245 294.963 188.985 307.528 190.324 308.867C193.349 311.892 195.307 308.977 196.462 299.732L197.154 294.192L195.717 293.64C194.926 293.336 193.713 293.437 193.022 293.865ZM187.457 320.653C187.113 323.266 186.608 326.602 186.335 328.066L185.839 330.73L188 331.416C191.146 332.414 191.827 331.181 192.575 323.131L193.247 315.903H190.665H188.083L187.457 320.653ZM184.419 342.387C183.607 348.88 184.193 350.903 186.883 350.903H188.869L189.47 347.153C189.8 345.091 190.24 342.572 190.447 341.557C191.046 338.619 189.931 336.903 187.425 336.903H185.104L184.419 342.387ZM182.633 359.153C182.334 360.391 181.784 364.598 181.411 368.502L180.731 375.601L182.513 376.285C183.493 376.661 184.68 376.583 185.151 376.112C186.149 375.114 187.946 364.883 187.954 360.153L187.96 356.903H185.568C183.916 356.903 183.009 357.598 182.633 359.153ZM179.444 389.206C178.676 396.381 179.009 400.106 180.46 400.558C182.853 401.305 183.917 398.858 184.562 391.12L185.248 382.903H182.683H180.119L179.444 389.206ZM178.485 406.862C178.159 407.39 177.614 410.801 177.274 414.443L176.656 421.065L179.558 420.734L182.46 420.403L182.754 413.153L183.048 405.903H181.063C179.971 405.903 178.811 406.335 178.485 406.862ZM176.633 428.653C176.388 429.066 176.024 433.667 175.824 438.879L175.46 448.354L176.96 448.627C179.918 449.166 180.686 447.26 181.378 437.653L182.081 427.903H179.579C178.204 427.903 176.878 428.24 176.633 428.653ZM174.511 457.153C174.298 457.841 173.851 463.188 173.518 469.037L172.912 479.671L174.66 480.341C176.961 481.224 178.96 478.446 178.96 474.363C178.96 472.626 179.251 467.762 179.607 463.554L180.253 455.903H177.575C176.102 455.903 174.723 456.466 174.511 457.153ZM172.995 488.837C172.426 489.901 171.96 494.626 171.96 499.337V507.903H174.367H176.773L177.479 498.489C177.867 493.312 177.883 488.587 177.513 487.989C176.457 486.28 174.13 486.717 172.995 488.837ZM171.627 515.57C171.26 515.936 170.96 520.436 170.96 525.57V534.903H173.31H175.661L176.307 525.802C176.662 520.796 176.703 516.296 176.397 515.802C175.749 514.753 172.596 514.6 171.627 515.57ZM170.627 541.57C169.559 542.637 169.858 554.722 170.969 555.409C171.524 555.751 172.874 555.748 173.969 555.4L175.96 554.768V547.836V540.903H173.627C172.343 540.903 170.993 541.203 170.627 541.57ZM126.421 559.966C126.089 560.503 126.286 562.396 126.858 564.173C128.733 570 133.865 600.113 135.418 614.403C138.162 639.651 139.112 658.968 139.059 688.403C138.991 726.102 137.032 754.592 131.976 791.403C129.449 809.803 125.388 847.516 123.869 866.701L122.657 882L123.85 883.193L125.043 884.386L125.789 883.18C126.199 882.516 127.091 874.42 127.77 865.188C128.985 848.683 130.343 836.114 135.414 794.403C140.989 748.554 141.641 741.353 142.969 710.928C144.563 674.412 142.544 636.331 136.977 597.903C132.624 567.857 129.184 555.495 126.421 559.966ZM222.906 573.153C222.192 574.941 218.57 582.816 214.856 590.653L208.104 604.903H205.849C204.323 604.903 200.906 602.104 195.277 596.242L186.96 587.581V589.69C186.96 592.671 195.956 603.12 201.461 606.534L206.088 609.403L205.567 617.403C204.963 626.673 200.651 648.542 195.608 667.905C193.675 675.329 190.012 689.503 187.469 699.403C182.917 717.122 181.025 724.145 173.057 752.903C162.916 789.503 158.452 809.421 151.877 847.403C148.814 865.098 141.96 909.446 141.96 911.569C141.96 911.753 142.86 911.903 143.96 911.903C145.06 911.903 145.96 911.301 145.96 910.566C145.96 909.217 146.337 906.67 151.903 870.403C158.772 825.653 165.97 792.459 178.257 748.874C181.276 738.165 185.626 722.203 187.924 713.403C190.222 704.603 193.644 691.553 195.528 684.403C204.277 651.193 208.416 631.214 209.562 616.659C209.964 611.557 210.892 607.257 211.993 605.403C214.393 601.362 227.96 571.976 227.96 570.821C227.96 570.316 227.115 569.903 226.081 569.903C224.895 569.903 223.725 571.1 222.906 573.153ZM108.292 940.175C107.48 941.489 109.927 942.869 113.101 942.888C117.221 942.912 133.687 947.468 141.822 950.835C148.82 953.731 151.778 954.035 150.34 951.71C147.601 947.277 110.237 937.027 108.292 940.175ZM133.21 1028.09C131.423 1028.7 129.96 1029.58 129.96 1030.06C129.96 1030.54 131.524 1033.29 133.435 1036.17C139.622 1045.49 145.422 1065.98 146.6 1082.67L147.217 1091.4L145.562 1099.4C143.793 1107.96 139.853 1117.31 134.971 1124.54C133.315 1127 131.96 1129.21 131.96 1129.45C131.96 1130.62 148.21 1129.72 153.028 1128.29C164.468 1124.91 170.296 1119.87 174.014 1110.17L176.223 1104.4L176.342 1092.9C176.407 1086.58 175.842 1078.25 175.086 1074.4C171.415 1055.7 159.425 1034.3 149.846 1029.34C145.893 1027.3 137.427 1026.66 133.21 1028.09ZM110.104 1032.94L103.747 1035.91L104.479 1037.65C106.005 1041.3 106.874 1047.68 106.916 1055.55L106.96 1063.7L110.487 1071.12C118.061 1087.07 116.679 1101.98 106.988 1108.88C105.43 1109.99 101.437 1115.32 98.1126 1120.73C94.7896 1126.14 91.3706 1131.15 90.5146 1131.86C87.9806 1133.96 88.7146 1135.51 92.8256 1136.75C100.809 1139.14 112.159 1137.33 119.925 1132.43C129.135 1126.61 137.37 1113.78 140.544 1100.3L142.169 1093.4L141.636 1082.4C140.974 1068.74 137.605 1055.77 131.477 1043.28C124.925 1029.93 120.814 1027.94 110.104 1032.94ZM162.96 1033.8C162.96 1034.3 164.586 1037.11 166.573 1040.05C177.112 1055.66 183.223 1080.98 181.055 1100.06C180.515 1104.81 179.373 1110.37 178.517 1112.42C177.661 1114.47 176.96 1116.57 176.96 1117.08C176.96 1119.09 191.444 1110.26 196.823 1104.96C203.768 1098.12 206.222 1093.28 206.758 1085.36L207.167 1079.32L204.012 1069.86C198.518 1053.39 189.181 1040.08 179.783 1035.31L175.026 1032.9H168.993C165.675 1032.9 162.96 1033.31 162.96 1033.8ZM141.71 1036.48C137.518 1038.75 138.432 1040 143.086 1038.36C145.355 1037.56 148.981 1036.9 151.145 1036.9C153.512 1036.9 154.832 1036.51 154.46 1035.9C153.526 1034.39 144.832 1034.78 141.71 1036.48ZM89.2096 1039.61L83.9596 1041.16V1044.49V1047.83L87.8676 1048.88C90.0166 1049.46 94.0556 1051.5 96.8436 1053.42C99.6306 1055.33 102.053 1056.9 102.225 1056.9C102.715 1056.9 101.298 1043.72 100.479 1040.65L99.7426 1037.9L97.1016 1037.98C95.6486 1038.03 92.0966 1038.76 89.2096 1039.61ZM115.254 1040.23C111.698 1041.53 109.276 1043.55 110.184 1044.46C110.508 1044.79 112.144 1044.34 113.817 1043.48C115.491 1042.61 119.133 1041.9 121.91 1041.9C127.123 1041.9 128.669 1040.59 124.71 1039.53C121.539 1038.68 118.956 1038.87 115.254 1040.23ZM172.21 1040.12C169.581 1041.39 169.124 1043.47 171.71 1042.39C172.672 1041.99 175.597 1041.43 178.21 1041.16C180.823 1040.88 182.96 1040.26 182.96 1039.78C182.96 1038.55 174.929 1038.81 172.21 1040.12Z" fill="#FAFAFA"/>
</svg>
