<svg viewBox="0 0 448 885" xmlns="http://www.w3.org/2000/svg">
  <path id="outline" class="detail-outline" d="M195.401 0.486816V2.73682C195.401 6.16682 188.726 40.3628 182.957 66.4868C180.131 79.2838 174.318 102.421 167.381 128.487C163.501 143.062 159.699 157.844 158.931 161.337C158.163 164.829 157.326 167.896 157.07 168.152C156.814 168.407 155.825 166.225 154.871 163.302C152.107 154.827 144.552 138.671 139.292 129.987C133.54 120.49 130.266 111.545 127.406 97.5108L125.302 87.1848L125.601 72.8348L125.901 58.4838L124.67 58.4848C123.993 58.4858 123.233 59.4998 122.98 60.7368C120.684 72.0018 121.956 89.4508 126.297 106.252C127.894 112.431 128.993 117.487 128.74 117.487C128.488 117.487 126.214 115.909 123.689 113.981C114.978 107.33 101.65 105.572 90.6894 109.629C81.8553 112.898 74.8454 117.943 64.1514 128.726C58.7884 134.134 54.4014 137.978 54.4014 137.269C54.4014 136.561 55.3114 132.832 56.4224 128.984C63.4774 104.562 67.0464 61.4868 62.0154 61.4868H60.7734L60.7694 76.2368C60.7654 93.3658 58.9724 106.261 53.5744 127.987C51.0854 138.004 48.7284 144.98 46.4804 148.987C44.6284 152.287 41.5574 157.829 39.6554 161.302C37.7544 164.776 36.0514 167.47 35.8724 167.291C35.6924 167.111 36.3734 161.072 37.3844 153.87C40.5364 131.427 41.7544 104.576 41.0774 72.4868C40.5274 46.4188 38.5774 14.9758 36.8494 4.32382L36.2554 0.661816L32.8964 0.986816L34.7144 22.4868L36.5324 43.9868L36.7164 86.4868L36.9004 128.987L35.0704 143.487C31.9234 168.417 29.6684 178.7 23.8564 194.61C11.9944 227.085 5.82336 252.159 1.24338 286.487C-0.617615 300.437 -0.336639 339.134 1.73438 354.008C4.93936 377.03 19.1653 421.264 36.3004 461.487C38.0573 465.612 40.3594 471.012 41.4154 473.487C42.4714 475.962 46.7454 486.312 50.9134 496.487C55.0804 506.662 60.7064 520.162 63.4144 526.487C86.8854 581.305 96.4884 624.138 95.1054 667.826C94.2694 694.213 92.3364 702.892 82.7334 723.369C80.3134 728.529 77.4024 735.504 76.2634 738.869L74.1934 744.987L74.6094 753.063L75.0244 761.139L78.1784 765.812L81.3334 770.486L78.9874 772.023C76.2554 773.813 70.9444 783.418 69.8844 788.487C67.5724 799.538 56.2384 814.038 43.5494 822.18C37.6264 825.98 27.0224 831.112 19.4014 833.867C12.0114 836.538 4.45038 841.364 2.30438 844.781L0.290375 847.987L0.700378 852.747C0.925385 855.365 1.86038 858.337 2.77737 859.35C8.09238 865.223 24.8164 869.777 45.4014 870.957C62.2434 871.922 81.2524 874.533 90.1784 877.107C94.7304 878.42 102.38 880.437 107.178 881.589L115.901 883.684L137.237 884.199C158.899 884.721 165.211 884.168 175.901 880.812C181.692 878.993 185.54 875.75 189.129 869.662L191.679 865.337L192.165 858.541C192.898 848.299 191.031 840.203 182.72 817.588L175.149 796.987L175 777.987L174.851 758.987L173.136 755.139L171.421 751.292L172.544 746.835C174.278 739.946 173.054 731.129 168.489 717.621C159.343 690.566 157.401 675.653 157.402 632.493C157.402 585.349 159.163 558.83 168.456 465.987C171.619 434.394 179.002 390.144 182.138 383.987C187.273 373.907 190.981 357.598 192.607 337.945L193.791 323.644L192.616 308.815C190.533 282.517 184.111 252.413 173 216.869C168.88 203.691 164.297 189.551 162.814 185.448C161.332 181.344 160.15 176.816 160.189 175.385C160.301 171.212 163.048 158.899 168.475 138.244C184.827 76.0088 192.154 44.2258 197.916 10.5348C198.805 5.33582 199.785 0.673816 200.094 0.174816L195.401 0.486816ZM243.171 0.486816H246.911C246.527 1.13082 249.743 21.8558 251.902 32.6578C253.47 40.4968 255.294 48.3128 263.767 83.4868C265.688 91.4618 270.236 107.887 273.873 119.987C281.332 144.801 287.401 167.736 287.401 171.11C287.401 175.645 289.293 174.367 290.895 168.75C291.799 165.58 295.648 156.809 299.448 149.259C307.904 132.457 312.718 118.894 315.851 103.045C318.793 88.1608 319.725 76.0778 318.612 67.2538C317.667 59.7658 318.453 56.8468 320.422 60.5268C322.034 63.5368 322.101 86.5818 320.527 95.9868C318.865 105.913 314.399 123.441 312.629 126.987L311.131 129.987L317.235 124.196C320.592 121.011 325.915 117.225 329.065 115.783C336.503 112.378 347.103 111.562 354.022 113.862C361.006 116.184 372.878 124.091 381.396 132.093L388.735 138.987L388.03 136.487C385.519 127.576 381.14 106.994 379.902 98.2898C377.579 81.9448 378.297 63.6818 381.303 62.6838L382.705 62.2188L382.021 72.1548C380.981 87.2518 384.482 112.012 390.789 134.164L393.117 142.341L398.669 150.664C401.723 155.242 405.874 161.912 407.895 165.487L411.568 171.987L411.014 166.987C410.709 164.237 409.671 156.362 408.708 149.487L406.958 136.987L406.929 94.9868L406.901 52.9868L408.835 32.4868C409.899 21.2118 410.799 9.40482 410.835 6.24782L410.901 0.509815L415.72 -1.7643e-05C414.715 0.140327 410.217 66.011 409.747 87.4868L409.146 114.987L410.833 132.987C411.76 142.887 413.607 157.803 414.936 166.135L417.354 181.283L421.95 194.135C424.477 201.203 427.612 209.912 428.915 213.487C435.278 230.945 439.707 249.466 444.936 280.487C447.112 293.391 448.009 332.395 446.489 347.987C444.163 371.844 440.856 386.199 430.71 416.487C416.277 459.571 404.45 488.749 385.917 526.987C364.712 570.737 356.566 591.588 349.386 620.487C344.108 641.729 342.374 653.98 341.74 674.487L341.2 691.987L343.267 701.287C344.404 706.402 346.919 714.097 348.856 718.388C357.751 738.087 360.16 748.048 358.509 758.298C357.951 761.76 356.792 766.002 355.932 767.725L354.369 770.859L357.413 774C359.27 775.916 361.933 781.012 364.241 787.068C368.728 798.839 373.447 806.546 379.839 812.536C388.556 820.707 401.043 828.713 410.713 832.331C418.781 835.349 427.605 839.94 429.613 842.164C438.794 852.333 431.939 863.902 414.379 867.876C407.494 869.434 392.634 871.019 375.401 872.034C363.858 872.714 347.837 874.991 343.801 876.525C342.383 877.064 335.975 878.878 329.561 880.554L317.901 883.603L304.488 884.457C297.036 884.932 285.68 884.929 278.935 884.451L266.796 883.591L259.763 880.984C252.406 878.257 246.516 873.544 243.729 868.154C242.883 866.518 241.965 861.761 241.689 857.583L241.186 849.987L243.263 841.487C244.404 836.812 247.191 828.487 249.455 822.987C251.719 817.487 254.904 808.984 256.533 804.09L259.495 795.194L259.767 777.09L260.038 758.987L261.646 754.819L263.255 750.651L261.784 745.819C259.76 739.169 260.616 734.044 266.973 714.778C273.135 696.103 274.929 687.274 276.368 668.537C277.642 651.955 277.678 564.505 276.422 539.987C275.914 530.087 275.023 512.762 274.441 501.487C271.849 451.277 264.884 394.108 259.944 382.487C256.847 375.204 254.966 368.284 252.47 354.987L250.404 343.987L250.403 328.309C250.399 297.437 254.75 277.788 275.493 214.987C281.961 195.407 285.654 182.703 285.52 180.502C285.032 172.518 280.286 153.616 271.456 124.487C261.865 92.8458 246.002 24.9298 243.837 6.23682L243.171 0.486816ZM328.62 396.098C329.01 395.709 329.433 395.279 329.837 394.861L335.151 388.512C339.8 382.958 341.749 381.031 342.089 381.964L342.991 384.194L343.711 386.619C344.203 387.922 346.615 393.106 349.071 398.141C353.817 407.87 359.699 414.967 367.555 420.444L372.21 423.689L372.203 423.705C373.556 424.333 375.044 424.955 376.513 425.503C377.95 425.93 380.371 426.539 382.742 427.058C382.742 427.058 385.127 427.608 386.127 427.875L389.144 428.487H390.889H394.402C396.334 428.487 399.456 428.045 401.341 427.504C403.226 426.964 404.994 426.747 405.27 427.022C405.545 427.298 404.191 429.203 402.26 431.255C377.275 457.81 343.918 523.548 329.58 574.487C315.566 624.278 309.827 666.933 310.57 715.789L310.901 737.592L308.901 737.012C302.173 735.063 286.326 735.58 280.328 737.945L278.754 738.565C276.88 739.2 275.073 740.007 272.967 741.088C270.978 742.108 269.308 743.303 267.934 744.731L266.345 746.987L265.321 745.487C264.757 744.66 264.48 740.845 264.703 736.987L265.108 729.987L270.316 714.987C280.12 686.752 280.919 677.993 280.848 599.487L280.796 540.987L279.111 514.487C275.666 460.324 272.891 430.31 269.37 409.159C268.287 402.653 267.401 396.905 267.401 396.385C267.401 395.865 269.587 397.732 272.259 400.534L277.118 405.627C278.182 406.143 279.276 406.61 280.401 407.028C280.401 406.836 282.656 407.536 285.412 408.583C288.313 409.685 292.944 410.487 296.412 410.487H298.401C300.819 410.182 303.293 409.647 305.776 408.889L309.222 407.633C310.446 407.187 311.621 406.771 312.626 406.427C314.331 405.555 316.02 404.585 317.68 403.52L320.791 401.535C322.501 400.444 324.963 398.774 326.26 397.824L328.62 396.098ZM313.663 132.648C320.02 124.407 328.243 118.384 335.901 116.359C337.551 115.923 341.981 115.751 345.745 115.976L352.589 116.386L358.816 119.301C368.908 124.023 374.537 132.436 379.785 150.64C385.555 170.653 388.401 191.409 388.401 213.479C388.401 222.994 388.802 229.617 389.401 229.987C390.99 230.969 390.624 196.29 388.906 183.187C386.305 163.341 381.238 146.397 373.81 132.703C371.935 129.246 370.401 126.182 370.401 125.894C370.401 124.585 383.119 136.731 388.822 143.487C404.69 162.284 419.821 193.954 430.15 229.987C436.463 252.013 438.137 259.733 441.099 280.487L442.883 292.987L442.882 321.987L442.881 350.987L440.607 365.179C436.614 390.099 429.89 405.352 418.256 415.88C414.108 419.634 409.904 422.279 405.27 423.981C403.996 424.449 402.689 424.845 401.341 425.174L394.754 426.225L388.607 426.744L381.304 424.526C377.287 423.306 372.179 421.038 369.951 419.485C358.43 411.456 347.623 395.447 344.338 381.542L343.524 378.096L348.962 369.211C354.832 359.621 354.894 359.487 353.401 359.487C352.851 359.487 352.401 359.971 352.401 360.562C352.401 362.559 347.802 369.451 342.075 376.804C338.005 382.03 333.365 387.488 329.401 391.586C328.997 392.004 328.599 392.408 328.21 392.797C326.863 394.14 325.617 395.293 324.525 396.187C322.405 397.923 320.183 399.478 317.901 400.845C316.423 401.731 314.919 402.537 313.401 403.262C311.326 404.254 309.224 405.093 307.125 405.775C304.365 406.671 301.609 407.295 298.924 407.633C292.144 408.487 285.812 407.522 280.981 404.536C279.837 403.828 278.723 403.037 277.642 402.161C268.175 394.498 261.142 380.42 256.737 360.283L254.922 351.987L254.911 327.487L254.901 302.987L256.707 293.487C260.238 274.92 266.627 252.512 278.519 216.988C297.063 161.59 303.788 145.451 313.663 132.648ZM388.129 239.237C387.626 245.453 387.809 247.474 388.778 246.404C389.705 245.378 390.483 232.487 389.618 232.487C389.099 232.487 388.429 235.525 388.129 239.237ZM387.151 251.362C386.738 253.218 386.401 255.446 386.401 256.312V257.887L387.469 256.819C388.057 256.231 388.394 254.004 388.219 251.869L387.901 247.987L387.151 251.362ZM386.016 260.619C384.722 266.966 384.527 269.487 385.332 269.487C386.327 269.487 387.909 259.662 387.052 258.805C386.748 258.5 386.281 259.317 386.016 260.619ZM383.401 275.654C383.401 279.295 383.838 279.163 384.779 275.237C385.171 273.604 385.025 272.487 384.42 272.487C383.86 272.487 383.401 273.912 383.401 275.654ZM381.528 284.338C380.836 286.731 380.512 288.931 380.807 289.227C381.661 290.08 383.529 284.333 383.139 282.053L382.786 279.987L381.528 284.338ZM380.013 291.594C379.773 292.36 379.085 294.522 378.485 296.399C377.884 298.276 377.608 300.028 377.873 300.292C378.137 300.557 378.55 300.146 378.789 299.38C379.029 298.614 379.717 296.452 380.317 294.575C380.918 292.698 381.194 290.946 380.929 290.682C380.665 290.417 380.252 290.828 380.013 291.594ZM376.13 304.091C375.729 304.492 375.415 305.758 375.431 306.904L375.462 308.987L376.502 307.199C377.621 305.277 377.335 302.887 376.13 304.091ZM373.057 313.693C372.517 315.76 372.935 317.337 373.777 316.404C374.795 315.275 375.418 311.487 374.585 311.487C374.062 311.487 373.375 312.48 373.057 313.693ZM370.521 320.804C369.795 322.903 369.435 324.854 369.72 325.14C370.637 326.056 372.538 321.459 372.184 319.185L371.841 316.987L370.521 320.804ZM365.823 333.113C364.358 336.344 362.962 339.324 362.721 339.737C362.48 340.15 362.666 340.487 363.134 340.487C364.206 340.487 369.761 328.513 369.028 327.781C368.73 327.483 367.288 329.883 365.823 333.113ZM359.901 346.487C359.526 347.67 359.443 348.863 359.718 349.138C359.993 349.413 360.526 348.67 360.901 347.487C361.276 346.304 361.359 345.111 361.084 344.836C360.809 344.561 360.276 345.304 359.901 346.487ZM356.576 353.003C355.888 354.511 355.532 355.951 355.783 356.202C356.461 356.881 358.587 352.546 358.178 351.318C357.984 350.736 357.263 351.494 356.576 353.003ZM170.125 399.963L165.349 404.359C164.631 404.7 163.9 405.014 163.156 405.301L160.529 405.973C159.083 406.342 154.751 406.864 150.901 407.132H144.901L138.401 405.656C135.376 404.576 132.125 403.377 131.176 402.992L129.451 402.292L128.401 401.775L122.86 397.631C119.812 395.352 117.193 393.487 117.039 393.487L115.401 392.213L110.151 385.98C107.264 382.552 104.32 378.902 103.611 377.867L102.321 375.987C102.321 376.082 102.263 376.324 102.156 376.683L102.14 376.738C101.553 378.689 99.6485 383.838 97.9189 387.901C96.2204 391.757 94.2766 395.34 92.0595 398.696C91.2606 399.905 90.4261 401.085 89.5548 402.237C88.655 403.427 87.8871 404.418 86.9072 405.552C86.6193 405.872 86.3298 406.194 86.0414 406.514L85.3493 407.283L84.5591 408.16C83.8213 408.978 82.976 409.792 82.1885 410.509C80.2226 412.061 78.4941 413.319 76.5899 414.517C74.9634 415.744 73.3473 416.804 71.7135 417.711C70.4614 418.406 69.1989 419.01 67.9133 419.531C67.4131 419.733 66.9093 419.923 66.4014 420.1C60.8544 422.364 50.0533 422.162 41.9474 419.968L38.9934 419.168L42.2804 423.577C71.2214 462.404 92.7554 505.343 105.835 550.307C112.176 572.108 113.586 577.986 116.335 594.102C123.966 638.824 126.878 699.363 123.112 734.987C122.969 736.341 123.386 736.85 124.401 736.564C128.984 735.271 141.544 735.462 147.798 736.919C151.591 737.803 154.912 738.268 155.09 738.131C157.834 739.011 159.951 740.211 162.57 742.152C163.932 743.249 165.703 744.804 166.604 745.701C169.05 748.131 169.731 746.455 169.705 738.069L169.683 730.987L164.976 717.987C156.883 695.635 154.496 680.153 153.721 644.987C153.068 615.334 154.66 580.367 159.406 520.091C162.273 483.695 171.682 409.957 175.02 397.737C175.358 396.499 175.469 395.505 175.268 395.527C175.066 395.549 172.752 397.545 170.125 399.963ZM58.5634 482.987C51.9503 466.774 38.6454 438.043 29.0404 419.237C26.5834 414.425 24.7704 410.487 25.0124 410.487C25.2554 410.487 27.6703 412.142 30.3794 414.164C40.2634 421.543 60.0013 451.569 77.4124 485.712C100.226 530.448 113.384 577.75 119.077 635.487L120.901 653.987V695.75V737.513L118.237 739.75C116.771 740.98 114.774 743.562 113.798 745.487L112.023 748.987L111.275 762.817L110.527 776.646L108.941 779.067C105.618 784.138 99.0564 780.329 95.8604 771.473L94.2414 766.987L94.8664 760.569C95.4564 754.513 98.1484 745.46 105.371 725.242C109.994 712.302 111.402 703.278 111.393 686.649C111.382 668.212 110.237 658.208 105.827 638.024C101.38 617.675 98.6374 607.5 91.3984 584.487C88.1974 574.312 84.1693 560.863 82.4474 554.599C76.5233 533.056 65.4843 499.957 58.5634 482.987ZM92.2754 112.394C87.4306 113.944 78.5033 119.607 76.0182 122.272C75.9059 122.342 75.6559 122.547 75.1934 122.961C75.2593 123.136 73.7041 126.848 72.1527 130.551C71.0353 133.218 69.9198 135.881 69.4134 137.214C62.4503 155.537 57.5154 183.094 56.6984 208.205C56.0453 228.278 54.4014 232.198 54.4024 213.678C54.4044 185.56 59.6414 156.406 68.1384 137.216C69.8004 133.462 74.7999 123.127 75.174 122.954C73.3011 122.359 60.7844 135.288 53.9764 144.859C19.0424 193.972 -2.30164 281.712 4.92737 346.487C8.24637 376.226 12.4974 389.872 22.9954 404.485C29.3034 413.265 41.6644 419.525 52.8664 419.611C57.802 419.649 62.0745 419.073 66.0747 417.718C69.4665 416.569 72.6626 414.859 75.9014 412.487C77.5466 411.282 79.2029 409.905 80.9014 408.345C81.3275 407.954 81.7564 407.551 82.1884 407.136C84.3011 405.107 86.2433 402.984 88.0267 400.75C88.8743 399.688 89.686 398.601 90.4631 397.487C93.4564 393.195 95.9373 388.5 97.9794 383.289C100.887 375.867 101 373.151 98.5434 369.641C96.2294 366.336 93.8174 361.637 95.1274 362.987C95.6604 363.537 98.2834 367.137 100.955 370.987C101.912 372.365 102.867 373.698 103.822 374.987C113.374 387.876 122.89 396.316 133.373 401.242C144.866 406.642 154.804 406.874 163.156 401.952C163.9 401.514 164.631 401.035 165.349 400.515C168.977 397.89 172.284 394.223 175.268 389.517C177.233 386.418 179.058 382.868 180.741 378.868C190.635 355.361 192.2 316.097 184.823 276.487C178.247 241.182 156.902 173.355 143.44 144.987C129.863 116.378 113.134 105.722 92.2754 112.394ZM55.3204 232.987C54.8204 231.337 54.6194 229.425 54.8744 228.737C55.7863 226.279 56.4004 227.557 56.3154 231.737L56.2294 235.987L55.3204 232.987ZM56.4014 243.487C55.8684 242.662 55.4254 241.199 55.4164 240.237C55.4084 239.275 55.8514 238.487 56.4014 238.487C56.9514 238.487 57.3943 239.949 57.3864 241.737L57.3704 244.987L56.4014 243.487ZM58.0144 254.487C57.8024 254.487 57.4304 253.137 57.1884 251.487C56.9464 249.837 57.1194 248.487 57.5744 248.487C58.0294 248.487 58.4014 249.837 58.4014 251.487C58.4014 253.137 58.2274 254.487 58.0144 254.487ZM59.4014 262.487C58.8514 262.487 58.4334 261.249 58.4714 259.737L58.5424 256.987L59.4014 258.987C60.5754 261.718 60.5754 262.487 59.4014 262.487ZM60.4014 270.987C59.9284 269.887 59.5104 268.173 59.4714 267.178C59.4334 266.183 59.8514 265.647 60.4014 265.987C60.9514 266.327 61.3694 268.041 61.3314 269.796L61.2604 272.987L60.4014 270.987ZM64.4264 286.972C63.7924 287.363 61.4014 278.883 61.4014 276.244C61.4014 275.644 61.7384 275.491 62.1504 275.903C63.2863 277.039 65.2263 286.477 64.4264 286.972ZM66.6664 295.987C66.1124 295.437 65.3683 293.749 65.0114 292.237C64.6284 290.612 64.7804 289.487 65.3824 289.487C65.9424 289.487 66.4074 290.05 66.4154 290.737C66.4224 291.425 66.7084 293.112 67.0514 294.487C67.4684 296.163 67.3414 296.657 66.6664 295.987ZM68.4014 303.487C67.8684 302.662 67.4324 301.087 67.4324 299.987V297.987L68.4014 299.487C68.9344 300.312 69.3704 301.887 69.3704 302.987V304.987L68.4014 303.487ZM73.5384 317.487C72.8034 317.487 69.3874 308.866 69.3964 307.037C69.3994 306.437 69.7204 306.437 70.2684 307.037C71.5694 308.462 74.3934 317.487 73.5384 317.487ZM76.6924 326.167C76.1154 325.81 75.4054 324.611 75.1154 323.503C74.8253 322.394 74.9964 321.487 75.4954 321.487C75.9933 321.487 76.4014 321.9 76.4014 322.405C76.4014 322.91 76.7024 324.109 77.0714 325.069C77.4924 326.167 77.3513 326.574 76.6924 326.167ZM80.7654 334.457C80.0924 335.129 78.4284 332.273 78.4524 330.487C78.4633 329.617 79.0534 330.037 79.8554 331.485C80.6154 332.86 81.0254 334.197 80.7654 334.457ZM83.5224 342.062C83.0384 341.763 82.3854 340.499 82.0714 339.253L81.5004 336.987L82.9514 338.928C84.5573 341.078 84.8904 342.907 83.5224 342.062ZM86.8694 349.046C86.0623 347.978 85.4154 346.628 85.4334 346.046C85.4504 345.463 86.1254 345.861 86.9334 346.928C87.7404 347.996 88.3874 349.346 88.3694 349.928C88.3524 350.511 87.6774 350.113 86.8694 349.046ZM91.0654 356.615C90.1504 355.86 89.4014 354.847 89.4014 354.365C89.4014 352.837 90.2904 353.41 91.5304 355.737L92.7284 357.987L91.0654 356.615ZM371.964 480.356C388.703 451.4 405.333 428.672 415.545 420.794C420.843 416.708 423.625 415.307 421.6 417.747C420.167 419.474 401.532 456.97 395.797 469.666C383.951 495.89 366.399 540.715 357.032 568.666C354.023 577.643 349.554 590.162 347.101 596.487C341.188 611.733 333.094 636.573 329.983 649.022C325.209 668.123 324.016 677.128 324.088 693.487C324.165 711.05 325.422 718.291 330.963 733.085C332.934 738.346 335.199 744.751 335.997 747.319C338.058 753.947 338.867 767.149 337.516 772.106C335.246 780.44 329.878 783.881 325.938 779.528L324.164 777.568L323.701 766.278C323.159 753.091 321.492 746.982 316.952 741.548L313.666 737.614L312.981 725.801C312.291 713.894 313.629 679.801 315.368 664.987C315.884 660.587 316.797 652.487 317.396 646.987C319.704 625.81 327.042 590.978 333.513 570.487C344.334 536.219 357.47 505.429 371.964 480.356ZM419.642 426.325C400.396 462.902 380.88 507.864 364.228 553.987C356.027 576.705 355.907 578.202 363.427 563.987C365.755 559.587 368.209 555.087 368.88 553.987C373.12 547.043 397.605 493.764 405.972 473.275C415.076 450.982 429.03 411.783 428.168 410.921C428.016 410.769 424.18 417.701 419.642 426.325ZM116.015 748.494C117.799 744.035 121.18 741.17 126.438 739.661C131.473 738.216 137.222 738.295 145.744 739.926C149.67 740.677 152.593 741.434 155.09 742.475C158.43 743.868 161.006 745.77 164.195 748.846C167.166 751.711 168.936 754.528 169.938 757.987L171.388 762.987L171.168 779.487L170.948 795.987L175.591 808.487C178.145 815.362 180.914 822.58 181.744 824.527C182.574 826.475 184.454 832.325 185.923 837.527L188.594 846.987L188.221 856.512L187.848 866.036L185.819 869.511C183.212 873.975 177.798 876.99 168.401 879.213L160.901 880.987L139.901 880.889L118.901 880.792L108.901 878.069C82.6604 870.925 72.4184 869.171 47.1074 867.482C20.5714 865.712 9.09238 862.659 5.92236 856.527C4.01437 852.838 3.99939 850.165 5.86438 846.558C7.71338 842.984 11.4864 840.766 24.5424 835.583C40.8964 829.09 54.0284 820.317 62.4124 810.282C68.6774 802.785 69.5264 801.163 72.7974 790.428C75.3024 782.207 78.8163 775.953 81.8994 774.228C84.2423 772.917 93.4014 774.495 93.4014 776.21C93.4014 777.015 94.8164 780.04 96.5454 782.931C99.7024 788.208 102.587 790.318 109.585 792.467C111.615 793.091 114.87 795.37 116.835 797.546C120.881 802.024 121.52 801.444 118.113 796.385L115.825 792.987L109.627 790.487C103.66 788.08 98.4034 784.152 99.5774 782.977C99.8884 782.666 101.339 782.957 102.801 783.623L105.459 784.834L108.18 782.84C109.677 781.742 111.688 779.302 112.649 777.416L114.398 773.987L114.399 763.257L114.401 752.527L116.015 748.494ZM278.754 742.394C276.88 743.215 275.073 744.256 272.967 745.651C270.978 746.969 269.308 748.511 267.934 750.354C263.638 756.121 262.243 764.841 263.037 778.896L263.664 789.987L262.106 797.487C261.25 801.612 258.076 810.837 255.053 817.987C247.645 835.512 246.039 841.874 245.963 853.987L245.901 863.987L247.943 867.987L249.985 871.987L256.515 875.289C273.197 883.726 304.323 883.681 336.054 875.173C353.547 870.482 361.946 869.257 388.901 867.461C415.184 865.71 422.85 863.698 427.759 857.261C430.904 853.139 431.089 850.263 428.451 846.557C426.557 843.898 417.461 838.468 412.401 836.977C402.505 834.061 390.473 826.748 380.134 817.367C370.488 808.615 365.17 800.906 361.927 790.969C358.864 781.586 355.804 775.981 352.598 773.88L350.172 772.291L345.941 773.476L341.709 774.661L339.941 778.669C337.241 784.789 332.604 789.423 326.464 792.137C323.404 793.489 319.605 795.809 318.021 797.291L315.142 799.987L316.296 797.756C317.545 795.343 324.093 790.487 326.098 790.487C327.661 790.487 334.401 784.621 334.401 783.261C334.401 782.649 333.828 782.718 332.966 783.433C332.177 784.088 330.054 784.48 328.248 784.305L324.965 783.987L322.683 780.589L320.401 777.191L320.395 766.589C320.392 760.758 319.918 754.287 319.341 752.21C317.741 746.449 313.047 741.756 307.125 739.998C301.573 738.349 298.941 738.288 289.948 739.598C285.002 740.319 281.789 741.066 278.754 742.394ZM328.8 666.987C332.726 646.108 343.769 610.362 351.433 593.72C353.781 588.624 355.864 584.617 356.064 584.817C356.264 585.017 355.733 586.842 354.884 588.873C351.429 597.142 344.093 625.862 341.346 641.876C338.713 657.221 337.06 679.94 337.882 689.487C338.854 700.786 342.204 712.423 348.387 725.987C356.847 744.545 357.566 761.805 350.139 768.054C348.213 769.674 346.177 770.483 344.511 770.29L341.901 769.987L341.299 761.487L340.697 752.987L335.941 739.487C333.324 732.062 330.278 722.612 329.172 718.487L327.159 710.987L327.133 693.487L327.107 675.987L328.8 666.987ZM89.4404 589.744C89.4194 590.161 90.7154 596.461 92.3214 603.744C103.514 654.516 101.104 694.175 84.8594 726.547C83.0494 730.155 80.8024 735.738 79.8674 738.955L78.1674 744.804L78.6084 752.896C78.8744 757.768 79.7234 762.273 80.7424 764.22C82.5754 767.72 86.9324 770.488 90.6014 770.485L92.9014 770.482L92.9834 760.735L93.0664 750.987L96.8064 740.987C107.468 712.478 108.635 707.161 108.653 686.987C108.668 669.915 107.457 658.982 103.337 638.987C99.1484 618.663 89.6804 585.111 89.4404 589.744ZM67.6714 527.987C40.7224 463.095 29.1564 434.312 23.5714 418.237C20.7524 410.124 18.6614 403.487 18.9244 403.487C19.9164 403.487 45.2374 456.433 52.6404 473.987C62.9694 498.479 81.7484 554.225 81.3304 559.154C81.2324 560.316 78.6653 554.458 67.6714 527.987Z" />

  <g class="detail-region" data-region="gastrocnemius" tabindex="0" role="button">
    <path id="gastrocnemiusLeft" transform="translate(4,110) scale(1)" d="M72.4944 11.8006C74.9796 9.13597 83.9069 3.47246 88.7516 1.92231C109.611 -4.74969 126.34 5.90631 139.917 34.5153C153.379 62.8833 174.724 130.71 181.3 166.015C188.677 205.625 187.112 244.889 177.218 268.396C175.534 272.397 173.709 275.946 171.745 279.045C168.761 283.752 165.454 287.418 161.826 290.043C161.107 290.563 160.376 291.042 159.633 291.48C151.28 296.402 141.343 296.17 129.85 290.77C119.367 285.845 109.851 277.405 100.298 264.515C99.3436 263.227 98.3883 261.894 97.4316 260.515C94.7596 256.665 92.1367 253.065 91.6037 252.515C90.2937 251.165 92.7057 255.864 95.0197 259.169C97.4767 262.679 97.3637 265.395 94.4557 272.817C92.4136 278.028 89.9327 282.724 86.9394 287.015C86.1623 288.13 85.3506 289.217 84.503 290.278C82.7196 292.513 80.7774 294.635 78.6646 296.664C78.2327 297.079 77.8038 297.482 77.3777 297.874C75.6792 299.434 74.0229 300.81 72.3777 302.015C69.1389 304.387 65.9428 306.097 62.551 307.246C58.5508 308.602 54.2783 309.177 49.3427 309.139C38.1407 309.053 25.7796 302.793 19.4716 294.013C8.97365 279.4 4.72266 265.754 1.40366 236.015C-5.82534 171.24 15.5187 83.5003 50.4527 34.3873C57.2607 24.816 69.7774 11.8875 71.6502 12.4825C71.2762 12.6553 66.2767 22.99 64.6147 26.7443C56.1177 45.9343 50.8807 75.0883 50.8787 103.206C50.8777 121.726 52.5217 117.806 53.1747 97.7333C53.9917 72.6223 58.9266 45.0653 65.8896 26.7423C66.3961 25.4093 67.5116 22.7467 68.629 20.0795C70.1804 16.3763 71.7356 12.6642 71.6696 12.4893C72.1321 12.0758 72.3822 11.87 72.4944 11.8006ZM51.3506 118.265C51.0956 118.953 51.2967 120.865 51.7967 122.515L52.7057 125.515L52.7917 121.265C52.8767 117.085 52.2626 115.807 51.3506 118.265ZM51.8927 129.765C51.9017 130.727 52.3447 132.19 52.8777 133.015L53.8466 134.515L53.8626 131.265C53.8706 129.477 53.4277 128.015 52.8777 128.015C52.3277 128.015 51.8847 128.803 51.8927 129.765ZM53.6646 141.015C53.9066 142.665 54.2787 144.015 54.4907 144.015C54.7037 144.015 54.8777 142.665 54.8777 141.015C54.8777 139.365 54.5057 138.015 54.0507 138.015C53.5957 138.015 53.4226 139.365 53.6646 141.015ZM54.9477 149.265C54.9097 150.777 55.3277 152.015 55.8777 152.015C57.0517 152.015 57.0517 151.246 55.8777 148.515L55.0186 146.515L54.9477 149.265ZM55.9477 156.706C55.9867 157.701 56.4047 159.415 56.8777 160.515L57.7367 162.515L57.8076 159.324C57.8456 157.569 57.4277 155.855 56.8777 155.515C56.3277 155.175 55.9097 155.711 55.9477 156.706ZM57.8777 165.772C57.8777 168.411 60.2687 176.891 60.9026 176.5C61.7026 176.005 59.7626 166.567 58.6266 165.431C58.2146 165.019 57.8777 165.172 57.8777 165.772ZM61.4876 181.765C61.8446 183.277 62.5887 184.965 63.1427 185.515C63.8177 186.185 63.9446 185.691 63.5276 184.015C63.1847 182.64 62.8987 180.953 62.8917 180.265C62.8837 179.578 62.4186 179.015 61.8586 179.015C61.2566 179.015 61.1046 180.14 61.4876 181.765ZM63.9087 189.515C63.9087 190.615 64.3447 192.19 64.8777 193.015L65.8466 194.515V192.515C65.8466 191.415 65.4107 189.84 64.8777 189.015L63.9087 187.515V189.515ZM65.8727 196.565C65.8636 198.394 69.2796 207.015 70.0146 207.015C70.8697 207.015 68.0457 197.99 66.7447 196.565C66.1967 195.965 65.8756 195.965 65.8727 196.565ZM71.5916 213.031C71.8816 214.139 72.5916 215.338 73.1686 215.695C73.8276 216.102 73.9687 215.695 73.5477 214.597C73.1787 213.637 72.8777 212.438 72.8777 211.933C72.8777 211.428 72.4697 211.015 71.9716 211.015C71.4726 211.015 71.3016 211.922 71.5916 213.031ZM74.9286 220.015C74.9046 221.801 76.5687 224.657 77.2417 223.985C77.5017 223.725 77.0917 222.388 76.3317 221.013C75.5297 219.565 74.9397 219.145 74.9286 220.015ZM78.5477 228.781C78.8617 230.027 79.5147 231.291 79.9987 231.59C81.3667 232.435 81.0336 230.606 79.4276 228.456L77.9767 226.515L78.5477 228.781ZM81.9097 235.574C81.8917 236.156 82.5386 237.506 83.3456 238.574C84.1536 239.641 84.8286 240.039 84.8456 239.456C84.8636 238.874 84.2167 237.524 83.4097 236.456C82.6017 235.389 81.9267 234.991 81.9097 235.574ZM85.8777 243.893C85.8777 244.375 86.6267 245.388 87.5417 246.143L89.2047 247.515L88.0067 245.265C86.7667 242.938 85.8777 242.365 85.8777 243.893Z" />
    <path id="gastrocnemiusRight" transform="translate(255,116) scale(1)" d="M58.762 16.7709C65.119 8.5299 73.342 2.5069 81 0.481901C82.65 0.0459007 87.08 -0.126095 90.844 0.0989051L97.688 0.508909L103.915 3.4239C114.007 8.1459 119.636 16.5589 124.884 34.7629C130.654 54.7759 133.5 75.5319 133.5 97.6019C133.5 107.117 133.901 113.74 134.5 114.11C136.089 115.092 135.723 80.4129 134.005 67.3099C131.404 47.4639 126.337 30.5199 118.909 16.8259C117.034 13.3689 115.5 10.3049 115.5 10.0169C115.5 8.7079 128.218 20.8539 133.921 27.6099C149.789 46.4069 164.92 78.0769 175.249 114.11C181.562 136.136 183.236 143.856 186.198 164.61L187.982 177.11L187.981 206.11L187.98 235.11L185.706 249.302C181.713 274.222 174.989 289.475 163.355 300.003C159.207 303.757 155.003 306.402 150.369 308.104C149.094 308.572 147.787 308.968 146.44 309.297L139.853 310.348L133.706 310.867L126.403 308.649C122.386 307.429 117.278 305.161 115.05 303.608C103.529 295.579 92.722 279.57 89.437 265.665L88.623 262.219L94.061 253.334C99.931 243.744 99.993 243.61 98.5 243.61C97.95 243.61 97.5 244.094 97.5 244.685C97.5 246.682 92.9011 253.575 87.174 260.927C83.1039 266.153 78.464 271.611 74.5 275.709C74.0952 276.127 73.6976 276.531 73.3082 276.92C71.9617 278.263 70.7154 279.416 69.624 280.31C67.5035 282.046 65.2817 283.601 63 284.968C61.5214 285.854 60.0177 286.66 58.5 287.385C56.4243 288.377 54.3226 289.216 52.2237 289.898C49.4635 290.794 46.708 291.418 44.0227 291.756C37.243 292.61 30.911 291.645 26.08 288.659C24.9353 287.951 23.822 287.16 22.7405 286.284C13.2738 278.621 6.24078 264.543 1.836 244.406L0.0209961 236.11L0.0100098 211.61L0 187.11L1.80603 177.61C5.33703 159.043 11.726 136.635 23.618 101.111C42.162 45.7129 48.887 29.5739 58.762 16.7709ZM133.228 123.36C132.725 129.576 132.908 131.597 133.877 130.527C134.804 129.501 135.582 116.61 134.717 116.61C134.198 116.61 133.528 119.648 133.228 123.36ZM132.25 135.485C131.837 137.341 131.5 139.569 131.5 140.435V142.01L132.568 140.942C133.156 140.354 133.493 138.127 133.318 135.992L133 132.11L132.25 135.485ZM131.115 144.742C129.821 151.089 129.626 153.61 130.431 153.61C131.426 153.61 133.008 143.785 132.151 142.928C131.847 142.623 131.38 143.44 131.115 144.742ZM128.5 159.777C128.5 163.418 128.937 163.286 129.878 159.36C130.27 157.727 130.124 156.61 129.519 156.61C128.959 156.61 128.5 158.035 128.5 159.777ZM126.627 168.461C125.935 170.854 125.611 173.054 125.906 173.35C126.76 174.203 128.628 168.456 128.238 166.176L127.885 164.11L126.627 168.461ZM125.112 175.717C124.872 176.483 124.184 178.645 123.584 180.522C122.983 182.399 122.707 184.151 122.972 184.415C123.236 184.68 123.649 184.269 123.888 183.503C124.128 182.737 124.816 180.575 125.416 178.698C126.017 176.821 126.293 175.069 126.028 174.805C125.764 174.54 125.351 174.951 125.112 175.717ZM121.229 188.214C120.828 188.615 120.514 189.881 120.53 191.027L120.561 193.11L121.601 191.322C122.72 189.4 122.434 187.01 121.229 188.214ZM118.156 197.816C117.616 199.883 118.034 201.46 118.876 200.527C119.894 199.398 120.517 195.61 119.684 195.61C119.161 195.61 118.474 196.603 118.156 197.816ZM115.62 204.927C114.894 207.026 114.534 208.977 114.819 209.263C115.736 210.179 117.637 205.582 117.283 203.308L116.94 201.11L115.62 204.927ZM110.922 217.236C109.457 220.467 108.061 223.447 107.82 223.86C107.579 224.273 107.765 224.61 108.233 224.61C109.305 224.61 114.86 212.636 114.127 211.904C113.829 211.606 112.387 214.006 110.922 217.236ZM105 230.61C104.625 231.793 104.542 232.986 104.817 233.261C105.092 233.536 105.625 232.793 106 231.61C106.375 230.427 106.458 229.234 106.183 228.959C105.908 228.684 105.375 229.427 105 230.61ZM101.675 237.126C100.987 238.634 100.631 240.074 100.882 240.325C101.56 241.004 103.686 236.669 103.277 235.441C103.083 234.859 102.362 235.617 101.675 237.126Z" />
  </g>

  <g class="detail-region" data-region="soleus" tabindex="0" role="button">
    <path id="soleusLeft" transform="translate(25,411) scale(1)" d="M33.5727 72.5C26.9597 56.287 13.6547 27.556 4.04969 8.75C1.59269 3.938 -0.220329 0 0.0216707 0C0.264671 0 2.67968 1.655 5.38868 3.677C15.2727 11.056 35.0107 41.082 52.4217 75.225C75.2357 119.961 88.3937 167.263 94.0867 225L95.9107 243.5V285.263V327.026L93.2467 329.263C91.7807 330.493 89.7837 333.075 88.8077 335L87.0327 338.5L86.2847 352.33L85.5367 366.159L83.9507 368.58C80.6277 373.651 74.0657 369.842 70.8697 360.986L69.2507 356.5L69.8757 350.082C70.4657 344.026 73.1577 334.973 80.3807 314.755C85.0037 301.815 86.4117 292.791 86.4027 276.162C86.3917 257.725 85.2467 247.721 80.8367 227.537C76.3897 207.188 73.6467 197.013 66.4077 174C63.2067 163.825 59.1787 150.376 57.4567 144.112C51.5327 122.569 40.4937 89.47 33.5727 72.5Z" />
    <path id="soleusRight" transform="translate(312.7,417) scale(1)" d="M59.168 63.8115C75.907 34.8555 92.537 12.1275 102.749 4.24949C108.047 0.163493 110.829 -1.2375 108.804 1.2025C107.371 2.9295 88.736 40.4255 83.001 53.1215C71.155 79.3455 53.603 124.171 44.236 152.122C41.227 161.099 36.758 173.617 34.305 179.942C28.392 195.188 20.298 220.028 17.187 232.477C12.413 251.578 11.22 260.583 11.292 276.942C11.369 294.505 12.626 301.746 18.167 316.54C20.138 321.801 22.403 328.206 23.201 330.774C25.262 337.402 26.071 350.604 24.72 355.561C22.45 363.895 17.082 367.336 13.142 362.983L11.368 361.023L10.905 349.733C10.363 336.546 8.69605 330.437 4.15605 325.003L0.870037 321.069L0.185039 309.257C-0.504961 297.35 0.833002 263.256 2.572 248.442C3.088 244.042 4.00102 235.942 4.60002 230.442C6.90802 209.265 14.246 174.433 20.717 153.942C31.538 119.674 44.674 88.8845 59.168 63.8115Z" />
  </g>
</svg>
