<svg viewBox="0 0 900 1406" xmlns="http://www.w3.org/2000/svg">
  <path id="outline" class="detail-outline" d="M794.016 215C785.323 184.773 768.612 113.483 762.184 79.207C760.658 71.07 759.254 64.88 759.065 65.449C758.875 66.019 759.688 73.351 760.871 81.743C771.457 156.797 786.842 218.754 810.758 282.64C815.441 295.15 833.596 337.931 837.223 345C838.596 347.678 849.808 371.628 859.584 392.769C861.56 397.042 863.343 400.372 863.546 400.169C863.749 399.966 857.999 386.12 850.769 369.4C822.626 304.315 809.187 267.753 794.016 215Z M575.131 508.053C584.343 503.254 591.881 499.139 591.881 498.909C591.881 498.324 549.018 519.828 527.381 531.268C498.071 546.766 478.553 558.161 455.381 573.305C438.885 584.086 416.209 600.157 415.222 601.768C414.764 602.515 415.322 602.41 416.642 601.5C436.541 587.779 444.545 582.435 455.881 575.3C473.153 564.429 492.899 552.696 509.381 543.509C541.542 525.585 543.346 524.612 575.131 508.053Z M363.94 760.322C362.713 739.114 361.118 724.685 358.314 709.429C357.401 704.46 356.457 700.591 356.217 700.831C355.976 701.072 356.455 705.258 357.28 710.134C360.824 731.06 361.381 740.122 361.298 775.5L361.215 811L359.037 831C348.777 925.206 325.26 1022.21 294.442 1097.42C290.291 1107.56 287.065 1116.02 287.275 1116.23C287.779 1116.73 301.739 1083.72 308.046 1067.11C324.446 1023.93 337.717 977.547 347.87 927.932C357.3 881.851 361.715 847.756 363.941 803.822L365.115 780.644L363.94 760.322Z M681.354 767.714C683.646 764.991 687.91 763.24 694.881 762.16C696.292 761.941 695.516 761.713 693.099 761.636C681.49 761.267 673.49 771.197 679.899 778.019C686.611 785.164 703.839 782.796 706.793 774.324C707.391 772.607 707.881 770.853 707.881 770.428C707.881 769.157 702.789 763.5 701.646 763.5C701.065 763.5 701.78 764.604 703.235 765.952C711.415 773.533 699.384 783.141 686.3 779.477C678.918 777.411 677.012 772.875 681.354 767.714Z M223.219 835.75C223.496 836.438 223.723 835.875 223.723 834.5C223.723 833.125 223.496 832.563 223.219 833.25C222.941 833.938 222.941 835.063 223.219 835.75Z M222.192 842.25C222.443 843.212 222.649 842.425 222.649 840.5C222.649 838.575 222.443 837.788 222.192 838.75C221.94 839.712 221.94 841.288 222.192 842.25Z M590.881 942.881C558.861 914.234 529.064 879.291 511.077 849.295C505.696 840.322 504.349 839.56 509.002 848.121C525.524 878.525 550.814 909.98 576.532 932.114C591.102 944.654 602.016 952.843 590.881 942.881Z M217.29 938C216.466 914.568 218.133 879.768 221.522 849.657C222.476 841.179 221.222 843.809 219.927 853C215.477 884.599 213.599 936.257 215.797 966.558C218.976 1010.36 223.869 1041.37 234.01 1082C240.469 1107.88 250.447 1141.27 251.428 1140.29C251.614 1140.1 249.994 1134.11 247.826 1126.97C230.469 1069.83 219.551 1002.26 217.29 938Z M85.8709 1005C95.4649 961.211 104.744 929.079 116.411 899.25C116.787 898.288 116.854 897.5 116.558 897.5C115.556 897.5 103.67 928.913 96.7999 949.718C89.4219 972.062 80.9299 1002.15 73.0139 1034C70.2799 1045 65.5529 1063.68 62.5109 1075.5C49.3009 1126.84 45.0359 1156.35 46.1819 1188.5C47.1509 1215.69 50.7729 1237.44 61.9189 1283C71.4399 1321.92 90.6189 1391.09 91.6139 1390.1C91.8329 1389.88 91.5119 1387.84 90.9009 1385.57C89.7639 1381.35 83.4219 1353.72 75.3959 1318C72.9229 1307 68.8629 1289 66.3729 1278C56.2699 1233.37 53.8619 1217.22 53.1659 1189.37L52.6249 1167.75L54.3499 1152.87C56.6799 1132.79 61.2219 1110.15 71.8809 1065.5C76.8039 1044.88 83.0999 1017.65 85.8709 1005Z M523.73 958.5C514.532 946.318 505.386 932.331 501.008 923.748C499.816 921.412 498.618 919.5 498.346 919.5C496.734 919.5 512.495 946.73 521.158 958.912C532.451 974.792 552.016 996.449 565.346 1007.82L571.381 1012.97L558.357 998.988C540.5 979.809 534.692 973.018 523.73 958.5Z M556.3 1054.42C537.793 1035.29 525.401 1019.25 516.393 1002.77C513.65 997.749 511.258 993.79 511.078 993.97C509.981 995.066 524.435 1019.68 532.613 1030.65C538.251 1038.2 554.353 1055.07 561.381 1060.78C564.63 1063.42 562.851 1061.19 556.3 1054.42Z M543.378 1118.5C535.871 1099.84 528.893 1079.94 525.902 1068.65C525.268 1066.26 524.516 1064.53 524.231 1064.82C523.385 1065.66 531.437 1094 537.861 1112.78C550.599 1150.02 565.571 1181.94 592.136 1228.5C609.827 1259.51 621.421 1290.09 629.408 1326.8C632.123 1339.28 632.123 1335.09 629.408 1319.06C622.87 1280.47 613.445 1255.31 589.549 1212.69C567.682 1173.68 555.951 1149.75 543.378 1118.5Z M283.219 1258.75C283.496 1259.44 283.723 1258.88 283.723 1257.5C283.723 1256.12 283.496 1255.56 283.219 1256.25C282.941 1256.94 282.941 1258.06 283.219 1258.75Z M548.085 135.5C577.221 101.543 589.481 62.264 586.322 13L585.489 0L584.67 9C581.125 47.953 575.401 70.684 565.206 86.287C559.595 94.875 546.549 107.385 535.881 114.409C523.981 122.244 495.461 136.285 455.381 154.042C390.84 182.636 371.099 193.369 336.201 218.836L321.022 229.913L311.776 232.181C300.512 234.944 295.181 238.286 283.671 249.796L275.266 258.2L267.824 261.867C263.73 263.883 254.531 267.076 247.381 268.961C161.776 291.528 95.5269 342.632 53.9979 418.136C35.4459 451.864 21.0479 497.586 18.1409 532C16.8869 546.846 17.2809 591.002 18.7559 601C22.3439 625.309 28.1549 648.371 35.8299 668.764C38.0579 674.683 39.8809 680.287 39.8809 681.215C39.8809 682.143 35.4089 693.991 29.9429 707.542C13.2169 749.011 8.1859 766.661 2.8269 802.667L0.694946 817L0.149902 841.182C-0.766098 881.873 2.3179 906.081 14.8399 956.5C26.9489 1005.25 27.5849 1014.94 22.3589 1071C21.5379 1079.8 19.9299 1097.12 18.7849 1109.5C17.6399 1121.88 16.4569 1142.57 16.1569 1155.5L15.6109 1179L17.3509 1192C18.3079 1199.15 20.0229 1209.5 21.1619 1215L23.2319 1225L23.4199 1259L23.6079 1293L25.7649 1305.86C29.0919 1325.7 34.8899 1350.12 39.2119 1362.5C39.4999 1363.32 42.5109 1372.69 45.9039 1383.32C49.2959 1393.95 52.2769 1402.44 52.5269 1402.19C52.7769 1401.94 51.1659 1394.82 48.9459 1386.37C42.7669 1362.84 36.7279 1333.98 32.6529 1308.5L30.4939 1295L30.7109 1261.15L30.9279 1227.31L27.9359 1209.15C26.2899 1199.17 24.4369 1184.53 23.8169 1176.62L22.6909 1162.24L23.8099 1145.62C24.8809 1129.7 25.8179 1119.53 31.4629 1062.5C36.1469 1015.18 35.0489 1000.69 23.3229 955C11.9399 910.646 8.9529 891.824 8.1579 859.446C6.8399 805.801 14.7729 766.59 39.4319 704.862C41.8789 698.736 43.8809 693.224 43.8809 692.612C43.8809 689.854 45.7149 692.165 49.8809 700.174C65.7319 730.643 83.5379 750.855 134.141 795.819L160.901 819.597L163.8 825.339C168.221 834.098 169.289 841.483 168.503 857.855C166.412 901.405 165.988 924.369 166.905 944.429C168.972 989.637 173.814 1026.44 182.381 1062.05C192.666 1104.8 203.522 1130.97 238.998 1198.5C256.509 1231.83 267.433 1257.06 276.683 1285.53C282.766 1304.24 292.395 1344.14 295.485 1363.42C296.989 1372.81 298.43 1380.28 298.688 1380.03C299.346 1379.37 295.205 1347.75 292.267 1331C287.503 1303.84 279.237 1275 267.501 1244.6C263.655 1234.64 248.969 1204.56 228.642 1165C221.859 1151.8 214.138 1136.05 211.485 1130C185.668 1071.13 173.825 1009.46 172.215 925.5C171.35 880.394 173.845 845.747 178.79 834.212L180.729 829.689L187.856 825.944C191.841 823.85 196.504 820.422 198.432 818.169C202.129 813.85 202.421 814.018 200.878 819.571C199.232 825.496 195.101 854.168 193.395 871.5C193.098 874.525 192.672 889.825 192.448 905.5L192.043 934L192.891 914.957C196.136 842.122 209.693 792.472 236.022 757C249.607 738.698 274.75 715.432 300.141 697.668C326.501 679.226 342.775 666.706 361.189 650.704L371.997 641.312L374.206 641.867C377.974 642.813 384.721 648.684 388.925 654.678C403.914 676.046 415.324 715.793 420.451 764.5L422.082 780L421.557 810.5C420.731 858.495 416.221 894.489 403.766 952.5C390.669 1013.5 379.467 1048.2 359.207 1090.5C347.31 1115.34 333.617 1137.36 312.762 1165.18C306.503 1173.53 299.17 1184.03 296.468 1188.5C286.688 1204.68 281.751 1222.93 282.03 1241.88L282.178 1252L282.94 1239.36C284.11 1219.92 288.046 1207.98 298.349 1192.6C302.415 1186.53 318.861 1167.09 319.396 1167.72C319.523 1167.88 319.223 1171.15 318.728 1175C317.643 1183.44 319.091 1199.19 321.877 1209.24C322.944 1213.09 327.264 1226.99 331.476 1240.12C335.689 1253.25 341.107 1271.58 343.516 1280.83C351.034 1309.73 358.442 1352.25 361.402 1383.5C363.045 1400.85 365.013 1412.11 364.287 1400C364.088 1396.7 363.711 1385.45 363.447 1375C362.279 1328.66 354.433 1286.21 337.752 1236C327.75 1205.89 325.615 1196.4 325.607 1182L325.602 1171L327.756 1163.18L329.911 1155.37L337.385 1144.56C354.088 1120.4 368.615 1092.87 380.42 1063.01C386.767 1046.95 396.496 1018.37 398.974 1008.5L400.104 1004L402.016 1008.85C405.635 1018.04 418.698 1046.06 432.657 1074.58C448.057 1106.04 454.488 1121.87 458.027 1137L460.366 1147L460.42 1193.5L460.474 1240L462.21 1250C463.165 1255.5 465.267 1264.95 466.883 1271C468.498 1277.05 470.105 1284.47 470.453 1287.5C471.379 1295.55 468.838 1308.28 461.857 1330.56C454.835 1352.98 448.126 1378.65 447.38 1385.96L446.866 1391L449.695 1380.5C453.599 1366.02 455.915 1359.17 465.001 1335.3C473.909 1311.9 475.849 1305.28 476.025 1297.68C476.092 1294.76 476.465 1292.73 476.854 1293.18C477.243 1293.63 480.512 1298.56 484.118 1304.13C491.273 1315.18 506.75 1333.28 520.126 1346.25C524.807 1350.79 528.832 1354.5 529.071 1354.5C529.309 1354.5 525.364 1350.27 520.303 1345.1C504.333 1328.79 492.212 1311.67 483.592 1293.25C469.317 1262.75 465.961 1241.05 468.334 1194.58C470.114 1159.71 469.016 1145.66 462.839 1124.19C458.7 1109.8 457.458 1106.9 439.598 1070C420.669 1030.89 413.062 1014.45 407.792 1001.25L403.898 991.503L406.945 977.751C414.634 943.044 415.161 940.404 419.785 913.5C428.155 864.792 431.672 819.639 429.835 784.469C427.427 738.362 418.434 696.162 405.238 669.045C402.842 664.12 400.881 659.556 400.881 658.902C400.881 656.008 404.338 656.913 411.608 661.713C422.027 668.592 444.337 691.089 470.404 721C481.908 734.2 497.409 751.102 504.851 758.561C552.546 806.363 601.326 827.588 672.602 831.552L693.381 832.708L713.881 831.62C752.098 829.59 779.016 824.346 810.679 812.763C817.443 810.288 822.828 808.113 822.644 807.93C822.461 807.746 818.051 808.939 812.846 810.58C795.419 816.075 774.748 820.826 749.881 825.052C687.259 835.696 622.706 827.609 573.776 802.991C538.542 785.264 514.176 764.071 466.874 710.007C450.393 691.171 424.397 665.663 412.953 657.1C406.364 652.169 397.897 647.069 389.953 643.247L377.381 637.198L393.898 620.599C423.864 590.485 444.332 563.658 467.598 524C493.774 479.384 513.881 422.172 513.881 392.311V387.267L517.821 390.827C521.605 394.246 524.264 395.175 531.881 395.74L535.381 396L526.68 401.839C518.559 407.288 514.716 410.5 516.317 410.5C516.692 410.5 518.659 409.187 520.69 407.582C522.72 405.977 529.106 402.081 534.881 398.923C540.656 395.765 553.706 388.225 563.881 382.166C596.868 362.523 612.739 355.676 627.381 354.769L635.381 354.273L649.881 357.374C672.305 362.169 692.79 364.934 728.881 368.038C752.826 370.097 786.908 378.426 800.97 385.654C834.868 403.079 861.196 450.833 878.346 526C888.119 568.832 892.77 603.674 895.366 653.5C897.022 685.28 891.249 727.256 882.166 749.481C875.507 765.774 868.318 776.533 856.524 787.859C848.286 795.769 852.996 793.056 862.127 784.631C869.791 777.56 878.217 766.286 883.552 755.964C894.353 735.069 899.885 704.97 899.877 667.144C899.868 625.969 893.344 571.525 882.935 525.763C868.749 463.394 850.559 423.091 825.245 397.941C815.745 388.503 810.878 381.27 810.885 376.601C810.887 375.17 811.99 371.832 813.334 369.181C818.056 359.874 817.615 349.466 812.061 339.145C807.123 329.967 795.569 322.267 781.626 318.86L774.87 317.21L764.226 299.605C758.372 289.922 748.362 274.35 741.982 265C735.602 255.65 727.335 243.304 723.612 237.564C716.183 226.112 714.705 224.189 717.404 229.491C720.072 234.731 755.433 291.03 760.748 298.5C765.177 304.725 772.88 316.331 772.882 316.784C772.883 316.903 759.27 316.706 742.632 316.346C686.772 315.137 649.038 308.532 588.381 289.345C570.699 283.751 550.354 277.167 546.884 275.914C546.005 275.596 553.227 271.366 564.384 265.663C593.328 250.868 607.65 240.709 618.154 227.524C638.913 201.469 644.104 167.765 633.867 125.5C631.343 115.078 621.049 81.564 619.738 79.5L618.786 78L619.299 80C619.581 81.1 621.395 87.85 623.331 95C629.094 116.292 631.644 129.095 633.487 146L635.232 162L634.073 173.5C632.088 193.204 626.373 208.609 615.827 222.685C604.609 237.659 583.056 253.712 552.373 269.948L543.366 274.714L526.373 269.658C474.022 254.081 442.827 248.557 386.881 244.959C372.582 244.04 366.763 242.827 350.742 237.431C342.69 234.719 335.378 232.5 334.492 232.5C331.493 232.5 332.858 230.929 341.131 224.853C373.683 200.949 402.171 185.572 466.688 157.08C522.882 132.264 542.354 121.246 558.523 105.117L567.666 95.997L566.155 99.999C560.441 115.131 550.658 131.064 539.568 143.302L535.381 147.921L538.515 145.461C540.239 144.107 544.545 139.625 548.085 135.5ZM301.05 272.523C309.059 273.875 316.319 276.327 328.053 281.643C341.705 287.828 346.792 289.285 357.755 290.152L366.129 290.814L363.255 292.282C359.009 294.451 356.881 296.579 356.881 298.655C356.881 299.823 357.603 300.5 358.847 300.5C361.831 300.5 374.091 293.411 374.623 291.378C375.282 288.86 381.606 287.983 398.381 288.084L412.381 288.167L422.925 290.765C447.168 296.737 463.501 305.413 479.668 320.905C504.382 344.588 512.781 379.632 503.374 419.816C493.372 462.541 466.029 519.203 435.002 561.5C402.031 606.447 370.688 636.724 310.077 682.177C275.007 708.477 267.279 714.916 250.986 731.414C237.486 745.083 229.566 754.839 221.673 767.521C219.312 771.315 217.044 774.437 216.631 774.459C216.218 774.482 215.881 772.279 215.881 769.565C215.881 761.18 213.113 757.106 209.98 760.881L208.834 762.262L210.149 773.95L211.464 785.638L205.305 798.319C198.428 812.48 193.936 818.327 187.563 821.412C182.299 823.96 179.578 824.004 174.381 821.624C169.705 819.482 166.735 816.996 140.243 793.036C90.1119 747.698 70.6999 724.437 53.424 689C15.6009 611.42 14.8739 523.744 51.3789 442.414C73.0859 394.054 106.376 353.386 149.918 322.034C181.153 299.545 228.445 279.25 264.381 272.913C272.852 271.42 293.226 271.203 301.05 272.523ZM343.312 314.25C350.392 308.418 351.447 306.887 349.776 304.873C348.068 302.816 347.04 303.134 341.442 307.453C334.144 313.083 331.712 315.897 332.46 317.845C333.562 320.718 336.738 319.666 343.312 314.25ZM320.356 335.064C324.657 330.258 326.894 326.976 326.524 326.012C325.349 322.95 321.995 324.636 315.444 331.58C308.656 338.776 307.568 341.737 311.505 342.302L313.609 342.603L320.356 335.064ZM298.849 361.381C304.809 353.359 306.067 350.145 303.631 349.162C302.943 348.885 302.122 348.622 301.805 348.579C300.91 348.456 297.628 352.375 292.431 359.772L287.673 366.545L288.9 368.022C291.113 370.689 292.741 369.602 298.849 361.381ZM277.196 394.75C286.078 380.533 287.08 378.162 284.631 377.151C283.943 376.867 282.729 376.719 281.933 376.821C279.923 377.08 269.745 394.982 270.496 396.939C271.557 399.703 274.754 398.659 277.196 394.75ZM263.925 421.784C268.485 411.912 269.365 409.093 268.382 407.501C266.881 405.074 264.209 407.33 260.718 413.971C258.704 417.804 256.483 422.675 255.783 424.796L254.51 428.653L255.946 429.561C258.861 431.406 259.986 430.31 263.925 421.784ZM251.27 452.669C255.306 441.681 255.362 441.381 253.681 439.7C250.988 437.007 249.619 438.697 245.446 449.87C243.418 455.298 241.997 460.36 242.288 461.12C242.58 461.879 243.907 462.5 245.239 462.5H247.659L251.27 452.669ZM239.783 486.658C242.889 476.79 243.457 473.409 242.214 472.167C241.348 471.3 239.673 471.342 238.244 472.265C236.701 473.263 230.825 493.19 231.531 495.031C231.841 495.839 233.128 496.5 234.39 496.5H236.684L239.783 486.658ZM227.486 530.735C229.187 529.604 233.708 508.943 232.664 507.076C231.604 505.183 229.505 505.032 228.112 506.75C226.614 508.597 222.493 528.046 223.206 529.904C223.856 531.598 225.661 531.948 227.486 530.735ZM225.905 543.234L224.771 541.867C223.356 540.162 221.445 540.115 220.09 541.75C218.684 543.448 215.427 563.875 216.23 565.967C216.628 567.003 217.725 567.518 219.113 567.32L221.354 567L223.629 555.117L225.905 543.234ZM219.838 579.153L218.737 577.827C217.35 576.156 215.434 576.128 214.08 577.76C212.846 579.248 210.5 599.075 211.388 600.512C211.724 601.055 213.089 601.5 214.421 601.5H216.843L217.274 599.25C217.511 598.013 218.185 592.984 218.772 588.077L219.838 579.153ZM213.383 636.32C214.583 633.106 215.611 613.941 214.647 612.75C213.354 611.151 211.414 611.153 210.085 612.754C209.513 613.443 208.896 619.181 208.713 625.504L208.381 637L210.635 637.32C211.875 637.496 213.112 637.046 213.383 636.32ZM212.881 660.56C212.881 654.11 212.562 648.514 212.172 648.124C211.782 647.735 210.545 647.547 209.422 647.708L207.381 648L206.73 653.5C206.372 656.525 206.034 662.007 205.98 665.683L205.881 672.365L207.74 672.955C208.763 673.28 210.338 673.262 211.24 672.916L212.881 672.286V660.56ZM212.014 698.385C211.812 691.573 211.432 685.637 211.17 685.193C210.907 684.749 209.722 684.524 208.537 684.693L206.381 685L206.434 697.753C206.47 706.418 206.879 710.898 207.711 711.73L208.936 712.955L210.659 711.862L212.381 710.77L212.014 698.385ZM213.354 736.609C212.966 730.224 212.179 724.418 211.606 723.707C211.034 722.996 209.849 722.559 208.973 722.735L207.381 723.056L207.559 734.92L207.738 746.785L209.132 748.179C209.934 748.981 211.277 749.285 212.293 748.895L214.061 748.217L213.354 736.609ZM552.881 324.692C539.956 319.675 521.506 312.651 511.881 309.084L494.381 302.598L490.145 302.924C485.205 303.305 481.242 305.614 479.693 309.012L478.597 311.419L486.273 319.578C495.166 329.032 498.277 333.339 503.19 343C507.807 352.079 511.397 363.21 512.894 373.085L514.09 380.976L517.172 384.867C522.411 391.482 530.432 393.334 539.696 390.065C542.061 389.231 552.332 383.539 562.52 377.417C578.944 367.547 604.051 354.5 606.62 354.5C607.137 354.5 608.061 353.399 608.674 352.054L609.789 349.608L608.05 347.46C607.019 346.188 600.214 342.971 591.346 339.564C583.115 336.402 565.806 329.71 552.881 324.692ZM472.381 262.966C488.448 266.521 501.619 269.794 508.881 272.037C511.356 272.801 520.356 275.498 528.881 278.03C537.406 280.562 554.506 285.953 566.881 290.011C607.849 303.443 627.804 309.048 651.881 313.886C683.248 320.19 702.759 322.437 731.381 323.04C765.907 323.767 772.646 324.229 781.295 326.46C794.316 329.82 802.138 335.561 806.523 344.979L808.861 350L808.871 356.282C808.888 366.857 805.244 372.343 796.687 374.63L791.993 375.885L782.687 372.725C765.628 366.933 748.489 363.699 723.381 361.537C683.958 358.142 669.845 355.934 639.692 348.448C620.65 343.72 608.136 339.579 574.881 327.004C537.82 312.99 512.308 304.267 487.381 297.088C460.169 289.25 454.527 288.152 470.881 293.876C477.756 296.282 484.731 298.816 486.381 299.506L489.381 300.761L486.137 301.657C484.353 302.15 481.299 304.148 479.35 306.097L475.807 309.641L469.615 305.04C461.76 299.203 446.131 291.599 433.881 287.654C425.263 284.879 409.498 281.949 399.502 281.265L395.623 281L410.002 273.824C426.988 265.346 432.526 263.09 441.398 261.032C450.642 258.888 455.253 259.176 472.381 262.966ZM351.881 244.267C345.006 242.045 336.231 239.665 332.381 238.976C320.27 236.809 310.013 238.64 300.667 244.638C294.758 248.429 282.809 261.149 283.49 262.923C283.817 263.777 287.026 264.45 292.863 264.891C305.191 265.822 315.294 268.695 329.881 275.419C349.116 284.285 353.714 285.173 371.786 283.509L384.191 282.368L390.55 279.822C394.048 278.421 400.616 274.789 405.145 271.749C409.675 268.709 418.285 263.81 424.279 260.861C430.273 257.912 434.548 255.492 433.779 255.482C433.01 255.472 427.881 254.834 422.381 254.065C416.881 253.295 406.306 252.161 398.881 251.545C368.981 249.063 364.65 248.392 351.881 244.267Z" />

<g class="detail-region" data-region="shoulders-front" tabindex="0" role="button">
    <path id="shoulders-front" transform="translate(212.22,288.32) scale(1)"
      d="M162.318 3.30171C162.977 0.78371 169.301 -0.0932659 186.076 0.00773407L200.076 0.0907114L210.62 2.68873C234.863 8.66073 251.196 17.3367 267.363 32.8287C292.077 56.5117 300.476 91.5557 291.069 131.74C281.067 174.465 253.724 231.127 222.697 273.424C189.726 318.371 158.383 348.648 97.7719 394.101C62.7019 420.401 54.9739 426.84 38.6809 443.338C25.1809 457.007 17.2609 466.763 9.36789 479.445C7.00689 483.239 4.7389 486.361 4.3259 486.383C3.9129 486.406 3.5759 484.203 3.5759 481.489C3.5759 479.468 3.41519 477.698 3.12741 476.228L1.75589 460.141L1.04892 448.533L0.0758972 422.694C-0.0125029 406.354 -0.163866 396.736 0.575897 384.21V372.484C0.675262 360.442 0.890717 353.765 1.95316 343.041C1.99387 342.658 2.03354 342.264 2.07193 341.86C2.26235 339.855 2.42227 337.612 2.53598 335.424L2.5975 334.569C3.19894 326.223 3.5513 321.334 4.53787 313.424L4.9689 311.174C5.2059 309.937 5.87989 304.908 6.46689 300.001L7.53287 291.077L9.04892 278.924L11.3239 267.041L13.5999 255.158L17.4684 236.597C18.0985 234.261 18.7326 231.532 19.2578 228.924C21.1218 220.825 22.1789 216.299 24.3789 208.424L27.4779 198.582C27.8772 197.313 28.2345 196.152 28.5514 195.089C31.712 184.858 33.7267 178.872 36.8011 170.484L37.1594 169.508L38.9649 164.593C40.2817 161.008 41.1749 158.56 41.7222 156.832C44.7893 148.402 46.913 143.392 49.524 138.031C49.9185 137.28 50.3459 136.414 50.8167 135.424L50.9037 135.24L50.9831 135.072L51.043 134.946L51.1437 134.731C51.2978 134.402 51.4565 134.061 51.6199 133.708C52.462 131.885 53.1785 130.302 53.781 128.924C54.4342 127.429 54.9534 126.174 55.3531 125.112C58.2963 118.158 60.7197 113.579 64.8909 106.674C66.5499 104.018 67.9339 101.776 69.0719 99.8789C69.5312 99.1132 69.9505 98.4037 70.3315 97.7458C75.5942 88.8808 79.1048 83.6056 85.2074 75.0822C85.6278 74.5312 86.0725 73.9392 86.5439 73.3047L101.304 54.5267L108.051 46.9877C116.313 38.5465 121.315 34.0873 130.702 26.4237C130.803 26.3414 130.905 26.2581 131.007 26.1737C132.038 25.3247 132.941 24.5668 133.726 23.8853C140.294 18.4282 144.543 15.3179 151.277 10.7841C155.924 8.56297 161.949 4.7134 162.318 3.30171Z" />
  </g>

  <g class="detail-region" data-region="shoulders-mid" tabindex="0" role="button">
    <path id="shoulders-mid" transform="translate(24.6,271.45) scale(1)" d="M276.53 0.87212C284.539 2.22412 291.799 4.67612 303.533 9.99212C317.185 16.1771 322.272 17.6341 333.235 18.5011L341.609 19.1631L338.735 20.6311C336.061 21.9973 334.227 23.3473 333.235 24.6782C328.089 27.6434 324.208 30.1086 316.922 35.8021C315.197 37.1333 313.743 38.307 312.539 39.3491C303.176 47.0259 298.511 51.5165 290.924 59.9291C290.388 60.4977 289.887 61.0399 289.422 61.5566C283.564 67.9197 279.857 72.2045 273.681 80.3491C272.166 82.2145 270.229 84.8219 267.911 88.1211L265.532 91.5076C260.78 98.0141 258.279 101.69 254.532 108.349C252.946 110.636 251.031 113.835 249.412 116.849C243.7 126.035 240.643 131.385 236.198 142.32C234.184 146.153 231.963 151.024 231.263 153.145C227.149 160.737 224.882 166.122 220.926 178.219C220.032 180.613 219.256 182.935 218.692 184.849C215.938 191.054 214.289 195.594 211.21 206.349C209.83 210.396 208.307 215.712 207.51 219.349C205.464 225.913 204.262 230.173 202.062 239.349C200.994 243.222 199.777 248.88 199.109 253.022C197.209 259.982 196.17 264.293 194.483 273.349C193.393 277.865 192.11 285.87 191.71 290.627C190.215 298.238 189.506 302.794 188.277 311.349C187.627 315.288 187.01 320.596 186.774 324.349C186.098 328.786 185.631 333.492 184.853 344.342C184.55 346.743 184.299 350.201 184.193 353.853C183.269 364.697 182.775 370.796 182.21 381.849C181.852 384.874 181.514 390.356 181.46 394.032L181.361 400.714L181.861 413.349L181.914 426.102C181.929 429.744 182.011 432.646 182.161 434.849L182.861 451.405L183.039 463.269L183.218 475.134L184.314 490.611L185.629 502.299L186.944 513.987L180.785 526.668C173.908 540.829 169.416 546.676 163.043 549.761C157.779 552.309 155.058 552.353 149.861 549.973C145.185 547.831 142.215 545.345 115.723 521.385C65.5924 476.047 46.1804 452.786 28.9044 417.349C-8.91858 339.769 -9.64563 252.093 26.8594 170.763C48.5664 122.403 81.8564 81.7351 125.398 50.3831C156.633 27.8941 203.925 7.5991 239.861 1.2621C248.332 -0.230895 268.706 -0.44788 276.53 0.87212Z" />
  </g>
</svg>
