<svg viewBox="0 0 900 1406" xmlns="http://www.w3.org/2000/svg">
  <path id="outline" class="detail-outline" d="M105.861 215C114.554 184.773 131.265 113.483 137.693 79.207C139.219 71.07 140.623 64.88 140.812 65.449C141.002 66.019 140.189 73.351 139.006 81.743C128.42 156.797 113.035 218.754 89.119 282.64C84.436 295.15 66.281 337.931 62.654 345C61.281 347.678 50.069 371.628 40.293 392.769C38.317 397.042 36.534 400.372 36.331 400.169C36.128 399.966 41.878 386.12 49.108 369.4C77.251 304.315 90.69 267.753 105.861 215Z M324.746 508.053C315.534 503.254 307.996 499.139 307.996 498.909C307.996 498.324 350.859 519.828 372.496 531.268C401.806 546.766 421.324 558.161 444.496 573.305C460.992 584.086 483.668 600.157 484.655 601.768C485.113 602.515 484.555 602.41 483.235 601.5C463.336 587.779 455.332 582.435 443.996 575.3C426.724 564.429 406.978 552.696 390.496 543.509C358.335 525.585 356.531 524.612 324.746 508.053Z M535.937 760.322C537.164 739.114 538.759 724.685 541.563 709.429C542.476 704.46 543.42 700.591 543.66 700.831C543.901 701.072 543.422 705.258 542.597 710.134C539.053 731.06 538.496 740.122 538.579 775.5L538.662 811L540.84 831C551.1 925.206 574.617 1022.21 605.435 1097.42C609.586 1107.56 612.812 1116.02 612.602 1116.23C612.098 1116.73 598.138 1083.72 591.831 1067.11C575.431 1023.93 562.16 977.547 552.007 927.932C542.577 881.851 538.162 847.756 535.936 803.822L534.762 780.644L535.937 760.322Z M218.523 767.714C216.231 764.991 211.967 763.24 204.996 762.16C203.585 761.941 204.361 761.713 206.778 761.636C218.387 761.267 226.387 771.197 219.978 778.019C213.266 785.164 196.038 782.796 193.084 774.324C192.486 772.607 191.996 770.853 191.996 770.428C191.996 769.157 197.088 763.5 198.231 763.5C198.812 763.5 198.097 764.604 196.642 765.952C188.462 773.533 200.493 783.141 213.577 779.477C220.959 777.411 222.865 772.875 218.523 767.714Z M676.658 835.75C676.381 836.438 676.154 835.875 676.154 834.5C676.154 833.125 676.381 832.563 676.658 833.25C676.936 833.938 676.936 835.063 676.658 835.75Z M677.685 842.25C677.434 843.212 677.228 842.425 677.228 840.5C677.228 838.575 677.434 837.788 677.685 838.75C677.937 839.712 677.937 841.288 677.685 842.25Z M308.996 942.881C341.016 914.234 370.813 879.291 388.8 849.295C394.181 840.322 395.528 839.56 390.875 848.121C374.353 878.525 349.063 909.98 323.345 932.114C308.775 944.654 297.861 952.843 308.996 942.881Z M682.587 938C683.411 914.568 681.744 879.768 678.355 849.657C677.401 841.179 678.655 843.809 679.95 853C684.4 884.599 686.278 936.257 684.08 966.558C680.901 1010.36 676.008 1041.37 665.867 1082C659.408 1107.88 649.43 1141.27 648.449 1140.29C648.263 1140.1 649.883 1134.11 652.051 1126.97C669.408 1069.83 680.326 1002.26 682.587 938Z M814.006 1005C804.412 961.211 795.133 929.079 783.466 899.25C783.09 898.288 783.023 897.5 783.319 897.5C784.321 897.5 796.207 928.913 803.077 949.718C810.455 972.062 818.947 1002.15 826.863 1034C829.597 1045 834.324 1063.68 837.366 1075.5C850.576 1126.84 854.841 1156.35 853.695 1188.5C852.726 1215.69 849.104 1237.44 837.958 1283C828.437 1321.92 809.258 1391.09 808.263 1390.1C808.044 1389.88 808.365 1387.84 808.976 1385.57C810.113 1381.35 816.455 1353.72 824.481 1318C826.954 1307 831.014 1289 833.504 1278C843.607 1233.37 846.015 1217.22 846.711 1189.37L847.252 1167.75L845.527 1152.87C843.197 1132.79 838.655 1110.15 827.996 1065.5C823.073 1044.88 816.777 1017.65 814.006 1005Z M376.147 958.5C385.345 946.318 394.491 932.331 398.869 923.748C400.061 921.412 401.259 919.5 401.531 919.5C403.143 919.5 387.382 946.73 378.719 958.912C367.426 974.792 347.861 996.449 334.531 1007.82L328.496 1012.97L341.52 998.988C359.377 979.809 365.185 973.018 376.147 958.5Z M343.577 1054.42C362.084 1035.29 374.476 1019.25 383.484 1002.77C386.227 997.749 388.619 993.79 388.799 993.97C389.896 995.066 375.442 1019.68 367.264 1030.65C361.626 1038.2 345.524 1055.07 338.496 1060.78C335.247 1063.42 337.026 1061.19 343.577 1054.42Z M356.499 1118.5C364.006 1099.84 370.984 1079.94 373.975 1068.65C374.609 1066.26 375.361 1064.53 375.646 1064.82C376.492 1065.66 368.44 1094 362.016 1112.78C349.278 1150.02 334.306 1181.94 307.741 1228.5C290.05 1259.51 278.456 1290.09 270.469 1326.8C267.754 1339.28 267.754 1335.09 270.469 1319.06C277.007 1280.47 286.432 1255.31 310.328 1212.69C332.195 1173.68 343.926 1149.75 356.499 1118.5Z M616.658 1258.75C616.381 1259.44 616.154 1258.88 616.154 1257.5C616.154 1256.12 616.381 1255.56 616.658 1256.25C616.936 1256.94 616.936 1258.06 616.658 1258.75Z M351.792 135.5C322.656 101.543 310.396 62.264 313.555 13L314.388 0L315.207 9C318.752 47.953 324.476 70.684 334.671 86.287C340.282 94.875 353.328 107.385 363.996 114.409C375.896 122.244 404.416 136.285 444.496 154.042C509.037 182.636 528.778 193.369 563.676 218.836L578.855 229.913L588.101 232.181C599.365 234.944 604.696 238.286 616.206 249.796L624.611 258.2L632.053 261.867C636.147 263.883 645.346 267.076 652.496 268.961C738.101 291.528 804.35 342.632 845.879 418.136C864.431 451.864 878.829 497.586 881.736 532C882.99 546.846 882.596 591.002 881.121 601C877.533 625.309 871.722 648.371 864.047 668.764C861.819 674.683 859.996 680.287 859.996 681.215C859.996 682.143 864.468 693.991 869.934 707.542C886.66 749.011 891.691 766.661 897.05 802.667L899.182 817L899.727 841.182C900.643 881.873 897.559 906.081 885.037 956.5C872.928 1005.25 872.292 1014.94 877.518 1071C878.339 1079.8 879.947 1097.12 881.092 1109.5C882.237 1121.88 883.42 1142.57 883.72 1155.5L884.266 1179L882.526 1192C881.569 1199.15 879.854 1209.5 878.715 1215L876.645 1225L876.457 1259L876.269 1293L874.112 1305.86C870.785 1325.7 864.987 1350.12 860.665 1362.5C860.377 1363.32 857.366 1372.69 853.973 1383.32C850.581 1393.95 847.6 1402.44 847.35 1402.19C847.1 1401.94 848.711 1394.82 850.931 1386.37C857.11 1362.84 863.149 1333.98 867.224 1308.5L869.383 1295L869.166 1261.15L868.949 1227.31L871.941 1209.15C873.587 1199.17 875.44 1184.53 876.06 1176.62L877.186 1162.24L876.067 1145.62C874.996 1129.7 874.059 1119.53 868.414 1062.5C863.73 1015.18 864.828 1000.69 876.554 955C887.937 910.646 890.924 891.824 891.719 859.446C893.037 805.801 885.104 766.59 860.445 704.862C857.998 698.736 855.996 693.224 855.996 692.612C855.996 689.854 854.162 692.165 849.996 700.174C834.145 730.643 816.339 750.855 765.736 795.819L738.976 819.597L736.077 825.339C731.656 834.098 730.588 841.483 731.374 857.855C733.465 901.405 733.889 924.369 732.972 944.429C730.905 989.637 726.063 1026.44 717.496 1062.05C707.211 1104.8 696.355 1130.97 660.879 1198.5C643.368 1231.83 632.444 1257.06 623.194 1285.53C617.111 1304.24 607.482 1344.14 604.392 1363.42C602.888 1372.81 601.447 1380.28 601.189 1380.03C600.531 1379.37 604.672 1347.75 607.61 1331C612.374 1303.84 620.64 1275 632.376 1244.6C636.222 1234.64 650.908 1204.56 671.235 1165C678.018 1151.8 685.739 1136.05 688.392 1130C714.209 1071.13 726.052 1009.46 727.662 925.5C728.527 880.394 726.032 845.747 721.087 834.212L719.148 829.689L712.021 825.944C708.036 823.85 703.373 820.422 701.445 818.169C697.748 813.85 697.456 814.018 698.999 819.571C700.645 825.496 704.776 854.168 706.482 871.5C706.779 874.525 707.205 889.825 707.429 905.5L707.834 934L706.986 914.957C703.741 842.122 690.184 792.472 663.855 757C650.27 738.698 625.127 715.432 599.736 697.668C573.376 679.226 557.102 666.706 538.688 650.704L527.88 641.312L525.671 641.867C521.903 642.813 515.156 648.684 510.952 654.678C495.963 676.046 484.553 715.793 479.426 764.5L477.795 780L478.32 810.5C479.146 858.495 483.656 894.489 496.111 952.5C509.208 1013.5 520.41 1048.2 540.67 1090.5C552.567 1115.34 566.26 1137.36 587.115 1165.18C593.374 1173.53 600.707 1184.03 603.409 1188.5C613.189 1204.68 618.126 1222.93 617.847 1241.88L617.699 1252L616.937 1239.36C615.767 1219.92 611.831 1207.98 601.528 1192.6C597.462 1186.53 581.016 1167.09 580.481 1167.72C580.354 1167.88 580.654 1171.15 581.149 1175C582.234 1183.44 580.786 1199.19 578 1209.24C576.933 1213.09 572.613 1226.99 568.401 1240.12C564.188 1253.25 558.77 1271.58 556.361 1280.83C548.843 1309.73 541.435 1352.25 538.475 1383.5C536.832 1400.85 534.864 1412.11 535.59 1400C535.789 1396.7 536.166 1385.45 536.43 1375C537.598 1328.66 545.444 1286.21 562.125 1236C572.127 1205.89 574.262 1196.4 574.27 1182L574.275 1171L572.121 1163.18L569.966 1155.37L562.492 1144.56C545.789 1120.4 531.262 1092.87 519.457 1063.01C513.11 1046.95 503.381 1018.37 500.903 1008.5L499.773 1004L497.861 1008.85C494.242 1018.04 481.179 1046.06 467.22 1074.58C451.82 1106.04 445.389 1121.87 441.85 1137L439.511 1147L439.457 1193.5L439.403 1240L437.667 1250C436.712 1255.5 434.61 1264.95 432.994 1271C431.379 1277.05 429.772 1284.47 429.424 1287.5C428.498 1295.55 431.039 1308.28 438.02 1330.56C445.042 1352.98 451.751 1378.65 452.497 1385.96L453.011 1391L450.182 1380.5C446.278 1366.02 443.962 1359.17 434.876 1335.3C425.968 1311.9 424.028 1305.28 423.852 1297.68C423.785 1294.76 423.412 1292.73 423.023 1293.18C422.634 1293.63 419.365 1298.56 415.759 1304.13C408.604 1315.18 393.127 1333.28 379.751 1346.25C375.07 1350.79 371.045 1354.5 370.806 1354.5C370.568 1354.5 374.513 1350.27 379.574 1345.1C395.544 1328.79 407.665 1311.67 416.285 1293.25C430.56 1262.75 433.916 1241.05 431.543 1194.58C429.763 1159.71 430.861 1145.66 437.038 1124.19C441.177 1109.8 442.419 1106.9 460.279 1070C479.208 1030.89 486.815 1014.45 492.085 1001.25L495.979 991.503L492.932 977.751C485.243 943.044 484.716 940.404 480.092 913.5C471.722 864.792 468.205 819.639 470.042 784.469C472.45 738.362 481.443 696.162 494.639 669.045C497.035 664.12 498.996 659.556 498.996 658.902C498.996 656.008 495.539 656.913 488.269 661.713C477.85 668.592 455.54 691.089 429.473 721C417.969 734.2 402.468 751.102 395.026 758.561C347.331 806.363 298.551 827.588 227.275 831.552L206.496 832.708L185.996 831.62C147.779 829.59 120.861 824.346 89.198 812.763C82.434 810.288 77.049 808.113 77.233 807.93C77.416 807.746 81.826 808.939 87.031 810.58C104.458 816.075 125.129 820.826 149.996 825.052C212.618 835.696 277.171 827.609 326.101 802.991C361.335 785.264 385.701 764.071 433.003 710.007C449.484 691.171 475.48 665.663 486.924 657.1C493.513 652.169 501.98 647.069 509.924 643.247L522.496 637.198L505.979 620.599C476.013 590.485 455.545 563.658 432.279 524C406.103 479.384 385.996 422.172 385.996 392.311V387.267L382.056 390.827C378.272 394.246 375.613 395.175 367.996 395.74L364.496 396L373.197 401.839C381.318 407.288 385.161 410.5 383.56 410.5C383.185 410.5 381.218 409.187 379.187 407.582C377.157 405.977 370.771 402.081 364.996 398.923C359.221 395.765 346.171 388.225 335.996 382.166C303.009 362.523 287.138 355.676 272.496 354.769L264.496 354.273L249.996 357.374C227.572 362.169 207.087 364.934 170.996 368.038C147.051 370.097 112.969 378.426 98.907 385.654C65.009 403.079 38.681 450.833 21.531 526C11.758 568.832 7.10701 603.674 4.51101 653.5C2.85501 685.28 8.62801 727.256 17.711 749.481C24.37 765.774 31.559 776.533 43.353 787.859C51.591 795.769 46.881 793.056 37.75 784.631C30.086 777.56 21.66 766.286 16.325 755.964C5.52401 735.069 -0.00799134 704.97 8.66436e-06 667.144C0.00900866 625.969 6.53301 571.525 16.942 525.763C31.128 463.394 49.318 423.091 74.632 397.941C84.132 388.503 88.999 381.27 88.992 376.601C88.99 375.17 87.887 371.832 86.543 369.181C81.821 359.874 82.262 349.466 87.816 339.145C92.754 329.967 104.308 322.267 118.251 318.86L125.007 317.21L135.651 299.605C141.505 289.922 151.515 274.35 157.895 265C164.275 255.65 172.542 243.304 176.265 237.564C183.694 226.112 185.172 224.189 182.473 229.491C179.805 234.731 144.444 291.03 139.129 298.5C134.7 304.725 126.997 316.331 126.995 316.784C126.994 316.903 140.607 316.706 157.245 316.346C213.105 315.137 250.839 308.532 311.496 289.345C329.178 283.751 349.523 277.167 352.993 275.914C353.872 275.596 346.65 271.366 335.493 265.663C306.549 250.868 292.227 240.709 281.723 227.524C260.964 201.469 255.773 167.765 266.01 125.5C268.534 115.078 278.828 81.564 280.139 79.5L281.091 78L280.578 80C280.296 81.1 278.482 87.85 276.546 95C270.783 116.292 268.233 129.095 266.39 146L264.645 162L265.804 173.5C267.789 193.204 273.504 208.609 284.05 222.685C295.268 237.659 316.821 253.712 347.504 269.948L356.511 274.714L373.504 269.658C425.855 254.081 457.05 248.557 512.996 244.959C527.295 244.04 533.114 242.827 549.135 237.431C557.187 234.719 564.499 232.5 565.385 232.5C568.384 232.5 567.019 230.929 558.746 224.853C526.194 200.949 497.706 185.572 433.189 157.08C376.995 132.264 357.523 121.246 341.354 105.117L332.211 95.997L333.722 99.999C339.436 115.131 349.219 131.064 360.309 143.302L364.496 147.921L361.362 145.461C359.638 144.107 355.332 139.625 351.792 135.5ZM598.827 272.523C590.818 273.875 583.558 276.327 571.824 281.643C558.172 287.828 553.085 289.285 542.122 290.152L533.748 290.814L536.622 292.282C540.868 294.451 542.996 296.579 542.996 298.655C542.996 299.823 542.274 300.5 541.03 300.5C538.046 300.5 525.786 293.411 525.254 291.378C524.595 288.86 518.271 287.983 501.496 288.084L487.496 288.167L476.952 290.765C452.709 296.737 436.376 305.413 420.209 320.905C395.495 344.588 387.096 379.632 396.503 419.816C406.505 462.541 433.848 519.203 464.875 561.5C497.846 606.447 529.189 636.724 589.8 682.177C624.87 708.477 632.598 714.916 648.891 731.414C662.391 745.083 670.311 754.839 678.204 767.521C680.565 771.315 682.833 774.437 683.246 774.459C683.659 774.482 683.996 772.279 683.996 769.565C683.996 761.18 686.764 757.106 689.897 760.881L691.043 762.262L689.728 773.95L688.413 785.638L694.572 798.319C701.449 812.48 705.941 818.327 712.314 821.412C717.578 823.96 720.299 824.004 725.496 821.624C730.172 819.482 733.142 816.996 759.634 793.036C809.765 747.698 829.177 724.437 846.453 689C884.276 611.42 885.003 523.744 848.498 442.414C826.791 394.054 793.501 353.386 749.959 322.034C718.724 299.545 671.432 279.25 635.496 272.913C627.025 271.42 606.651 271.203 598.827 272.523ZM556.565 314.25C549.485 308.418 548.43 306.887 550.101 304.873C551.809 302.816 552.837 303.134 558.435 307.453C565.733 313.083 568.165 315.897 567.417 317.845C566.315 320.718 563.139 319.666 556.565 314.25ZM579.521 335.064C575.22 330.258 572.983 326.976 573.353 326.012C574.528 322.95 577.882 324.636 584.433 331.58C591.221 338.776 592.309 341.737 588.372 342.302L586.268 342.603L579.521 335.064ZM601.028 361.381C595.068 353.359 593.81 350.145 596.246 349.162C596.934 348.885 597.755 348.622 598.072 348.579C598.967 348.456 602.249 352.375 607.446 359.772L612.204 366.545L610.977 368.022C608.764 370.689 607.136 369.602 601.028 361.381ZM622.681 394.75C613.799 380.533 612.797 378.162 615.246 377.151C615.934 376.867 617.148 376.719 617.944 376.821C619.954 377.08 630.132 394.982 629.381 396.939C628.32 399.703 625.123 398.659 622.681 394.75ZM635.952 421.784C631.392 411.912 630.512 409.093 631.495 407.501C632.996 405.074 635.668 407.33 639.159 413.971C641.173 417.804 643.394 422.675 644.094 424.796L645.367 428.653L643.931 429.561C641.016 431.406 639.891 430.31 635.952 421.784ZM648.607 452.669C644.571 441.681 644.515 441.381 646.196 439.7C648.889 437.007 650.258 438.697 654.431 449.87C656.459 455.298 657.88 460.36 657.589 461.12C657.297 461.879 655.97 462.5 654.638 462.5H652.218L648.607 452.669ZM660.094 486.658C656.988 476.79 656.42 473.409 657.663 472.167C658.529 471.3 660.204 471.342 661.633 472.265C663.176 473.263 669.052 493.19 668.346 495.031C668.036 495.839 666.749 496.5 665.487 496.5H663.193L660.094 486.658ZM672.391 530.735C670.69 529.604 666.169 508.943 667.213 507.076C668.273 505.183 670.372 505.032 671.765 506.75C673.263 508.597 677.384 528.046 676.671 529.904C676.021 531.598 674.216 531.948 672.391 530.735ZM673.972 543.234L675.106 541.867C676.521 540.162 678.432 540.115 679.787 541.75C681.193 543.448 684.45 563.875 683.647 565.967C683.249 567.003 682.152 567.518 680.764 567.32L678.523 567L676.248 555.117L673.972 543.234ZM680.039 579.153L681.14 577.827C682.527 576.156 684.443 576.128 685.797 577.76C687.031 579.248 689.377 599.075 688.489 600.512C688.153 601.055 686.788 601.5 685.456 601.5H683.034L682.603 599.25C682.366 598.013 681.692 592.984 681.105 588.077L680.039 579.153ZM686.494 636.32C685.294 633.106 684.266 613.941 685.23 612.75C686.523 611.151 688.463 611.153 689.792 612.754C690.364 613.443 690.981 619.181 691.164 625.504L691.496 637L689.242 637.32C688.002 637.496 686.765 637.046 686.494 636.32ZM686.996 660.56C686.996 654.11 687.315 648.514 687.705 648.124C688.095 647.735 689.332 647.547 690.455 647.708L692.496 648L693.147 653.5C693.505 656.525 693.843 662.007 693.897 665.683L693.996 672.365L692.137 672.955C691.114 673.28 689.539 673.262 688.637 672.916L686.996 672.286V660.56ZM687.863 698.385C688.065 691.573 688.445 685.637 688.707 685.193C688.97 684.749 690.155 684.524 691.34 684.693L693.496 685L693.443 697.753C693.407 706.418 692.998 710.898 692.166 711.73L690.941 712.955L689.218 711.862L687.496 710.77L687.863 698.385ZM686.523 736.609C686.911 730.224 687.698 724.418 688.271 723.707C688.843 722.996 690.028 722.559 690.904 722.735L692.496 723.056L692.318 734.92L692.139 746.785L690.745 748.179C689.943 748.981 688.6 749.285 687.584 748.895L685.816 748.217L686.523 736.609ZM346.996 324.692C359.921 319.675 378.371 312.651 387.996 309.084L405.496 302.598L409.732 302.924C414.672 303.305 418.635 305.614 420.184 309.012L421.28 311.419L413.604 319.578C404.711 329.032 401.6 333.339 396.687 343C392.07 352.079 388.48 363.21 386.983 373.085L385.787 380.976L382.705 384.867C377.466 391.482 369.445 393.334 360.181 390.065C357.816 389.231 347.545 383.539 337.357 377.417C320.933 367.547 295.826 354.5 293.257 354.5C292.74 354.5 291.816 353.399 291.203 352.054L290.088 349.608L291.827 347.46C292.858 346.188 299.663 342.971 308.531 339.564C316.762 336.402 334.071 329.71 346.996 324.692ZM427.496 262.966C411.429 266.521 398.258 269.794 390.996 272.037C388.521 272.801 379.521 275.498 370.996 278.03C362.471 280.562 345.371 285.953 332.996 290.011C292.028 303.443 272.073 309.048 247.996 313.886C216.629 320.19 197.118 322.437 168.496 323.04C133.97 323.767 127.231 324.229 118.582 326.46C105.561 329.82 97.739 335.561 93.354 344.979L91.016 350L91.006 356.282C90.989 366.857 94.633 372.343 103.19 374.63L107.884 375.885L117.19 372.725C134.249 366.933 151.388 363.699 176.496 361.537C215.919 358.142 230.032 355.934 260.185 348.448C279.227 343.72 291.741 339.579 324.996 327.004C362.057 312.99 387.569 304.267 412.496 297.088C439.708 289.25 445.35 288.152 428.996 293.876C422.121 296.282 415.146 298.816 413.496 299.506L410.496 300.761L413.74 301.657C415.524 302.15 418.578 304.148 420.527 306.097L424.07 309.641L430.262 305.04C438.117 299.203 453.746 291.599 465.996 287.654C474.614 284.879 490.379 281.949 500.375 281.265L504.254 281L489.875 273.824C472.889 265.346 467.351 263.09 458.479 261.032C449.235 258.888 444.624 259.176 427.496 262.966ZM547.996 244.267C554.871 242.045 563.646 239.665 567.496 238.976C579.607 236.809 589.864 238.64 599.21 244.638C605.119 248.429 617.068 261.149 616.387 262.923C616.06 263.777 612.851 264.45 607.014 264.891C594.686 265.822 584.583 268.695 569.996 275.419C550.761 284.285 546.163 285.173 528.091 283.509L515.686 282.368L509.327 279.822C505.829 278.421 499.261 274.789 494.732 271.749C490.202 268.709 481.592 263.81 475.598 260.861C469.604 257.912 465.329 255.492 466.098 255.482C466.867 255.472 471.996 254.834 477.496 254.065C482.996 253.295 493.571 252.161 500.996 251.545C530.896 249.063 535.227 248.392 547.996 244.267Z" />
<g class="detail-region" data-region="shoulders-front" tabindex="0" role="button">
<path id="shoulders-front" transform="translate(392.03,287.32) scale(1)" d="M132.506 3.30171C131.847 0.78371 125.523 -0.0932659 108.748 0.00773407L94.7483 0.0907114L84.2043 2.68873C59.9613 8.66073 43.6283 17.3367 27.4613 32.8287C2.74729 56.5117 -5.65173 91.5557 3.75527 131.74C13.7573 174.465 41.1003 231.127 72.1273 273.424C105.098 318.371 136.441 348.648 197.052 394.101C232.122 420.401 239.85 426.84 256.143 443.338C269.643 457.007 277.563 466.763 285.456 479.445C287.817 483.239 290.085 486.361 290.498 486.383C290.911 486.406 291.248 484.203 291.248 481.489C291.248 479.468 291.409 477.698 291.697 476.228L293.068 460.141L293.775 448.533L294.748 422.694C294.837 406.354 294.988 396.736 294.248 384.21V372.484C294.149 360.442 293.934 353.765 292.871 343.041C292.83 342.658 292.791 342.264 292.752 341.86C292.562 339.855 292.402 337.612 292.288 335.424L292.227 334.569C291.625 326.223 291.273 321.334 290.286 313.424L289.855 311.174C289.618 309.937 288.944 304.908 288.357 300.001L287.291 291.077L285.775 278.924L283.5 267.041L281.224 255.158L277.356 236.597C276.726 234.261 276.092 231.532 275.566 228.924C273.702 220.825 272.645 216.299 270.445 208.424L267.346 198.582C266.947 197.313 266.59 196.152 266.273 195.089C263.112 184.858 261.098 178.872 258.023 170.484L257.665 169.508L255.859 164.593C254.542 161.008 253.649 158.56 253.102 156.832C250.035 148.402 247.911 143.392 245.3 138.031C244.906 137.28 244.478 136.414 244.008 135.424L243.92 135.24L243.841 135.072L243.781 134.946L243.68 134.731C243.526 134.402 243.368 134.061 243.204 133.708C242.362 131.885 241.646 130.302 241.043 128.924C240.39 127.429 239.871 126.174 239.471 125.112C236.528 118.158 234.105 113.579 229.933 106.674C228.274 104.018 226.89 101.776 225.752 99.8789C225.293 99.1132 224.874 98.4037 224.493 97.7458C219.23 88.8808 215.719 83.6056 209.617 75.0822C209.196 74.5312 208.752 73.9392 208.28 73.3047L193.52 54.5267L186.773 46.9877C178.512 38.5465 173.509 34.0873 164.122 26.4237C164.021 26.3414 163.92 26.2581 163.817 26.1737C162.787 25.3247 161.883 24.5668 161.098 23.8853C154.53 18.4282 150.281 15.3179 143.547 10.7841C138.9 8.56297 132.876 4.7134 132.506 3.30171Z" /></g>
<g class="detail-region" data-region="shoulders-mid" tabindex="0" role="button">
<path id="shoulders-mid" transform="translate(534.19,271.55) scale(1)" d="M65.079 0.87212C57.07 2.22412 49.81 4.67612 38.076 9.99212C24.424 16.1771 19.337 17.6341 8.37396 18.5011L0 19.1631L2.87396 20.6311C5.54844 21.9973 7.38262 23.3473 8.37396 24.6782C13.5204 27.6434 17.4014 30.1086 24.687 35.8021C26.4126 37.1333 27.8661 38.307 29.0699 39.3491C38.4331 47.0259 43.0983 51.5165 50.685 59.9291C51.2214 60.4977 51.7222 61.0399 52.1877 61.5566C58.0458 67.9197 61.7523 72.2045 67.9288 80.3491C69.443 82.2145 71.38 84.8219 73.698 88.1211L76.077 91.5076C80.8296 98.0141 83.3309 101.69 87.0772 108.349C88.6638 110.636 90.5786 113.835 92.1978 116.849C97.9091 126.035 100.966 131.385 105.411 142.32C107.425 146.153 109.646 151.024 110.346 153.145C114.46 160.737 116.727 166.122 120.683 178.219C121.577 180.613 122.354 182.935 122.917 184.849C125.672 191.054 127.32 195.594 130.4 206.349C131.78 210.396 133.303 215.712 134.1 219.349C136.145 225.913 137.347 230.173 139.547 239.349C140.615 243.222 141.832 248.88 142.5 253.022C144.4 259.982 145.439 264.293 147.126 273.349C148.216 277.865 149.499 285.87 149.899 290.627C151.395 298.238 152.103 302.794 153.333 311.349C153.983 315.288 154.599 320.596 154.835 324.349C155.511 328.786 155.978 333.492 156.757 344.342C157.06 346.743 157.31 350.201 157.416 353.853C158.34 364.697 158.834 370.796 159.399 381.849C159.757 384.874 160.095 390.356 160.149 394.032L160.248 400.714L159.748 413.349L159.695 426.102C159.68 429.744 159.599 432.646 159.448 434.849L158.748 451.405L158.57 463.269L158.391 475.134L157.295 490.611L155.98 502.299L154.665 513.987L160.824 526.668C167.701 540.829 172.193 546.676 178.566 549.761C183.83 552.309 186.551 552.353 191.748 549.973C196.424 547.831 199.394 545.345 225.886 521.385C276.017 476.047 295.429 452.786 312.705 417.349C350.528 339.769 351.255 252.093 314.75 170.763C293.043 122.403 259.753 81.7351 216.211 50.3831C184.976 27.8941 137.684 7.5991 101.748 1.2621C93.277 -0.230895 72.903 -0.44788 65.079 0.87212Z" /></g>
</svg>
