<svg viewBox="0 0 1425 1006" xmlns="http://www.w3.org/2000/svg">
  <path id="outline" class="detail-outline" d="M490.908 5.25C490.931 17.597 495.93 72.815 497.54 78.5L498.106 80.5L494.315 76.675C486.832 69.125 476.573 66.531 469.225 70.331C464.49 72.78 459.37 79.399 457.275 85.782L455.398 91.5L455.461 105.5L455.523 119.5L458.263 134C470.32 197.818 487.304 235.248 506.864 241.108C510.589 242.224 520.124 241.954 522.949 240.653L524.501 239.939L526.272 251.219C529.756 273.415 535.209 293.777 540.273 303.5L543.398 309.5V344.5C543.398 422.049 534.676 454.27 505.403 484.867C492.62 498.229 477.925 508.547 449.398 524.192C421.219 539.645 325.907 587.866 283.398 608.176C241.317 628.282 234.353 630.573 206.369 633.521C177.784 636.532 155.265 642.75 132.398 653.947C99.4422 670.083 68.8692 697.831 47.0282 731.427C22.4352 769.257 5.53223 822.817 0.929229 877.5C-0.324771 892.389 -0.30577 928.638 0.96323 944C1.48623 950.325 2.20023 964.397 2.55123 975.271C2.90223 986.146 3.40423 994.827 3.66723 994.564C3.93123 994.3 4.72723 989.678 5.43623 984.292L6.72523 974.5L5.22023 945.5C2.08423 885.053 6.53023 843.883 21.0222 799.199C37.2122 749.277 58.3232 715.999 93.5232 684.91C126.846 655.479 169.492 639.492 220.398 637.347C232.859 636.822 269.412 638.813 280.222 640.606L283.398 641.133L281.898 640.178C279.632 638.736 246.106 634.312 234.898 633.977C233.523 633.936 237.046 632.357 242.726 630.468C248.406 628.58 256.506 625.418 260.726 623.441C269.28 619.434 268.708 619.422 283.398 623.918C304.894 630.497 317.929 632.587 404.898 643.406C468.496 651.317 481.375 652.749 517.898 655.974C561.23 659.801 585.914 662.801 612.66 667.493C641.507 672.553 654.359 678.559 681.409 699.621C691.411 707.409 695.898 710.411 695.898 709.315C695.898 708.07 680.008 662.415 673.339 644.499C666.26 625.481 663.995 619.97 663.937 621.626C663.875 623.428 684.34 683.392 689.236 695.75C691.687 701.938 693.401 706.987 693.045 706.972C692.689 706.957 688.123 703.34 682.898 698.935C650.856 671.92 642.029 668.269 591.296 661.057C579.802 659.422 563.873 657.349 555.898 656.448C547.923 655.548 541.272 654.69 541.117 654.542C540.963 654.393 543.655 653.718 547.1 653.04C559.902 650.521 575.174 642.954 583.939 634.785C590.626 628.553 597.258 619.49 601.057 611.392C606.686 599.394 608.17 591.898 608.16 575.5L608.152 561.5L605.937 548.5C602.754 529.82 599.466 516.042 573.858 414.076C561.23 363.793 550.898 322.461 550.898 322.227C550.898 321.993 552.934 324.511 555.423 327.821C564.579 340.001 582.149 359.056 603.998 380.5C643.832 419.597 658.337 429.846 682.623 436.058C694.274 439.037 710.387 440.157 723.898 438.925C749.71 436.573 766.814 429.328 787.398 412.029C808.869 393.984 853.536 348.88 866.859 331.789C869.307 328.649 871.381 326.174 871.468 326.289C871.554 326.405 861.563 366.775 849.264 416C824.762 514.067 819.659 536.456 817.286 556.29C813.861 584.918 818.021 606.911 829.808 622.486C841.722 638.228 855.83 647.496 875.398 652.436L884.398 654.707L878.398 655.429C823.216 662.064 811.315 663.823 796.898 667.474C777.853 672.296 765.247 679.237 746.898 695.003C736.257 704.147 731.898 707.47 731.898 706.44C731.898 706.056 734.325 699.388 737.291 691.621C742.694 677.475 760.925 623.896 760.868 622.332C760.755 619.26 749.926 648.028 737.654 684C733.244 696.925 729.405 708.108 729.121 708.851L728.606 710.202L731.556 708.677C733.178 707.838 738.531 703.951 743.452 700.04C772.804 676.708 785.11 671.373 822.898 665.599C843.593 662.437 875.048 658.9 916.898 655.03C934.773 653.376 965.148 650.013 984.398 647.556C1065.96 637.145 1103.01 630.198 1135.12 619.296L1148.83 614.638L1157.62 618.75C1169.25 624.2 1182.15 629.417 1189.46 631.637L1195.4 633.439L1183.9 634.147C1171.96 634.882 1147.1 638.53 1143.48 640.079L1141.4 640.967L1144.9 640.472C1157.2 638.729 1168.89 637.857 1186.9 637.34L1207.4 636.751L1221.1 638.354C1265.61 643.562 1298.09 656.926 1328.4 682.504C1368.75 716.558 1395.92 764.04 1411.37 827.5C1420.38 864.497 1422.59 902.975 1418.86 958C1417.95 971.48 1418.29 978.688 1420.47 991.852C1421.49 998.017 1422.14 994.206 1422 982.799C1421.92 976.584 1422.54 962.725 1423.37 952C1427.78 895.15 1423.24 847.016 1409.32 802.83C1396.27 761.435 1380.97 732.622 1357.57 705.408C1321.35 663.295 1280.9 641.361 1226.78 634.485C1206.41 631.897 1194.95 629.472 1184.4 625.511C1174.36 621.744 1149.77 610.761 1133.9 602.96C1129.22 600.661 1118.42 595.501 1109.9 591.493C1073.66 574.454 997.714 536.255 970.898 521.577C924.675 496.278 900.444 469.867 890.549 434C883.196 407.345 879.155 356.256 881.729 322.499L882.797 308.499L885.742 301.999C890.852 290.719 895.324 273.324 899.961 246.691L901.147 239.882L902.772 240.625C905.703 241.964 915.188 242.23 919.027 241.079C923.342 239.787 932.655 231.667 936.901 225.495C947.289 210.397 956.967 182.97 964.34 147.733C968.908 125.901 970.227 114.261 969.718 100.251L969.292 88.5L966.548 82.527C963.229 75.302 961.6 73.407 956.398 70.724C948.509 66.654 937.43 69.213 930.942 76.603L927.898 80.07V77.743C927.898 76.464 928.563 70.261 929.376 63.958C931.579 46.889 933.886 18.682 933.892 8.75L933.898 0H932.026H930.155L929.462 13.25C928.485 31.948 923.464 80.45 920.378 101L919.853 104.5L921.281 102.688C922.067 101.691 923.493 97.982 924.45 94.447L926.19 88.018L931.558 82.087C942.454 70.046 955.324 69.968 961.336 81.906C967.965 95.07 967.416 113.464 959.289 150.5C945.372 213.92 926.294 244.309 905.047 236.902C903.315 236.298 901.898 235.575 901.898 235.295C901.898 235.015 902.763 227.972 903.821 219.643C906.683 197.094 907.017 193 905.99 193C904.882 193 904.069 196.762 899.941 221C894.812 251.118 889.996 275.437 887.358 284.54C879.5 311.657 866.082 329.754 820.234 375.073C786.499 408.419 776.671 416.577 760.398 424.746C741.984 433.991 717.177 437.216 692.78 433.538C670.001 430.105 655.406 422.111 629.195 398.715C613.969 385.123 577.96 348.319 567.182 335.331C542.081 305.085 537.79 294.213 527.976 236C523.336 208.473 520.891 195.804 519.887 194.087L518.959 192.5L518.928 197.043C518.899 201.461 522.475 229.793 523.493 233.198C524.167 235.457 519.209 238.007 514.198 237.978C497.034 237.879 481.66 213.068 469.907 166.5C463.045 139.31 459.554 118.853 459.497 105.5L459.451 94.5L461.635 87.475C465.799 74.082 474.295 69.905 485.758 75.618C492.584 79.019 498.137 86.299 500.963 95.554C505.516 110.458 506.005 105.739 502.437 81.333C499.041 58.102 496.965 36.536 496.218 16.75L495.586 0H493.242H490.898L490.908 5.25ZM686.898 225.521C686.898 226.358 688.135 227.572 689.648 228.218C691.161 228.865 694.483 230.88 697.032 232.697C699.581 234.514 702.168 236 702.782 236C705.208 236 703.682 232.962 699.648 229.762C692.903 224.41 686.898 222.413 686.898 225.521ZM731.566 225.914C726.042 228.73 720.898 232.895 720.898 234.551C720.898 236.649 722.769 236.335 726.304 233.644C728.006 232.349 731.311 230.314 733.648 229.124C735.985 227.933 737.898 226.293 737.898 225.48C737.898 223.492 736.072 223.617 731.566 225.914ZM681.898 304.001C666.077 305.521 656.754 307.211 656.199 308.657C655.898 309.443 655.888 310.323 656.177 310.613C656.467 310.902 662.935 310.365 670.551 309.419L684.398 307.698L713.898 307.74L743.398 307.782L754.898 309.383C769.23 311.378 768.898 311.385 768.898 309.115V307.23L761.148 306.105C740.459 303.101 701.904 302.078 681.898 304.001ZM875.453 324.75C875.086 326.813 873.202 334.8 871.266 342.5C869.329 350.2 861.735 381.025 854.389 411C847.042 440.975 838.1 477.425 834.517 492C820.203 550.225 817.129 576.955 822.383 597.5C831.324 632.462 865.806 654.39 907.398 651.564C954.819 648.342 1059.9 634.232 1097.22 626.075C1112.49 622.737 1131.96 617.185 1138.9 614.19L1143.4 612.247L1130.4 606.075C1123.25 602.681 1112 597.346 1105.4 594.22C1084.46 584.303 993.024 538.409 976.848 529.698C958.369 519.746 941.781 509.357 931.714 501.429C916.353 489.331 902.054 472.355 894.476 457.218C882.921 434.136 876.456 393.624 876.53 344.75C876.549 331.688 876.465 321 876.343 321C876.221 321 875.82 322.688 875.453 324.75ZM548.592 334.5C549.293 347.499 547.32 384.21 544.849 404.147C542.885 420.002 538.783 438.144 534.983 447.785C524.238 475.046 504.261 496.442 470.102 517.278C457.053 525.238 448.641 529.74 395.398 557.266C372.137 569.292 287.194 611.558 278.898 615.234L274.398 617.229L279.898 619.182C294.186 624.258 320.963 629.126 358.398 633.455C370.498 634.854 390.748 637.347 403.398 638.996C436.173 643.266 473.801 647.583 499.898 650.066C533.324 653.247 546.129 651.826 564.711 642.872L575.023 637.903L583.211 629.668L591.398 621.433L595.662 613.321C598.007 608.86 600.872 601.675 602.029 597.355L604.132 589.5L604.167 576C604.228 552.655 602.787 545.75 572.043 422C560.497 375.525 550.376 334.575 549.552 331L548.053 324.5L548.592 334.5ZM1110.9 669.043C1082.52 670.739 1031.17 676.647 1012.4 680.376C1002.13 682.417 1008.17 682.254 1026.21 680.004C1034.9 678.92 1045.07 677.969 1048.8 677.893L1055.59 677.753L1058.24 679.486C1059.69 680.439 1065.94 687.132 1072.11 694.359C1087.51 712.37 1112.41 737.196 1130.37 752.452C1138.61 759.446 1146.26 765.636 1147.37 766.207C1149.84 767.469 1150.25 767.857 1134.97 754.446C1118.34 739.849 1093.08 714.36 1080.03 699C1074.18 692.125 1067.26 684.293 1064.64 681.595C1062.02 678.898 1059.99 676.6 1060.14 676.49C1060.28 676.38 1066.02 675.772 1072.9 675.138C1079.77 674.504 1091.47 673.33 1098.9 672.529C1106.32 671.727 1118.59 670.763 1126.17 670.386C1133.74 670.009 1139.81 669.598 1139.67 669.472C1138.67 668.616 1122.16 668.37 1110.9 669.043ZM296.398 670.069C312.709 671.225 364.321 676.245 364.89 676.73C365.16 676.961 364.582 677.598 363.604 678.145C362.626 678.692 358.403 683.27 354.218 688.32C334.343 712.299 317.012 730.045 283.88 760.342L276.398 767.184L281.898 763.019C301.441 748.219 335.441 715.231 353.83 693.227C359.471 686.477 365.372 680.289 366.943 679.477C370.769 677.498 376.891 677.614 397.637 680.056C420.969 682.803 423.438 682.132 402.398 678.762C368.645 673.357 322.142 668.948 300.961 669.145L285.398 669.289L296.398 670.069ZM487.898 691.193C545.768 701.245 580.695 710.796 606.398 723.597C623.349 732.039 635.779 740.95 649.501 754.5C662.982 767.811 670.288 777.582 676.956 791.216C690.057 818.003 692.604 841.197 691.538 924C691.201 950.125 690.705 973.975 690.436 977L689.946 982.5L690.832 979C692.851 971.025 694.077 949.252 694.602 912C695.599 841.427 692.393 815.921 679.207 789.5C668.326 767.696 649.846 747.661 625.898 731.701C602.453 716.076 571.722 704.845 529.898 696.615C513.884 693.464 490.118 689.965 485.768 690.119L482.398 690.238L487.898 691.193ZM918.901 692.588C851.093 703.031 812.112 718.307 778.893 747.455C764.007 760.517 753.334 774.065 745.288 790.113C738.206 804.237 735.109 815.264 732.181 836.784L730.45 849.5L730.448 897C730.447 942.182 731.536 967.756 733.92 978.5L734.807 982.5L734.352 976C734.101 972.425 733.612 948.8 733.265 923.5C732.179 844.357 735.009 818.101 747.423 792.169C753.951 778.534 760.951 768.972 773.898 756.007C788.282 741.603 800.235 733.082 819.398 723.573C846.271 710.238 875.487 702.192 935.398 691.629L943.398 690.218L938.898 690.21C936.423 690.205 927.424 691.275 918.901 692.588ZM191.413 861.681C186.173 868.54 178.268 885.178 175.997 894.125C168.403 924.051 171.884 948.887 190.166 995.226L194.398 1005.95L196.648 1005.98C197.886 1005.99 198.898 1005.78 198.898 1005.52C198.898 1005.25 196.702 999.513 194.019 992.766C187.751 977.011 181.541 957.802 179.222 947L177.398 938.5V921V903.5L179.144 896.322C182.497 882.532 188.464 868.041 193.611 861.184C194.98 859.361 195.874 857.642 195.597 857.366C195.321 857.089 193.438 859.031 191.413 861.681ZM1225.72 860C1232.59 870.645 1239.12 887.602 1241.41 900.699C1245.91 926.559 1241.37 953.668 1226.29 990.781C1223.33 998.085 1220.9 1004.53 1220.9 1005.1C1220.9 1005.67 1221.85 1006 1223.02 1005.82L1225.15 1005.5L1230.08 993.5C1239.68 970.115 1245.08 950.838 1246.99 933.067L1248.12 922.622L1246.9 911.561C1245.54 899.194 1242.24 886.587 1237.94 877.322C1234.71 870.374 1228.04 860.167 1225.28 857.96L1223.46 856.5L1225.72 860Z" />

  <g class="detail-region" data-region="trapezius-upper" tabindex="0" role="button">
    <path id="trapezius-upper" transform="translate(275.81,319.48) scale(1)" d="M601.055 3.75C600.688 5.813 598.804 13.8 596.868 21.5C594.931 29.2 587.337 60.025 579.991 90C572.644 119.975 563.702 156.425 560.119 171C545.805 229.225 542.731 255.955 547.985 276.5C556.926 311.462 591.408 333.39 633 330.564C680.421 327.342 785.5 313.232 822.82 305.075C838.094 301.737 857.561 296.185 864.5 293.19L869 291.247L856 285.075C848.85 281.681 837.6 276.346 831 273.22C810.062 263.303 718.626 217.409 702.45 208.698C683.971 198.746 667.383 188.357 657.316 180.429C641.955 168.331 627.656 151.355 620.078 136.218C608.523 113.136 602.058 72.624 602.132 23.75C602.151 10.688 602.067 0 601.945 0C601.823 0 601.422 1.688 601.055 3.75Z M274.194 13.5C274.895 26.499 272.922 63.21 270.451 83.147C268.487 99.002 264.385 117.144 260.585 126.785C249.84 154.046 229.863 175.442 195.704 196.278C182.655 204.238 174.243 208.74 121 236.266C97.739 248.292 12.796 290.558 4.5 294.234L0 296.229L5.5 298.182C19.788 303.258 46.565 308.126 84 312.455C96.1 313.854 116.35 316.347 129 317.996C161.775 322.266 199.403 326.583 225.5 329.066C258.926 332.247 271.731 330.826 290.313 321.872L300.625 316.903L308.813 308.668L317 300.433L321.264 292.321C323.609 287.86 326.474 280.675 327.631 276.355L329.734 268.5L329.769 255C329.83 231.655 328.389 224.75 297.645 101C286.099 54.525 275.978 13.575 275.154 10L273.655 3.5L274.194 13.5Z" />
  </g>
</svg>
