<svg viewBox="0 0 740 560" xmlns="http://www.w3.org/2000/svg">
  <path id="outline" class="detail-outline" d="M204.416 304.926C204.86 305.2 205.139 306.601 205.277 308.85C204.917 307.243 204.625 305.913 204.416 304.926Z M58.3032 11.3607C59.6878 7.8921 60.9662 4.35908 62.1366 0.774653H57.0721C54.5881 8.29056 51.3343 17.5402 47.0222 29.4257C23.9912 92.9017 12.4522 139.351 5.04021 198.426C0.692208 233.079 0.0171991 245.328 0.000199131 289.926C-0.0188009 340.927 1.31022 358.737 8.99422 410.426C16.7392 462.534 21.9112 486.682 32.9802 522.426C38.8322 541.324 48.9392 577.435 51.9232 590.107C55.6792 606.059 57.3622 617.107 58.5162 633.387L59.5772 648.349L58.5262 665.176C56.8832 691.47 54.2092 706.73 46.3032 734.926C32.9862 782.418 26.8832 816.529 25.7722 849.676L25.1942 866.926H29.4842V856.898C29.4842 829.332 35.6712 791.411 47.3442 747.426C60.1122 699.316 62.3872 686.608 63.1862 658.926C64.0312 629.643 61.5852 610.49 52.6202 576.176C50.4282 567.788 48.8182 560.926 49.0432 560.926C49.2672 560.926 50.5872 563.063 51.9762 565.676C62.7172 585.873 73.3442 599.849 87.7762 612.758L92.5682 617.044L89.1702 621.735C83.9552 628.935 81.9822 635.18 82.0002 644.426L82.0152 652.426L84.9632 658.281C88.4952 665.296 94.2222 670.474 100.517 672.343C109.207 674.924 114.909 671.944 116.068 664.215C116.834 659.105 117.303 659.394 120.468 666.926C122.042 670.67 122.894 674.98 123.138 680.426C123.866 696.684 126.119 702.585 133.763 708.259C139.985 712.877 146.018 713.863 155.551 711.818C161.235 710.599 166.892 706.238 170.626 700.196L172.812 696.66L174.223 671.305L178.758 661.426L179.508 664.741C180.44 668.861 183.817 672.565 187.237 673.219C191.24 673.984 198.648 671.334 203.059 667.558C205.252 665.681 208.382 661.508 210.015 658.285L212.984 652.426L212.946 630.426L210.677 625.463C209.429 622.733 207.709 619.727 206.855 618.784L205.303 617.069L211.98 609.247C221.558 598.028 226.72 589.763 230.917 578.926C232.941 573.701 234.994 568.526 235.48 567.426L236.364 565.426L235.941 569.926C232.079 611.007 225.991 641.653 214.985 675.426C211.938 684.776 208.696 696.476 207.781 701.426C205.482 713.853 205.478 741.011 207.772 754.426C212.984 784.903 217.484 827.676 217.484 846.746C217.484 852.741 217.77 859.735 218.12 862.286L218.756 866.926H222.484L222.483 857.676C222.481 839.522 218.159 791.416 214.374 767.426C213.246 760.276 211.919 751.726 211.424 748.426C209.968 738.715 210.308 712.208 212.016 702.307C212.858 697.422 215.508 687.576 217.903 680.426C224.073 662.009 227.871 647.778 231.379 629.926C238.685 592.756 240.394 578.534 242.997 533.201C244.549 506.166 245.875 496.61 253.861 454.926C262.678 408.898 269.465 366.715 273.971 329.926C278.333 294.31 281.134 230.914 279.715 199.926C279.224 189.201 278.928 180.282 279.056 180.107C279.184 179.931 282.047 180.33 285.417 180.993C291.203 182.131 301.103 181.867 304.549 180.483L306.115 179.854V217.64C306.114 274.038 308.685 308.47 317.074 364.426C321.112 391.359 333.656 460.868 337.466 477.426C340.753 491.706 342.363 505.014 343.457 526.926C346.749 592.894 353.242 632.117 369.281 682.926C375.141 701.49 375.998 707.133 375.883 726.426L375.782 743.426L372.68 762.926C367.518 795.382 362.901 845.193 363.643 860.426L363.984 867.426H366.984L368.173 848.926C370.296 815.887 372.514 793.894 376.24 768.926L379.897 744.426L379.94 724.426C379.99 701.696 379.795 700.518 371.833 675.521C360.694 640.548 353.499 604.686 351.049 571.926L350.487 564.426L352.819 571.426C357.48 585.418 365.648 599.673 375.165 610.426C378.085 613.726 380.477 616.772 380.48 617.196C380.482 617.619 379.352 619.759 377.969 621.95C374.472 627.49 372.223 637.848 373.004 644.816C373.766 651.617 378.178 661.206 382.674 665.831C386.345 669.607 391.91 672.392 397.984 673.493C400.184 673.892 404.696 676.145 408.01 678.5L414.035 682.782L416.192 698.886L418.815 702.851C422.519 708.448 429.112 712.047 436.774 712.656C444.39 713.261 449.891 711.863 455.294 707.949C461.449 703.49 462.73 700.207 463.599 686.66C464.37 674.642 467.43 662.046 470.12 659.813L471.484 658.681V661.858C471.484 663.606 472.395 667.036 473.509 669.481L475.534 673.926H479.383C491.293 673.926 501.612 664.486 504.404 651.038L505.522 645.65L504.453 639.754C503.176 632.71 500.283 625.663 496.791 621.084L494.24 617.74L504.736 607.371C516.12 596.124 526.594 581.553 535.06 565.187C537.689 560.105 539.947 556.056 540.08 556.188C540.429 556.537 537.793 566.457 535.499 573.426C530.769 587.801 526.038 611.311 524.533 627.926C521.288 663.741 524.785 695.78 536.321 735.926C550.349 784.747 557.4 825.017 557.463 856.676L557.484 866.926H561.776L561.169 847.676C560.493 826.25 559.929 821.518 554.872 794.926C551.129 775.242 544.961 750.026 538.482 727.926C530.916 702.119 528.511 684.559 528.368 654.07C528.257 630.285 529.389 617.12 532.982 600.402C535.41 589.106 536.684 584.289 542.764 563.426C544.687 556.826 547.476 546.701 548.961 540.926C550.446 535.151 553.663 523.54 556.111 515.123C565.886 481.507 578.05 421.483 581.887 387.926C588.7 328.352 589.269 266.239 583.483 213.926C578.728 170.941 575.303 151.367 565.986 113.926C558.289 82.9977 549.953 57.6777 535.531 21.4257C532.36 13.454 529.838 6.72075 527.754 0.551646H523.091C525.232 6.80516 527.626 13.192 530.013 18.9257C544.813 54.4677 558.81 98.2477 565.836 130.97C583.22 211.937 587.583 287.498 579.575 368.926C577.13 393.79 576.173 401.542 575.379 402.926C574.804 403.928 574.663 403.431 574.953 401.426C576.145 393.213 576.386 367.879 575.467 347.368C571.963 269.099 560.318 213.989 532.821 145.54C520.027 113.692 502.641 79.7597 472.814 28.4257C468.979 21.8257 463.91 12.9897 461.55 8.78965L457.258 1.15365L452.621 0.551646C445.933 -0.315354 134.663 -0.0993471 130.484 0.774653L126.984 1.50765L123.153 8.46665C118.937 16.1267 107.381 37.4957 95.3272 59.9257C54.7622 135.404 34.3352 188.088 21.8502 249.426C15.3092 281.564 12.7492 306.203 11.0952 352.926L9.94521 385.426L8.16722 370.426C5.09622 344.53 4.46419 335.21 3.82719 306.426C2.27719 236.467 11.2082 161.981 28.5882 99.9257C35.4272 75.5057 49.8112 32.6327 58.3032 11.3607ZM133.961 4.96365C133.684 5.41065 138.751 12.2226 145.221 20.1016C151.691 27.9806 159.009 37.1187 161.484 40.4107C163.959 43.7017 172.631 54.7267 180.756 64.9097C188.881 75.0937 198.576 87.2507 202.301 91.9257C230.728 127.601 255.236 157.416 260.442 162.658C271.732 174.025 286.656 179.179 300.122 176.361C310.208 174.251 316.591 170.446 328.734 157.164C329.875 155.916 331.066 154.585 332.317 153.164C335.124 149.972 338.227 146.326 341.715 142.153C367.796 110.948 397.364 73.9507 423.015 40.4257C437.262 21.8057 445.15 11.8836 448.555 8.29765L451.526 5.16966L394.755 4.57966C313.635 3.73566 134.556 3.99965 133.961 4.96365ZM120.143 25.8807C115.38 35.7647 111.484 44.0987 111.484 44.4017C111.484 44.7037 109.02 50.8037 106.008 57.9567C91.8222 91.6517 84.0452 118.402 79.8202 148.038L78.0532 160.426L78.0652 187.926C78.0772 214.996 78.5932 222.579 82.5932 254.426C85.7762 279.764 92.9792 313.642 103.644 353.426C106.445 363.876 110.438 378.951 112.517 386.926C114.596 394.901 120.678 417.176 126.031 436.426C141.644 492.565 143.43 501.901 144.205 531.426L144.627 547.478L144.704 550.426L143.03 561.705C139.649 584.491 132.652 597.305 118.249 607.085L112.274 611.143L107.091 622.426L106.666 631.16C106.391 636.807 105.877 639.669 105.21 639.257C103.064 637.93 105.404 647.289 109.152 655.02C111.259 659.367 113.269 662.925 113.617 662.925C115.49 662.927 115.009 657.131 112.723 652.137L110.191 646.605L111.282 640.736C115.004 620.722 132.831 606.889 154.823 606.948L162.984 606.97L166.984 608.806C172.48 611.329 181.392 620.31 184.899 626.859L187.808 632.292L188.753 647.018L185.118 652.295C182.761 655.717 181.484 658.718 181.484 660.833C181.484 666.073 183.576 664.17 188.484 654.463L192.984 645.563V618.426L191.217 614.926C190.245 613.001 186.797 608.408 183.555 604.719C177.078 597.35 174.624 591.94 171.784 578.772L169.984 570.426L170.031 549.164L170.036 546.926C170.092 521.506 171.04 510.445 175.605 481.926C178.611 463.154 180.16 455.597 188.055 421.185C198.391 376.136 201.716 354.023 201.874 329.272C201.935 319.838 204.08 304.719 204.416 304.926C204.625 305.913 204.917 307.243 205.277 308.85C205.916 319.219 203.588 347.596 200.912 366.426C199.339 377.494 193.704 408.414 190.888 421.426C177.688 482.427 172.703 521.284 173.763 554.9L174.315 572.426L176.811 582.055C179.953 594.173 181.236 596.634 189.377 606.145L195.984 613.864L202.729 613.926L207.599 608.676C220.037 595.268 228.571 578.719 234.026 557.426L237.613 543.426L238.645 527.926C240.707 496.928 236.212 447.683 227.553 406.426C225.937 398.726 223.664 387.926 222.502 382.426C221.34 376.926 217.294 359.601 213.511 343.926C210.375 330.929 207.025 316.644 205.277 308.85C205.139 306.601 204.86 305.2 204.416 304.926C202.855 297.531 196.207 270.141 188.055 237.247C181.049 208.973 172.931 176.633 165.976 149.426C163.023 137.876 157.859 117.626 154.501 104.426C151.142 91.2257 146.856 74.8007 144.977 67.9257C143.098 61.0507 138.865 44.9097 135.571 32.0577C132.277 19.2057 129.406 8.51465 129.192 8.29965C128.977 8.08565 124.905 15.9967 120.143 25.8807ZM455.09 9.11265C454.047 12.7116 450.025 28.5057 448.006 36.9257C445.982 45.3677 443.4 55.3127 429.959 106.426C426.971 117.787 423.506 130.894 419.002 147.867C416.043 159.018 412.635 171.837 408.619 186.926C404.442 202.624 399.904 220.189 395.592 237.247C387.352 269.847 379.941 300.596 377.455 312.926C375.737 321.451 373.213 333.151 371.846 338.926C363.011 376.261 351.803 441.07 348.522 473.782C346.971 489.254 347.235 522.472 349.025 536.956C352.629 566.124 360.847 587.268 375.519 605.113L383.483 614.8L387.233 614.248C389.296 613.944 391.434 613.059 391.984 612.281C392.534 611.503 395.388 608.292 398.327 605.146C407.383 595.452 410.775 585.855 412.697 564.491L413.861 551.557L412.656 533.491C410.639 503.271 407.437 485.34 393.98 428.926C391.552 418.751 388.174 404.576 386.472 397.426C380.993 374.412 377.394 353.737 376.983 342.926L377.455 312.926L377.523 340.926C379.517 359.001 387.261 395.08 394.56 420.296C398.834 435.064 407.044 468.878 410.373 485.426C414.908 507.97 417.247 529.153 417.332 547.664C417.389 560.086 416.432 571.306 414.443 580.926L412.272 591.426L408.775 597.426C406.851 600.726 402.849 605.98 399.881 609.102L394.484 614.778V624.279C394.484 638.718 396.146 648.265 400.207 657.149C402.163 661.426 404.106 664.926 404.525 664.926C404.945 664.926 405.762 663.567 406.341 661.906L407.394 658.886L399.302 647.426L400.104 631.343L402.489 626.385C405.935 619.22 414.766 610.844 421.295 608.549L426.605 606.682L442.984 607.583L458.631 614.864L464.436 620.796C471.532 628.048 475.477 635.754 476.205 643.789L476.747 649.764L472.324 656.921L472.983 659.923C473.346 661.575 474.082 662.926 474.618 662.926C475.155 662.926 476.769 660.338 478.206 657.176L480.818 651.426L481.702 632.28L479.556 624.454C476.957 614.982 474.772 611.735 468.093 607.419C452.093 597.08 443.716 579.031 441.879 550.426C441.839 549.811 441.849 549.191 441.86 548.567C441.869 548.023 441.878 547.476 441.855 546.926C441.816 546.028 441.768 545.121 441.719 544.204C441.605 542.069 441.489 539.88 441.488 537.637C441.48 507.469 444.537 490.869 459.939 437.426C473.194 391.432 476.619 379.365 480.408 365.304C485.305 347.131 491.489 323.018 493.055 315.99C495.147 306.601 496.993 297.955 498.614 289.926C502.865 268.877 505.573 252.071 507.133 237.247C507.287 235.788 507.43 234.348 507.561 232.926C508.393 223.945 508.793 205.294 508.75 187.926C508.713 172.89 508.344 158.815 507.637 152.809C503.517 117.814 487.593 71.1147 463.101 22.2087C460.012 16.0397 457.484 10.5536 457.484 10.0176C457.484 8.43265 455.503 7.68365 455.09 9.11265ZM440.827 24.6647C435.894 30.5827 427.41 41.2757 421.974 48.4257C416.537 55.5757 410.451 63.4507 408.449 65.9257C406.447 68.4007 399.017 77.8507 391.937 86.9257C384.858 96.0007 376.797 106.163 374.025 109.508C371.252 112.853 365.384 120.03 360.984 125.457C356.584 130.885 348.282 140.969 342.536 147.867L332.087 160.409C330.583 162.119 329.102 163.731 327.686 165.273C327.241 165.757 326.803 166.234 326.372 166.705C325.444 167.455 324.254 168.469 322.984 169.604C320.234 172.061 316.241 174.976 314.11 176.082L310.236 178.093L310.792 225.76C311.323 271.31 312.115 289.698 314.549 312.926C316.812 334.531 324.702 387.1 329.909 415.271C340.407 472.068 342.913 484.779 343.541 484.391C343.89 484.175 344.477 478.92 344.846 472.712C345.215 466.505 346.595 454.406 347.912 445.826L350.307 430.227L351.688 418.426L352.556 415.426C353.033 413.776 354.601 405.676 356.04 397.426C362.256 361.791 378.83 285.828 388.986 246.426C389.986 242.547 391.501 236.666 393.086 230.516C394.423 225.331 395.808 219.955 396.975 215.426C399.526 205.526 404.71 185.951 408.493 171.926C416.615 141.819 431.643 85.4117 435.136 71.9257C436.489 66.7007 438.742 58.3757 440.143 53.4257C444.242 38.9417 450.438 14.5466 450.103 14.2116C449.933 14.0416 445.759 18.7457 440.827 24.6647ZM481.838 54.1757C491.915 77.9037 494.945 85.6547 498.82 97.6357C509.202 129.725 512.132 146.86 513.148 181.426C514.946 242.572 505.011 295.82 467.905 423.926C453.738 472.833 452.495 477.385 450.427 487.926C443.775 521.831 443.799 554.382 450.494 576.937C453.483 587.009 463.348 601.926 467.02 601.926C467.648 601.926 470.983 604.568 474.429 607.797L480.695 613.668L491.4 614.773L501.281 605.099C514.541 592.117 522.458 581.112 532.128 562.22C544.903 537.26 551.546 518.521 559.884 483.926C565.278 461.546 566.001 457.49 567.908 438.926C571.3 405.892 571.775 394.523 571.187 360.445C570.028 293.149 563.236 248.844 545.387 192.129C532.374 150.778 508.861 98.1747 485.736 58.6757C480.893 50.4027 479.603 48.9137 481.838 54.1757ZM96.6682 65.7277C86.6452 84.4807 67.7812 123.168 60.7722 139.346C43.6932 178.768 31.6122 218.377 23.9942 259.926C17.7522 293.971 15.3752 325.474 15.3162 374.926C15.2502 430.69 18.7192 457.118 32.4552 505.469C38.5492 526.922 42.8952 538.533 51.4932 556.327C61.3992 576.829 70.6142 590.233 83.9472 603.529L95.0802 614.631L105.521 614.264L107.953 610.967C109.291 609.154 113.22 605.757 116.685 603.418C124.257 598.306 126.284 596.188 130.809 588.659C137.847 576.946 141.093 557.009 140.191 531.03C139.122 500.215 137.752 493.644 116 414.926C85.6372 305.045 77.5692 265.409 74.3742 210.426C72.6802 181.287 74.5432 150.765 79.5012 126.426C82.6972 110.732 91.4602 83.8077 100.533 61.8077C102.165 57.8487 103.37 54.4787 103.211 54.3197C103.051 54.1597 100.107 59.2937 96.6682 65.7277ZM236.178 431.671L237.791 441.549C239.411 451.471 240.967 465.124 242.279 480.926L242.984 489.426L245.721 474.426C247.226 466.176 250.062 451.101 252.023 440.926C258.277 408.475 265.304 364.978 268.355 339.825C274.009 293.217 275.461 268.134 275.474 216.875L275.484 178.325L271.234 176.244C268.897 175.1 264.846 172.272 262.234 169.96L253.207 161.426L248.248 155.426C232.018 135.791 192.597 86.4537 151.984 34.9437C135.949 14.6067 133.484 11.6756 133.484 12.9486C133.484 13.6106 135.039 19.6137 136.939 26.2887C150.935 75.4577 161.791 116.792 183.988 205.426C190.875 232.926 197.59 259.476 198.91 264.426C203.317 280.948 207.477 298.291 210.423 312.426C212.028 320.126 215.608 335.58 218.379 346.768C224.571 371.769 233.484 413.725 233.484 417.87L236.178 431.671ZM148.984 610.526C147.884 610.757 144.509 611.445 141.484 612.055C133.383 613.69 127.44 617.1 121.649 623.436L116.497 629.073L114.878 634.642C112.656 642.286 113.5 646.696 118.993 656.151C125.363 667.115 126.453 670.63 127.534 683.699C128.922 700.477 132.274 705.703 143.09 707.948C146.106 708.574 150.466 708.772 152.779 708.388C164.71 706.406 169.484 698.859 169.484 681.982C169.484 673.307 172.435 663.598 176.997 657.268C187.173 643.146 188.044 640.087 184.542 630.779C180.18 619.186 170.075 611.663 157.484 610.636C153.909 610.344 150.084 610.295 148.984 610.526ZM424.541 611.002C411.181 613.365 401.625 624.964 401.537 638.926L401.502 644.426L407.973 653.426C415.988 664.573 417.557 669.136 418.425 683.818C418.88 691.529 419.665 696.477 420.761 698.557C426.956 710.306 445.974 712.768 454.829 702.966C458.726 698.653 459.152 696.96 459.868 682.926C460.448 671.583 462.824 664.115 468.751 655.012L472.984 648.511L472.975 635.426L470.3 630.868C466.419 624.256 459.332 618.188 450.988 614.333L443.686 610.959L436.835 610.499C433.067 610.247 427.535 610.473 424.541 611.002ZM98.7682 617.709C95.8732 618.162 91.8002 623.065 88.6192 629.926L86.0682 635.426L86.0192 651.426L88.3612 655.926C91.1502 661.284 94.9752 665.578 98.6842 667.515C102.248 669.377 110.094 669.384 110.807 667.526C111.103 666.756 109.126 661.47 106.414 655.779L101.484 645.432L101.52 638.929C101.539 635.352 102.207 629.726 103.004 626.426C103.801 623.126 104.46 619.916 104.468 619.293C104.487 617.951 101.869 617.224 98.7682 617.709ZM196.302 617.441C196.019 617.724 196.18 620.312 196.66 623.191C197.654 629.151 196.952 638.215 194.961 645.157C193.578 649.974 187.072 662.444 185.403 663.476C183.438 664.69 184.524 667.991 187.234 669.041L189.984 670.107L193.484 668.903C197.861 667.398 203.978 661.674 206.819 656.426L208.984 652.426V631.426L205.701 625.139C203.565 621.048 201.533 618.515 199.886 617.889L199.797 617.855C197.764 617.081 197.19 616.863 196.791 617.039C196.628 617.111 196.494 617.249 196.302 617.441ZM387.484 617.634C378.827 620.759 374.29 639.397 378.907 652.868C381.405 660.155 388.239 667.038 394.803 668.875L399.616 670.223L402.53 667.308L398.885 659.417C396.879 655.077 394.349 649.029 393.263 645.976L391.286 640.426L391.027 628.973C390.884 622.674 390.366 617.424 389.875 617.306C389.385 617.189 388.309 617.336 387.484 617.634ZM481.912 619.178C482.276 620.414 483.298 624.801 484.185 628.926L485.796 636.426L484.654 644.426C483.878 649.858 482.356 654.772 479.913 659.736C477.935 663.756 476.565 667.693 476.869 668.486C477.591 670.368 483.724 670.371 487.359 668.491C491.115 666.548 497.105 659.77 498.935 655.39C499.757 653.421 500.71 649.698 501.053 647.118L501.675 642.426L499.497 635.964C496.843 628.086 492.945 621.249 490.102 619.484C488.937 618.761 486.469 617.891 484.618 617.55L481.252 616.93L481.912 619.178ZM408.126 664.968C407.795 666.623 406.413 669.088 405.055 670.445L402.587 672.914L404.926 673.501C406.212 673.824 408.523 675.401 410.062 677.007C411.6 678.612 413.274 679.926 413.782 679.926C415.437 679.926 411.477 663.658 409.529 662.454C409.088 662.181 408.457 663.313 408.126 664.968ZM87.1192 678.426C88.6082 685.172 95.8502 704.789 98.7482 709.926C100.455 712.951 106.299 722.074 111.736 730.199C123.915 748.4 131.875 763.883 134.475 774.426C136.985 784.609 139.448 804.737 139.609 816.396L139.734 825.426L140.535 820.926C141.703 814.364 141.647 795.681 140.43 785.9C137.799 764.741 133.115 755.161 105.719 714.893C100.595 707.361 94.5912 695.602 91.3872 686.822C87.9462 677.394 86.0812 673.726 87.1192 678.426ZM203.512 683.08C197.787 702.974 190.873 721.762 186.629 728.957C180.579 739.214 174.731 758.185 171.996 776.426C170.256 788.027 169.866 824.926 171.484 824.926C172.09 824.926 172.484 820.605 172.484 813.964C172.484 800.996 175.55 775.803 178.985 760.542C180.623 753.263 183.402 745.312 187.372 736.542C195.435 718.73 197.744 712.8 200.268 703.426C203.945 689.769 206.755 676.863 206.178 676.286C205.874 675.983 204.674 679.04 203.512 683.08ZM497.566 682.426C495.421 688.894 486.401 707.407 481.974 714.426C480.933 716.076 476.843 721.926 472.883 727.426C457.644 748.597 451.904 759.785 447.4 777.099C444.886 786.76 443.794 805.556 445.05 817.544L445.876 825.426L446.635 814.426C447.802 797.528 450.269 780.89 453.014 771.419C456.835 758.232 458.931 754.477 478.934 724.98C482.084 720.334 486.615 712.643 489.003 707.889C493.903 698.131 500.726 679.331 500.221 676.978C500.038 676.124 498.843 678.576 497.566 682.426ZM380.496 678.176C380.678 682.09 389.768 712.277 393.972 722.926C402.25 743.897 407.154 758.369 408.883 766.926C410.791 776.374 413.452 802.637 413.584 813.316C413.764 828.021 415.109 827.163 415.912 811.831C417.254 786.205 413.519 761.622 405.134 740.898C403.249 736.238 398.786 725.226 395.216 716.426C391.647 707.626 387.06 695.364 385.023 689.176C382.985 682.989 381.131 677.926 380.901 677.926C380.672 677.926 380.489 678.038 380.496 678.176Z M377.523 340.926L377.455 312.926C379.941 300.596 387.352 269.847 395.592 237.247C399.904 220.189 404.442 202.624 408.619 186.926C412.635 171.837 416.043 159.018 419.002 147.867C419.002 147.867 437.366 289.926 455.09 289.926C472.814 289.926 508.75 187.926 508.75 187.926C508.793 205.294 508.393 223.945 507.561 232.926C507.43 234.348 507.287 235.788 507.133 237.247C505.573 252.071 502.865 268.877 498.614 289.926C496.993 297.955 495.147 306.601 493.055 315.99C491.489 323.018 485.305 347.131 480.408 365.304C476.619 379.365 473.194 391.432 459.939 437.426C444.537 490.869 441.48 507.469 441.488 537.637C441.489 539.88 441.605 542.069 441.719 544.204C441.768 545.121 441.816 546.028 441.855 546.926C441.441 548.46 430.966 549.258 423.599 548.316L417.332 547.664C417.247 529.153 414.908 507.97 410.373 485.426C407.044 468.878 398.834 435.064 394.56 420.296C387.261 395.08 379.517 359.001 377.523 340.926Z M82.5932 254.426C78.5932 222.579 78.0772 214.996 78.0652 187.926C78.0652 187.926 127.68 292.188 143.09 289.926C158.5 287.664 165.976 149.426 165.976 149.426C172.931 176.633 181.049 208.973 188.055 237.247C196.207 270.141 202.855 297.531 204.416 304.926C204.08 304.719 201.935 319.838 201.874 329.272C201.716 354.023 198.391 376.136 188.055 421.185C180.16 455.597 178.611 463.154 175.605 481.926C171.04 510.445 170.092 521.506 170.036 546.926C169.604 548.46 158.676 549.258 150.99 548.316L144.627 547.478L144.205 531.426C143.43 501.901 141.644 492.565 126.031 436.426C120.678 417.176 114.596 394.901 112.517 386.926C110.438 378.951 106.445 363.876 103.644 353.426C92.9792 313.642 85.7762 279.764 82.5932 254.426Z M60.7722 139.346C67.7812 123.168 86.6452 84.4807 96.6682 65.7277C100.107 59.2937 103.051 54.1597 103.211 54.3197C103.37 54.4787 102.165 57.8487 100.533 61.8077C91.4602 83.8077 82.6972 110.732 79.5012 126.426C74.5432 150.765 72.6802 181.287 74.3742 210.426C77.5692 265.409 85.6372 305.045 116 414.926C137.752 493.644 139.122 500.215 140.191 531.03C141.093 557.009 137.847 576.946 130.809 588.659C126.284 596.188 124.257 598.306 116.685 603.418C113.22 605.757 109.291 609.154 107.953 610.967L105.521 614.264L95.0802 614.631L83.9472 603.529C70.6142 590.233 61.3992 576.829 51.4932 556.327C42.8952 538.533 38.5492 526.922 32.4552 505.469C18.7192 457.118 15.2502 430.69 15.3162 374.926C15.3752 325.474 17.7522 293.971 23.9942 259.926C31.6122 218.377 43.6932 178.768 60.7722 139.346Z M371.846 338.926C373.213 333.151 375.737 321.451 377.455 312.926L376.983 342.926C377.394 353.737 380.993 374.412 386.472 397.426C388.174 404.576 391.552 418.751 393.98 428.926C407.437 485.34 410.639 503.271 412.656 533.491L413.861 551.557L412.697 564.491C410.775 585.855 407.383 595.452 398.327 605.146C395.388 608.292 392.534 611.503 391.984 612.281C391.434 613.059 389.296 613.944 387.233 614.248L383.483 614.8L375.519 605.113C360.847 587.268 352.629 566.124 349.025 536.956C347.235 522.472 346.971 489.254 348.522 473.782C351.803 441.07 363.011 376.261 371.846 338.926Z M498.82 97.6357C494.945 85.6547 491.915 77.9037 481.838 54.1757C479.603 48.9137 480.893 50.4027 485.736 58.6757C508.861 98.1747 532.374 150.778 545.387 192.129C563.236 248.844 570.028 293.149 571.187 360.445C571.775 394.523 571.3 405.892 567.908 438.926C566.001 457.49 565.278 461.546 559.884 483.926C551.546 518.521 544.903 537.26 532.128 562.22C522.458 581.112 514.541 592.117 501.281 605.099L491.4 614.773L480.695 613.668L474.429 607.797C470.983 604.568 467.648 601.926 467.02 601.926C463.348 601.926 453.483 587.009 450.494 576.937C443.799 554.382 443.775 521.831 450.427 487.926C452.495 477.385 453.738 472.833 467.905 423.926C505.011 295.82 514.946 242.572 513.148 181.426C512.132 146.86 509.202 129.725 498.82 97.6357Z M200.912 366.426C203.588 347.596 205.916 319.219 205.277 308.85C207.025 316.644 210.375 330.929 213.511 343.926C217.294 359.601 221.34 376.926 222.502 382.426C223.664 387.926 225.937 398.726 227.553 406.426C236.212 447.683 240.707 496.928 238.645 527.926L237.613 543.426L234.026 557.426C228.571 578.719 220.037 595.268 207.599 608.676L202.729 613.926L195.984 613.864L189.377 606.145C181.236 596.634 179.953 594.173 176.811 582.055L174.315 572.426L173.763 554.9C172.703 521.284 177.688 482.427 190.888 421.426C193.704 408.414 199.339 377.494 200.912 366.426Z" />

<g class="detail-region" data-region="quads-rectus-intermedius" tabindex="0" role="button">
  <path id="rectusIntermediusLeft" transform="translate(78,148) scale(1)" d="M4.52802 106.559C0.528015 74.7121 0.012 67.1291 0 40.0591C0 40.0591 49.6152 144.321 65.025 142.059C80.4348 139.797 87.911 1.55908 87.911 1.55908C94.8657 28.7662 102.983 61.1067 109.99 89.3801C118.142 122.275 124.789 149.664 126.351 157.059C126.015 156.852 123.87 171.971 123.809 181.405C123.651 206.156 120.326 228.269 109.99 273.318C102.095 307.73 100.546 315.287 97.54 334.059C92.975 362.578 92.027 373.639 91.971 399.059C91.5392 400.593 80.6105 401.391 72.9246 400.45L66.5616 399.611L66.14 383.559C65.365 354.034 63.579 344.698 47.966 288.559C42.613 269.309 36.531 247.034 34.452 239.059C32.373 231.084 28.38 216.009 25.579 205.559C14.914 165.775 7.71102 131.897 4.52802 106.559Z" />
  <path id="rectusIntermediusRight" transform="translate(78,149) scale(1)" d="M299.458 193.059L299.39 165.059C301.875 152.729 309.287 121.981 317.527 89.38C321.838 72.3222 326.376 54.7574 330.554 39.059C334.569 23.9702 337.977 11.1509 340.936 0C340.936 0 359.301 142.059 377.025 142.059C394.749 142.059 430.685 40.059 430.685 40.059C430.727 57.4273 430.328 76.0785 429.496 85.059C429.364 86.4816 429.221 87.9212 429.068 89.38C427.507 104.204 424.799 121.01 420.548 142.059C418.927 150.088 417.082 158.734 414.99 168.123C413.424 175.151 407.24 199.264 402.343 217.437C398.554 231.498 395.129 243.565 381.874 289.559C366.472 343.002 363.415 359.602 363.423 389.77C363.423 392.014 363.54 394.202 363.654 396.337C363.702 397.254 363.751 398.162 363.789 399.059C363.375 400.593 352.9 401.391 345.533 400.45L339.266 399.797C339.181 381.286 336.843 360.104 332.308 337.559C328.979 321.011 320.769 287.197 316.495 272.429C309.196 247.213 301.452 211.134 299.458 193.059Z" />
</g>

  <g class="detail-region" data-region="quads-vastus-lateralis" tabindex="0" role="button">
    <path id="vastusLateralis" transform="translate(15,52) scale(1)" d="M45.4569 88.244C52.4659 72.066 71.3299 33.379 81.3529 14.626C84.7919 8.192 87.7359 3.058 87.8959 3.218C88.0549 3.377 86.8499 6.747 85.2179 10.706C76.1449 32.706 67.3819 59.63 64.1859 75.324C59.2279 99.663 57.3649 130.185 59.0589 159.324C62.2539 214.307 70.3219 253.943 100.685 363.824C122.437 442.542 123.807 449.113 124.876 479.928C125.778 505.907 122.532 525.844 115.494 537.557C110.969 545.086 108.942 547.204 101.37 552.316C97.9049 554.655 93.9759 558.052 92.6379 559.865L90.2059 563.162L79.7649 563.529L68.6319 552.427C55.2989 539.131 46.0839 525.727 36.1779 505.225C27.5799 487.431 23.2339 475.82 17.1399 454.367C3.40392 406.016 -0.0650812 379.588 0.00091878 323.824C0.0599188 274.372 2.43693 242.869 8.67893 208.824C16.2969 167.275 28.3779 127.666 45.4569 88.244Z M483.504 46.5341C479.629 34.5531 476.599 26.8021 466.522 3.07411C464.287 -2.18789 465.577 -0.69889 470.42 7.57411C493.545 47.0731 517.058 99.6761 530.071 141.027C547.92 197.742 554.712 242.047 555.871 309.343C556.459 343.421 555.984 354.79 552.592 387.824C550.685 406.388 549.962 410.444 544.568 432.824C536.23 467.419 529.587 486.158 516.812 511.118C507.142 530.01 499.225 541.015 485.965 553.997L476.084 563.671L465.379 562.566L459.113 556.695C455.667 553.466 452.332 550.824 451.704 550.824C448.032 550.824 438.167 535.907 435.178 525.835C428.483 503.28 428.459 470.729 435.111 436.824C437.179 426.283 438.422 421.731 452.589 372.824C489.695 244.718 499.63 191.47 497.832 130.324C496.816 95.7581 493.886 78.6231 483.504 46.5341Z" />
  </g>

  <g class="detail-region" data-region="quads-vastus-medialis" tabindex="0" role="button">
    <path id="vastusMedialisLeft" transform="translate(173.5,309) scale(1)" d="M27.287 57.5758C29.9627 38.7461 32.2907 10.3691 31.6518 0C33.3998 7.79434 36.7494 22.0795 39.886 35.0758C43.669 50.7508 47.715 68.0758 48.877 73.5758C50.039 79.0758 52.312 89.8758 53.928 97.5758C62.587 138.833 67.082 188.078 65.02 219.076L63.988 234.576L60.401 248.576C54.946 269.869 46.412 286.418 33.974 299.826L29.104 305.076L22.359 305.014L15.752 297.295C7.61099 287.784 6.32801 285.323 3.18601 273.205L0.689977 263.576L0.137975 246.05C-0.922025 212.434 4.06298 173.577 17.263 112.576C20.079 99.5638 25.714 68.6438 27.287 57.5758Z" />
    <path id="vastusMedialisRight" transform="translate(173.7,309) scale(1)" d="M198.222 30.0757C199.589 24.3007 202.113 12.6007 203.831 4.07568L203.359 34.0757C203.77 44.8867 207.369 65.5617 212.848 88.5757C214.55 95.7257 217.928 109.901 220.356 120.076C233.813 176.49 237.015 194.421 239.032 224.641L240.237 242.707L239.073 255.641C237.151 277.005 233.759 286.602 224.703 296.296C221.764 299.442 218.91 302.653 218.36 303.431C217.81 304.209 215.672 305.094 213.609 305.398L209.859 305.95L201.895 296.263C187.223 278.418 179.005 257.274 175.401 228.106C173.611 213.622 173.347 180.404 174.898 164.932C178.179 132.22 189.387 67.4107 198.222 30.0757Z" />
  </g>
</svg>
