<svg viewBox="0 0 779 1478" xmlns="http://www.w3.org/2000/svg">
  <path id="outline" class="detail-outline" d="M243.082 51.2077C242.157 44.9227 241.214 38.3977 240.985 36.7077C240.757 35.0187 241.446 37.0117 242.517 41.1367C245.561 52.8647 247.849 74.2857 247.178 84.7587C246.127 101.144 240.995 120.275 233.834 134.505C230.176 141.774 219.463 158.411 218.841 157.789C218.639 157.587 220.934 153.42 223.943 148.529C230.885 137.241 237.664 121.459 241.077 108.637L243.739 98.6367L244.251 80.6367L244.764 62.6367L243.082 51.2077ZM91.3746 111.252C89.4206 94.6877 91.1456 68.9777 95.6036 48.1877C97.5766 38.9897 97.4547 43.3197 95.3667 56.6587L93.3337 69.6367L93.2186 87.6367C93.0396 115.59 95.7827 128.896 108.989 164.137C116.781 184.932 121.92 200.436 122.91 206.137C123.244 208.062 121.331 203.112 118.658 195.137C115.985 187.162 111.748 175.912 109.243 170.137C98.6147 145.643 93.4066 128.48 91.3746 111.252ZM223.633 180.642C228.127 178.301 237.522 168.98 237.522 166.862C237.522 166.28 237.805 166.087 238.151 166.432C238.95 167.231 232.861 176.786 230.498 178.442L228.72 179.687L220.652 213.662C211.793 250.968 207.76 272.048 204.108 300.137C201.683 318.793 200.613 320.348 202.587 302.348C205.422 276.508 210.996 246.758 220.096 208.91C223.63 194.21 226.522 181.959 226.522 181.685C226.522 181.411 225.368 181.625 223.957 182.162C219.188 183.975 218.993 183.059 223.633 180.642ZM201.229 324.375C200.99 325.619 200.785 324.837 200.774 322.637C200.763 320.437 200.959 319.419 201.209 320.375C201.459 321.331 201.468 323.131 201.229 324.375ZM41.5217 1398.56C41.5217 1393.25 43.5997 1387.77 46.1777 1386.27C48.8847 1384.7 53.1517 1384.91 54.9507 1386.71C57.5377 1389.3 56.7237 1390.67 54.0767 1388.19L51.6327 1385.89L49.0896 1386.53C45.6786 1387.39 43.6756 1390.71 43.3176 1396.1L43.0217 1400.55L47.1697 1400.27C49.7757 1400.1 51.6327 1400.49 52.1637 1401.32C52.7467 1402.23 53.2027 1401.55 53.6337 1399.14L54.2587 1395.64L54.3897 1399.89C54.5167 1403.96 53.4087 1405.38 51.9457 1403.01C51.5017 1402.3 49.4957 1402.1 46.3867 1402.47L41.5217 1403.04V1398.56ZM62.5697 1414.35C63.8477 1408.39 67.0266 1403.22 70.5516 1401.37C76.4836 1398.25 84.5276 1402.9 84.5156 1409.44C84.5096 1412.97 83.0326 1418.83 81.5776 1421.1L80.6397 1422.56L77.0466 1420.85C72.9326 1418.89 68.3126 1418.64 65.3486 1420.23C62.1676 1421.93 61.3257 1420.15 62.5697 1414.35ZM206.49 1430.55C211.217 1420.12 218.272 1413.92 227.522 1412.07C232.952 1410.98 234.698 1411.04 240.263 1412.48C251.017 1415.27 256.522 1421.7 256.522 1431.49C256.522 1437.62 253.397 1447.26 250.456 1450.2L248.619 1452.04L242.176 1448.68C238.632 1446.83 233.104 1444.78 229.892 1444.11L224.052 1442.9L217.537 1444.4C213.954 1445.22 209.539 1446.51 207.727 1447.25L204.432 1448.61L203.449 1447.12C201.986 1444.91 203.351 1437.47 206.49 1430.55ZM94.2997 1430.64C94.7177 1424.61 99.3537 1416.22 103.522 1413.94C110.262 1410.25 118.875 1413.41 121.229 1420.43L122.436 1424.03L121.102 1429.18C120.368 1432 119.138 1434.95 118.37 1435.72L116.972 1437.12L111.497 1435.03C106.273 1433.04 105.282 1432.99 96.0217 1434.34L94.0217 1434.64L94.2997 1430.64ZM142.025 1427.64L146.486 1425.39C151.888 1422.66 155.689 1422.58 161.15 1425.05L165.277 1426.93L166.953 1431.32L168.628 1435.7L167.548 1440.52C166.609 1444.71 163.982 1451.14 163.208 1451.14C163.063 1451.14 161.233 1450.26 159.14 1449.2C153.558 1446.35 145.933 1445.68 140.646 1447.57C138.24 1448.43 136.045 1449.14 135.769 1449.14C134.34 1449.14 136.568 1438.76 139.108 1433.58L142.025 1427.64ZM205.848 1440.78C207.75 1426.9 215.34 1416.83 226.022 1414.01C230.792 1412.75 241.375 1413.89 246.071 1416.16C253.71 1419.86 256.197 1426.31 253.886 1436.44C253.098 1439.89 251.593 1444.13 250.542 1445.86L248.63 1449.01L241.446 1445.32L234.262 1441.64H224.142H214.022L210.618 1443.39C205.654 1445.94 205.176 1445.68 205.848 1440.78ZM147.506 1425.99C143.692 1428.02 138.85 1436.34 137.832 1442.61L137.263 1446.12L140.453 1445.01C144.804 1443.49 153.354 1444.35 158.301 1446.8L162.387 1448.82L164.455 1443.84C168.199 1434.83 166.848 1429.09 160.279 1426.11C154.915 1423.68 151.905 1423.65 147.506 1425.99ZM95.9887 1429.46C97.0127 1424 101.025 1416.68 103.694 1415.39C106.762 1413.92 112.807 1413.85 115.907 1415.27C120.719 1417.46 121.644 1425.13 117.956 1432.26L116.562 1434.96L111.531 1433.05C105.898 1430.91 101.94 1430.65 97.9717 1432.16L95.2916 1433.17L95.9887 1429.46ZM69.2286 1404.15C66.8286 1406.04 65.5336 1408.87 64.1036 1415.34L63.5066 1418.04L68.3357 1417.47L73.1637 1416.9L76.4576 1418.6C78.3447 1419.58 80.1257 1419.93 80.6287 1419.43C81.1107 1418.95 82.0237 1415.97 82.6577 1412.81L83.8107 1407.07L81.4917 1404.6L79.1726 1402.14H75.4827C73.2957 1402.14 70.7466 1402.96 69.2286 1404.15Z M312.493 25.6367C305.545 54.4297 303.761 65.7197 302.514 88.7977C300.748 121.5 297.611 138.978 288.992 164.137C287.014 169.912 284.278 180.037 282.912 186.637L280.429 198.637L279.837 218.709C278.968 248.16 280.651 262.349 291.629 318.137C304.63 384.208 307.509 414.13 304.485 451.742C302.096 481.456 297.304 504.538 280.01 569.637C274.581 590.074 272.615 604.606 270.544 639.637C268.009 682.499 265.424 712.423 260.003 761.637C256.388 794.463 253.856 819.723 251.333 848.137L249.068 873.637L249.152 898.637C249.283 937.474 252.133 956.033 263.51 992.137C270.275 1013.6 272.398 1022.17 273.587 1032.8L274.612 1041.96L272.567 1058.51C269.765 1081.19 269.935 1089.39 273.651 1110.7L276.781 1128.64L276.853 1143.64L276.926 1158.64L274.724 1172.49C271.015 1195.82 272.063 1220.22 278.017 1249.14C279.319 1255.46 281.741 1267.06 283.399 1274.91C287.937 1296.41 291.901 1333.69 291.821 1354.14C291.768 1367.46 291.405 1369.64 285.951 1389.28C282.067 1403.27 281.737 1406.81 282.896 1422.14L283.691 1432.64L282.149 1439.94C280.224 1449.06 276.119 1456.34 269.22 1462.86C259.448 1472.1 248.962 1476.1 232.522 1476.86L221.022 1477.39L214.569 1475.73C202.022 1472.51 194.05 1467.05 189.817 1458.79L187.181 1453.64L186.727 1445.41L186.273 1437.18L188.886 1428.91C190.323 1424.36 193.542 1417.04 196.038 1412.64C201.841 1402.41 205.242 1395.15 205.678 1392.07L206.022 1389.64L202.912 1389.33C195.466 1388.61 189.831 1398.56 186.596 1418.14C181.461 1449.23 180.305 1453.04 173.842 1460.22C171.741 1462.55 168.005 1465.35 165.539 1466.45L161.055 1468.44L153.039 1468.4L145.022 1468.37L139.471 1466.26C131.136 1463.08 125.522 1456.37 125.522 1449.57C125.522 1448.23 125.343 1447.14 125.124 1447.14C124.905 1447.14 122.768 1448.26 120.374 1449.62L116.022 1452.11L109.022 1452.11L102.022 1452.12L96.9426 1449.75C91.0656 1447.02 88.0037 1443.55 86.3407 1437.75C85.6917 1435.49 85.0836 1433.52 84.9896 1433.37C84.8956 1433.22 83.5147 1433.78 81.9207 1434.61C77.3477 1437 70.6397 1436.52 64.5017 1433.39C57.9347 1430.03 55.4646 1426.81 54.7766 1420.7L54.2517 1416.04L51.6367 1416.24C46.2557 1416.65 44.4277 1416.05 40.6577 1412.64L36.7876 1409.14L35.2217 1403.39C33.0497 1395.4 32.1627 1378.17 33.4667 1369.28C34.0597 1365.23 35.9647 1358.7 37.7007 1354.78L40.8547 1347.64L41.6177 1338.64C42.6877 1326 43.6237 1323.39 56.9617 1295.85C76.2787 1255.97 91.7007 1214.68 98.5077 1184.64C100.253 1176.94 104.121 1160.74 107.104 1148.64C114.502 1118.63 115.427 1113.73 116.129 1100.83L116.737 1089.64L114.196 1077.14C108.665 1049.93 108.375 1041.2 112.043 1012.42L114.564 992.637L114.596 972.637C114.641 944.392 112.216 921.493 104.429 876.64C98.4957 842.467 96.6217 832.877 88.9937 797.637C87.6847 791.587 85.0317 779.212 83.0977 770.137C76.3587 738.505 64.2087 686.066 59.9277 670.137C58.5237 664.912 51.8297 641.062 45.0537 617.137C19.3817 526.499 17.4267 518.887 10.5097 482.637C-1.14935 421.539 -2.59231 358.408 6.01869 286.137C8.50569 265.261 10.9727 249.591 16.4097 220.137C20.9797 195.376 23.2066 179.395 24.5896 161.423L25.8367 145.209L24.6327 128.923C23.0817 107.953 19.8097 86.8417 12.9347 53.4577C9.8967 38.7057 6.25967 20.6747 4.85267 13.3867L2.29566 0.136719M112.97 1144.89C112.851 1144.75 114.323 1137.89 116.24 1129.64L119.727 1114.64L119.858 1098.14L119.99 1081.64L117.308 1069.14C115.834 1062.26 114.333 1052.36 113.973 1047.14L113.318 1037.64L115.38 1021.64C119.991 985.848 120.312 967.613 116.949 932.418C113.02 891.285 99.6237 820.089 78.4977 728.057C69.0677 686.977 63.2717 664.719 48.3117 612.137C19.7907 511.887 12.8736 480.423 6.87061 423.637L5.17872 407.637L5.16773 371.637L5.15565 335.637L6.85768 319.637C11.1447 279.337 15.0066 252.534 21.9166 215.137C23.7966 204.962 26.1647 190.787 27.1787 183.637L29.0217 170.637L28.9767 142.137L28.9317 113.637L26.2656 98.1367C23.4846 81.9747 18.5127 56.4757 11.5917 22.8797C9.35368 12.0127 7.52174 2.45072 7.52174 1.62972V0.136719M313.657 0.136719L313.159 1.88672C312.886 2.84872 310.801 11.7367 308.527 21.6367C306.252 31.5367 303.542 43.2367 302.503 47.6367C300.009 58.2047 298.833 68.6387 297.527 91.8077C296.933 102.352 295.786 115.383 294.978 120.766C291.471 144.126 283.537 169.416 271.802 194.637C258.518 223.189 251.743 238.954 247.672 250.782C225.994 313.776 222.173 377.456 222.086 677.137L222.038 844.637L223.76 874.137C227.048 930.494 229.981 946.857 245.821 997.23C248.345 1005.26 250.827 1015.16 251.337 1019.23L252.264 1026.64L252.393 1022.34C252.586 1015.93 249.918 1004.35 244.495 988.07C234.228 957.241 229.311 931.503 226.549 894.137C223.755 856.334 223.129 816.399 223.222 682.137C223.383 449.108 225.852 372.125 235.121 311.137C239.227 284.119 246.768 257.422 257.292 232.637C261.502 222.722 277.742 191.129 277.082 194.137C276.78 195.512 275.999 203.095 275.346 210.988L274.158 225.34L275.354 242.988C276.785 264.089 278.654 276.572 285.938 313.696C295.822 364.065 298.802 383.76 300.57 410.398L301.626 426.304L300.542 441.97C298.627 469.648 292.214 506.693 285.052 531.45C281.946 542.188 273.971 573.745 272.113 582.646C270.335 591.17 267.843 610.588 267.046 622.137C263.366 675.46 262.221 691.046 260.475 711.637C258.245 737.927 258.363 736.763 252.615 789.137C250.412 809.212 247.806 834.862 246.825 846.137L245.041 866.637L245.094 898.137L245.146 929.637L247.311 943.947C249.683 959.622 252.495 971.548 257.969 989.137C259.937 995.462 263.141 1006.26 265.088 1013.14L268.629 1025.64L269.213 1036.16L269.798 1046.68L267.934 1059.16C266.825 1066.59 266.099 1076.7 266.141 1084.14L266.211 1096.64L268.834 1110.64C273.895 1137.65 274.112 1150.29 269.933 1174.64C265.865 1198.34 268.22 1227.72 277.479 1268.78C281.544 1286.81 283.107 1297.19 285.592 1322.64L287.741 1344.64L287.189 1357.14C286.638 1369.59 285.45 1375.72 280.104 1393.64L277.419 1402.64L278.094 1419.64L278.768 1436.64L277.246 1441.73C272.738 1456.81 262.332 1466.3 245.522 1470.65L239.022 1472.34L226.022 1471.94L213.022 1471.54L206.342 1468.32C187.329 1459.16 185.493 1439.51 201.022 1411.39C203.222 1407.41 205.413 1404.15 205.89 1404.14C206.367 1404.14 208.372 1402.72 210.344 1400.99C215.964 1396.05 224.031 1392.82 232.522 1392.08L240.022 1391.44L233.954 1391.29C226.546 1391.1 219.609 1393.06 213.157 1397.15C210.481 1398.85 208.113 1400.06 207.896 1399.84C207.678 1399.63 208.18 1397.52 209.011 1395.17C211.118 1389.2 214.824 1373.1 214.229 1372.51C213.958 1372.24 213.154 1374.29 212.441 1377.08C211.727 1379.86 210.851 1382.14 210.494 1382.14C209.298 1382.14 207.299 1365.72 207.663 1358.88C207.86 1355.17 207.723 1352.13 207.357 1352.13C205.933 1352.14 205.275 1367.78 206.39 1375.11C207.02 1379.25 207.532 1383.66 207.529 1384.91L207.522 1387.17L205.022 1386.55C201.529 1385.67 198.202 1386.69 194.547 1389.77L191.417 1392.4L191.97 1390.02C192.274 1388.71 193.419 1383.81 194.515 1379.14C195.611 1374.46 196.462 1368.61 196.407 1366.14L196.306 1361.64L194.991 1368.64C194.269 1372.49 192.947 1377.66 192.053 1380.14C189.303 1387.76 184.736 1406.96 182.059 1422.15C177.068 1450.48 176.463 1452.25 169.651 1458.4C164.653 1462.92 159.045 1464.49 150.022 1463.91C139.723 1463.24 132.237 1458.81 129.589 1451.82C127.129 1445.33 128.901 1437.09 136.849 1418.08C139.252 1412.34 141.797 1405.16 142.505 1402.14C143.213 1399.11 145.268 1393.04 147.071 1388.64C151.301 1378.31 153.042 1371.36 155.032 1356.83C157.112 1341.64 156.432 1339.36 154.091 1353.68C151.477 1369.67 149.211 1377.7 144.191 1388.77C141.731 1394.2 138.987 1401.22 138.093 1404.39C137.198 1407.55 136.187 1410.14 135.847 1410.14C134.265 1410.14 136.772 1392.32 139.533 1383.94C141.177 1378.95 142.492 1373.69 142.456 1372.25C142.413 1370.54 141.9 1371.46 140.972 1374.91C140.191 1377.8 138.927 1381.4 138.163 1382.91C135.104 1388.91 133.522 1397.09 133.522 1406.9V1416.86L130.682 1423.75C129.119 1427.54 127.26 1433.11 126.551 1436.14C125.841 1439.16 124.757 1442.27 124.141 1443.04C121.945 1445.81 115.105 1448.09 109.022 1448.09C101.451 1448.09 95.7156 1445.57 91.9056 1440.57L89.0217 1436.78L89.1487 1430.21L89.2747 1423.64L93.2597 1412.64C95.4517 1406.59 98.0247 1398.04 98.9777 1393.64C99.9307 1389.24 102.651 1381.59 105.024 1376.64C107.683 1371.09 110.331 1363.32 111.93 1356.37C115.083 1342.66 115.201 1338.37 112.102 1350.14C108.741 1362.89 106.79 1368.27 102.536 1376.49C100.411 1380.59 98.3617 1386.02 97.9827 1388.55C97.6047 1391.07 96.8307 1393.14 96.2647 1393.14C94.6977 1393.14 96.1636 1380.49 98.5266 1373.62C99.6416 1370.38 100.407 1367.29 100.229 1366.76C100.05 1366.22 98.6927 1369.45 97.2127 1373.92L94.5217 1382.07V1391.02V1399.96L91.1647 1408.8C89.3177 1413.66 87.2057 1420.01 86.4697 1422.91C85.7347 1425.81 84.2717 1428.96 83.2197 1429.91L81.3057 1431.64L74.4817 1431.63L67.6577 1431.63L64.9016 1429.57C60.2156 1426.07 58.2197 1422.54 57.7537 1416.91L57.3137 1411.61L60.3827 1399.12C62.0707 1392.26 63.9517 1383.75 64.5617 1380.21C65.1827 1376.62 67.4156 1370.32 69.6316 1365.92C73.8256 1357.58 79.5567 1341.6 79.4697 1338.49C79.4407 1337.47 77.9107 1340.73 76.0697 1345.73C73.1587 1353.64 65.4077 1369.68 63.7947 1371.14C62.0867 1372.68 64.9717 1361.21 68.0617 1354.18C70.0507 1349.66 71.4926 1345.77 71.2666 1345.55C71.0406 1345.32 69.1376 1349.07 67.0366 1353.89L63.2167 1362.64L62.3977 1371.64C61.9477 1376.59 59.8337 1387.61 57.7007 1396.14L53.8217 1411.64L50.4987 1411.96C46.0527 1412.4 43.2167 1410.72 40.6257 1406.11L38.4746 1402.28L37.3947 1390.96C36.8017 1384.73 36.5447 1376.47 36.8257 1372.6L37.3357 1365.56L42.9287 1351.91C48.8707 1337.41 49.4236 1335.61 46.9946 1338.7L45.4677 1340.64L46.0936 1335.64C47.2416 1326.48 49.5046 1320.57 59.9326 1299.53C75.2696 1268.57 88.9317 1235.45 95.5697 1213.14C99.8507 1198.75 120.187 1164.24 138.598 1140.14C156.232 1117.05 168.707 1104.85 181.022 1098.66C194.333 1091.97 204.461 1090.85 217.249 1094.65C219.874 1095.43 222.37 1096.06 222.794 1096.06C223.219 1096.05 226.819 1097.73 230.794 1099.79L238.022 1103.53L248.087 1113.58L258.152 1123.64L262.337 1132.14C266.849 1141.3 267.939 1141.2 264.141 1131.96C257.975 1116.97 243.075 1102.32 226.1 1094.54L220.388 1091.93L215.935 1086.28C207.932 1076.14 204.344 1059.22 200.098 1011.64C199.803 1008.34 199.114 1000.69 198.566 994.637C196.422 970.96 194.562 940.357 193.583 912.637C193.019 896.687 192.327 878.237 192.045 871.637C191.762 865.037 191.49 788.312 191.44 701.137L191.348 542.637L190 517.032C184.73 416.879 168.481 341.28 139.836 283.637C123.094 249.949 105.043 228.096 75.0217 205.174C58.5457 192.594 53.9396 188.464 50.6406 183.315C46.2996 176.54 41.7597 162.033 39.0657 146.33C36.4897 131.32 35.9947 130.769 37.5427 144.637C39.3017 160.39 42.4686 178.147 46.5476 195.137C53.3516 223.478 53.5667 234.428 48.0087 269.637C38.2507 331.45 37.0137 345.428 37.0337 393.637C37.0637 463.712 48.2537 518.217 81.5867 610.637C109.5 688.032 119.998 719.45 130.035 755.637L135.305 774.637L138.334 787.137C140.695 791.039 156.342 856.635 161.949 886.137C175.183 955.765 184.1 1044.94 180.542 1072.07C179.862 1077.26 178.66 1083.33 177.872 1085.56C175.369 1092.66 168.435 1102.31 158.074 1113.14C145.961 1125.79 139.345 1133.92 128.746 1149.16C120.435 1161.11 108.278 1182.04 103.345 1192.89C101.781 1196.32 100.339 1199.14 100.14 1199.14C99.9397 1199.14 101.326 1192.72 103.219 1184.89C105.112 1177.05 112.227 1148.54 113.063 1144.14M240.985 36.7077C241.214 38.3977 242.157 44.9227 243.082 51.2077L244.764 62.6367L244.251 80.6367L243.739 98.6367L241.077 108.637C237.664 121.459 230.885 137.241 223.943 148.529C220.934 153.42 218.639 157.587 218.841 157.789C219.463 158.411 230.176 141.774 233.834 134.505C240.995 120.275 246.127 101.144 247.178 84.7587C247.849 74.2857 245.561 52.8647 242.517 41.1367C241.446 37.0117 240.757 35.0187 240.985 36.7077ZM95.6036 48.1877C91.1456 68.9777 89.4206 94.6877 91.3746 111.252C93.4066 128.48 98.6147 145.643 109.243 170.137C111.748 175.912 115.985 187.162 118.658 195.137C121.331 203.112 123.244 208.062 122.91 206.137C121.92 200.436 116.781 184.932 108.989 164.137C95.7827 128.896 93.0396 115.59 93.2186 87.6367L93.3337 69.6367L95.3667 56.6587C97.4547 43.3197 97.5766 38.9897 95.6036 48.1877ZM237.522 166.862C237.522 168.98 228.127 178.301 223.633 180.642C218.993 183.059 219.188 183.975 223.957 182.162C225.368 181.625 226.522 181.411 226.522 181.685C226.522 181.959 223.63 194.21 220.096 208.91C210.996 246.758 205.422 276.508 202.587 302.348C200.613 320.348 201.683 318.793 204.108 300.137C207.76 272.048 211.793 250.968 220.652 213.662L228.72 179.687L230.498 178.442C232.861 176.786 238.95 167.231 238.151 166.432C237.805 166.087 237.522 166.28 237.522 166.862ZM49.9237 190.637C51.5427 194.701 54.4757 210.948 55.4307 221.137C56.7477 235.201 55.5907 249.692 50.0717 288.251C43.7887 332.143 42.5137 346.317 41.8477 379.637C40.8497 429.63 45.0716 467.176 57.1406 515.637C65.6366 549.752 71.5406 568.701 88.7666 617.137C104.146 660.383 118.677 703.015 124.897 723.137C140.63 774.038 158.006 843.126 166.018 886.637C178.611 955.027 186.692 1027.61 185.218 1059.09C184.396 1076.64 181.825 1086.11 175.092 1096.39L173.401 1098.97L179.761 1095.59C190.644 1089.81 204.457 1087.54 213.279 1090.07C216.792 1091.07 217.491 1090.19 214.886 1088.02C212.477 1086.02 208.772 1079.84 206.41 1073.88C204.434 1068.89 200.989 1053.26 199.969 1044.65C199.707 1042.44 198.829 1035.24 198.017 1028.64C195.082 1004.76 192.398 970.918 189.453 920.637C188.859 910.511 188.017 826.736 187.528 729.137L186.658 555.637L185.075 526.137C182.703 481.907 180.152 456.016 174.973 423.585C166.209 368.712 152.235 321.483 133.994 285.082C117.168 251.503 103.123 234.278 72.4587 209.615C63.2947 202.245 54.2957 194.51 52.4617 192.426C50.6277 190.342 49.4857 189.537 49.9237 190.637ZM200.774 322.637C200.785 324.837 200.99 325.619 201.229 324.375C201.468 323.131 201.459 321.331 201.209 320.375C200.959 319.419 200.763 320.437 200.774 322.637ZM46.1777 1386.27C43.5997 1387.77 41.5217 1393.25 41.5217 1398.56V1403.04L46.3867 1402.47C49.4957 1402.1 51.5017 1402.3 51.9457 1403.01C53.4087 1405.38 54.5167 1403.96 54.3897 1399.89L54.2587 1395.64L53.6337 1399.14C53.2027 1401.55 52.7467 1402.23 52.1637 1401.32C51.6327 1400.49 49.7757 1400.1 47.1697 1400.27L43.0217 1400.55L43.3176 1396.1C43.6756 1390.71 45.6786 1387.39 49.0896 1386.53L51.6327 1385.89L54.0767 1388.19C56.7237 1390.67 57.5377 1389.3 54.9507 1386.71C53.1517 1384.91 48.8847 1384.7 46.1777 1386.27ZM70.5516 1401.37C67.0266 1403.22 63.8477 1408.39 62.5697 1414.35C61.3257 1420.15 62.1676 1421.93 65.3486 1420.23C68.3126 1418.64 72.9326 1418.89 77.0466 1420.85L80.6397 1422.56L81.5776 1421.1C83.0326 1418.83 84.5096 1412.97 84.5156 1409.44C84.5276 1402.9 76.4836 1398.25 70.5516 1401.37ZM69.2286 1404.15C66.8286 1406.04 65.5336 1408.87 64.1036 1415.34L63.5066 1418.04L68.3357 1417.47L73.1637 1416.9L76.4576 1418.6C78.3447 1419.58 80.1257 1419.93 80.6287 1419.43C81.1107 1418.95 82.0237 1415.97 82.6577 1412.81L83.8107 1407.07L81.4917 1404.6L79.1726 1402.14H75.4827C73.2957 1402.14 70.7466 1402.96 69.2286 1404.15ZM227.522 1412.07C218.272 1413.92 211.217 1420.12 206.49 1430.55C203.351 1437.47 201.986 1444.91 203.449 1447.12L204.432 1448.61L207.727 1447.25C209.539 1446.51 213.954 1445.22 217.537 1444.4L224.052 1442.9L229.892 1444.11C233.104 1444.78 238.632 1446.83 242.176 1448.68L248.619 1452.04L250.456 1450.2C253.397 1447.26 256.522 1437.62 256.522 1431.49C256.522 1421.7 251.017 1415.27 240.263 1412.48C234.698 1411.04 232.952 1410.98 227.522 1412.07ZM103.522 1413.94C99.3537 1416.22 94.7177 1424.61 94.2997 1430.64L94.0217 1434.64L96.0217 1434.34C105.282 1432.99 106.273 1433.04 111.497 1435.03L116.972 1437.12L118.37 1435.72C119.138 1434.95 120.368 1432 121.102 1429.18L122.436 1424.03L121.229 1420.43C118.875 1413.41 110.262 1410.25 103.522 1413.94ZM226.022 1414.01C215.34 1416.83 207.75 1426.9 205.848 1440.78C205.176 1445.68 205.654 1445.94 210.618 1443.39L214.022 1441.64H224.142H234.262L241.446 1445.32L248.63 1449.01L250.542 1445.86C251.593 1444.13 253.098 1439.89 253.886 1436.44C256.197 1426.31 253.71 1419.86 246.071 1416.16C241.375 1413.89 230.792 1412.75 226.022 1414.01ZM103.694 1415.39C101.025 1416.68 97.0127 1424 95.9887 1429.46L95.2916 1433.17L97.9717 1432.16C101.94 1430.65 105.898 1430.91 111.531 1433.05L116.562 1434.96L117.956 1432.26C121.644 1425.13 120.719 1417.46 115.907 1415.27C112.807 1413.85 106.762 1413.92 103.694 1415.39ZM146.486 1425.39L142.025 1427.64L139.108 1433.58C136.568 1438.76 134.34 1449.14 135.769 1449.14C136.045 1449.14 138.24 1448.43 140.646 1447.57C145.933 1445.68 153.558 1446.35 159.14 1449.2C161.233 1450.26 163.063 1451.14 163.208 1451.14C163.982 1451.14 166.609 1444.71 167.548 1440.52L168.628 1435.7L166.953 1431.32L165.277 1426.93L161.15 1425.05C155.689 1422.58 151.888 1422.66 146.486 1425.39ZM147.506 1425.99C143.692 1428.02 138.85 1436.34 137.832 1442.61L137.263 1446.12L140.453 1445.01C144.804 1443.49 153.354 1444.35 158.301 1446.8L162.387 1448.82L164.455 1443.84C168.199 1434.83 166.848 1429.09 160.279 1426.11C154.915 1423.68 151.905 1423.65 147.506 1425.99Z M535.075 51.2077C536 44.9227 536.943 38.3977 537.172 36.7077C537.4 35.0187 536.711 37.0117 535.64 41.1367C532.596 52.8647 530.307 74.2857 530.979 84.7587C532.029 101.144 537.161 120.275 544.322 134.505C547.98 141.774 558.694 158.411 559.316 157.789C559.518 157.587 557.223 153.42 554.214 148.529C547.272 137.241 540.493 121.459 537.08 108.637L534.418 98.6367L533.906 80.6367L533.393 62.6367L535.075 51.2077ZM686.782 111.252C688.736 94.6877 687.011 68.9777 682.553 48.1877C680.58 38.9897 680.702 43.3197 682.79 56.6587L684.823 69.6367L684.938 87.6367C685.117 115.59 682.374 128.896 669.168 164.137C661.376 184.932 656.237 200.436 655.247 206.137C654.913 208.062 656.826 203.112 659.499 195.137C662.172 187.162 666.409 175.912 668.914 170.137C679.542 145.643 684.75 128.48 686.782 111.252ZM554.524 180.642C550.03 178.301 540.635 168.98 540.635 166.862C540.635 166.28 540.352 166.087 540.006 166.432C539.207 167.231 545.296 176.786 547.659 178.442L549.437 179.687L557.505 213.662C566.364 250.968 570.397 272.048 574.049 300.137C576.474 318.793 577.544 320.348 575.57 302.348C572.735 276.508 567.161 246.758 558.061 208.91C554.527 194.21 551.635 181.959 551.635 181.685C551.635 181.411 552.789 181.625 554.2 182.162C558.969 183.975 559.164 183.059 554.524 180.642ZM576.928 324.375C577.167 325.619 577.372 324.837 577.383 322.637C577.394 320.437 577.197 319.419 576.947 320.375C576.697 321.331 576.689 323.131 576.928 324.375ZM736.635 1398.56C736.635 1393.25 734.557 1387.77 731.979 1386.27C729.272 1384.7 725.005 1384.91 723.206 1386.71C720.619 1389.3 721.433 1390.67 724.08 1388.19L726.524 1385.89L729.067 1386.53C732.478 1387.39 734.481 1390.71 734.839 1396.1L735.135 1400.55L730.987 1400.27C728.381 1400.1 726.524 1400.49 725.993 1401.32C725.41 1402.23 724.954 1401.55 724.523 1399.14L723.898 1395.64L723.767 1399.89C723.64 1403.96 724.748 1405.38 726.211 1403.01C726.655 1402.3 728.661 1402.1 731.77 1402.47L736.635 1403.04V1398.56ZM715.587 1414.35C714.309 1408.39 711.13 1403.22 707.605 1401.37C701.673 1398.25 693.629 1402.9 693.641 1409.44C693.647 1412.97 695.124 1418.83 696.579 1421.1L697.517 1422.56L701.11 1420.85C705.224 1418.89 709.844 1418.64 712.808 1420.23C715.989 1421.93 716.831 1420.15 715.587 1414.35ZM571.666 1430.55C566.939 1420.12 559.885 1413.92 550.635 1412.07C545.205 1410.98 543.459 1411.04 537.894 1412.48C527.14 1415.27 521.635 1421.7 521.635 1431.49C521.635 1437.62 524.76 1447.26 527.701 1450.2L529.538 1452.04L535.981 1448.68C539.525 1446.83 545.053 1444.78 548.265 1444.11L554.104 1442.9L560.62 1444.4C564.203 1445.22 568.618 1446.51 570.43 1447.25L573.725 1448.61L574.708 1447.12C576.171 1444.91 574.805 1437.47 571.666 1430.55ZM683.857 1430.64C683.439 1424.61 678.803 1416.22 674.635 1413.94C667.895 1410.25 659.282 1413.41 656.928 1420.43L655.721 1424.03L657.055 1429.18C657.789 1432 659.019 1434.95 659.787 1435.72L661.185 1437.12L666.66 1435.03C671.884 1433.04 672.875 1432.99 682.135 1434.34L684.135 1434.64L683.857 1430.64ZM636.132 1427.64L631.671 1425.39C626.269 1422.66 622.468 1422.58 617.007 1425.05L612.88 1426.93L611.204 1431.32L609.529 1435.7L610.609 1440.52C611.548 1444.71 614.175 1451.14 614.949 1451.14C615.094 1451.14 616.924 1450.26 619.017 1449.2C624.599 1446.35 632.224 1445.68 637.511 1447.57C639.917 1448.43 642.112 1449.14 642.388 1449.14C643.817 1449.14 641.589 1438.76 639.049 1433.58L636.132 1427.64ZM572.309 1440.78C570.407 1426.9 562.817 1416.83 552.135 1414.01C547.365 1412.75 536.782 1413.89 532.086 1416.16C524.447 1419.86 521.959 1426.31 524.27 1436.44C525.058 1439.89 526.563 1444.13 527.614 1445.86L529.527 1449.01L536.711 1445.32L543.895 1441.64H554.015H564.135L567.539 1443.39C572.503 1445.94 572.981 1445.68 572.309 1440.78ZM630.651 1425.99C634.465 1428.02 639.307 1436.34 640.325 1442.61L640.894 1446.12L637.704 1445.01C633.353 1443.49 624.803 1444.35 619.856 1446.8L615.77 1448.82L613.702 1443.84C609.958 1434.83 611.309 1429.09 617.878 1426.11C623.242 1423.68 626.252 1423.65 630.651 1425.99ZM682.168 1429.46C681.144 1424 677.132 1416.68 674.463 1415.39C671.395 1413.92 665.35 1413.85 662.25 1415.27C657.438 1417.46 656.513 1425.13 660.201 1432.26L661.595 1434.96L666.626 1433.05C672.259 1430.91 676.217 1430.65 680.185 1432.16L682.865 1433.17L682.168 1429.46ZM708.928 1404.15C711.328 1406.04 712.623 1408.87 714.053 1415.34L714.65 1418.04L709.821 1417.47L704.993 1416.9L701.699 1418.6C699.812 1419.58 698.031 1419.93 697.528 1419.43C697.046 1418.95 696.133 1415.97 695.499 1412.81L694.346 1407.07L696.665 1404.6L698.984 1402.14H702.674C704.861 1402.14 707.41 1402.96 708.928 1404.15Z M465.664 25.6367C472.612 54.4297 474.396 65.7197 475.643 88.7977C477.409 121.5 480.546 138.978 489.165 164.137C491.143 169.912 493.879 180.037 495.245 186.637L497.728 198.637L498.32 218.709C499.189 248.16 497.506 262.349 486.528 318.137C473.527 384.208 470.648 414.13 473.672 451.742C476.061 481.456 480.853 504.538 498.147 569.637C503.576 590.074 505.542 604.606 507.613 639.637C510.148 682.499 512.733 712.423 518.154 761.637C521.769 794.463 524.301 819.723 526.824 848.137L529.089 873.637L529.005 898.637C528.874 937.474 526.024 956.033 514.647 992.137C507.882 1013.6 505.759 1022.17 504.57 1032.8L503.545 1041.96L505.59 1058.51C508.392 1081.19 508.222 1089.39 504.506 1110.7L501.376 1128.64L501.304 1143.64L501.231 1158.64L503.433 1172.49C507.142 1195.82 506.094 1220.22 500.14 1249.14C498.838 1255.46 496.416 1267.06 494.758 1274.91C490.22 1296.41 486.256 1333.69 486.336 1354.14C486.389 1367.46 486.752 1369.64 492.206 1389.28C496.09 1403.27 496.419 1406.81 495.26 1422.14L494.466 1432.64L496.008 1439.94C497.933 1449.06 502.038 1456.34 508.937 1462.86C518.709 1472.1 529.195 1476.1 545.635 1476.86L557.135 1477.39L563.588 1475.73C576.135 1472.51 584.107 1467.05 588.34 1458.79L590.976 1453.64L591.43 1445.41L591.884 1437.18L589.27 1428.91C587.833 1424.36 584.615 1417.04 582.119 1412.64C576.316 1402.41 572.915 1395.15 572.479 1392.07L572.135 1389.64L575.245 1389.33C582.691 1388.61 588.326 1398.56 591.561 1418.14C596.696 1449.23 597.852 1453.04 604.315 1460.22C606.416 1462.55 610.152 1465.35 612.618 1466.45L617.102 1468.44L625.118 1468.4L633.135 1468.37L638.686 1466.26C647.021 1463.08 652.635 1456.37 652.635 1449.57C652.635 1448.23 652.814 1447.14 653.033 1447.14C653.252 1447.14 655.389 1448.26 657.783 1449.62L662.135 1452.11L669.135 1452.11L676.135 1452.12L681.214 1449.75C687.091 1447.02 690.153 1443.55 691.816 1437.75C692.465 1435.49 693.073 1433.52 693.167 1433.37C693.261 1433.22 694.642 1433.78 696.236 1434.61C700.809 1437 707.517 1436.52 713.655 1433.39C720.222 1430.03 722.692 1426.81 723.38 1420.7L723.905 1416.04L726.52 1416.24C731.901 1416.65 733.729 1416.05 737.499 1412.64L741.369 1409.14L742.935 1403.39C745.107 1395.4 745.994 1378.17 744.69 1369.28C744.097 1365.23 742.192 1358.7 740.456 1354.78L737.302 1347.64L736.539 1338.64C735.469 1326 734.533 1323.39 721.195 1295.85C701.878 1255.97 686.456 1214.68 679.649 1184.64C677.904 1176.94 674.036 1160.74 671.053 1148.64C663.655 1118.63 662.73 1113.73 662.028 1100.83L661.42 1089.64L663.961 1077.14C669.492 1049.93 669.782 1041.2 666.114 1012.42L663.593 992.637L663.561 972.637C663.516 944.392 665.941 921.493 673.728 876.64C679.661 842.467 681.535 832.877 689.163 797.637C690.472 791.587 693.125 779.212 695.059 770.137C701.798 738.505 713.948 686.066 718.229 670.137C719.633 664.912 726.327 641.062 733.103 617.137C758.775 526.499 760.73 518.887 767.647 482.637C779.306 421.539 780.749 358.408 772.138 286.137C769.651 265.261 767.184 249.591 761.747 220.137C757.177 195.376 754.95 179.395 753.567 161.423L752.32 145.209L753.524 128.923C755.075 107.953 758.347 86.8417 765.222 53.4577C768.26 38.7057 771.897 20.6747 773.304 13.3867L775.861 0.136719M665.187 1144.89C665.306 1144.75 663.834 1137.89 661.917 1129.64L658.43 1114.64L658.299 1098.14L658.167 1081.64L660.849 1069.14C662.323 1062.26 663.824 1052.36 664.184 1047.14L664.839 1037.64L662.777 1021.64C658.166 985.848 657.845 967.613 661.208 932.418C665.137 891.285 678.533 820.089 699.659 728.057C709.089 686.977 714.885 664.719 729.845 612.137C758.366 511.887 765.283 480.423 771.286 423.637L772.978 407.637L772.989 371.637L773.001 335.637L771.299 319.637C767.012 279.337 763.15 252.534 756.24 215.137C754.36 204.962 751.992 190.787 750.978 183.637L749.135 170.637L749.18 142.137L749.225 113.637L751.891 98.1367C754.672 81.9747 759.644 56.4757 766.565 22.8797C768.803 12.0127 770.635 2.45072 770.635 1.62972V0.136719M464.5 0.136719L464.998 1.88672C465.271 2.84872 467.356 11.7367 469.63 21.6367C471.905 31.5367 474.615 43.2367 475.654 47.6367C478.148 58.2047 479.324 68.6387 480.63 91.8077C481.224 102.352 482.37 115.383 483.178 120.766C486.685 144.126 494.62 169.416 506.354 194.637C519.638 223.189 526.414 238.954 530.485 250.782C552.163 313.776 555.984 377.456 556.071 677.137L556.119 844.637L554.397 874.137C551.109 930.494 548.176 946.857 532.336 997.23C529.812 1005.26 527.33 1015.16 526.82 1019.23L525.893 1026.64L525.764 1022.34C525.571 1015.93 528.239 1004.35 533.662 988.07C543.929 957.241 548.846 931.503 551.608 894.137C554.402 856.334 555.028 816.399 554.935 682.137C554.774 449.108 552.305 372.125 543.036 311.137C538.93 284.119 531.389 257.422 520.865 232.637C516.655 222.722 500.415 191.129 501.075 194.137C501.377 195.512 502.158 203.095 502.811 210.988L503.999 225.34L502.803 242.988C501.372 264.089 499.503 276.572 492.219 313.696C482.335 364.065 479.355 383.76 477.587 410.398L476.531 426.304L477.615 441.97C479.53 469.648 485.943 506.693 493.104 531.45C496.21 542.188 504.186 573.745 506.044 582.646C507.822 591.17 510.314 610.588 511.111 622.137C514.791 675.46 515.936 691.046 517.682 711.637C519.912 737.927 519.794 736.763 525.541 789.137C527.744 809.212 530.351 834.862 531.332 846.137L533.116 866.637L533.062 898.137L533.01 929.637L530.846 943.947C528.474 959.622 525.661 971.548 520.188 989.137C518.22 995.462 515.016 1006.26 513.069 1013.14L509.528 1025.64L508.944 1036.16L508.359 1046.68L510.223 1059.16C511.332 1066.59 512.058 1076.7 512.016 1084.14L511.946 1096.64L509.323 1110.64C504.262 1137.65 504.045 1150.29 508.224 1174.64C512.292 1198.34 509.937 1227.72 500.678 1268.78C496.613 1286.81 495.05 1297.19 492.565 1322.64L490.416 1344.64L490.968 1357.14C491.519 1369.59 492.707 1375.72 498.053 1393.64L500.738 1402.64L500.062 1419.64L499.389 1436.64L500.911 1441.73C505.419 1456.81 515.825 1466.3 532.635 1470.65L539.135 1472.34L552.135 1471.94L565.135 1471.54L571.815 1468.32C590.828 1459.16 592.664 1439.51 577.135 1411.39C574.935 1407.41 572.744 1404.15 572.267 1404.14C571.79 1404.14 569.784 1402.72 567.812 1400.99C562.192 1396.05 554.126 1392.82 545.635 1392.08L538.135 1391.44L544.203 1391.29C551.611 1391.1 558.548 1393.06 564.999 1397.15C567.675 1398.85 570.043 1400.06 570.26 1399.84C570.478 1399.63 569.976 1397.52 569.145 1395.17C567.038 1389.2 563.333 1373.1 563.928 1372.51C564.199 1372.24 565.003 1374.29 565.716 1377.08C566.43 1379.86 567.306 1382.14 567.663 1382.14C568.859 1382.14 570.858 1365.72 570.494 1358.88C570.297 1355.17 570.434 1352.13 570.8 1352.13C572.224 1352.14 572.882 1367.78 571.767 1375.11C571.137 1379.25 570.625 1383.66 570.628 1384.91L570.635 1387.17L573.135 1386.55C576.628 1385.67 579.955 1386.69 583.61 1389.77L586.739 1392.4L586.187 1390.02C585.883 1388.71 584.738 1383.81 583.642 1379.14C582.546 1374.46 581.695 1368.61 581.749 1366.14L581.851 1361.64L583.166 1368.64C583.888 1372.49 585.21 1377.66 586.104 1380.14C588.854 1387.76 593.421 1406.96 596.098 1422.15C601.089 1450.48 601.694 1452.25 608.506 1458.4C613.504 1462.92 619.112 1464.49 628.135 1463.91C638.434 1463.24 645.92 1458.81 648.568 1451.82C651.028 1445.33 649.256 1437.09 641.308 1418.08C638.905 1412.34 636.36 1405.16 635.652 1402.14C634.944 1399.11 632.889 1393.04 631.086 1388.64C626.856 1378.31 625.115 1371.36 623.124 1356.83C621.044 1341.64 621.725 1339.36 624.066 1353.68C626.68 1369.67 628.946 1377.7 633.966 1388.77C636.426 1394.2 639.17 1401.22 640.064 1404.39C640.959 1407.55 641.97 1410.14 642.31 1410.14C643.892 1410.14 641.385 1392.32 638.624 1383.94C636.98 1378.95 635.665 1373.69 635.701 1372.25C635.744 1370.54 636.257 1371.46 637.185 1374.91C637.966 1377.8 639.23 1381.4 639.994 1382.91C643.053 1388.91 644.635 1397.09 644.635 1406.9V1416.86L647.475 1423.75C649.038 1427.54 650.897 1433.11 651.606 1436.14C652.316 1439.16 653.4 1442.27 654.016 1443.04C656.212 1445.81 663.052 1448.09 669.135 1448.09C676.706 1448.09 682.441 1445.57 686.251 1440.57L689.135 1436.78L689.008 1430.21L688.882 1423.64L684.897 1412.64C682.705 1406.59 680.132 1398.04 679.179 1393.64C678.226 1389.24 675.506 1381.59 673.133 1376.64C670.474 1371.09 667.826 1363.32 666.227 1356.37C663.074 1342.66 662.956 1338.37 666.055 1350.14C669.416 1362.89 671.367 1368.27 675.621 1376.49C677.746 1380.59 679.795 1386.02 680.174 1388.55C680.552 1391.07 681.326 1393.14 681.892 1393.14C683.459 1393.14 681.993 1380.49 679.63 1373.62C678.515 1370.38 677.75 1367.29 677.928 1366.76C678.107 1366.22 679.464 1369.45 680.944 1373.92L683.635 1382.07V1391.02V1399.96L686.992 1408.8C688.839 1413.66 690.951 1420.01 691.687 1422.91C692.422 1425.81 693.885 1428.96 694.937 1429.91L696.851 1431.64L703.675 1431.63L710.499 1431.63L713.255 1429.57C717.941 1426.07 719.937 1422.54 720.403 1416.91L720.843 1411.61L717.774 1399.12C716.086 1392.26 714.205 1383.75 713.595 1380.21C712.974 1376.62 710.741 1370.32 708.525 1365.92C704.331 1357.58 698.6 1341.6 698.687 1338.49C698.716 1337.47 700.246 1340.73 702.087 1345.73C704.998 1353.64 712.749 1369.68 714.362 1371.14C716.07 1372.68 713.185 1361.21 710.095 1354.18C708.106 1349.66 706.664 1345.77 706.89 1345.55C707.116 1345.32 709.019 1349.07 711.12 1353.89L714.94 1362.64L715.759 1371.64C716.209 1376.59 718.323 1387.61 720.456 1396.14L724.335 1411.64L727.658 1411.96C732.104 1412.4 734.94 1410.72 737.531 1406.11L739.682 1402.28L740.762 1390.96C741.355 1384.73 741.612 1376.47 741.331 1372.6L740.821 1365.56L735.228 1351.91C729.286 1337.41 728.733 1335.61 731.162 1338.7L732.689 1340.64L732.063 1335.64C730.915 1326.48 728.652 1320.57 718.224 1299.53C702.887 1268.57 689.225 1235.45 682.587 1213.14C678.306 1198.75 657.97 1164.24 639.559 1140.14C621.925 1117.05 609.45 1104.85 597.135 1098.66C583.824 1091.97 573.696 1090.85 560.908 1094.65C558.283 1095.43 555.787 1096.06 555.363 1096.06C554.938 1096.05 551.338 1097.73 547.363 1099.79L540.135 1103.53L530.07 1113.58L520.005 1123.64L515.82 1132.14C511.308 1141.3 510.218 1141.2 514.016 1131.96C520.182 1116.97 535.082 1102.32 552.057 1094.54L557.769 1091.93L562.222 1086.28C570.225 1076.14 573.813 1059.22 578.059 1011.64C578.354 1008.34 579.043 1000.69 579.591 994.637C581.735 970.96 583.595 940.357 584.574 912.637C585.138 896.687 585.83 878.237 586.112 871.637C586.395 865.037 586.667 788.312 586.717 701.137L586.809 542.637L588.156 517.032C593.426 416.879 609.676 341.28 638.321 283.637C655.063 249.949 673.114 228.096 703.135 205.174C719.611 192.594 724.217 188.464 727.516 183.315C731.857 176.54 736.397 162.033 739.091 146.33C741.667 131.32 742.162 130.769 740.614 144.637C738.855 160.39 735.688 178.147 731.609 195.137C724.805 223.478 724.59 234.428 730.148 269.637C739.906 331.45 741.143 345.428 741.123 393.637C741.093 463.712 729.903 518.217 696.57 610.637C668.657 688.032 658.159 719.45 648.122 755.637L642.852 774.637L639.822 787.137C637.462 791.039 621.814 856.635 616.208 886.137C602.974 955.765 594.056 1044.94 597.614 1072.07C598.294 1077.26 599.497 1083.33 600.285 1085.56C602.788 1092.66 609.722 1102.31 620.083 1113.14C632.196 1125.79 638.812 1133.92 649.411 1149.16C657.722 1161.11 669.879 1182.04 674.812 1192.89C676.376 1196.32 677.818 1199.14 678.017 1199.14C678.217 1199.14 676.831 1192.72 674.938 1184.89C673.045 1177.05 665.93 1148.54 665.094 1144.14M537.172 36.7077C536.943 38.3977 536 44.9227 535.075 51.2077L533.393 62.6367L533.906 80.6367L534.418 98.6367L537.08 108.637C540.493 121.459 547.272 137.241 554.214 148.529C557.223 153.42 559.518 157.587 559.316 157.789C558.694 158.411 547.98 141.774 544.322 134.505C537.161 120.275 532.029 101.144 530.979 84.7587C530.307 74.2857 532.596 52.8647 535.64 41.1367C536.711 37.0117 537.4 35.0187 537.172 36.7077ZM682.553 48.1877C687.011 68.9777 688.736 94.6877 686.782 111.252C684.75 128.48 679.542 145.643 668.914 170.137C666.409 175.912 662.172 187.162 659.499 195.137C656.826 203.112 654.913 208.062 655.247 206.137C656.237 200.436 661.376 184.932 669.168 164.137C682.374 128.896 685.117 115.59 684.938 87.6367L684.823 69.6367L682.79 56.6587C680.702 43.3197 680.58 38.9897 682.553 48.1877ZM540.635 166.862C540.635 168.98 550.03 178.301 554.524 180.642C559.164 183.059 558.969 183.975 554.2 182.162C552.789 181.625 551.635 181.411 551.635 181.685C551.635 181.959 554.527 194.21 558.061 208.91C567.161 246.758 572.735 276.508 575.57 302.348C577.544 320.348 576.474 318.793 574.049 300.137C570.397 272.048 566.364 250.968 557.505 213.662L549.437 179.687L547.659 178.442C545.296 176.786 539.207 167.231 540.006 166.432C540.352 166.087 540.635 166.28 540.635 166.862ZM728.233 190.637C726.614 194.701 723.681 210.948 722.726 221.137C721.409 235.201 722.566 249.692 728.085 288.251C734.368 332.143 735.643 346.317 736.309 379.637C737.307 429.63 733.085 467.176 721.016 515.637C712.52 549.752 706.616 568.701 689.39 617.137C674.011 660.383 659.48 703.015 653.26 723.137C637.527 774.038 620.151 843.126 612.139 886.637C599.546 955.027 591.465 1027.61 592.939 1059.09C593.761 1076.64 596.332 1086.11 603.065 1096.39L604.756 1098.97L598.395 1095.59C587.512 1089.81 573.7 1087.54 564.878 1090.07C561.365 1091.07 560.665 1090.19 563.27 1088.02C565.679 1086.02 569.385 1079.84 571.747 1073.88C573.723 1068.89 577.167 1053.26 578.187 1044.65C578.449 1042.44 579.328 1035.24 580.14 1028.64C583.075 1004.76 585.759 970.918 588.704 920.637C589.298 910.511 590.14 826.736 590.629 729.137L591.499 555.637L593.082 526.137C595.454 481.907 598.005 456.016 603.184 423.585C611.948 368.712 625.922 321.483 644.163 285.082C660.989 251.503 675.034 234.278 705.698 209.615C714.862 202.245 723.861 194.51 725.695 192.426C727.529 190.342 728.671 189.537 728.233 190.637ZM577.383 322.637C577.372 324.837 577.167 325.619 576.928 324.375C576.689 323.131 576.697 321.331 576.947 320.375C577.197 319.419 577.394 320.437 577.383 322.637ZM731.979 1386.27C734.557 1387.77 736.635 1393.25 736.635 1398.56V1403.04L731.77 1402.47C728.661 1402.1 726.655 1402.3 726.211 1403.01C724.748 1405.38 723.64 1403.96 723.767 1399.89L723.898 1395.64L724.523 1399.14C724.954 1401.55 725.41 1402.23 725.993 1401.32C726.524 1400.49 728.381 1400.1 730.987 1400.27L735.135 1400.55L734.839 1396.1C734.481 1390.71 732.478 1387.39 729.067 1386.53L726.524 1385.89L724.08 1388.19C721.433 1390.67 720.619 1389.3 723.206 1386.71C725.005 1384.91 729.272 1384.7 731.979 1386.27ZM707.605 1401.37C711.13 1403.22 714.309 1408.39 715.587 1414.35C716.831 1420.15 715.989 1421.93 712.808 1420.23C709.844 1418.64 705.224 1418.89 701.11 1420.85L697.517 1422.56L696.579 1421.1C695.124 1418.83 693.647 1412.97 693.641 1409.44C693.629 1402.9 701.673 1398.25 707.605 1401.37ZM708.928 1404.15C711.328 1406.04 712.623 1408.87 714.053 1415.34L714.65 1418.04L709.821 1417.47L704.993 1416.9L701.699 1418.6C699.812 1419.58 698.031 1419.93 697.528 1419.43C697.046 1418.95 696.133 1415.97 695.499 1412.81L694.346 1407.07L696.665 1404.6L698.984 1402.14H702.674C704.861 1402.14 707.41 1402.96 708.928 1404.15ZM550.635 1412.07C559.885 1413.92 566.939 1420.12 571.666 1430.55C574.805 1437.47 576.171 1444.91 574.708 1447.12L573.725 1448.61L570.43 1447.25C568.618 1446.51 564.203 1445.22 560.62 1444.4L554.104 1442.9L548.265 1444.11C545.053 1444.78 539.525 1446.83 535.981 1448.68L529.538 1452.04L527.701 1450.2C524.76 1447.26 521.635 1437.62 521.635 1431.49C521.635 1421.7 527.14 1415.27 537.894 1412.48C543.459 1411.04 545.205 1410.98 550.635 1412.07ZM674.635 1413.94C678.803 1416.22 683.439 1424.61 683.857 1430.64L684.135 1434.64L682.135 1434.34C672.875 1432.99 671.884 1433.04 666.66 1435.03L661.185 1437.12L659.787 1435.72C659.019 1434.95 657.789 1432 657.055 1429.18L655.721 1424.03L656.928 1420.43C659.282 1413.41 667.895 1410.25 674.635 1413.94ZM552.135 1414.01C562.817 1416.83 570.407 1426.9 572.309 1440.78C572.981 1445.68 572.503 1445.94 567.539 1443.39L564.135 1441.64H554.015H543.895L536.711 1445.32L529.527 1449.01L527.614 1445.86C526.563 1444.13 525.058 1439.89 524.27 1436.44C521.959 1426.31 524.447 1419.86 532.086 1416.16C536.782 1413.89 547.365 1412.75 552.135 1414.01ZM674.463 1415.39C677.132 1416.68 681.144 1424 682.168 1429.46L682.865 1433.17L680.185 1432.16C676.217 1430.65 672.259 1430.91 666.626 1433.05L661.595 1434.96L660.201 1432.26C656.513 1425.13 657.438 1417.46 662.25 1415.27C665.35 1413.85 671.395 1413.92 674.463 1415.39ZM631.671 1425.39L636.132 1427.64L639.049 1433.58C641.589 1438.76 643.817 1449.14 642.388 1449.14C642.112 1449.14 639.917 1448.43 637.511 1447.57C632.224 1445.68 624.599 1446.35 619.017 1449.2C616.924 1450.26 615.094 1451.14 614.949 1451.14C614.175 1451.14 611.548 1444.71 610.609 1440.52L609.529 1435.7L611.204 1431.32L612.88 1426.93L617.007 1425.05C622.468 1422.58 626.269 1422.66 631.671 1425.39ZM630.651 1425.99C634.465 1428.02 639.307 1436.34 640.325 1442.61L640.894 1446.12L637.704 1445.01C633.353 1443.49 624.803 1444.35 619.856 1446.8L615.77 1448.82L613.702 1443.84C609.958 1434.83 611.309 1429.09 617.878 1426.11C623.242 1423.68 626.252 1423.65 630.651 1425.99Z" />

  <g class="detail-region" data-region="tibialis-anterior" tabindex="0" role="button">
    <path id="tibialisAnterior" transform="translate(42.02,189.68) scale(1)" d="M8.71694 0.992632C10.3359 5.05663 13.2689 21.3036 14.2239 31.4926C15.5409 45.5566 14.3839 60.0477 8.86489 98.6066C2.58189 142.499 1.30689 156.673 0.640889 189.993C-0.357112 239.986 3.86486 277.532 15.9339 325.993C24.4299 360.108 30.3338 379.057 47.5598 427.493C62.9388 470.739 77.47 513.371 83.69 533.493C99.423 584.394 116.799 653.482 124.811 696.993C137.404 765.383 145.485 837.967 144.011 869.444C143.189 886.998 140.618 896.47 133.885 906.746L132.194 909.326L138.554 905.949C149.437 900.171 163.25 897.893 172.072 900.423C175.585 901.431 176.284 900.542 173.679 898.38C171.27 896.38 167.565 890.198 165.203 884.234C163.227 879.245 159.782 863.616 158.762 855.008C158.5 852.8 157.622 845.593 156.81 838.993C153.875 815.118 151.191 781.274 148.246 730.993C147.652 720.867 146.81 637.092 146.321 539.493L145.451 365.993L143.868 336.493C141.496 292.263 138.945 266.372 133.766 233.941C125.002 179.068 111.028 131.839 92.7869 95.4376C75.9609 61.8586 61.916 44.6336 31.252 19.9706C22.088 12.6006 13.0889 4.86563 11.2549 2.78163C9.4209 0.697634 8.27894 -0.107374 8.71694 0.992632Z M687.033 1.99263C685.414 6.05663 682.481 22.3036 681.526 32.4926C680.209 46.5566 681.366 61.0477 686.885 99.6066C693.168 143.499 694.443 157.673 695.109 190.993C696.107 240.986 691.885 278.532 679.816 326.993C671.32 361.108 665.416 380.057 648.19 428.493C632.811 471.739 618.28 514.371 612.06 534.493C596.327 585.394 578.951 654.482 570.939 697.993C558.346 766.383 550.265 838.967 551.739 870.444C552.561 887.998 555.132 897.47 561.865 907.746L563.556 910.326L557.196 906.949C546.313 901.171 532.5 898.893 523.678 901.423C520.165 902.431 519.466 901.542 522.071 899.38C524.48 897.38 528.185 891.198 530.547 885.234C532.523 880.245 535.968 864.616 536.988 856.008C537.25 853.8 538.128 846.593 538.94 839.993C541.875 816.118 544.559 782.274 547.504 731.993C548.098 721.867 548.94 638.092 549.429 540.493L550.299 366.993L551.882 337.493C554.254 293.263 556.805 267.372 561.984 234.941C570.748 180.068 584.722 132.839 602.963 96.4376C619.789 62.8586 633.834 45.6336 664.498 20.9706C673.662 13.6006 682.661 5.86563 684.495 3.78163C686.329 1.69763 687.471 0.892626 687.033 1.99263Z" />
  </g>
</svg>
