<svg width="340" height="649" viewBox="0 0 381 760" preserveAspectRatio="xMidYMid meet" fill="none" xmlns="http://www.w3.org/2000/svg">
<path fill-rule="evenodd" clip-rule="evenodd" d="M173.864 1.02157C162.453 4.32157 153.367 11.8966 148.234 22.3866L145.397 28.1856L145.024 38.2566L144.651 48.3276L142.508 49.2696L140.364 50.2106L140.407 55.2106L140.45 60.2106L144.407 68.2106C147.055 73.5636 149.219 76.6157 150.948 77.4357L153.532 78.6606L155.336 84.6196C157.265 90.9896 156.917 97.4606 154.444 101.211C153.718 102.311 149.804 105.447 145.744 108.181C141.685 110.914 132.739 117.234 125.864 122.225C118.989 127.216 112.781 131.656 112.068 132.093C111.355 132.529 106.751 133.71 101.837 134.717C96.9223 135.723 90.3923 137.696 87.3243 139.101C80.0473 142.432 71.8353 150.889 67.9273 159.078L64.8733 165.476L63.9373 174.843C63.4223 179.995 63.3513 187.36 63.7803 191.21L64.5593 198.21L61.2713 204.711L57.9823 211.211L56.8753 220.124C56.2393 225.241 56.0573 232.988 56.4493 238.318L57.1303 247.601L52.8863 252.405C46.7183 259.387 43.2103 265.968 39.9293 276.71C36.5123 287.896 36.4753 288.107 33.9173 310.71C31.6703 330.569 28.9493 342.652 26.3813 344.183C18.2263 349.042 15.5213 351.252 12.0603 355.882C9.8683 358.813 6.2283 363.106 3.9703 365.422C-0.411702 369.917 -0.718705 370.753 0.899295 373.777L1.9343 375.711L6.1493 375.704C8.4673 375.7 11.6683 375.018 13.2633 374.187C14.8573 373.356 16.3293 372.843 16.5353 373.048C16.7403 373.253 14.6123 378.999 11.8063 385.816C4.7583 402.941 3.8643 405.538 3.8643 408.883V411.804L6.8583 413.508C8.5043 414.444 9.8543 415.794 9.8583 416.507C9.8643 417.883 19.2573 422.685 21.9743 422.701C22.8603 422.707 25.2053 421.611 27.1863 420.268L30.7863 417.824L34.3053 418.395L37.8233 418.966L40.6243 415.968C44.1653 412.177 54.0073 393.268 56.8923 384.711C58.3663 380.342 59.3243 374.265 59.8153 366.173L60.5453 354.135L64.5423 345.078C66.7403 340.096 71.8153 330.484 75.8193 323.717C87.7223 303.602 91.4263 292.331 92.5783 272.71C93.1853 262.383 93.5043 261.5 100.696 250.275L105.549 242.7L114.457 266.455L123.364 290.21L123.325 300.71C123.281 312.493 121.111 325.604 116.871 339.71C109.743 363.42 106.72 376.347 102.954 399.211C95.0513 447.184 96.2113 470.808 108.378 509.711C109.84 514.386 111.53 519.786 112.133 521.711C113.575 526.318 113.438 543.014 111.911 548.711C111.248 551.186 109.161 557.366 107.274 562.445C102.464 575.391 100.656 584.619 100.657 596.211C100.658 606.917 101.325 610.551 107.772 634.935C115.026 662.372 116.06 668.152 116.589 684.211L117.082 699.211L113.473 704.561C111.488 707.504 109.864 710.56 109.864 711.352C109.864 713.568 102.87 719.718 93.4903 725.751C83.9623 731.878 82.0073 734.357 83.4443 738.488C84.7033 742.107 93.8873 746.968 103.423 749.063C107.431 749.944 114.43 752.566 118.976 754.889L127.241 759.113L135.802 759.51L144.364 759.908L149.785 758.021C156.575 755.657 159.06 752.49 159.607 745.502L160.022 740.211L157.297 732.711C155.429 727.568 154.336 722.069 153.82 715.211C153.406 709.711 152.525 703.186 151.863 700.711C150.505 695.637 151.18 672.249 152.938 663.439C155.161 652.298 157.194 644.933 159.985 637.906C164.82 625.735 166.927 616.736 167.522 605.711C168.184 593.444 166.944 583.353 163.404 572.223C160.163 562.03 160.211 558.655 163.791 545.211C165.402 539.161 167.674 530.386 168.84 525.711C170.005 521.036 171.845 513.836 172.929 509.711C177.907 490.763 183.866 460.863 185.385 447.211C186.303 438.961 187.318 431.086 187.639 429.711L188.225 427.211L188.547 429.711C188.725 431.086 189.575 438.061 190.438 445.211C192.496 462.271 196.748 482.631 202.864 504.711C204.616 511.036 207.51 522.286 209.294 529.711C211.079 537.136 213.568 546.868 214.825 551.338L217.11 559.465L214.53 567.338C213.11 571.668 211.196 579.013 210.276 583.659L208.603 592.107L209.139 603.159C209.741 615.567 211.597 624.466 215.789 635.031C220.465 646.818 222.697 655.513 224.433 668.711C226.232 682.388 225.946 700.07 223.843 705.211C223.168 706.861 222.632 711.718 222.652 716.004L222.689 723.796L220.375 729.504C219.103 732.643 217.745 737.761 217.358 740.878C216.382 748.738 217.998 753.109 223.134 756.509L227.218 759.211H238.291H249.364L257.401 755.086C261.821 752.817 269.203 750.009 273.806 748.845C288.254 745.191 296.32 739.002 293.272 733.908C292.713 732.975 288.876 729.96 284.745 727.209C274.172 720.168 266.864 713.837 266.864 711.718C266.864 710.725 265.211 707.504 263.19 704.561L259.517 699.211L259.593 686.711C259.694 670.128 261.654 659.537 271.34 623.211C278.136 597.725 277.413 583.237 268.096 558.211C261.613 540.796 261.423 529.161 267.306 509.711C277.817 474.962 279.503 440.909 272.873 397.211C270.118 379.047 267.442 368.26 259.599 343.71C257.93 338.485 256.228 332.41 255.818 330.21C255.408 328.01 254.333 323.735 253.429 320.71C252.525 317.685 251.519 310.008 251.195 303.65L250.605 292.089L255.311 280.65C257.899 274.358 262.104 263.655 264.655 256.865L269.292 244.521L271.169 246.865C272.201 248.155 274.388 250.696 276.028 252.513C280.306 257.253 282.817 263.431 282.842 269.281C282.868 275.297 285.955 290.373 288.458 296.711C291.141 303.503 294.183 308.678 305.975 326.503C318.188 344.966 320.861 350.976 320.872 359.999C320.881 367.528 322.375 377.456 324.516 384.211C327.071 392.274 337.09 411.795 340.572 415.494L343.779 418.901L347.822 418.218C350.13 417.828 351.864 417.933 351.864 418.463C351.864 419.798 356.49 421.711 359.72 421.711C361.239 421.711 363.355 421.05 364.423 420.243C365.49 419.435 366.926 418.76 367.613 418.743C368.3 418.725 370.662 416.964 372.863 414.828L376.864 410.945L376.867 408.078C376.869 406.501 374.114 398.103 370.746 389.415C367.378 380.728 364.853 373.389 365.135 373.107C365.417 372.825 367.326 373.295 369.378 374.152C373.834 376.014 378.015 376.16 379.664 374.511C381.722 372.453 381.036 368.218 378.227 365.635C376.777 364.302 373.24 360.06 370.368 356.21L365.147 349.21L358.842 345.71L352.537 342.21L349.638 333.767C346.533 324.723 343.908 312.697 341.878 298.21C338.275 272.503 333.832 260.825 323.922 251.006L317.954 245.094L318.547 234.634L319.139 224.174L317.432 215.692C316.494 211.027 314.673 205.315 313.387 202.999L311.049 198.789L311.573 186.999C312.185 173.244 311.041 165.823 306.97 157.124C300.313 142.897 289.541 135.832 271.358 133.766L263.134 132.831L240.613 117.219L218.093 101.606L217.479 98.5336C215.701 89.6436 217.54 78.2896 220.902 77.4106C222.254 77.0576 224.387 73.7637 227.447 67.3047L231.985 57.7227L231.675 53.9666L231.364 50.2106L229.239 49.2776L227.114 48.3437L226.648 38.6656L226.182 28.9866L223.098 22.3976C219.168 13.9986 212.576 7.40656 204.177 3.47656L197.588 0.39256L187.976 0.0565618C182.05 -0.150438 176.638 0.219573 173.864 1.02157ZM152.507 22.6966C157.707 12.3036 167.099 5.50557 178.655 3.77257C189.828 2.09557 199.653 4.22558 208.414 10.2226C216.469 15.7356 221.016 23.1787 222.884 33.9057L224.014 40.3946L222.893 47.8027C222.277 51.8767 221.509 56.7306 221.186 58.5876L220.6 61.9656L221.972 61.5076C222.727 61.2566 223.832 59.3126 224.428 57.1896C225.024 55.0656 226.11 53.1286 226.84 52.8856L228.169 52.4427L227.593 55.9936C227.276 57.9476 225.659 62.6207 223.999 66.3777L220.982 73.2106L219.018 72.9137L217.053 72.6167L214.813 80.1637C213.581 84.3147 212.433 87.7106 212.263 87.7106C212.092 87.7106 209.345 85.8757 206.158 83.6337C197.185 77.3207 190.779 75.1957 188.272 77.7027C187.617 78.3577 186.242 78.3017 184.215 77.5367L181.149 76.3797L176.821 78.1107C174.441 79.0637 169.871 81.6816 166.666 83.9306C163.461 86.1786 160.686 87.8366 160.5 87.6146C160.314 87.3926 158.892 83.9327 157.341 79.9267L154.521 72.6427L152.468 72.9267L150.414 73.2106L147.205 65.7106C145.44 61.5856 143.692 56.9736 143.321 55.4606L142.647 52.7106H144.161C145.056 52.7106 146.224 54.4177 147.019 56.8887C147.759 59.1867 148.995 61.2726 149.766 61.5226L151.168 61.9786L150.447 58.5946C146.911 41.9746 147.435 32.8356 152.507 22.6966ZM164.614 88.6926C167.227 86.3896 171.389 83.4466 173.864 82.1546C178.415 79.7766 183.317 79.0166 184.26 80.5426C184.543 80.9996 185.009 141.067 185.296 214.026C185.583 286.985 186.102 347.81 186.449 349.194C186.798 350.585 186.648 351.71 186.112 351.71C185.58 351.71 184.875 349.347 184.546 346.46C184.218 343.573 183.047 333.785 181.945 324.71C180.843 315.635 179.01 296.51 177.873 282.21C176.736 267.91 175.097 252.61 174.23 248.21C173.363 243.81 172.026 237.06 171.26 233.21C170.493 229.36 168.949 219.685 167.829 211.71C165.072 192.082 162.545 180.432 159.266 172.242L156.521 165.383L150.259 158.745C143.697 151.789 125.241 138.401 119.636 136.53C117.836 135.929 116.009 135.122 115.575 134.736C114.829 134.072 122.847 128.189 146.864 111.779L157.364 104.604L158.538 101.408C159.184 99.6486 159.746 97.0116 159.788 95.5456L159.864 92.8806L164.614 88.6926ZM189.224 350.403C188.599 349.779 188.741 81.7186 189.367 80.7066C190.656 78.6196 195.749 79.8386 201.459 83.6026C209.854 89.1356 212.673 92.1576 213.452 96.4586C214.665 103.161 216.462 105.08 230.011 114.143C257.882 132.787 261.386 135.711 255.858 135.711C253.096 135.711 233.75 148.954 226.11 156.074L219.527 162.21L215.729 170.286L211.931 178.362L209.476 191.286C208.125 198.394 206.029 211.185 204.818 219.71C203.607 228.235 201.799 239.035 200.802 243.71C198.734 253.401 198.547 255.126 195.865 289.21C194.783 302.96 193.462 317.585 192.929 321.71C192.396 325.835 191.421 334.055 190.762 339.977C190.104 345.899 189.411 350.59 189.224 350.403ZM67.3153 188.033C65.0693 164.066 76.4223 145.687 97.2623 139.55C104.468 137.429 115.871 137.542 120.364 139.781L123.364 141.276L123.267 147.491L123.171 153.705L119.476 161.181C115.369 169.491 106.854 178.873 99.5193 183.172C97.0523 184.618 92.1823 186.51 88.6983 187.377C85.2143 188.244 79.1363 190.428 75.1903 192.231L68.0163 195.51L67.3153 188.033ZM249.598 141.843L252.981 139.781L256.364 137.718L265.509 137.715C285.505 137.707 298.307 145.805 305.019 162.71L307.202 168.21L307.283 180.871C307.328 187.834 307.105 193.794 306.788 194.114C306.471 194.434 304.446 193.859 302.288 192.836C298.741 191.155 294.565 189.742 280.919 185.608C275.489 183.963 266.604 177.559 261.514 171.621C256.067 165.266 250.874 154.206 250.18 147.481L249.598 141.843ZM126.154 146.334C125.884 146.065 125.964 145.358 126.331 144.764C127.195 143.366 140.517 152.51 147.443 159.256C157.084 168.647 160.376 178.463 165.87 214.21C166.377 217.51 167.54 224.616 168.454 230.001C169.367 235.386 169.914 239.994 169.668 240.24C168.877 241.03 145.76 231.828 137.934 227.607C127.925 222.211 118.859 215.361 110.687 207.023C104.259 200.465 96.8643 190.394 96.8643 188.198C96.8643 187.617 98.3273 186.291 100.114 185.251C108.556 180.341 116.964 171.315 121.649 162.132C123.903 157.713 126.928 147.108 126.154 146.334ZM207.871 215.21C214.089 171.531 217.929 163.564 240.246 148.024C243.554 145.721 246.561 144.024 246.93 144.252C247.299 144.48 247.895 146.886 248.255 149.599C249.757 160.922 260.714 176.503 272.241 183.71C275.319 185.635 277.844 187.478 277.851 187.805C277.894 189.824 268.498 202.301 262.483 208.21C254.667 215.889 239.755 226.525 232.19 229.815C225.473 232.737 204.522 240.705 204.272 240.434C204.158 240.311 204.473 237.735 204.972 234.71C205.47 231.685 206.774 222.91 207.871 215.21ZM269.864 221.71C269.864 208.905 271.525 202.572 276.999 194.511C279.166 191.32 281.141 188.71 281.389 188.71C283.264 188.71 300.933 195.065 303.134 196.532C307.002 199.108 310.494 204.127 312.585 210.115L314.364 215.21L314.309 231.21L314.254 247.21L312.533 252.804C311.587 255.88 310.201 259.234 309.453 260.257L308.093 262.117L297.229 258.787C284.63 254.925 280.011 252.277 275.846 246.527C271.427 240.426 269.864 233.942 269.864 221.71ZM64.9523 205.92C68.5073 198.652 72.0853 195.85 82.4983 192.175C86.2743 190.842 90.3603 189.743 91.5773 189.731L93.7893 189.71L97.8293 195.659C100.451 199.52 102.433 203.995 103.475 208.409L105.081 215.21L104.525 224.782C103.862 236.198 101.378 243.581 96.1423 249.699L92.4353 254.029L81.0693 259.369C74.8183 262.307 68.8723 264.71 67.8563 264.71H66.0083L63.8873 259.043C61.3733 252.322 59.9373 242.276 59.8953 231.096C59.8543 220.354 61.2223 213.545 64.9523 205.92ZM107.582 238.21L107.439 222.964L107.296 207.718L111.33 211.621C121.444 221.408 138.89 231.827 155.218 237.834C159.698 239.481 165.198 241.901 167.44 243.21L171.516 245.59L172.683 250.9C173.325 253.821 174.326 263.635 174.908 272.71C176.482 297.254 182.588 350.816 184.537 357.186C185.685 360.938 168.654 343.171 160.023 331.614C155.261 325.237 147.862 315.337 143.583 309.614C139.303 303.892 133.423 296.411 130.515 292.989L125.23 286.769L122.114 277.989C120.4 273.161 116.43 262.235 113.29 253.71L107.582 238.21ZM217.143 238.36C235.199 231.613 250.174 222.884 260.976 212.81C263.94 210.047 266.589 207.77 266.864 207.749C267.139 207.729 267.297 215.249 267.215 224.461L267.067 241.21L264.968 246.69C263.813 249.704 259.83 259.947 256.116 269.453L249.364 286.736L241.054 296.473C236.484 301.828 228.609 312.277 223.554 319.693C218.5 327.109 212.292 335.659 209.76 338.693C205.392 343.926 191.199 358.71 190.544 358.71C190.374 358.71 191.003 353.55 191.941 347.243C192.879 340.936 194.158 330.248 194.783 323.493C195.407 316.737 196.351 306.935 196.879 301.71C197.408 296.485 198.525 283.435 199.363 272.71C201.075 250.797 202.156 245.399 205.234 243.399C206.405 242.637 211.765 240.37 217.143 238.36ZM124.53 324.46C126.355 316.418 128.109 301.004 127.603 297.46C127.387 295.948 127.497 294.71 127.846 294.71C128.742 294.71 136.427 303.791 143.358 313.039L149.226 320.868C151.99 324.844 156.655 331.557 159.911 336.245C162.114 339.294 163.674 341.71 163.236 341.71C162.926 341.71 160.175 340.984 157.123 340.097L151.575 338.484L142.258 338.892L136 339.166C132.199 339.735 129.497 341.008 126.601 343.618C126.477 343.736 126.359 343.844 126.248 343.941C124.198 345.739 121.248 348.965 119.692 351.11C116.115 356.043 116.142 354.815 119.863 343.368L122.863 334.142C123.329 332.592 123.645 331.147 123.76 329.8C123.746 328.701 124.019 326.715 124.53 324.46ZM122.719 350.983C127.116 345.452 131.128 342.804 136.864 341.646C145.971 339.809 158.148 341.738 166.364 346.321C171.552 349.215 181.723 358.988 184.984 364.211L186.857 367.211L186.86 390.501L186.864 413.791L184.873 417.693C182.644 422.063 178.76 425.302 171.364 428.96C162.149 433.519 153.563 435.983 145.181 436.475L136.999 436.955L132.465 434.76C123.139 430.245 113.025 415.762 109.325 401.624C105.583 387.324 111.443 365.167 122.719 350.983ZM194.776 358.913C202.579 349.537 208.922 345.378 220.364 342.14C227.453 340.133 239.244 340.802 244.507 343.51C255.746 349.292 266.412 370.303 267.591 388.982L268.144 397.754L265.305 406.482C261.924 416.877 254.364 428.524 248.056 433.057L242.83 435.077C241.458 435.624 240.063 436.033 238.649 436.298C237.828 436.452 237.16 436.587 236.636 436.726C234.508 436.976 231.362 437.184 230.2 436.917L230.156 436.92L221.827 434.761C209.929 431.677 199.825 426.725 194.436 421.336L189.864 416.764V390.789V364.815L194.776 358.913ZM243.748 438.018C253.381 434.179 261.807 423.56 267.023 408.413L269.364 401.615L270.776 408.413L272.188 415.211L272.275 444.211L272.362 473.211L270.526 482.211C268.33 492.978 264.57 507.422 261.284 517.711C259.798 522.366 258.885 527.645 258.877 531.628C258.87 535.157 258.351 544.552 258.011 544.211L257.931 543.849C257.958 544.056 257.986 544.181 258.011 544.211L255.681 541.688C249.367 534.852 243.958 533.963 236.81 538.587C232.416 541.429 226.217 547.512 222.042 553.078C222.009 553.123 221.975 553.167 221.943 553.211C221.936 553.22 221.93 553.229 221.923 553.237C221.917 553.245 221.912 553.253 221.906 553.261C221.902 553.265 221.899 553.27 221.896 553.274C221.873 553.305 221.85 553.336 221.827 553.367C221.753 553.469 221.68 553.568 221.611 553.663C220.997 554.504 220.581 555.075 220.198 555.053C219.39 555.007 218.732 552.325 216.683 543.984L216.477 543.143L216.177 541.924L216.001 541.211C214.374 534.611 211.873 524.936 210.443 519.711C198.632 476.56 194.642 456.97 193.385 435.961C192.969 428.99 193.113 425.711 193.838 425.711C194.424 425.711 196.582 426.765 198.634 428.053C203.27 430.963 217.035 436.305 223.511 437.707C226.18 438.285 229.604 439.253 231.119 439.858C232.281 440.124 235.427 439.916 237.555 439.666C238.079 439.528 238.747 439.393 239.567 439.239C240.982 438.973 242.377 438.564 243.748 438.018ZM212.918 591.514C215.68 568.466 224.928 549.8 237.864 541.165C244.717 536.59 250.486 538.769 258 548.77C269.852 564.542 274.615 588.615 270.356 611.211C268.986 621.494 268.321 624.171 264.519 633.033C264.731 633.245 263.771 637.646 262.386 642.814C261.002 647.982 258.944 657.295 257.813 663.508L255.757 674.805L256.146 688.008C256.36 695.27 257.143 703.089 257.886 705.384L259.236 709.558L257.917 711.147L256.599 712.736L255.352 711.701C254.666 711.132 253.86 709.439 253.559 707.939C253.259 706.438 251.844 703.486 250.413 701.379L247.813 697.547L245.894 696.797L243.945 695.754C241.06 694.21 234.626 694.489 232.087 696.268C230.864 697.124 229.864 697.51 229.864 697.127C229.864 696.743 229.655 691.205 229.4 684.82C228.557 663.696 226.813 655.248 218.027 629.711C215.851 623.386 213.561 614.297 212.937 609.514L211.804 600.817L212.918 591.514ZM107.991 571.497C112.275 558.973 119.16 548.245 126.46 542.721C128.607 541.096 131.188 539.754 132.195 539.739C135.195 539.693 144.13 546.247 148.796 551.917C157.843 562.911 162.731 577.568 163.567 596.211C164.259 611.629 162.964 619.632 157.353 634.633C154.869 641.274 152.133 649.739 151.274 653.443C149.126 662.705 146.864 681.643 146.864 690.364V697.592L144.114 696.158C140.959 694.512 136.095 694.292 132.561 695.636L130.127 696.562C128.204 697.328 127.42 698.755 126.811 699.864C126.53 700.375 126.286 700.819 125.984 701.1C124.407 703.911 122.826 707.448 122.471 708.961C122.116 710.474 121.168 711.711 120.364 711.711C118.118 711.711 117.594 707.601 119.315 703.482C122.66 695.476 120.663 669.852 114.91 646.961C112.235 638.546 109.659 628.971 107.87 621.608C103.546 607.379 103.234 585.411 107.991 571.497ZM125.321 708.676C127.895 701.703 128.384 700.987 132.223 698.577L135.364 696.606L139.226 697.078C147.187 698.052 151.71 706.346 150.515 717.779L149.887 723.782L151.776 727.997C154.868 734.899 155.864 738.742 155.864 743.778C155.864 750.117 155.316 751.266 151.015 753.941L147.364 756.211H138.309H129.254L119.809 751.578C114.614 749.03 107.664 746.396 104.364 745.725C98.8433 744.603 89.5783 740.754 87.4873 738.713C85.4173 736.693 88.0133 733.108 94.1133 729.561C103.67 724.005 111.589 717.076 112.891 713.13C114.209 709.135 115.018 708.863 116.377 711.961L117.364 714.211H120.321H123.279L125.321 708.676ZM226.206 717.473C225.333 708.125 228.658 699.952 234.252 697.691C237.926 696.207 241.46 696.638 244.966 698.999L248.364 701.287L250.943 707.749L253.522 714.211L256.13 714.521L258.739 714.832L260.443 712.23L262.148 709.629L263.849 713.429C265.971 718.169 270.071 721.798 281.164 728.756L289.861 734.211L289.862 736.362C289.865 739.385 284.396 742.344 273.449 745.246C268.452 746.57 260.595 749.579 255.988 751.932L247.611 756.211L238.488 756.182L229.364 756.153L226.144 754.421C224.372 753.469 222.46 751.825 221.894 750.766C219.601 746.482 221.274 734.62 225.257 726.917L226.808 723.918L226.206 717.473ZM254.36 348.871C252.728 346.701 249.912 343.911 248.103 342.672C243.283 340.192 233.053 337.724 225 339C224.942 339.009 224.852 339.023 224.735 339.041L224.583 339.065L224.143 339.132L224.133 339.134C222.221 339.427 218.014 340.072 217.525 340.21C214.358 341.035 211.553 341.71 211.292 341.71C211.031 341.71 212.515 339.496 214.591 336.791C216.666 334.085 219.631 330.035 221.179 327.791L222.306 326.234L226.071 320.71C225.975 320.94 225.949 321.083 226 321.127L226.071 320.71C227.023 318.441 234.771 307.735 240.595 300.762L246.364 293.855L246.938 303.033C247.254 308.08 248.561 316.153 249.843 320.972C250.689 324.151 251.339 327.042 251.607 328.719L253.759 338.171C258.782 351.115 259.003 355.044 254.36 348.871ZM102.364 429.211L104.247 415.933L106.131 402.656L111.455 413.433C115.001 420.611 118.476 425.986 121.86 429.525C127.176 435.085 135.427 439.685 140.114 439.701C141.626 439.707 142.864 439.932 142.864 440.202L151.181 438.692C159.407 436.608 174.434 430.553 178.364 427.739C180.564 426.164 182.541 424.838 182.758 424.793C182.974 424.748 182.896 430.449 182.585 437.461C181.731 456.669 177.565 478.8 168.232 513.711C166.835 518.936 163.861 530.636 161.623 539.711C159.385 548.786 157.374 556.422 157.156 556.681C156.937 556.939 155.576 555.589 154.13 553.681C147.22 544.557 136.963 536.803 131.714 536.733C130.807 536.721 127.721 538.289 124.855 540.217L120.101 542.615L116.937 544.211L117.433 537.211C117.993 529.299 117.038 524.573 110.968 505.224C108.727 498.081 105.883 487.506 104.648 481.724L102.402 471.211L102.383 450.211L102.364 429.211ZM38.8983 300.21C41.4723 280.083 45.6973 268.048 53.7303 257.96C56.0293 255.073 58.3013 252.71 58.7793 252.71C59.2563 252.71 59.9473 253.948 60.3143 255.46C60.6813 256.972 61.8953 260.123 63.0123 262.46L65.0423 266.71H67.8833C69.4463 266.71 73.5683 265.404 77.0443 263.807C80.5203 262.21 85.0983 260.188 87.2183 259.314L91.0723 257.725L90.3313 259.468C89.9243 260.426 89.2353 266.451 88.8003 272.857C87.4563 292.642 84.7373 300.656 71.4103 324.097C67.3103 331.309 62.5223 340.585 60.7713 344.71L58.5753 349.88L58.5521 349.935L58.5018 349.907L56.5974 348.641C53.7059 346.718 43.6256 344.153 39.062 343.853C36.7852 343.705 33.246 344.006 31.2316 344.5L31.255 344.411L32.7333 338.823C34.5983 331.776 35.9283 323.447 38.8983 300.21ZM56.8223 364.211L57.5853 352.21L55.7701 350.895C52.8786 348.972 43.0766 346.053 38.5131 345.754C36.2375 345.606 32.7382 345.928 30.7233 346.421L30.7193 346.436L25.8473 348.718C20.8663 351.051 17.9323 353.778 11.8613 361.711C9.9683 364.186 7.3933 367.031 6.1413 368.034C4.8893 369.036 3.8643 370.498 3.8643 371.284C3.8643 373.624 8.1423 372.938 14.7233 369.544C18.1013 367.802 21.1353 366.649 21.4673 366.98C22.3433 367.857 18.4223 379.32 12.1953 394.085C6.6803 407.161 6.1333 409.947 8.9743 410.494L10.5613 410.799L15.9633 398.757L21.3643 386.715L23.1813 386.713L24.9993 386.711L24.2983 388.961C23.9133 390.199 21.3473 396.243 18.5973 402.393C15.8483 408.543 13.8683 414.28 14.1993 415.143C15.1963 417.739 18.5633 417.008 19.6403 413.961C22.3063 406.41 30.5103 389.716 31.5553 389.713C34.0923 389.708 33.5493 391.767 27.6483 404.53C24.2923 411.788 21.8413 418.021 22.2013 418.381C22.5613 418.741 24.0163 418.507 25.4343 417.861L28.0133 416.686L33.9873 404.198C37.5783 396.692 40.5393 391.711 41.4123 391.711C43.6943 391.711 43.1843 393.698 38.3643 403.602C35.8893 408.687 33.8643 413.492 33.8643 414.279C33.8643 416.255 36.2403 416.075 38.0653 413.961C41.3303 410.179 50.7783 391.786 53.3463 384.211L56.0593 376.211L56.8223 364.211ZM309.677 262.642C311.452 261.646 313.001 259.365 314.239 255.922C315.271 253.056 316.492 250.71 316.954 250.71C319.05 250.71 327.304 260.883 330.411 267.295C334.16 275.031 335.687 281.228 338.892 301.71C341.366 317.52 343.964 328.444 347.602 338.334L349.319 343L349.409 343.244C347.405 342.789 343.892 342.543 341.637 342.72C337.117 343.075 327.44 346.064 324.6 347.984L322.73 349.248L322.709 349.187L322.204 347.71C319.314 340.245 315.711 334.042 304.497 317.221C300.101 310.627 295.046 301.852 293.264 297.721C289.763 289.608 286.878 277.383 286.84 270.502C286.827 268.141 286.402 264.423 285.895 262.238C285.389 260.054 285.122 258.119 285.302 257.939C285.482 257.758 290.436 259.082 296.31 260.88L306.991 264.149L309.677 262.642ZM356.565 348.585L350.223 345.458C348.219 345.003 344.743 344.736 342.488 344.913C337.968 345.268 328.292 348.257 325.452 350.177L323.5 351.5L325.193 365.211L325.666 376.211L328.246 384.039C330.555 391.048 333.362 396.919 340.853 410.416C342.137 412.729 343.865 414.881 344.693 415.199C348.149 416.525 347.8 413.622 343.423 404.613C340.915 399.454 338.864 394.44 338.864 393.472C338.864 390.94 341.753 391.3 342.791 393.961C346.176 402.636 353.118 415.775 355.021 417.108C360.379 420.861 360.13 418.944 353.296 403.827C348.212 392.584 347.163 387.977 349.892 388.887C350.457 389.075 353.53 395.3 356.721 402.72C362.279 415.644 363.827 417.701 366.628 415.892L367.892 415.075L366.458 412.143C363.091 405.262 356.864 389.328 356.864 387.595C356.864 385.437 358.183 385.126 359.553 386.961C360.394 388.088 363.235 394.374 368.383 406.502C369.581 409.323 370.741 410.689 371.773 410.49C374.593 409.947 374.055 407.066 368.511 393.043C365.504 385.435 362.157 376.364 361.074 372.884L359.104 366.556L360.337 366.083C361.014 365.823 363.773 366.961 366.466 368.612C376.695 374.881 380.604 373.403 373.704 365.876C371.317 363.272 367.911 359.019 366.135 356.426L362.907 351.713L356.565 348.585Z" fill="white" />
<path fill-rule="evenodd" clip-rule="evenodd" d="M221.896 553.274C221.899 553.27 221.902 553.265 221.906 553.261C221.912 553.253 221.917 553.245 221.923 553.237L221.906 553.261L221.896 553.274Z" fill="black" />
</svg>