<svg width="340" height="649" viewBox="0 0 340 649" fill="none" xmlns="http://www.w3.org/2000/svg">
<path fill-rule="evenodd" clip-rule="evenodd" d="M138.423 18.6083C141.932 11.4363 150.098 3.85926 156.671 1.67826C162.815 -0.360741 173.345 -0.57474 179.302 1.21726C185.99 3.23026 192.812 8.3753 196.522 14.2053C200.958 21.1773 202.268 25.6553 202.443 34.4323L202.59 41.8583L204.341 42.4244C207.354 43.3974 208.287 46.4093 207.026 51.0913C205.394 57.1543 201.28 64.8745 198.098 67.8475L195.361 70.4054L194.616 81.3134L193.872 92.2224L195.475 93.3933C196.356 94.0373 203.656 98.3074 211.699 102.882L226.323 111.2L234.957 112.416C252.192 114.842 262.124 121.084 268.115 133.252C272.073 141.294 273.425 150.003 272.595 162.132L271.926 171.91L274.057 175.524C277.514 181.383 279.09 189.414 279.09 201.175V212.075L284.104 217.561C294.175 228.58 297.208 236.311 300.662 259.762C303.179 276.849 303.954 280.148 307.267 287.855C309.159 292.259 311.787 294.652 319.282 298.795C321.313 299.918 324.203 302.448 325.705 304.417C327.207 306.386 330.383 309.336 332.763 310.974C342.105 317.401 335.479 324.155 325.05 318.835C322.872 317.723 321.09 317.227 321.09 317.731C321.09 318.669 324.372 326.749 329.953 339.55C333.743 348.243 333.834 350.124 330.59 352.676C329.215 353.758 328.09 355.056 328.09 355.562C328.09 356.436 319.013 360.855 317.215 360.855C316.745 360.855 315.075 359.844 313.505 358.609C311.632 357.136 309.276 356.362 306.657 356.359L302.664 356.355L297.398 349.355C291.261 341.198 285.617 330.284 284.177 323.79C283.62 321.28 282.94 315.755 282.666 311.514L282.167 303.802L279.149 297.479C277.489 294.001 272.744 286.406 268.605 280.603C260.815 269.681 255.141 259.284 253.19 252.355C252.571 250.155 251.398 243.991 250.584 238.657L249.104 228.959L243.097 216.531C239.793 209.695 237.09 203.597 237.09 202.979C237.09 199.968 235.351 202.535 233.278 208.605C232.011 212.318 228.682 219.948 225.882 225.562L220.79 235.769L220.834 244.062C220.863 249.376 221.456 253.691 222.484 256.073C223.367 258.118 224.09 262.323 224.09 265.419C224.09 268.514 224.726 273.366 225.502 276.201C226.279 279.036 227.906 285.855 229.118 291.355C230.329 296.855 233.273 309.23 235.659 318.855C238.045 328.48 240.798 339.955 241.776 344.355L243.555 352.355L243.546 374.855L243.538 397.355L241.748 405.855C240.764 410.53 238.581 419.303 236.897 425.35L233.836 436.344L234.359 447.85L234.882 459.355L238.027 466.842C247.059 488.343 247.7 502.037 240.975 529.855C235.799 551.269 234.142 559.961 232.934 572.043L231.765 583.731L233.928 589.382C235.117 592.49 236.09 596.305 236.09 597.861C236.09 599.416 236.49 600.838 236.979 601.022C237.468 601.205 239.547 603.38 241.599 605.855C243.651 608.33 249.888 615.226 255.46 621.18C261.031 627.133 266.002 633.061 266.506 634.352L267.422 636.7L265.673 639.369C263.611 642.515 255.956 646.118 247.684 647.836C236.924 650.069 228.758 647.314 218.867 638.112L212.509 632.198L207.647 630.974C204.508 630.183 201.555 628.519 199.314 626.278L195.842 622.807L196.514 618.581C196.883 616.257 198.26 611.998 199.576 609.117C201.243 605.467 201.802 602.855 201.42 600.499C201.118 598.64 201.595 594.628 202.481 591.583C204.547 584.475 204.609 565.606 202.607 553.262C201.172 544.414 200.036 540.419 194.528 524.855L191.874 517.355L191.437 507.855L191.001 498.355L193.895 484.047L196.79 469.739L194.98 463.214C193.986 459.625 192.859 453.936 192.478 450.572C192.098 447.207 190.942 443.024 189.911 441.275C188.879 439.527 186.911 432.979 185.538 426.726C184.165 420.472 182.174 411.98 181.115 407.855C177.231 392.742 173.115 364.905 173.093 353.605C173.092 352.643 172.492 351.855 171.762 351.855H170.434L169.281 364.823C168.006 379.153 165.27 393.601 161.456 406.135C160.081 410.656 158.331 417.28 157.566 420.855C154.805 433.77 153.791 437.418 151.931 441.116C150.891 443.185 149.604 448.31 149.072 452.507C148.54 456.703 147.355 462.51 146.441 465.41L144.78 470.682L145.929 476.019C146.561 478.954 147.74 484.28 148.548 487.855C149.357 491.43 150.316 497.759 150.682 501.919L151.348 509.483L149.728 517.474C148.838 521.87 146.941 528.339 145.514 531.849C141.319 542.173 139.1 554.112 138.421 570.005L137.794 584.654L139.442 589.692C140.348 592.464 141.09 596.931 141.09 599.62C141.09 602.529 142.103 607.003 143.59 610.663C148.36 622.401 146.396 627.259 135.403 630.917L128.739 633.135L122.36 639.069C114.186 646.673 110.569 648.225 101.09 648.197C93.0895 648.172 85.8815 646.199 80.3385 642.516C73.4505 637.938 74.4235 635.108 87.6145 621.355C93.4175 615.305 99.8155 608.217 101.833 605.605C103.85 602.993 105.859 600.855 106.295 600.855C106.732 600.855 107.09 599.491 107.09 597.823C107.09 596.155 107.765 593.175 108.59 591.201C111.615 583.96 109.855 568.118 102.997 540.855C100.299 530.13 97.6164 517.542 97.0354 512.883C95.3174 499.107 97.3614 485.736 103.764 468.855L107.367 459.355L107.851 448.758L108.334 438.161L105.211 426.973C94.6655 389.196 95.8204 363.069 110.732 302.015L116.266 279.355L117.081 267.855C117.529 261.53 118.438 254.88 119.101 253.076C119.797 251.182 120.147 246.663 119.931 242.375L119.556 234.953L114.493 225.154C111.708 219.765 108.384 212.43 107.105 208.855C104.28 200.959 103.502 199.955 102.572 203.004C102.177 204.297 99.1914 210.759 95.9354 217.364L90.0144 229.373L88.5874 238.864C86.1354 255.164 82.3626 263.859 71.2396 278.855C61.9586 291.366 56.0926 302.171 56.0826 306.772C56.0706 312.621 54.1476 322.968 51.9776 328.855C49.5666 335.398 37.7347 353.387 34.4087 355.566C32.9607 356.515 30.9696 356.881 29.1906 356.525L26.3146 355.95L24.5476 357.902C22.5386 360.122 17.1637 360.528 15.2407 358.605C14.5537 357.918 13.5637 357.299 13.0407 357.23L12.9353 357.216L12.8519 357.205C12.3311 357.136 11.6126 357.041 11.1577 356.98C10.6447 356.911 9.97467 356.063 9.66767 355.096C9.35967 354.129 8.09268 352.891 6.84968 352.346L4.59065 351.355L4.26362 347.927L3.93763 344.5L9.41767 332.927C12.4317 326.563 15.1927 320.354 15.5537 319.131L16.2086 316.908L12.6817 318.381C8.41765 320.163 2.93066 320.295 1.29066 318.655C-1.19134 316.173 -0.0503535 313.129 4.34065 310.516C6.67765 309.125 10.5276 305.707 12.8956 302.921C15.2636 300.135 17.6997 297.855 18.3087 297.855C20.5067 297.855 29.2056 291.532 30.5276 288.974C33.3786 283.455 36.2186 272.872 38.6026 258.885C39.9646 250.894 41.5826 242.555 42.1986 240.355C44.1126 233.52 48.8886 225.12 54.8536 218.096L60.5796 211.355L61.2237 198.355C61.9067 184.565 62.6926 180.864 66.1866 175.009L68.3665 171.354L68.1936 159.854C68.0756 152.089 68.5285 146.43 69.5875 142.429C74.1695 125.121 85.9704 115.108 104.644 112.683L112.699 111.638L128.645 102.43L144.59 93.2224L144.233 83.7884C143.863 74.0284 142.431 69.5114 138.923 67.0344C136.739 65.4934 132.851 58.1414 131.072 52.1954C129.545 47.0874 130.414 42.8543 132.991 42.8543H134.851L135.259 33.5483L135.665 24.2423L138.423 18.6083ZM139.882 23.6513C143.477 13.7533 151.591 5.91727 160.422 3.81327C162.164 3.39827 165.871 3.01327 168.658 2.95627C184.06 2.64527 196.184 13.1763 199.199 29.4853C200.198 34.8913 200.089 37.8663 198.454 49.6043C197.719 54.8963 199.537 55.3513 200.76 50.1813C201.238 48.1613 202.25 46.3013 203.009 46.0483L204.389 45.5884L203.857 49.4713C203.565 51.6073 202.235 55.7144 200.903 58.5994L198.48 63.8434L197.317 62.6814L196.156 61.5204L195.501 63.4374C195.14 64.4914 193.277 68.6024 191.364 72.5724C186.109 83.4694 177.112 90.8543 169.09 90.8543C159.663 90.8543 148.699 80.4305 143.575 66.5975L141.814 61.8394L140.592 62.8534L139.369 63.8674L136.73 57.9864C135.279 54.7514 133.809 50.6983 133.465 48.9793L132.84 45.8543H134.366C135.299 45.8543 136.229 47.2813 136.76 49.5273C137.238 51.5473 138.125 53.3664 138.733 53.5684L139.837 53.9364L139.007 49.6454C137.569 42.2084 138.021 28.7733 139.882 23.6513ZM151.413 84.8324C161.552 96.2124 175.019 96.5923 185.642 85.7973L190.59 80.7694L191.09 96.6114L191.59 112.454L193.426 115.25C194.435 116.787 196.57 118.79 198.169 119.7C201.68 121.697 201.901 122.854 198.772 122.854C195.513 122.854 183.292 126.173 178.975 128.231C176.987 129.178 174.418 130.831 173.267 131.904C170.625 134.365 170.473 134.354 167 131.432C163.284 128.305 154.737 125.13 146.005 123.633C142.202 122.981 139.093 122.201 139.096 121.9C139.1 121.6 140.47 120.577 142.139 119.627C143.832 118.663 145.864 116.246 146.736 114.159L148.299 110.418L147.928 96.1364C147.724 88.2814 147.827 81.8543 148.158 81.8543C148.489 81.8543 149.953 83.1944 151.413 84.8324ZM206.462 120.017C195.904 116.367 194.09 113.904 194.09 103.216V96.7074L199.84 99.9264C203.002 101.697 209.545 105.396 214.38 108.147L223.17 113.149L219.051 115.488C216.785 116.775 214.18 118.719 213.261 119.809L211.59 121.789L206.462 120.017ZM126.217 107.683C131.372 104.651 137.165 101.237 139.09 100.095C144.584 96.8374 145.09 97.1414 145.09 103.705C145.09 112.243 143.63 115.537 138.73 118.045C136.454 119.211 133.146 120.493 131.38 120.895L128.171 121.625L126.702 119.384C125.894 118.152 123.346 116.255 121.039 115.169L116.844 113.195L126.217 107.683ZM73.0126 141.84C76.2116 131.048 85.4024 121.71 96.4854 117.989C100.081 116.782 105.299 115.922 109.183 115.897L115.775 115.854L120.183 118.184C125.57 121.033 126.076 122.84 122.137 125.167C118.92 127.067 109.729 138.433 101.131 151.142C95.4064 159.605 93.3855 161.023 81.5905 164.849C77.7405 166.098 74.0546 167.543 73.3996 168.061L72.2086 169.001L71.5166 165.309C70.6756 160.828 71.5776 146.681 73.0126 141.84ZM216.936 123.772C214.39 122.409 215.634 120.298 220.423 117.857L224.59 115.733L233.09 116.148C248.923 116.92 260.049 123.729 265.619 136.054L268.466 142.354L268.9 154.065C269.363 166.566 268.895 169.735 266.828 168.1C266.147 167.561 262.44 166.098 258.59 164.849C248.207 161.481 244.384 159.269 242.619 155.609C238.516 147.098 221.797 126.373 216.936 123.772ZM106.766 147.76C115.887 134.908 120.962 128.903 124.555 126.712L127.59 124.861L134.59 124.875C147.351 124.9 161.319 128.992 166.571 134.244L169.09 136.763V156.612V176.462L165.679 179.767C161.419 183.896 151.477 187.054 141.018 187.6L133.447 187.996L127.056 185.844C118.21 182.864 113.194 179.715 107.21 173.389C97.8825 163.526 97.8274 160.353 106.766 147.76ZM175.074 133.521C178.283 130.821 187.108 127.177 193.59 125.876C195.79 125.434 201.166 125.024 205.536 124.964L213.482 124.854L217.139 127.388C222.257 130.935 238.466 151.676 240.445 157.211C241.78 160.943 239.107 166.764 233.119 173.165C220.691 186.451 206.043 190.564 188.351 185.738C179.03 183.194 175.724 181.598 173.651 178.638L172.09 176.41V156.22V136.032L175.074 133.521ZM84.0614 166.794C87.6854 165.693 91.9454 164.01 93.5274 163.052L96.4055 161.312L99.7475 167.725L103.09 174.139V180.787C103.09 194.697 97.2445 208.643 87.0905 218.958C79.9425 226.219 73.1146 230.329 69.6466 229.458C65.7636 228.484 64.7116 224.421 64.2996 208.805C63.8736 192.668 64.9416 184.613 68.4036 177.855C71.2086 172.379 75.3824 169.43 84.0614 166.794ZM239.59 169.718C241.515 166.919 243.09 164.005 243.09 163.242C243.09 161.446 243.444 161.484 247.91 163.762C249.967 164.812 254.112 166.388 257.12 167.265C265.144 169.605 268.713 172.178 271.462 177.602C275.269 185.116 276.435 193.251 275.86 208.304L275.351 221.653L273.471 225.504C271.073 230.413 268.433 230.828 262.304 227.256C247.585 218.679 236.09 198.23 236.09 180.621V174.806L239.59 169.718ZM117.064 222.355C108.789 206.934 105.248 193.75 106.561 183.243L107.26 177.644L109.925 180.066C111.391 181.399 113.805 183.243 115.29 184.163C119.662 186.87 132.611 190.855 137.04 190.855H141.137L139.363 193.559L137.59 196.264V206.021V215.779L139.27 217.46L140.949 219.142L139.353 221.576L137.759 224.011L138.767 233.975L139.777 243.94L141.866 246.765L143.954 249.591L142.863 250.682C140.076 253.469 142.845 273.691 146.325 275.967C146.903 276.345 146.888 277.927 146.285 280.112C144.973 284.863 146.367 291.969 150.01 299.105C151.624 302.268 152.748 304.855 152.507 304.855C150.812 304.855 133.168 292.781 126.783 287.252L118.976 280.491L119.561 276.923C119.883 274.961 120.298 269.726 120.483 265.291C120.669 260.856 121.305 256.322 121.898 255.214C123.795 251.668 124.348 243.418 123.098 237.275C122.436 234.019 119.721 227.305 117.064 222.355ZM166.008 183.571L168.229 181.207L170.449 178.844L172.836 181.086L175.223 183.329L173.08 185.064L170.936 186.8L168.472 185.186L166.008 183.571ZM206.133 190.508C213.107 189.779 221.067 186.884 227.046 182.902C229.497 181.27 231.71 180.141 231.964 180.395C233.53 181.962 233.868 192.944 232.531 198.855C230.622 207.294 229.886 209.189 223.307 222.597L217.791 233.84L217.311 241.306L216.832 248.771L218.611 254.063C219.589 256.974 220.748 263.18 221.187 267.855C221.625 272.53 222.263 277.481 222.606 278.858L223.229 281.362L215.409 288.107C208.838 293.775 195.497 302.928 191.486 304.519C190.878 304.76 191.778 302.139 193.486 298.694L196.59 292.431L196.671 284.367C196.727 278.743 197.239 275.556 198.366 273.829C199.254 272.469 200.474 267.364 201.078 262.486L202.176 253.617L200.789 251.528L199.402 249.44L201.164 246.397C203.344 242.635 205.385 226.761 204.118 223.429C203.621 222.12 202.737 220.755 202.155 220.395C201.441 219.954 201.583 218.803 202.594 216.848C203.537 215.024 204.09 211.146 204.09 206.356V198.758L202.242 194.933L200.394 191.108L206.133 190.508ZM152.348 188.477C155.781 187.6 159.715 186.712 161.09 186.504C162.465 186.297 163.673 186.066 163.775 185.991C163.877 185.916 165.126 186.298 166.552 186.84L169.145 187.826L168.868 202.091L168.59 216.355L156.59 217.506L144.59 218.658L142.34 217.233L140.09 215.809V206.367V196.925L143.098 193.499L146.106 190.073L152.348 188.477ZM172.09 187.79L174.34 186.886C174.512 186.816 174.672 186.751 174.821 186.69C175.498 186.414 175.973 186.22 176.464 186.12C177.604 185.887 178.845 186.151 182.963 187.027L183.497 187.141L184.234 187.298C192.855 189.125 198.365 191.993 200.033 195.525C200.769 197.081 201.588 201.807 201.854 206.027L202.338 213.698L199.697 216.339C198.123 217.913 196.358 218.778 195.324 218.481C194.371 218.206 189.54 217.693 184.59 217.34C179.64 216.987 174.803 216.478 173.84 216.209L172.09 215.72V201.755V187.79ZM45.2356 241.855C47.2396 235.368 52.0956 226.386 56.1836 221.605C58.4186 218.992 60.6237 216.855 61.0857 216.855C61.5477 216.855 62.4296 219.207 63.0456 222.081C64.3496 228.162 67.3665 231.859 71.0145 231.846C73.7306 231.836 81.3744 227.678 86.8444 223.236L90.0974 220.593L88.5144 224.382C87.6434 226.466 86.0904 233.163 85.0614 239.263C82.2834 255.749 80.5926 259.3 64.0716 283.355C60.6716 288.305 56.7946 294.509 55.4546 297.141L53.0207 301.927L51.4846 300.392C48.7846 297.692 41.7106 294.026 37.8296 293.316C35.7606 292.938 33.8796 292.323 33.6496 291.95C33.4186 291.577 34.4906 287.69 36.0316 283.313C37.5726 278.936 40.0307 268.605 41.4947 260.355C42.9577 252.105 44.6416 243.78 45.2356 241.855ZM276.096 225.47C276.099 224.857 276.6 222.558 277.21 220.361L278.319 216.368L282.954 221.416C291.42 230.636 294.579 239.369 297.991 262.984C299.074 270.481 301.114 280.053 302.525 284.255C303.936 288.458 305.09 292.041 305.09 292.217C305.09 292.393 302.604 293.093 299.565 293.773C296.205 294.525 292.249 296.377 289.467 298.501C286.952 300.421 284.801 301.849 284.688 301.673C284.575 301.498 283.607 299.33 282.537 296.855C281.466 294.38 276.361 286.072 271.191 278.394C258.449 259.465 255.553 252.403 253.595 235.485C253.222 232.257 252.045 227.582 250.98 225.098L249.043 220.58L251.317 222.231C260.389 228.822 264.409 231.088 267.843 231.549L271.771 232.076L273.931 229.33C275.118 227.821 276.093 226.083 276.096 225.47ZM140.7 223.429C141.419 221.557 142.931 221.15 153.59 219.963C157.99 219.472 163.39 219.135 165.59 219.213L169.59 219.355L169.87 232.118L170.15 244.882L167.87 245.734C166.616 246.203 161.011 246.906 155.413 247.296L145.234 248.005L143.699 245.66C142.023 243.102 139.715 225.997 140.7 223.429ZM174.026 245.315C172.972 244.664 172.721 220.558 173.757 219.522L173.788 219.491C173.877 219.402 173.955 219.323 174.042 219.255C174.754 218.69 176.008 218.809 187.569 219.907L188.037 219.952C194.8 220.594 200.16 221.594 200.966 222.363L202.341 223.678L201.618 233.324L200.895 242.971L198.742 245.462L196.59 247.953L185.776 246.923C179.828 246.357 174.54 245.633 174.026 245.315ZM144.947 251.597C145.629 250.914 149.203 250.079 152.889 249.741C156.575 249.403 161.84 249.178 164.59 249.241L169.59 249.355V261.855V274.355L159.677 275.164L149.764 275.973L147.773 273.982L145.783 271.992L144.744 262.415L143.707 252.839L144.947 251.597ZM173.09 262.053C173.09 255.527 173.428 249.838 173.84 249.41C175.137 248.062 196.424 249.807 198.035 251.393L199.477 252.814L198.426 262.51L197.376 272.206L195.126 274.028L192.874 275.85L184.232 275.269C179.479 274.949 175.028 274.514 174.34 274.303L173.09 273.918V262.053ZM155.962 277.781C159.058 277.74 163.615 277.338 166.09 276.888C168.565 276.437 171.538 276.238 172.697 276.445C173.856 276.652 178.806 277.115 183.697 277.474C188.588 277.834 193.203 278.613 193.952 279.207L195.316 280.286L194.694 285.573C193.461 296.066 187.896 305.5 179.361 311.568C173.557 315.694 169.711 315.813 164.49 312.027C155.955 305.837 149.542 295.471 148.428 286.062C147.611 279.152 148.771 277.876 155.962 277.781ZM111.942 311.855C114.67 300.58 117.205 289.893 117.576 288.105C118.367 284.286 118.414 284.274 122.527 286.816L125.7 288.777L127.425 294.248C129.822 301.853 136.923 314.451 145.804 326.855C156.263 341.463 161.195 347.477 163.979 349.019L166.368 350.341L165.768 363.848C165.115 378.555 162.884 390.757 157.671 408.135C155.82 414.306 153.553 423.142 152.634 427.77C149.975 441.154 146.132 446.855 139.767 446.855C135.869 446.855 130.625 441.471 128.994 435.795C128.292 433.353 127.689 428.093 127.654 424.106C127.619 420.12 127.346 416.857 127.047 416.856C126.749 416.856 125.968 418.861 125.313 421.312C124.479 424.429 122.367 427.635 118.286 431.977L112.452 438.184L109.341 428.769C107.631 423.592 105.412 415.53 104.41 410.855L102.59 402.355L102.603 379.355L102.616 356.355L104.799 344.355C105.999 337.755 109.213 323.13 111.942 311.855ZM216.172 293.458C216.871 290.689 218.245 288.617 220.399 287.083L223.59 284.811L224.728 289.083C228.634 303.753 238.248 344.574 239.276 350.855C239.951 354.98 240.512 366.68 240.522 376.855L240.54 395.355L238.776 404.355C236.727 414.808 230.108 436.855 229.019 436.855C227.699 436.855 218.866 426.45 217.559 423.355C216.862 421.705 215.827 419.23 215.259 417.855L214.225 415.355L214.158 423.067C214.002 440.76 203.469 452.761 195.572 444.24C192.932 441.391 189.09 432.105 189.089 428.567C189.089 427.351 187.106 418.48 184.683 408.855C179.937 390.002 177.09 371.294 177.09 358.954V351.236L182.124 346.013C195.572 332.061 213.353 304.615 216.172 293.458ZM165.947 347.427C158.52 343.837 135.549 310.91 130.512 296.635L129.163 292.809L133.376 295.67C135.694 297.244 144.444 302.654 152.819 307.693L168.046 316.855L171.818 316.848L175.59 316.841L191.59 307.057C200.39 301.676 208.901 296.404 210.504 295.341L213.419 293.41L212.715 296.382C210.669 305.019 196.775 326.661 184.171 340.843L178.041 347.74L173.672 348.395L169.303 349.05L165.947 347.427ZM13.7756 306.598C15.9356 304.265 20.3776 300.653 23.6466 298.573L29.5906 294.79L34.6226 295.228C39.6306 295.663 45.5517 298.375 49.8407 302.198L52.0907 304.204L52.0786 310.779C52.0726 314.396 51.4376 319.719 50.6676 322.609C48.0046 332.615 34.6366 353.855 31.0026 353.855C29.9516 353.855 29.0906 353.477 29.0906 353.015C29.0906 352.552 31.3496 348.416 34.1096 343.823C36.8706 339.229 38.9966 335.074 38.8346 334.588C38.0556 332.251 36.3176 334.143 30.6926 343.452C27.3366 349.005 23.9726 354.292 23.2186 355.202C21.7696 356.946 18.0906 357.486 18.0906 355.954C18.0906 355.459 20.7906 350.348 24.0906 344.597C29.8906 334.488 31.3946 330.254 28.8886 331.089C28.2276 331.309 24.8726 336.628 21.4326 342.908C17.9936 349.187 14.7096 354.482 14.1356 354.673C11.3426 355.604 12.4647 351.076 17.5267 340.983C20.5867 334.881 23.0906 329.656 23.0906 329.372C23.0906 329.087 22.4127 328.855 21.5847 328.855C20.6707 328.855 18.0266 332.981 14.8566 339.355C10.1696 348.779 7.30667 352.138 6.97267 348.605C6.73967 346.149 7.21468 344.834 12.0137 334.66C14.6877 328.992 17.6997 322.006 18.7067 319.135L20.5386 313.916L23.2456 313.321C25.9476 312.727 28.8166 310.248 27.8816 309.313C27.6106 309.041 26.0836 309.5 24.4896 310.331C22.8946 311.162 21.0726 311.845 20.4396 311.849C19.8066 311.852 16.8816 312.976 13.9396 314.345C8.56765 316.846 3.09065 317.65 3.09065 315.937C3.09065 315.431 4.61067 314.078 6.46967 312.93C8.32767 311.781 11.6156 308.932 13.7756 306.598ZM289.832 301.238C291.891 299.668 295.828 297.604 298.582 296.652C301.337 295.7 304.265 294.913 305.09 294.904C307.946 294.874 320.611 303.377 325.445 308.571C328.115 311.44 331.153 314.058 332.195 314.388C333.237 314.719 334.09 315.634 334.09 316.422C334.09 318.745 329.755 318.098 323.59 314.855C320.453 313.205 317.37 311.852 316.738 311.849C316.107 311.845 314.322 311.181 312.771 310.372L309.952 308.902L310.273 310.629C310.45 311.578 312.064 312.788 313.861 313.317L317.127 314.279L318.203 318.317C318.794 320.538 321.742 328.138 324.753 335.205C329.879 347.239 330.651 350.855 328.093 350.855C327.51 350.855 324.728 345.905 321.912 339.855C319.096 333.805 316.184 328.855 315.441 328.855C313.384 328.855 313.668 329.759 319.581 341.993C322.601 348.242 325.076 353.692 325.081 354.105C325.086 354.518 324.302 354.851 323.34 354.847C321.559 354.838 320.363 352.975 312.922 338.602C309.261 331.532 307.09 329.614 307.09 333.451C307.09 334.263 309.802 339.715 313.117 345.565C317.147 352.678 318.811 356.534 318.14 357.205C316.495 358.85 313.323 355.166 306.86 344.105C303.567 338.468 300.497 333.855 300.04 333.855C297.86 333.855 298.561 336.179 303.082 343.938C307.701 351.868 308.244 354.895 304.808 353.577C303.365 353.023 293.838 339.135 290.576 332.83C287.668 327.208 286.115 319.881 286.102 311.724L286.09 304.092L289.832 301.238ZM119.087 433.283C122.385 429.473 125.138 425.905 125.204 425.355C125.271 424.805 125.699 426.592 126.156 429.327C127.458 437.112 129.921 442.499 133.691 445.808C135.599 447.484 137.595 448.855 138.126 448.855C139.825 448.855 139.16 457.596 137.027 463.295C135.893 466.328 133.806 469.72 132.392 470.832C129.536 473.079 124.416 473.446 122.053 471.573C116.827 467.43 113.09 457.123 113.09 446.852V440.211L119.087 433.283ZM204.269 447.977C209.852 445.854 214.053 438.742 215.732 428.572L216.356 424.79L217.895 427.072C218.742 428.328 221.345 431.434 223.681 433.976L227.929 438.597L228.591 443.016C229.896 451.713 225.731 466.063 220.737 470.083C219.553 471.035 216.863 471.821 214.741 471.833L210.892 471.855L208.178 468.949C205.286 465.853 203.48 460.981 202.456 453.51L201.825 448.906L204.269 447.977ZM141.28 449.396C141.45 449.261 142.49 448.661 143.59 448.064L145.59 446.977L145.905 449.94C146.434 454.913 142.585 467.716 136.707 480.536C130.266 494.583 127.597 503.608 126.051 516.566L124.952 525.776L126.072 539.566C127.517 557.355 128.623 564.066 132.181 576.626C133.781 582.275 135.09 587.15 135.09 587.459C135.09 587.769 133.895 587.151 132.434 586.087L129.778 584.152L126.96 573.254C120.036 546.473 117.093 525.412 117.082 502.554C117.074 483.797 115.977 475.531 112.478 467.855L109.971 462.355L110.687 457.355L111.402 452.355L112.602 456.855C114.395 463.576 116.526 468.037 119.41 471.105L121.995 473.855H126.32C128.699 473.855 131.652 473.15 132.882 472.289C136.206 469.96 138.967 463.78 140.027 456.293C140.546 452.635 141.109 449.532 141.28 449.396ZM204.487 477.955C198.751 465.847 197.298 461.515 196.145 453.105L195.426 447.855L197.007 447.87C199.943 447.899 200.817 449.332 201.555 455.328C203.306 469.556 211.258 476.922 219.991 472.406C223.711 470.483 226.01 466.786 228.635 458.507L230.806 451.657L231.467 456.637L232.127 461.617L229.639 466.571C228.27 469.295 226.423 474.187 225.533 477.44L223.915 483.355L223.065 509.855C222.193 537.051 220.962 547.866 216.52 567.355C215.141 573.405 213.757 579.555 213.443 581.022C213.13 582.488 211.572 584.935 209.982 586.459C206.914 589.398 206.407 588.757 208.175 584.17C212.201 573.727 216.09 546.302 216.09 528.352C216.09 508.258 213.487 496.951 204.487 477.955ZM225.076 506.355C225.894 481.195 226.718 475.337 230.46 468.105C231.385 466.317 232.537 464.855 233.021 464.855C234.34 464.855 239.846 480.789 241.185 488.482C243.145 499.732 241.841 512.985 236.628 534.818C231.681 555.537 229.138 570.812 229.108 579.988L229.09 585.621L224.872 584.168C222.374 583.307 219.279 582.972 217.285 583.346L213.916 583.978L214.478 582.167C214.787 581.17 216.143 575.63 217.493 569.855C222.169 549.843 224.221 532.66 225.076 506.355ZM101.482 487.855C102.346 483.73 104.291 477.09 105.805 473.099C107.318 469.109 109.014 465.986 109.573 466.161C110.132 466.335 111.637 469.585 112.917 473.383L115.244 480.289L115.181 494.746C115.101 513.113 116.544 529.736 119.702 546.855C121.872 558.615 125.934 576.552 127.708 582.206L128.29 584.058L125.44 583.443C122.834 582.881 119.417 583.498 114.84 585.358L113.09 586.069L113.084 580.212C113.075 571.102 110.574 556.987 105.492 537.355L100.832 519.355L100.371 507.355L99.9115 495.355L101.482 487.855ZM194.837 497.596C195.446 493.063 196.688 486.092 197.598 482.105C198.507 478.118 199.46 474.855 199.716 474.855C200.496 474.855 207.752 490.97 209.851 497.364C213.559 508.66 214.414 516.642 213.774 534.009C213.221 549.031 210.679 567.632 208.339 573.782L207.415 576.209L206.802 564.782C206.099 551.677 203.555 539.664 199.153 528.672C197.468 524.463 195.559 517.603 194.91 513.428L193.728 505.836L194.837 497.596ZM128.043 516.939C129.562 505.326 131.957 497.203 137.418 485.136C139.713 480.066 141.827 475.903 142.116 475.886C142.886 475.841 146.034 490.112 147.254 499.178L148.309 507.021L147.204 514.448C146.596 518.532 144.555 525.83 142.665 530.665C138.745 540.698 136.323 552.398 135.236 566.557L134.483 576.355L133.225 572.017C131.233 565.151 129.291 552.956 127.995 539.172L126.798 526.445L128.043 516.939ZM110.09 597.278C110.09 592.549 113.982 587.235 118.376 585.964C120.144 585.453 122.392 584.995 123.372 584.945C126.532 584.785 131.611 587.497 134.434 590.851L137.182 594.118L137.014 599.236L136.845 604.355L139.967 610.855C141.684 614.43 143.09 618.514 143.09 619.931C143.091 623.451 139.485 626.548 133.221 628.409L127.977 629.966L120.963 636.403L113.948 642.84L108.383 644.458C101.995 646.315 95.6534 645.821 87.8554 642.858C82.2514 640.728 79.0905 638.274 79.0905 636.051C79.0905 635.229 83.7164 629.786 89.3704 623.956C95.0244 618.125 101.999 610.578 104.87 607.184L110.09 601.013V597.278ZM207.14 591.784C208.379 590.045 211.237 587.784 213.491 586.76C218.588 584.445 221.315 584.393 225.807 586.525C230.063 588.545 233.081 593.172 233.086 597.686L233.09 601.017L241.998 611.186C246.897 616.779 253.872 624.267 257.498 627.826C261.123 631.385 264.09 635.104 264.09 636.091C264.09 640.056 251.067 645.228 241.09 645.224C233.122 645.221 229.785 643.62 221.33 635.74L215.07 629.905L209.616 628.32C206.617 627.448 203.155 625.919 201.924 624.922L199.686 623.11L199.792 619.4C199.849 617.359 201.228 612.915 202.856 609.522L205.815 603.355L205.352 599.151L204.889 594.947L207.14 591.784Z" fill="white" />
</svg>